<svg id="Layer_1" data-name="Layer 1" xmlns="http://www.w3.org/2000/svg" width="4cm" height="4cm" viewBox="0 0 113.38583 113.38583">
  <defs>
    <style>
      .cls-1 {
        fill: none;
        stroke: #231f20;
        stroke-miterlimit: 10;
      }
    </style>
  </defs>
  <title>ms_neon_v1</title>
  <path class="cls-1" d="M28.34646,113.38583a85.03937,85.03937,0,0,1,85.03937-85.03937"/>
  <path class="cls-1" d="M17.00787,113.38583a96.378,96.378,0,0,1,96.378-96.378"/>
  <path class="cls-1" d="M5.66929,113.38583A107.71654,107.71654,0,0,1,113.38583,5.66929"/>
  <path class="cls-1" d="M107.71653,113.38583a5.6693,5.6693,0,0,1,5.6693-5.6693"/>
  <path class="cls-1" d="M39.685,113.38583A73.70079,73.70079,0,0,1,113.38583,39.685"/>
  <path class="cls-1" d="M51.02362,113.38583a62.36221,62.36221,0,0,1,62.36221-62.36221"/>
  <path class="cls-1" d="M62.3622,113.38583A51.02363,51.02363,0,0,1,113.38583,62.3622"/>
  <path class="cls-1" d="M73.70079,113.38583a39.685,39.685,0,0,1,39.685-39.685"/>
  <path class="cls-1" d="M96.378,113.38583A17.00788,17.00788,0,0,1,113.38583,96.378"/>
  <path class="cls-1" d="M85.03937,113.38583a28.34646,28.34646,0,0,1,28.34646-28.34646"/>
  <line class="cls-1" y1="5.66929" x2="113.38583" y2="5.66929"/>
  <line class="cls-1" y1="17.00787" x2="65.19685" y2="17.00787"/>
  <line class="cls-1" y1="28.34646" x2="47.26351" y2="28.34646"/>
  <line class="cls-1" y1="39.68504" x2="34.83015" y2="39.68504"/>
  <line class="cls-1" y1="51.02362" x2="25.5478" y2="51.02362"/>
  <line class="cls-1" y1="62.3622" x2="18.49728" y2="62.3622"/>
  <line class="cls-1" y1="73.70079" x2="13.21571" y2="73.70079"/>
  <line class="cls-1" y1="85.03937" x2="9.43849" y2="85.03937"/>
  <line class="cls-1" y1="96.37795" x2="7.00487" y2="96.37795"/>
  <line class="cls-1" y1="107.71653" x2="5.66929" y2="107.71653"/>
</svg>
