<svg xmlns="http://www.w3.org/2000/svg" id="Layer_1" width="4cm" height="4cm" data-name="Layer 1" viewBox="0 0 113.386 113.386"><defs><style>.cls-1{fill:none;stroke:#231f20;stroke-miterlimit:10}</style></defs><title>ms_neon_v1</title><path d="M107.71653,113.38583a5.6693,5.6693,0,0,1,5.6693-5.6693" class="cls-1"/><path d="M113.38583,5.66928q-2.93307,0-5.82745.15814" class="cls-1"/><path d="M106.33261,17.2659q3.49421-.25278,7.05322-.25806" class="cls-1"/><path d="M113.38583,28.34646a85.8445,85.8445,0,0,0-9.59631.55359" class="cls-1"/><path d="M99.63693,40.98514a74.02763,74.02763,0,0,1,13.7489-1.30011" class="cls-1"/><path d="M113.38583,51.02359a62.23784,62.23784,0,0,0-20.44519,3.44678" class="cls-1"/><path d="M62.36221,113.38583a51.02363,51.02363,0,0,1,51.02362-51.02362" class="cls-1"/><path d="M54.47043,92.94058a62.2382,62.2382,0,0,0-3.44678,20.44525" class="cls-1"/><path d="M39.685,113.38583a74.02763,74.02763,0,0,1,1.30011-13.7489" class="cls-1"/><path d="M28.90005,103.78952a85.8445,85.8445,0,0,0-.55359,9.59631" class="cls-1"/><path d="M17.0079,113.38583q0-3.55864.25806-7.05322" class="cls-1"/><path d="M5.82742,107.55838q-.15435,2.89462-.15814,5.82745" class="cls-1"/><path d="M73.70079,113.38583a39.685,39.685,0,0,1,39.685-39.685" class="cls-1"/><path d="M96.378,113.38583A17.00788,17.00788,0,0,1,113.38583,96.378" class="cls-1"/><path d="M85.03937,113.38583a28.34646,28.34646,0,0,1,28.34646-28.34646" class="cls-1"/><path d="M85.03937,0A85.03937,85.03937,0,0,1,0,85.03937" class="cls-1"/><path d="M96.378,0A96.378,96.378,0,0,1,0,96.378" class="cls-1"/><path d="M107.71653,0A107.71653,107.71653,0,0,1,0,107.71653" class="cls-1"/><path d="M5.66929,0A5.66929,5.66929,0,0,1,0,5.66929" class="cls-1"/><path d="M73.70079,0A73.70079,73.70079,0,0,1,0,73.70079" class="cls-1"/><path d="M62.3622,0A62.3622,62.3622,0,0,1,0,62.3622" class="cls-1"/><path d="M51.02362,0A51.02362,51.02362,0,0,1,0,51.02362" class="cls-1"/><path d="M39.685,0A39.685,39.685,0,0,1,0,39.685" class="cls-1"/><path d="M17.00789,0A17.00788,17.00788,0,0,1,0,17.00789" class="cls-1"/><path d="M28.34646,0A28.34646,28.34646,0,0,1,0,28.34646" class="cls-1"/></svg>