<svg xmlns="http://www.w3.org/2000/svg" xmlns:ev="http://www.w3.org/2001/xml-events" xmlns:xlink="http://www.w3.org/1999/xlink" width="10.5cm" height="14.8cm" baseProfile="tiny" version="1.2" viewBox="0 0 396.85 559.37"><metadata/><g id="layer1" fill="none" stroke="#00f" style="display:inline"><polyline points="202.549 278.503 201.939 280.178 203.545 279.981 202.186 280.37 201.764 279.918 203.577 279.073 201.988 278.764 201.678 279.618 202.861 278.514 202.792 280.488 203.155 278.621"/><polyline points="202.926 278.37 202.08 279.803 203.234 280.232 202.416 280.043 201.607 280.286 203.543 278.675 202.062 278.371 201.67 280.017 203.185 278.749 202.398 280.42 203.402 278.936"/><polyline points="203.649 279.251 202.004 280.351 203.509 278.984 201.662 280.417 202.135 277.978 203.509 278.276 201.451 280.654 202.646 279.716 202.923 280.484 202.221 279.429 203.303 278.236"/><polyline points="203.68 278.103 202.363 279.055 202.612 280.735 202.876 279.389 201.294 281.022 203.475 277.877 202.208 277.585 201.654 280.817 203.832 279.219 201.61 280.283 203.895 279.566"/><polyline points="204.142 279.881 201.216 280.214 204.156 279.454 201.647 281.217 202.281 277.191 203.441 277.479 201.137 281.39 203.106 279.061 202.301 280.987 202.504 278.681 204.057 277.969"/><polyline points="204.434 277.836 202.645 278.306 201.99 281.238 203.336 278.734 200.98 281.758 203.407 277.08 202.355 276.798 201.639 281.617 204.48 279.689 200.822 280.146 204.388 280.196"/><polyline points="204.635 280.511 200.428 280.077 204.804 279.924 201.631 282.017 202.428 276.405 203.373 276.682 200.823 282.126 203.566 278.407 201.679 281.49 202.786 277.932 204.811 277.702"/><polyline points="205.188 277.569 202.927 277.558 201.368 281.741 203.796 278.08 200.666 282.494 203.339 276.283 202.501 276.012 201.623 282.417 205.127 280.159 200.034 280.009 204.882 280.826"/><polyline points="205.128 281.14 199.64 279.94 205.451 280.394 201.615 282.817 202.574 275.618 203.306 275.885 200.51 282.862 204.026 277.752 201.057 281.993 203.068 277.184 205.565 277.435"/><polyline points="205.942 277.302 203.209 276.809 200.746 282.244 204.256 277.425 200.353 283.23 203.272 275.486 202.647 275.225 201.607 283.217 205.775 280.629 199.245 279.872 205.375 281.455"/><polyline points="205.621 281.77 198.851 279.803 206.098 280.864 201.599 283.617 202.721 274.832 203.238 275.087 200.196 283.598 204.486 277.098 200.435 282.496 203.351 276.435 206.319 277.168"/><polyline points="206.696 277.035 203.492 276.061 200.124 282.747 204.716 276.771 200.039 283.966 203.204 274.689 202.794 274.439 201.592 284.017 206.422 281.099 198.457 279.735 205.868 282.085"/><polyline points="206.115 282.4 198.063 279.666 206.746 281.334 201.584 284.417 202.867 274.046 203.17 274.29 199.882 284.334 204.946 276.443 199.813 282.999 203.633 275.687 207.073 276.901"/><polyline points="207.451 276.768 203.774 275.312 199.502 283.25 205.176 276.116 199.726 284.702 203.136 273.892 202.94 273.652 201.576 284.817 207.07 281.569 197.669 279.598 206.361 282.715"/><polyline points="206.608 283.03 197.275 279.529 207.393 281.804 201.568 285.216 203.013 273.259 199.569 285.07 205.406 275.789 199.191 283.502 203.915 274.938 207.828 276.635"/><polyline points="208.205 276.501 204.056 274.564 198.88 283.753 205.636 275.462 199.412 285.438 203.087 272.866 201.56 285.616 207.717 282.039 196.881 279.461 206.855 283.345"/><polyline points="207.101 283.66 196.487 279.392 208.041 282.274 201.552 286.016 203.16 272.473 199.255 285.806 205.866 275.134 198.569 284.005 204.197 274.189 208.582 276.368"/><polyline points="208.959 276.234 204.339 273.815 198.258 284.257 206.096 274.807 199.098 286.174 203.001 272.298 203.233 272.079 201.544 286.416 208.364 282.509 196.093 279.324 207.348 283.975"/><polyline points="207.594 284.29 195.699 279.255 208.688 282.744 201.537 286.816 203.306 271.686 202.967 271.899 198.941 286.542 206.326 274.48 197.947 284.508 204.48 273.441 209.336 276.101"/><polyline points="209.713 275.967 204.621 273.067 197.636 284.76 206.556 274.152 198.785 286.91 202.933 271.5 203.38 271.293 201.529 287.216 209.012 282.978 195.305 279.187 207.841 284.605"/><polyline points="208.088 284.92 194.911 279.118 209.335 283.214 201.521 287.616 203.453 270.899 202.899 271.102 198.628 287.278 206.786 273.825 197.325 285.011 204.762 272.692 210.09 275.834"/><polyline points="210.467 275.7 204.903 272.318 197.014 285.263 207.016 273.498 198.471 287.646 202.865 270.703 203.526 270.506 201.513 288.016 209.659 283.449 194.516 279.05 208.334 285.235"/><polyline points="208.581 285.55 194.122 278.981 209.983 283.683 201.505 288.416 203.599 270.113 202.831 270.305 198.314 288.014 207.246 273.171 196.703 285.514 205.044 271.944 210.844 275.567"/><polyline points="211.221 275.433 205.185 271.57 196.392 285.766 207.476 272.844 198.157 288.382 202.797 269.906 203.672 269.72 201.497 288.816 210.307 283.918 193.728 278.913 208.827 285.864"/><polyline points="209.074 286.179 193.334 278.844 210.63 284.153 201.49 289.216 203.745 269.327 202.763 269.508 198 288.75 207.706 272.516 196.081 286.017 205.327 271.195 211.598 275.3"/><polyline points="211.975 275.166 205.468 270.821 195.77 286.269 207.936 272.189 197.844 289.118 202.729 269.109 203.819 268.933 201.482 289.616 210.954 284.388 192.94 278.776 209.321 286.494"/><polyline points="209.567 286.809 192.546 278.707 211.278 284.623 201.474 290.016 203.892 268.54 202.696 268.711 197.687 289.486 208.166 271.862 195.459 286.52 205.609 270.447 212.352 275.033"/><polyline points="212.73 274.899 205.75 270.072 195.148 286.772 208.396 271.534 197.53 289.854 202.662 268.312 203.965 268.147 201.466 290.416 211.601 284.858 192.152 278.639 209.814 287.124"/><polyline points="210.061 287.439 191.758 278.57 211.925 285.093 201.458 290.815 204.038 267.754 202.628 267.913 197.373 290.222 208.626 271.207 194.837 287.023 205.891 269.698 213.107 274.766"/><polyline points="213.484 274.632 206.032 269.324 194.525 287.275 208.856 270.88 197.216 290.59 202.594 267.515 204.112 267.36 201.45 291.215 212.249 285.328 191.364 278.501 210.307 287.754"/><polyline points="210.554 288.069 190.97 278.433 212.573 285.563 201.442 291.615 204.185 266.967 202.56 267.116 197.06 290.958 209.086 270.553 194.214 287.526 206.173 268.95 213.861 274.499"/><polyline points="214.238 274.365 206.315 268.575 193.904 287.778 209.316 270.226 196.903 291.326 202.526 266.718 204.258 266.574 201.435 292.015 212.896 285.798 190.576 278.364 210.8 288.384"/><polyline points="211.047 288.699 190.181 278.296 213.22 286.033 201.427 292.415 204.331 266.181 202.492 266.319 196.746 291.694 209.546 269.898 193.593 288.029 206.456 268.201 214.615 274.232"/><polyline points="214.992 274.099 206.597 267.827 193.281 288.281 209.776 269.571 196.589 292.062 202.458 265.921 204.405 265.787 201.419 292.815 213.544 286.268 189.787 278.227 211.294 289.014"/><polyline points="211.54 289.329 189.393 278.159 213.867 286.503 201.411 293.215 204.478 265.394 202.424 265.522 196.432 292.43 210.006 269.244 192.97 288.533 206.738 267.452 215.369 273.965"/><polyline points="215.746 273.832 206.879 267.078 192.659 288.784 210.236 268.916 196.275 292.798 202.391 265.123 204.551 265.001 201.403 293.615 214.191 286.738 188.999 278.09 211.787 289.644"/><polyline points="212.034 289.959 188.605 278.022 214.515 286.973 201.395 294.015 204.624 264.608 202.357 264.725 196.119 293.166 210.466 268.589 192.348 289.036 207.02 266.704 216.123 273.698"/><polyline points="216.5 273.565 207.161 266.33 192.037 289.287 210.696 268.262 195.962 293.534 202.323 264.326 204.697 264.214 201.388 294.415 214.839 287.208 188.211 277.953 212.28 290.273"/><polyline points="212.527 290.588 187.817 277.885 215.162 287.443 201.38 294.815 204.77 263.821 202.289 263.928 195.805 293.901 210.926 267.935 191.726 289.539 207.303 265.955 216.877 273.431"/><polyline points="217.254 273.298 207.444 265.581 191.415 289.79 211.156 267.608 195.648 294.269 202.255 263.529 204.844 263.428 201.372 295.215 215.486 287.678 187.423 277.816 212.773 290.903"/><polyline points="213.02 291.218 187.029 277.748 215.81 287.913 201.364 295.615 204.917 263.035 202.221 263.131 195.491 294.637 211.386 267.28 191.104 290.042 207.585 265.207 217.631 273.164"/><polyline points="218.009 273.031 207.726 264.833 190.793 290.293 211.616 266.953 195.334 295.005 202.187 262.732 204.99 262.641 201.356 296.014 216.133 288.148 186.635 277.679 213.267 291.533"/><polyline points="213.513 291.848 186.241 277.611 216.457 288.383 201.348 296.414 205.063 262.248 202.153 262.334 195.178 295.373 211.846 266.626 190.482 290.545 207.867 264.458 218.386 272.897"/><polyline points="218.763 272.764 208.008 264.084 190.171 290.796 212.076 266.298 195.021 295.741 202.119 261.935 205.137 261.855 201.34 296.814 216.781 288.618 185.846 277.542 213.76 292.163"/><polyline points="214.006 292.478 185.452 277.474 217.105 288.853 201.333 297.214 205.21 261.462 202.085 261.536 194.864 296.109 212.306 265.971 189.86 291.048 208.149 263.71 219.14 272.63"/><polyline points="219.517 272.497 208.291 263.336 189.549 291.299 212.536 265.644 194.707 296.477 202.052 261.138 205.283 261.068 201.325 297.614 217.428 289.088 185.058 277.405 214.253 292.793"/><polyline points="214.5 293.108 184.664 277.337 217.752 289.323 201.317 298.014 205.356 260.675 202.018 260.739 194.55 296.845 212.766 265.317 189.238 291.551 208.432 262.961 219.894 272.363"/><polyline points="220.271 272.23 208.573 262.587 188.927 291.803 212.996 264.99 194.394 297.213 201.984 260.341 205.429 260.282 201.309 298.414 218.076 289.558 184.27 277.268 214.746 293.423"/><polyline points="214.993 293.738 183.876 277.2 218.399 289.793 201.301 298.814 205.503 259.889 201.95 259.942 194.237 297.581 213.226 264.662 188.616 292.054 208.714 262.213 220.648 272.096"/><polyline points="221.025 271.963 208.855 261.838 188.305 292.305 213.456 264.335 194.08 297.949 201.916 259.544 205.576 259.495 201.293 299.214 218.723 290.028 183.482 277.131 215.24 294.053"/><polyline points="215.486 294.368 183.088 277.063 219.047 290.263 201.286 299.614 205.649 259.102 201.882 259.145 193.923 298.317 213.686 264.008 187.994 292.557 208.996 261.464 221.402 271.829"/><polyline points="221.779 271.696 209.137 261.09 187.683 292.809 213.916 263.68 193.766 298.685 201.848 258.747 205.722 258.709 201.278 300.014 219.37 290.498 182.694 276.994 215.733 294.682"/><polyline points="215.979 294.997 182.3 276.926 219.694 290.733 201.27 300.414 205.796 258.316 201.814 258.348 193.609 299.053 214.146 263.353 187.372 293.06 209.279 260.716 222.156 271.563"/><polyline points="222.534 271.429 209.42 260.341 187.061 293.312 214.376 263.026 193.453 299.421 201.78 257.949 205.869 257.923 201.262 300.813 220.018 290.967 181.906 276.857 216.226 295.312"/><polyline points="216.473 295.627 181.512 276.789 220.342 291.202 201.254 301.213 205.942 257.529 201.747 257.551 193.296 299.789 214.606 262.699 186.75 293.563 209.561 259.967 222.911 271.296"/><polyline points="223.288 271.162 209.702 259.593 186.439 293.815 214.836 262.371 193.139 300.157 201.713 257.152 206.015 257.136 201.246 301.613 220.665 291.437 181.117 276.72 216.719 295.942"/><polyline points="216.966 296.257 180.723 276.652 220.989 291.672 201.238 302.013 206.088 256.743 201.679 256.754 192.982 300.525 215.066 262.044 186.128 294.066 209.843 259.219 223.665 271.029"/><polyline points="224.042 270.895 209.984 258.844 185.817 294.318 215.296 261.717 192.825 300.893 201.645 256.355 206.162 256.349 201.231 302.413 221.313 291.907 180.329 276.583 217.213 296.572"/><polyline points="217.459 296.887 179.935 276.515 221.637 292.142 201.223 302.813 206.235 255.956 201.611 255.957 192.669 301.261 215.526 261.39 185.506 294.569 210.125 258.47 224.419 270.762"/><polyline points="224.796 270.628 210.266 258.096 185.195 294.821 215.756 261.062 192.512 301.629 201.577 255.558 206.308 255.563 201.215 303.213 221.96 292.377 179.541 276.446 217.706 297.202"/><polyline points="217.952 297.517 179.147 276.378 222.284 292.612 201.207 303.613 206.381 255.17 201.543 255.159 192.355 301.997 215.986 260.735 184.884 295.072 210.408 257.721 225.173 270.495"/><polyline points="225.55 270.361 210.549 257.347 184.573 295.324 216.216 260.408 192.198 302.365 201.509 254.761 206.454 254.777 201.199 304.013 222.608 292.847 178.753 276.309 218.199 297.832"/><polyline points="218.446 298.147 178.359 276.241 222.931 293.082 201.191 304.413 206.528 254.383 201.475 254.362 192.041 302.733 216.446 260.081 184.262 295.575 210.69 256.973 225.927 270.228"/><polyline points="226.304 270.094 210.831 256.599 183.951 295.827 216.676 259.753 191.885 303.101 201.441 253.964 206.601 253.99 201.184 304.813 223.255 293.317 177.965 276.172 218.692 298.462"/><polyline points="218.939 298.776 177.571 276.103 223.579 293.552 201.176 305.213 206.674 253.597 201.408 253.565 191.728 303.469 216.906 259.426 183.64 296.079 210.972 256.224 226.681 269.961"/><polyline points="227.058 269.827 211.113 255.85 183.329 296.33 217.136 259.099 191.571 303.837 201.374 253.167 206.747 253.204 201.168 305.613 223.903 293.787 177.177 276.035 219.185 299.091"/><polyline points="219.432 299.406 176.782 275.966 224.226 294.022 201.16 306.012 206.821 252.81 201.34 252.768 191.414 304.205 217.366 258.772 183.018 296.582 211.254 255.476 227.435 269.694"/><polyline points="227.813 269.56 211.396 255.102 182.707 296.833 217.596 258.444 191.257 304.573 201.306 252.369 206.894 252.417 201.152 306.412 224.55 294.257 176.388 275.898 219.679 299.721"/><polyline points="219.925 300.036 175.994 275.829 224.874 294.492 201.144 306.812 206.967 252.024 201.272 251.971 191.1 304.941 217.826 258.117 182.396 297.085 211.537 254.727 228.19 269.427"/><polyline points="228.567 269.293 211.678 254.353 182.085 297.336 218.056 257.79 190.944 305.309 201.238 251.572 207.04 251.631 201.137 307.212 225.197 294.727 175.6 275.761 220.172 300.351"/><polyline points="220.419 300.666 175.206 275.692 225.521 294.962 201.129 307.612 207.113 251.237 201.204 251.174 190.787 305.677 218.286 257.463 181.774 297.588 211.819 253.979 228.944 269.16"/><polyline points="229.321 269.027 211.96 253.605 181.463 297.839 218.517 257.135 190.63 306.045 201.17 250.775 207.187 250.844 201.121 308.012 225.845 295.197 174.812 275.624 220.665 300.981"/><polyline points="220.912 301.296 174.418 275.555 226.168 295.432 201.113 308.412 207.26 250.451 201.137 250.377 190.473 306.413 218.746 256.808 181.152 298.091 212.101 253.23 229.698 268.893"/><polyline points="230.075 268.76 212.242 252.856 180.841 298.342 218.976 256.481 190.316 306.781 201.103 249.978 207.333 250.058 201.105 308.812 226.492 295.667 174.024 275.487 221.158 301.611"/><polyline points="221.405 301.926 173.63 275.418 226.816 295.902 201.097 309.212 207.406 249.664 201.069 249.58 190.16 307.149 219.207 256.154 180.53 298.594 212.384 252.482 230.452 268.626"/><polyline points="230.829 268.493 212.525 252.107 180.219 298.845 219.436 255.826 190.003 307.517 201.035 249.181 207.479 249.271 201.089 309.612 227.14 296.137 173.236 275.35 221.652 302.241"/><polyline points="221.898 302.556 172.841 275.281 227.463 296.372 201.082 310.012 207.553 248.878 201.001 248.782 189.846 307.885 219.667 255.499 179.908 299.097 212.666 251.733 231.206 268.359"/><polyline points="231.583 268.226 212.807 251.359 179.597 299.348 219.897 255.172 189.689 308.253 200.967 248.384 207.626 248.485 201.074 310.412 227.787 296.607 172.447 275.213 222.145 302.87"/><polyline points="222.392 303.185 172.053 275.144 228.111 296.842 201.066 310.812 207.699 248.091 200.933 247.985 189.532 308.621 220.126 254.845 179.286 299.6 212.948 250.985 231.96 268.092"/><polyline points="232.337 267.959 213.089 250.61 178.975 299.851 220.357 254.517 189.375 308.989 200.899 247.587 207.772 247.698 201.058 311.212 228.435 297.077 171.659 275.076 222.638 303.5"/><polyline points="222.885 303.815 171.265 275.007 228.758 297.312 201.05 311.611 207.845 247.305 200.865 247.188 189.219 309.357 220.587 254.19 178.664 300.103 213.23 250.236 232.714 267.825"/><polyline points="233.092 267.692 213.372 249.862 178.353 300.354 220.817 253.863 189.062 309.724 200.832 246.79 207.919 246.912 201.042 312.011 229.082 297.547 170.871 274.939 223.131 304.13"/><polyline points="223.378 304.445 170.477 274.87 229.406 297.782 201.035 312.411 207.992 246.518 200.798 246.391 188.905 310.092 221.047 253.536 178.042 300.606 213.513 249.488 233.469 267.558"/><polyline points="233.846 267.425 213.654 249.113 177.731 300.858 221.277 253.208 188.748 310.461 200.764 245.993 208.065 246.125 201.027 312.811 229.729 298.017 170.083 274.802 223.625 304.76"/><polyline points="223.871 305.075 169.689 274.733 230.053 298.252 201.019 313.211 208.138 245.732 200.73 245.594 188.591 310.829 221.507 252.881 177.419 301.109 213.795 248.739 234.223 267.291"/><polyline points="234.6 267.158 213.936 248.365 177.108 301.361 221.737 252.554 188.435 311.197 200.696 245.195 208.212 245.339 201.011 313.611 230.377 298.486 169.295 274.665 224.118 305.39"/><polyline points="224.364 305.705 168.901 274.596 230.7 298.721 201.003 314.011 208.285 244.946 200.662 244.797 188.278 311.564 221.967 252.227 176.798 301.612 214.077 247.99 234.977 267.024"/><polyline points="235.354 266.891 214.218 247.616 176.486 301.864 222.197 251.899 188.121 311.932 200.628 244.398 208.358 244.552 200.995 314.411 231.024 298.957 168.507 274.528 224.611 306.02"/><polyline points="224.858 306.335 168.113 274.459 231.348 299.191 200.987 314.811 208.431 244.159 200.594 244 187.964 312.3 222.427 251.572 176.175 302.115 214.36 247.242 235.731 266.757"/><polyline points="236.108 266.624 214.501 246.868 175.864 302.367 222.657 251.245 187.807 312.668 200.56 243.601 208.504 243.766 200.98 315.211 231.672 299.426 167.718 274.391 225.104 306.65"/><polyline points="225.351 306.965 167.324 274.322 231.995 299.661 200.972 315.611 208.578 243.373 200.526 243.203 187.65 313.036 222.887 250.918 175.553 302.618 214.642 246.493 236.485 266.491"/><polyline points="236.862 266.357 214.783 246.119 175.242 302.87 223.117 250.59 187.494 313.404 200.493 242.804 208.651 242.979 200.964 316.011 232.319 299.896 166.93 274.254 225.598 307.279"/><polyline points="225.844 307.594 166.536 274.185 232.643 300.131 200.956 316.411 208.724 242.586 200.459 242.405 187.337 313.772 223.347 250.263 174.931 303.121 214.924 245.745 237.239 266.224"/><polyline points="237.617 266.09 215.065 245.37 174.62 303.373 223.577 249.936 187.18 314.14 200.425 242.007 208.797 242.193 200.948 316.81 232.966 300.366 166.142 274.117 226.091 307.909"/><polyline points="226.337 308.224 165.748 274.048 233.29 300.601 200.94 317.21 208.87 241.8 200.391 241.608 187.023 314.508 223.807 249.609 174.309 303.624 215.206 244.996 237.994 265.957"/><polyline points="238.371 265.823 215.348 244.622 173.998 303.876 224.037 249.281 186.866 314.876 200.357 241.21 208.944 241.406 200.932 317.61 233.614 300.836 165.354 273.98 226.584 308.539"/><polyline points="226.831 308.854 164.96 273.911 233.938 301.071 200.925 318.01 209.017 241.013 200.323 240.811 186.709 315.244 224.267 248.954 173.687 304.127 215.489 244.248 238.748 265.69"/><polyline points="239.125 265.556 215.63 243.873 173.376 304.379 224.497 248.627 186.553 315.612 200.289 240.413 209.09 240.62 200.917 318.41 234.261 301.306 164.566 273.843 227.077 309.169"/><polyline points="227.324 309.484 164.172 273.774 234.585 301.541 200.909 318.81 209.163 240.227 200.255 240.014 186.396 315.98 224.727 248.299 173.065 304.63 215.771 243.499 239.502 265.423"/><polyline points="239.879 265.289 215.912 243.125 172.754 304.882 224.957 247.972 186.239 316.348 200.221 239.615 209.237 239.833 200.901 319.21 234.909 301.776 163.778 273.706 227.571 309.799"/><polyline points="227.817 310.114 163.383 273.637 235.232 302.011 200.893 319.61 209.31 239.44 200.188 239.217 186.082 316.716 225.187 247.645 172.443 305.134 216.053 242.751 240.256 265.156"/><polyline points="240.633 265.022 216.194 242.376 172.132 305.385 225.417 247.318 185.925 317.084 200.154 238.818 209.383 239.047 200.885 320.01 235.556 302.246 162.989 273.569 228.064 310.429"/><polyline points="228.31 310.744 162.595 273.5 235.88 302.481 200.877 320.41 209.456 238.654 200.12 238.42 185.768 317.452 225.647 246.99 171.821 305.637 216.336 242.002 241.01 264.889"/><polyline points="241.387 264.755 216.477 241.628 171.51 305.888 225.877 246.663 185.612 317.82 200.086 238.021 209.529 238.26 200.87 320.81 236.203 302.716 162.201 273.432 228.557 311.059"/><polyline points="228.804 311.373 161.807 273.363 236.527 302.951 200.862 321.21 209.603 237.867 200.052 237.623 185.455 318.188 226.107 246.336 171.199 306.14 216.618 241.254 241.764 264.622"/><polyline points="242.141 264.488 216.759 240.879 170.888 306.391 226.337 246.009 185.298 318.556 200.018 237.224 209.676 237.474 200.854 321.61 236.851 303.186 161.413 273.295 229.05 311.688"/><polyline points="229.297 312.003 161.019 273.226 237.175 303.421 200.846 322.009 209.749 237.081 199.984 236.826 185.141 318.924 226.567 245.681 170.577 306.643 216.9 240.505 242.518 264.355"/><polyline points="242.895 264.221 217.041 240.131 170.266 306.894 226.797 245.354 184.984 319.292 199.95 236.427 209.822 236.687 200.838 322.409 237.498 303.656 160.625 273.158 229.543 312.318"/><polyline points="229.79 312.633 160.231 273.089 237.822 303.891 200.83 322.809 209.895 236.294 199.916 236.029 184.828 319.66 227.027 245.027 169.955 307.146 217.182 239.756 243.273 264.088"/><polyline points="243.65 263.955 217.323 239.382 169.644 307.397 227.257 244.7 184.671 320.028 199.882 235.63 209.969 235.901 200.823 323.209 238.146 304.126 159.837 273.021 230.037 312.948"/><polyline points="230.283 313.263 159.442 272.952 238.47 304.361 200.815 323.609 210.042 235.508 199.849 235.231 184.514 320.396 227.487 244.373 169.333 307.649 217.465 239.008 244.027 263.821"/><polyline points="244.404 263.688 217.606 238.634 169.022 307.9 227.717 244.045 184.357 320.764 199.815 234.833 210.115 235.114 200.807 324.009 238.793 304.596 159.048 272.884 230.53 313.578"/><polyline points="230.777 313.893 158.654 272.815 239.117 304.831 200.799 324.409 210.188 234.721 199.781 234.434 184.2 321.132 227.947 243.718 168.711 308.152 217.747 238.259 244.781 263.554"/><polyline points="245.158 263.421 217.888 237.885 168.4 308.404 228.177 243.391 184.043 321.5 199.747 234.036 210.262 234.328 200.791 324.809 239.441 305.066 158.26 272.747 231.023 314.208"/><polyline points="231.27 314.523 157.866 272.678 239.764 305.301 200.783 325.209 210.335 233.935 199.713 233.637 183.887 321.868 228.407 243.064 168.089 308.655 218.029 237.511 245.535 263.287"/><polyline points="245.912 263.154 218.17 237.137 167.778 308.906 228.637 242.736 183.73 322.236 199.679 233.238 210.408 233.542 200.775 325.609 240.088 305.536 157.472 272.61 231.516 314.838"/><polyline points="231.763 315.153 157.078 272.541 240.412 305.771 200.768 326.009 210.481 233.148 199.645 232.84 183.573 322.604 228.867 242.409 167.467 309.158 218.311 236.762 246.289 263.02"/><polyline points="246.666 262.887 218.453 236.388 167.156 309.41 229.097 242.082 183.416 322.972 199.611 232.441 210.554 232.755 200.76 326.409 240.736 306.005 156.684 272.472 232.01 315.468"/><polyline points="232.256 315.783 156.29 272.404 241.059 306.24 200.752 326.808 210.628 232.362 199.577 232.043 183.259 323.34 229.327 241.755 166.845 309.661 218.594 236.014 247.043 262.753"/><polyline points="247.42 262.62 218.735 235.639 166.534 309.913 229.557 241.427 183.103 323.708 199.544 231.644 210.701 231.969 200.744 327.208 241.383 306.476 155.896 272.335 232.503 316.097"/><polyline points="232.75 316.412 155.502 272.267 241.707 306.711 200.736 327.608 210.774 231.575 199.51 231.246 182.946 324.076 229.787 241.1 166.223 310.164 218.876 235.265 247.798 262.486"/><polyline points="248.174 262.353 219.017 234.891 165.912 310.416 230.017 240.773 182.789 324.444 199.476 230.847 210.847 231.182 200.728 328.008 242.03 306.945 155.107 272.198 232.996 316.727"/><polyline points="233.243 317.042 154.713 272.13 242.354 307.18 200.721 328.408 210.92 230.789 199.442 230.449 182.632 324.812 230.247 240.446 165.601 310.667 219.158 234.517 248.552 262.219"/><polyline points="248.929 262.086 219.299 234.142 165.29 310.919 230.477 240.118 182.475 325.18 199.408 230.05 210.994 230.395 200.713 328.808 242.678 307.415 154.319 272.061 233.489 317.357"/><polyline points="233.736 317.672 153.925 271.993 243.001 307.65 200.705 329.208 211.067 230.002 199.374 229.651 182.319 325.548 230.707 239.791 164.979 311.17 219.441 233.768 249.306 261.952"/><polyline points="249.683 261.819 219.582 233.394 164.668 311.422 230.937 239.464 182.162 325.916 199.34 229.253 211.14 229.609 200.697 329.608 243.325 307.885 153.531 271.924 233.983 317.987"/><polyline points="234.229 318.302 153.137 271.856 243.649 308.12 200.689 330.008 211.213 229.216 199.306 228.854 182.005 326.284 231.167 239.137 164.357 311.673 219.723 233.02 250.06 261.685"/><polyline points="250.437 261.552 219.864 232.645 164.046 311.925 231.397 238.809 181.848 326.651 199.272 228.456 211.286 228.822 200.681 330.408 243.973 308.355 152.743 271.787 234.476 318.617"/><polyline points="234.722 318.932 152.349 271.719 244.296 308.59 200.673 330.808 211.36 228.429 199.238 228.057 181.691 327.019 231.627 238.482 163.735 312.176 220.005 232.271 250.814 261.419"/><polyline points="251.191 261.285 220.146 231.897 163.424 312.428 231.857 238.155 181.534 327.387 199.205 227.659 211.433 228.036 200.666 331.208 244.62 308.825 151.955 271.65 234.969 319.247"/><polyline points="235.216 319.562 151.561 271.582 244.944 309.06 200.658 331.608 211.506 227.643 199.171 227.26 181.378 327.755 232.087 237.827 163.113 312.68 220.287 231.523 251.568 261.152"/><polyline points="251.945 261.018 220.429 231.148 162.802 312.931 232.317 237.5 181.221 328.123 199.137 226.862 211.579 227.25 200.65 332.007 245.268 309.295 151.167 271.513 235.462 319.877"/><polyline points="235.709 320.192 150.773 271.445 245.591 309.53 200.642 332.407 211.653 226.856 199.103 226.463 181.064 328.491 232.547 237.173 162.491 313.183 220.57 230.774 252.322 260.885"/><polyline points="252.699 260.751 220.711 230.4 162.18 313.434 232.777 236.846 180.907 328.859 199.069 226.064 211.726 226.463 200.634 332.807 245.915 309.765 150.379 271.376 235.956 320.506"/><polyline points="236.202 320.821 149.984 271.308 246.239 310 200.626 333.207 211.799 226.07 199.035 225.666 180.75 329.227 233.007 236.518 161.869 313.686 220.852 230.025 253.077 260.618"/><polyline points="253.454 260.484 220.993 229.651 161.558 313.937 233.237 236.191 180.594 329.595 199.001 225.267 211.872 225.677 200.619 333.607 246.562 310.235 149.59 271.239 236.449 321.136"/><polyline points="236.695 321.451 149.196 271.171 246.886 310.47 200.611 334.007 211.945 225.283 198.967 224.869 180.437 329.963 233.467 235.864 161.246 314.189 221.134 229.277 253.831 260.351"/><polyline points="254.208 260.217 221.275 228.903 160.935 314.44 233.697 235.537 180.28 330.331 198.934 224.47 212.019 224.89 200.603 334.407 247.21 310.705 148.802 271.102 236.942 321.766"/><polyline points="237.189 322.081 148.408 271.034 247.534 310.94 200.595 334.807 212.092 224.497 198.9 224.072 180.123 330.699 233.927 235.209 160.625 314.692 221.417 228.528 254.585 260.084"/><polyline points="254.962 259.95 221.558 228.154 160.314 314.943 234.157 234.882 179.966 331.067 198.866 223.673 212.165 224.104 200.587 335.207 247.857 311.175 148.014 270.965 237.435 322.396"/><polyline points="237.682 322.711 147.62 270.897 248.181 311.41 200.579 335.607 212.238 223.71 198.832 223.274 179.809 331.435 234.387 234.555 160.002 315.195 221.699 227.78 255.339 259.817"/><polyline points="255.716 259.683 221.84 227.405 159.691 315.446 234.617 234.228 179.653 331.803 198.798 222.876 212.311 223.317 200.571 336.007 248.505 311.645 147.226 270.828 237.929 323.026"/><polyline points="238.175 323.341 146.832 270.76 248.828 311.88 200.564 336.407 212.385 222.924 198.764 222.477 179.496 332.171 234.847 233.9 159.38 315.698 221.981 227.031 256.093 259.55"/><polyline points="256.47 259.416 222.122 226.657 159.069 315.949 235.077 233.573 179.339 332.539 198.73 222.079 212.458 222.531 200.556 336.807 249.152 312.115 146.438 270.691 238.422 323.656"/><polyline points="238.668 323.971 146.043 270.623 249.476 312.35 200.548 337.207 212.531 222.137 198.696 221.68 179.182 332.907 235.307 233.246 158.758 316.201 222.263 226.283 256.847 259.283"/><polyline points="257.224 259.149 222.405 225.908 158.447 316.452 235.537 232.919 179.025 333.275 198.662 221.282 212.604 221.744 200.54 337.606 249.799 312.585 145.649 270.554 238.915 324.286"/><polyline points="239.162 324.601 145.255 270.486 250.123 312.82 200.532 338.006 212.678 221.351 198.629 220.883 178.869 333.643 235.767 232.591 158.136 316.704 222.546 225.534 257.601 259.016"/><polyline points="257.978 258.883 222.687 225.16 157.825 316.955 235.997 232.264 178.712 334.011 198.595 220.485 212.751 220.958 200.524 338.406 250.447 313.055 144.861 270.417 239.408 324.915"/><polyline points="239.655 325.23 144.467 270.349 250.771 313.29 200.517 338.806 212.824 220.564 198.561 220.086 178.555 334.379 236.227 231.937 157.514 317.207 222.828 224.786 258.356 258.749"/><polyline points="258.733 258.616 222.969 224.411 157.203 317.459 236.457 231.61 178.398 334.747 198.527 219.687 212.897 220.171 200.509 339.206 251.094 313.525 144.073 270.28 239.901 325.545"/><polyline points="240.148 325.86 143.679 270.212 251.418 313.76 200.501 339.606 212.97 219.778 198.493 219.289 178.241 335.115 236.687 231.282 156.892 317.71 223.11 224.037 259.11 258.482"/><polyline points="259.487 258.349 223.251 223.663 156.581 317.962 236.917 230.955 178.084 335.483 198.459 218.89 213.044 219.385 200.493 340.006 251.742 313.995 143.285 270.143 240.395 326.175"/><polyline points="240.641 326.49 142.891 270.075 252.065 314.229 200.485 340.406 213.117 218.992 198.425 218.492 177.928 335.851 237.147 230.628 156.27 318.213 223.393 223.288 259.864 258.215"/><polyline points="260.241 258.082 223.534 222.914 155.959 318.465 237.377 230.301 177.771 336.219 198.391 218.093 213.19 218.598 200.477 340.806 252.389 314.464 142.497 270.006 240.888 326.805"/><polyline points="241.135 327.12 142.103 269.938 252.713 314.699 200.47 341.206 213.263 218.205 198.357 217.695 177.614 336.587 237.607 229.973 155.648 318.716 223.675 222.54 260.618 257.948"/><polyline points="260.995 257.815 223.816 222.166 155.337 318.968 237.838 229.646 177.457 336.955 198.323 217.296 213.337 217.812 200.462 341.606 253.037 314.934 141.708 269.869 241.381 327.435"/><polyline points="241.628 327.75 141.314 269.8 253.36 315.169 200.454 342.006 213.41 217.418 198.29 216.898 177.3 337.323 238.067 229.319 155.026 319.219 223.957 221.791 261.372 257.681"/><polyline points="261.749 257.548 224.098 221.417 154.715 319.471 238.298 228.992 177.143 337.691 198.256 216.499 213.483 217.025 200.446 342.406 253.684 315.404 140.92 269.732 241.874 328.065"/><polyline points="242.121 328.38 140.526 269.663 254.008 315.639 200.438 342.805 213.556 216.632 198.222 216.1 176.987 338.059 238.528 228.664 154.404 319.722 224.239 221.043 262.126 257.414"/><polyline points="262.503 257.281 224.381 220.669 154.093 319.974 238.757 228.337 176.83 338.427 198.188 215.702 213.629 216.239 200.43 343.205 254.331 315.874 140.132 269.595 242.368 328.695"/><polyline points="242.614 329.01 139.738 269.526 254.655 316.109 200.422 343.605 213.702 215.845 198.154 215.303 176.673 338.795 238.988 228.01 153.782 320.225 224.522 220.294 262.88 257.147"/><polyline points="263.257 257.014 224.663 219.92 153.471 320.477 239.218 227.683 176.516 339.163 198.12 214.905 213.776 215.452 200.415 344.005 254.979 316.344 139.344 269.458 242.861 329.324"/><polyline points="243.107 329.639 138.95 269.389 255.303 316.579 200.407 344.405 213.849 215.059 198.086 214.506 176.359 339.531 239.447 227.355 153.16 320.728 224.804 219.546 263.635 256.88"/><polyline points="264.012 256.747 224.945 219.172 152.849 320.98 239.678 227.028 176.203 339.899 198.052 214.108 213.922 214.666 200.399 344.805 255.626 316.814 138.556 269.321 243.354 329.954"/><polyline points="243.601 330.269 138.162 269.252 255.95 317.049 200.391 345.205 213.995 214.273 198.018 213.709 176.046 340.267 239.908 226.701 152.538 321.231 225.086 218.797 264.389 256.614"/><polyline points="264.766 256.48 225.227 218.423 152.227 321.483 240.138 226.374 175.889 340.635 197.984 213.31 214.069 213.879 200.383 345.605 256.274 317.284 137.768 269.184 243.847 330.584"/><polyline points="244.094 330.899 137.374 269.115 256.597 317.519 200.375 346.005 214.142 213.486 197.951 212.912 175.732 341.003 240.368 226.046 151.916 321.735 225.369 218.049 265.143 256.347"/><polyline points="265.52 256.213 225.51 217.674 151.605 321.986 240.598 225.719 175.575 341.371 197.917 212.513 214.215 213.093 200.368 346.405 256.921 317.754 136.979 269.047 244.341 331.214"/><polyline points="244.587 331.529 136.585 268.978 257.245 317.989 200.36 346.805 214.288 212.7 197.883 212.115 175.418 341.739 240.828 225.392 151.294 322.238 225.651 217.3 265.897 256.08"/><polyline points="266.274 255.946 225.792 216.926 150.983 322.489 241.058 225.065 175.262 342.107 197.849 211.716 214.361 212.306 200.352 347.205 257.568 318.224 136.191 268.91 244.834 331.844"/><polyline points="245.081 332.159 135.797 268.841 257.892 318.459 200.344 347.604 214.435 211.913 197.815 211.318 175.105 342.475 241.288 224.737 150.672 322.741 225.933 216.552 266.651 255.813"/><polyline points="267.028 255.679 226.074 216.177 150.361 322.992 241.518 224.41 174.948 342.843 197.781 210.919 214.508 211.52 200.336 348.004 258.216 318.694 135.403 268.773 245.327 332.474"/><polyline points="245.574 332.789 135.009 268.704 258.54 318.929 200.328 348.404 214.581 211.127 197.747 210.52 174.791 343.211 241.748 224.083 150.05 323.244 226.215 215.803 267.405 255.546"/><polyline points="267.782 255.412 226.357 215.429 149.739 323.495 241.978 223.756 174.634 343.579 197.713 210.122 214.654 210.733 200.32 348.804 258.863 319.164 134.615 268.636 245.82 333.103"/><polyline points="246.067 333.418 134.221 268.567 259.187 319.399 200.313 349.204 214.727 210.34 197.679 209.723 174.477 343.947 242.208 223.428 149.428 323.747 226.498 215.054 268.159 255.279"/><polyline points="268.536 255.145 226.639 214.68 149.117 323.998 242.438 223.101 174.321 344.315 197.646 209.325 214.801 209.947 200.305 349.604 259.511 319.634 133.827 268.499 246.314 333.733"/><polyline points="246.56 334.048 133.433 268.43 259.834 319.869 200.297 350.004 214.874 209.554 197.612 208.926 174.164 344.682 242.668 222.774 148.806 324.25 226.78 214.306 268.914 255.012"/><polyline points="269.291 254.878 226.921 213.932 148.495 324.501 242.898 222.447 174.007 345.05 197.578 208.528 214.947 209.16 200.289 350.404 260.158 320.104 133.038 268.362 246.807 334.363"/><polyline points="247.053 334.678 132.644 268.293 260.482 320.339 200.281 350.804 215.02 208.767 197.544 208.129 173.85 345.418 243.128 222.119 148.184 324.753 227.062 213.557 269.668 254.745"/><polyline points="270.045 254.612 227.203 213.183 147.873 325.005 243.358 221.792 173.693 345.786 197.51 207.731 215.094 208.374 200.273 351.204 260.806 320.574 132.25 268.225 247.3 334.993"/><polyline points="247.547 335.308 131.856 268.156 261.129 320.809 200.266 351.604 215.167 207.981 197.476 207.332 173.537 346.154 243.588 221.465 147.562 325.256 227.345 212.809 270.422 254.478"/><polyline points="270.799 254.345 227.486 212.435 147.251 325.507 243.818 221.137 173.38 346.522 197.442 206.934 215.24 207.587 200.258 352.004 261.453 321.044 131.462 268.088 247.793 335.623"/><polyline points="248.04 335.938 131.068 268.019 261.777 321.279 200.25 352.404 215.313 207.194 197.408 206.535 173.223 346.89 244.048 220.81 146.94 325.759 227.627 212.06 271.176 254.211"/><polyline points="271.553 254.078 227.768 211.686 146.629 326.011 244.278 220.483 173.066 347.258 197.375 206.136 215.386 206.801 200.242 352.803 262.101 321.514 130.674 267.951 248.286 336.253"/><polyline points="248.533 336.568 130.28 267.882 262.424 321.748 200.234 353.203 215.46 206.408 197.341 205.738 172.909 347.626 244.508 220.156 146.318 326.262 227.909 211.312 271.93 253.944"/><polyline points="272.307 253.811 228.05 210.938 146.007 326.514 244.738 219.828 172.752 347.994 197.307 205.339 215.533 206.014 200.226 353.603 262.748 321.983 129.886 267.814 248.78 336.883"/><polyline points="249.026 337.198 129.492 267.745 263.072 322.218 200.218 354.003 215.606 205.621 197.273 204.941 172.596 348.362 244.968 219.501 145.696 326.765 228.191 210.563 272.684 253.677"/><polyline points="273.061 253.544 228.333 210.189 145.385 327.017 245.198 219.174 172.439 348.73 197.239 204.542 215.679 205.228 200.211 354.403 263.395 322.453 129.098 267.677 249.273 337.512"/><polyline points="249.52 337.827 128.704 267.608 263.719 322.688 200.203 354.803 215.752 204.835 197.205 204.143 172.282 349.098 245.428 218.847 145.074 327.268 228.474 209.815 273.438 253.41"/><polyline points="273.816 253.277 228.615 209.44 144.763 327.52 245.658 218.519 172.125 349.466 197.171 203.745 215.826 204.441 200.195 355.203 264.043 322.923 128.31 267.54 249.766 338.142"/><polyline points="250.013 338.457 127.915 267.471 264.366 323.158 200.187 355.603 215.899 204.048 197.137 203.346 171.968 349.834 245.888 218.192 144.452 327.771 228.756 209.066 274.193 253.143"/><polyline points="274.57 253.01 228.897 208.692 144.141 328.023 246.118 217.865 171.812 350.202 197.103 202.948 215.972 203.655 200.179 356.003 264.69 323.393 127.521 267.403 250.26 338.772"/><polyline points="250.506 339.087 127.127 267.334 265.014 323.628 200.171 356.403 216.045 203.262 197.069 202.549 171.655 350.57 246.348 217.538 143.829 328.274 229.038 208.318 274.947 252.876"/><polyline points="275.324 252.743 229.179 207.943 143.518 328.526 246.578 217.21 171.498 350.938 197.036 202.151 216.119 202.869 200.163 356.803 265.338 323.863 126.733 267.266 250.753 339.402"/><polyline points="250.999 339.717 126.339 267.197 265.661 324.098 200.156 357.203 216.192 202.475 197.002 201.752 171.341 351.306 246.808 216.883 143.208 328.777 229.321 207.569 275.701 252.609"/><polyline points="276.078 252.476 229.462 207.195 142.896 329.029 247.038 216.556 171.184 351.674 196.968 201.354 216.265 202.082 200.148 357.603 265.985 324.333 125.945 267.128 251.246 340.032"/><polyline points="251.493 340.347 125.551 267.06 266.309 324.568 200.14 358.002 216.338 201.689 196.934 200.955 171.028 352.042 247.268 216.229 142.585 329.281 229.603 206.821 276.455 252.342"/><polyline points="276.832 252.209 229.744 206.446 142.274 329.532 247.498 215.901 170.871 352.41 196.9 200.556 216.411 201.296 200.132 358.402 266.632 324.803 125.157 266.991 251.739 340.662"/><polyline points="251.986 340.977 124.763 266.923 266.956 325.038 200.124 358.802 216.485 200.902 196.866 200.158 170.714 352.778 247.728 215.574 141.963 329.784 229.885 206.072 277.209 252.076"/><polyline points="277.586 251.942 230.026 205.698 141.652 330.035 247.958 215.247 170.557 353.146 196.832 199.759 216.558 200.509 200.116 359.202 267.28 325.273 124.369 266.854 252.232 341.292"/><polyline points="252.479 341.606 123.975 266.786 267.604 325.508 200.108 359.602 216.631 200.116 196.798 199.361 170.4 353.514 248.188 214.92 141.341 330.287 230.167 205.323 277.963 251.809"/><polyline points="278.341 251.675 230.309 204.949 141.03 330.538 248.418 214.593 170.243 353.882 196.764 198.962 216.704 199.723 200.101 360.002 267.927 325.743 123.58 266.717 252.726 341.921"/><polyline points="252.972 342.236 123.186 266.649 268.251 325.978 200.093 360.402 216.778 199.329 196.731 198.564 170.087 354.25 248.648 214.265 140.719 330.79 230.45 204.575 278.717 251.542"/><polyline points="279.095 251.408 230.591 204.201 140.408 331.041 248.878 213.938 169.93 354.618 196.697 198.165 216.851 198.936 200.085 360.802 268.575 326.213 122.792 266.58 253.219 342.551"/><polyline points="253.465 342.866 122.398 266.512 268.898 326.448 200.077 361.202 216.924 198.543 196.663 197.767 169.773 354.986 249.108 213.611 140.097 331.293 230.732 203.826 279.472 251.275"/><polyline points="279.849 251.141 230.873 203.452 139.786 331.544 249.338 213.284 169.616 355.354 196.629 197.368 216.997 198.15 200.069 361.602 269.222 326.683 122.004 266.443 253.712 343.181"/><polyline points="253.959 343.496 121.61 266.375 269.546 326.918 200.061 362.002 217.07 197.756 196.595 196.969 169.459 355.722 249.568 212.956 139.475 331.796 231.014 203.078 280.226 251.008"/><polyline points="280.603 250.874 231.155 202.704 139.164 332.047 249.798 212.629 169.303 356.09 196.561 196.571 217.143 197.363 200.054 362.402 269.87 327.153 121.216 266.306 254.205 343.811"/><polyline points="254.452 344.126 120.822 266.238 270.193 327.388 200.046 362.802 217.217 196.97 196.527 196.172 169.146 356.458 250.028 212.302 138.853 332.299 231.297 202.329 280.98 250.741"/><polyline points="281.357 250.607 231.438 201.955 138.542 332.55 250.258 211.975 168.989 356.826 196.493 195.774 217.29 196.577 200.038 363.202 270.517 327.623 120.428 266.169 254.699 344.441"/><polyline points="254.945 344.756 120.034 266.101 270.841 327.858 200.03 363.601 217.363 196.183 196.459 195.375 168.832 357.194 250.488 211.647 138.231 332.802 231.579 201.581 281.734 250.474"/><polyline points="282.111 250.34 231.72 201.207 137.92 333.053 250.718 211.32 168.675 357.562 196.425 194.977 217.436 195.79 200.022 364.001 271.164 328.093 119.639 266.032 255.192 345.071"/><polyline points="255.438 345.386 119.245 265.964 271.488 328.328 200.014 364.401 217.51 195.397 196.392 194.578 168.518 357.93 250.948 210.993 137.609 333.305 231.861 200.832 282.488 250.207"/><polyline points="282.865 250.073 232.002 200.458 137.298 333.557 251.178 210.665 168.362 358.298 196.358 194.179 217.583 195.004 200.006 364.801 271.812 328.563 118.851 265.895 255.685 345.701"/><polyline points="255.932 346.015 118.457 265.827 272.136 328.798 199.999 365.201 217.656 194.61 196.324 193.781 168.205 358.666 251.408 210.338 136.987 333.808 232.143 200.084 283.242 249.94"/><polyline points="283.62 249.806 232.285 199.709 136.676 334.06 251.638 210.011 168.048 359.034 196.29 193.382 217.729 194.217 199.991 365.601 272.459 329.033 118.063 265.758 256.178 346.33"/><polyline points="256.425 346.645 117.669 265.69 272.783 329.267 199.983 366.001 217.802 193.824 196.256 192.984 167.891 359.402 251.868 209.684 136.365 334.311 232.426 199.335 283.997 249.673"/><polyline points="284.374 249.54 232.567 198.961 136.054 334.563 252.098 209.356 167.734 359.769 196.222 192.585 217.876 193.431 199.975 366.401 273.107 329.502 117.275 265.621 256.671 346.96"/><polyline points="256.918 347.275 116.881 265.553 273.43 329.738 199.967 366.801 217.949 193.037 196.188 192.187 167.577 360.137 252.328 209.029 135.743 334.814 232.708 198.587 284.751 249.406"/><polyline points="285.128 249.273 232.849 198.212 135.432 335.066 252.558 208.702 167.421 360.505 196.154 191.788 218.022 192.644 199.959 367.201 273.754 329.972 116.487 265.484 257.165 347.59"/><polyline points="257.411 347.905 116.093 265.416 274.078 330.207 199.952 367.601 218.095 192.251 196.12 191.39 167.264 360.873 252.788 208.375 135.121 335.317 232.99 197.838 285.505 249.139"/><polyline points="285.882 249.006 233.131 197.464 134.81 335.569 253.018 208.047 167.107 361.241 196.087 190.991 218.168 191.858 199.944 368.001 274.401 330.442 115.699 265.347 257.658 348.22"/><polyline points="257.905 348.535 115.305 265.279 274.725 330.677 199.936 368.401 218.242 191.464 196.053 190.592 166.95 361.609 253.248 207.72 134.499 335.82 233.273 197.089 286.259 248.872"/><polyline points="286.636 248.739 233.414 196.715 134.188 336.072 253.478 207.393 166.793 361.977 196.019 190.194 218.315 191.071 199.928 368.8 275.049 330.912 114.91 265.21 258.151 348.85"/><polyline points="258.398 349.165 114.516 265.142 275.373 331.147 199.92 369.2 218.388 190.678 195.985 189.795 166.637 362.345 253.708 207.066 133.877 336.323 233.555 196.341 287.013 248.605"/><polyline points="287.39 248.472 233.696 195.967 133.566 336.575 253.938 206.738 166.48 362.713 195.951 189.397 218.461 190.285 199.912 369.6 275.696 331.382 114.122 265.073 258.644 349.48"/><polyline points="258.891 349.795 113.728 265.005 276.02 331.617 199.905 370 218.535 189.892 195.917 188.998 166.323 363.081 254.168 206.411 133.255 336.826 233.837 195.592 287.767 248.338"/><polyline points="288.144 248.205 233.978 195.218 132.944 337.078 254.398 206.084 166.166 363.449 195.883 188.6 218.608 189.498 199.897 370.4 276.344 331.852 113.334 264.936 259.138 350.11"/><polyline points="259.384 350.425 112.94 264.868 276.668 332.087 199.889 370.8 218.681 189.105 195.849 188.201 166.009 363.817 254.628 205.757 132.633 337.329 234.119 194.844 288.522 248.071"/><polyline points="288.899 247.938 234.261 194.47 132.322 337.581 254.858 205.429 165.852 364.185 195.815 187.803 218.754 188.712 199.881 371.2 276.991 332.322 112.546 264.799 259.631 350.739"/><polyline points="259.878 351.054 112.152 264.731 277.315 332.557 199.873 371.6 218.827 188.319 195.781 187.404 165.696 364.553 255.088 205.102 132.011 337.832 234.402 194.095 289.276 247.804"/><polyline points="289.653 247.671 234.543 193.721 131.7 338.084 255.318 204.775 165.539 364.921 195.748 187.005 218.901 187.925 199.865 372 277.639 332.792 111.758 264.662 260.124 351.369"/><polyline points="260.371 351.684 111.364 264.594 277.962 333.027 199.857 372.4 218.974 187.532 195.714 186.607 165.382 365.289 255.548 204.448 131.389 338.336 234.684 193.347 290.03 247.537"/><polyline points="290.407 247.404 234.825 192.972 131.078 338.587 255.778 204.12 165.225 365.657 195.68 186.208 219.047 187.139 199.85 372.8 278.286 333.262 110.97 264.525 260.617 351.999"/><polyline points="260.864 352.314 110.576 264.457 278.61 333.497 199.842 373.2 219.12 186.746 195.646 185.81 165.068 366.025 256.008 203.793 130.767 338.839 234.966 192.598 290.784 247.27"/><polyline points="291.161 247.137 235.107 192.224 130.456 339.09 256.238 203.466 164.912 366.393 195.612 185.411 219.194 186.352 199.834 373.599 278.933 333.732 110.181 264.388 261.111 352.629"/><polyline points="261.357 352.944 109.787 264.32 279.257 333.967 199.826 373.999 219.267 185.959 195.578 185.013 164.755 366.761 256.468 203.139 130.145 339.342 235.249 191.85 291.538 247.004"/><polyline points="291.915 246.87 235.39 191.475 129.834 339.593 256.698 202.811 164.598 367.129 195.544 184.614 219.34 185.566 199.818 374.399 279.581 334.202 109.393 264.251 261.604 353.259"/><polyline points="261.851 353.574 108.999 264.183 279.905 334.437 199.81 374.799 219.413 185.173 195.51 184.215 164.441 367.497 256.928 202.484 129.523 339.845 235.531 191.101 292.292 246.737"/><polyline points="292.669 246.603 235.672 190.727 129.212 340.096 257.158 202.157 164.284 367.865 195.476 183.817 219.486 184.779 199.803 375.199 280.228 334.672 108.605 264.114 262.097 353.889"/><polyline points="262.344 354.204 108.211 264.046 280.552 334.907 199.795 375.599 219.56 184.386 195.443 183.418 164.127 368.233 257.389 201.83 128.901 340.348 235.813 190.353 293.046 246.47"/><polyline points="293.423 246.336 235.954 189.978 128.59 340.599 257.618 201.502 163.971 368.601 195.409 183.02 219.633 183.993 199.787 375.999 280.876 335.142 107.817 263.977 262.59 354.519"/><polyline points="262.837 354.834 107.423 263.909 281.2 335.377 199.779 376.399 219.706 183.6 195.375 182.621 163.814 368.969 257.849 201.175 128.279 340.851 236.095 189.604 293.8 246.203"/><polyline points="294.178 246.069 236.237 189.23 127.968 341.102 258.079 200.848 163.657 369.337 195.341 182.223 219.779 183.206 199.771 376.799 281.523 335.612 107.029 263.84 263.084 355.148"/><polyline points="263.33 355.463 106.635 263.772 281.847 335.847 199.763 377.199 219.852 182.813 195.307 181.824 163.5 369.705 258.308 200.521 127.656 341.354 236.378 188.856 294.555 245.936"/><polyline points="294.932 245.802 236.519 188.481 127.346 341.606 258.538 200.193 163.343 370.073 195.273 181.425 219.926 182.42 199.755 377.599 282.171 336.082 106.24 263.703 263.577 355.778"/><polyline points="263.824 356.093 105.846 263.635 282.494 336.317 199.748 377.999 219.999 182.027 195.239 181.027 163.186 370.441 258.769 199.866 127.034 341.857 236.66 188.107 295.309 245.669"/><polyline points="295.686 245.535 236.801 187.733 126.724 342.108 258.998 199.539 163.03 370.809 195.205 180.628 220.072 181.633 199.74 378.399 282.818 336.552 105.452 263.566 264.07 356.408"/><polyline points="264.317 356.723 105.058 263.497 283.142 336.787 199.732 378.798 220.145 181.24 195.172 180.23 162.873 371.177 259.229 199.212 126.412 342.36 236.942 187.358 296.063 245.402"/><polyline points="296.44 245.268 237.083 186.984 126.101 342.612 259.459 198.884 162.716 371.545 195.138 179.831 220.219 180.847 199.724 379.198 283.466 337.022 104.664 263.429 264.563 357.038"/><polyline points="264.81 357.353 104.27 263.36 283.789 337.257 199.716 379.598 220.292 180.454 195.104 179.433 162.559 371.913 259.689 198.557 125.79 342.863 237.225 186.61 296.817 245.135"/><polyline points="297.194 245.001 237.366 186.236 125.479 343.115 259.919 198.23 162.402 372.281 195.07 179.034 220.365 180.06 199.708 379.998 284.113 337.491 103.876 263.292 265.057 357.668"/><polyline points="265.303 357.983 103.482 263.223 284.437 337.726 199.701 380.398 220.438 179.667 195.036 178.636 162.246 372.649 260.149 197.903 125.168 343.366 237.507 185.861 297.571 244.868"/><polyline points="297.948 244.734 237.648 185.487 124.857 343.618 260.379 197.575 162.089 373.017 195.002 178.237 220.511 179.274 199.693 380.798 284.76 337.961 103.088 263.155 265.55 358.298"/><polyline points="265.796 358.613 102.694 263.086 285.084 338.196 199.685 381.198 220.584 178.881 194.968 177.839 161.932 373.385 260.609 197.248 124.546 343.869 237.789 185.113 298.325 244.601"/><polyline points="298.702 244.468 237.93 184.739 124.235 344.121 260.839 196.921 161.775 373.753 194.934 177.44 220.658 178.488 199.677 381.598 285.408 338.431 102.3 263.018 266.043 358.928"/><polyline points="266.29 359.243 101.906 262.949 285.731 338.666 199.669 381.998 220.731 178.094 194.9 177.041 161.618 374.121 261.069 196.594 123.924 344.372 238.071 184.364 299.079 244.334"/><polyline points="299.457 244.201 238.213 183.99 123.613 344.624 261.299 196.266 161.462 374.489 194.867 176.643 220.804 177.701 199.661 382.398 286.055 338.901 101.511 262.881 266.536 359.557"/><polyline points="266.783 359.872 101.117 262.812 286.379 339.136 199.653 382.798 220.877 177.308 194.833 176.244 161.305 374.857 261.529 195.939 123.302 344.875 238.354 183.616 299.834 244.067"/><polyline points="300.211 243.934 238.495 183.242 122.991 345.127 261.759 195.612 161.148 375.225 194.799 175.846 220.951 176.915 199.646 383.198 286.703 339.371 100.723 262.744 267.029 360.187"/><polyline points="267.276 360.502 100.329 262.675 287.026 339.606 199.638 383.598 221.024 176.521 194.765 175.447 160.991 375.593 261.989 195.285 122.68 345.378 238.636 182.867 300.588 243.8"/><polyline points="300.965 243.667 238.777 182.493 122.369 345.63 262.219 194.957 160.834 375.961 194.731 175.048 221.097 176.128 199.63 383.998 287.35 339.841 99.935 262.607 267.523 360.817"/><polyline points="267.769 361.132 99.541 262.538 287.674 340.076 199.622 384.397 221.17 175.735 194.697 174.65 160.677 376.329 262.449 194.63 122.058 345.882 238.918 182.119 301.342 243.533"/><polyline points="301.719 243.4 239.059 181.744 121.747 346.133 262.679 194.303 160.521 376.697 194.663 174.251 221.244 175.341 199.614 384.797 287.997 340.311 99.147 262.47 268.016 361.447"/><polyline points="268.263 361.762 98.753 262.401 288.321 340.546 199.606 385.197 221.317 174.948 194.629 173.853 160.364 377.065 262.909 193.976 121.436 346.385 239.201 181.37 302.096 243.266"/><polyline points="302.473 243.133 239.342 180.996 121.125 346.636 263.139 193.648 160.207 377.433 194.595 173.454 221.39 174.555 199.599 385.597 288.645 340.781 98.359 262.333 268.509 362.077"/><polyline points="268.756 362.392 97.965 262.264 288.969 341.016 199.591 385.997 221.463 174.162 194.561 173.056 160.05 377.8 263.369 193.321 120.814 346.888 239.483 180.622 302.85 242.999"/><polyline points="303.227 242.866 239.624 180.247 120.503 347.139 263.599 192.994 159.893 378.168 194.528 172.657 221.536 173.769 199.583 386.397 289.292 341.251 97.57 262.196 269.002 362.707"/><polyline points="269.249 363.022 97.176 262.127 289.616 341.486 199.575 386.797 221.609 173.375 194.494 172.259 159.737 378.536 263.829 192.667 120.192 347.391 239.765 179.873 303.604 242.732"/><polyline points="303.981 242.599 239.906 179.499 119.881 347.642 264.059 192.339 159.58 378.904 194.46 171.86 221.683 172.982 199.567 387.197 289.94 341.721 96.782 262.059 269.496 363.337"/><polyline points="269.742 363.651 96.388 261.99 290.263 341.956 199.559 387.597 221.756 172.589 194.426 171.462 159.423 379.272 264.289 192.012 119.57 347.894 240.047 179.125 304.359 242.465"/><polyline points="304.736 242.332 240.189 178.75 119.259 348.145 264.519 191.685 159.266 379.64 194.392 171.063 221.829 172.196 199.551 387.997 290.587 342.191 95.994 261.922 269.989 363.966"/><polyline points="270.236 364.281 95.6 261.853 290.911 342.426 199.544 388.397 221.902 171.802 194.358 170.664 159.109 380.008 264.749 191.357 118.948 348.397 240.33 178.376 305.113 242.198"/><polyline points="305.49 242.065 240.471 178.002 118.637 348.648 264.979 191.03 158.952 380.376 194.324 170.266 221.976 171.409 199.536 388.797 291.235 342.661 95.206 261.785 270.482 364.596"/><polyline points="270.729 364.911 94.812 261.716 291.558 342.896 199.528 389.197 222.049 171.016 194.29 169.867 158.796 380.744 265.209 190.703 118.326 348.9 240.612 177.627 305.867 241.931"/><polyline points="306.244 241.798 240.753 177.253 118.015 349.151 265.439 190.376 158.639 381.112 194.256 169.469 222.122 170.623 199.52 389.596 291.882 343.131 94.418 261.648 270.975 365.226"/><polyline points="271.222 365.541 94.024 261.579 292.206 343.366 199.512 389.996 222.195 170.229 194.222 169.07 158.482 381.48 265.669 190.048 117.704 349.403 240.894 176.879 306.621 241.665"/><polyline points="306.998 241.531 241.035 176.505 117.393 349.654 265.899 189.721 158.325 381.848 194.189 168.672 222.268 169.836 199.504 390.396 292.529 343.601 93.63 261.511 271.469 365.856"/><polyline points="271.715 366.171 93.236 261.442 292.853 343.836 199.496 390.796 222.342 169.443 194.155 168.273 158.168 382.216 266.129 189.394 117.082 349.906 241.177 176.13 307.375 241.398"/><polyline points="307.752 241.264 241.318 175.756 116.771 350.158 266.359 189.067 158.012 382.584 194.121 167.874 222.415 169.05 199.489 391.196 293.177 344.071 92.841 261.374 271.962 366.486"/><polyline points="272.209 366.801 92.447 261.305 293.5 344.306 199.481 391.596 222.488 168.656 194.087 167.476 157.855 382.952 266.589 188.739 116.46 350.409 241.459 175.382 308.129 241.131"/><polyline points="308.506 240.997 241.6 175.007 116.149 350.661 266.819 188.412 157.698 383.32 194.053 167.077 222.561 168.263 199.473 391.996 293.824 344.541 92.053 261.237 272.455 367.116"/><polyline points="272.702 367.431 91.659 261.168 294.148 344.776 199.465 392.396 222.635 167.87 194.019 166.679 157.541 383.688 267.049 188.085 115.838 350.912 241.741 174.633 308.884 240.864"/><polyline points="309.26 240.73 241.882 174.259 115.527 351.164 267.279 187.758 157.384 384.056 193.985 166.28 222.708 167.477 199.457 392.796 294.472 345.01 91.265 261.099 272.948 367.745"/><polyline points="273.195 368.06 90.871 261.031 294.795 345.245 199.449 393.196 222.781 167.083 193.951 165.882 157.227 384.424 267.509 187.43 115.216 351.415 242.023 173.885 309.638 240.597"/><polyline points="310.015 240.463 242.165 173.51 114.905 351.667 267.739 187.103 157.071 384.792 193.917 165.483 222.854 166.69 199.442 393.596 295.119 345.48 90.477 260.962 273.442 368.375"/><polyline points="273.688 368.69 90.083 260.894 295.443 345.715 199.434 393.996 222.927 166.297 193.884 165.084 156.914 385.16 267.969 186.776 114.594 351.918 242.306 173.136 310.392 240.33"/><polyline points="310.769 240.196 242.447 172.762 114.283 352.17 268.199 186.449 156.757 385.528 193.85 164.686 223.001 165.904 199.426 394.396 295.767 345.95 89.689 260.825 273.935 369.005"/><polyline points="274.182 369.32 89.295 260.757 296.09 346.185 199.418 394.795 223.074 165.511 193.816 164.287 156.6 385.896 268.429 186.121 113.972 352.421 242.588 172.388 311.146 240.063"/><polyline points="311.523 239.929 242.729 172.013 113.661 352.673 268.659 185.794 156.443 386.264 193.782 163.889 223.147 165.117 199.41 395.195 296.414 346.42 88.901 260.688 274.428 369.635"/><polyline points="274.675 369.95 88.507 260.62 296.738 346.655 199.402 395.595 223.22 164.724 193.748 163.49 156.286 386.632 268.889 185.467 113.35 352.924 242.87 171.639 311.9 239.796"/><polyline points="312.277 239.662 243.011 171.265 113.039 353.176 269.119 185.14 156.13 387 193.714 163.092 223.293 164.331 199.394 395.995 297.061 346.89 88.112 260.551 274.921 370.265"/><polyline points="275.168 370.58 87.718 260.483 297.385 347.125 199.387 396.395 223.367 163.938 193.68 162.693 155.973 387.368 269.349 184.813 112.728 353.427 243.153 170.891 312.654 239.529"/><polyline points="313.031 239.395 243.294 170.516 112.417 353.679 269.579 184.485 155.816 387.736 193.646 162.295 223.44 163.544 199.379 396.795 297.709 347.36 87.324 260.414 275.415 370.895"/><polyline points="275.661 371.21 86.93 260.346 298.033 347.595 199.371 397.195 223.513 163.151 193.613 161.896 155.659 388.104 269.809 184.158 112.106 353.93 243.435 170.142 313.408 239.262"/><polyline points="313.785 239.129 243.576 169.768 111.795 354.182 270.039 183.831 155.502 388.472 193.579 161.497 223.586 162.758 199.363 397.595 298.356 347.83 86.536 260.277 275.908 371.525"/><polyline points="276.154 371.839 86.142 260.209 298.68 348.065 199.355 397.995 223.66 162.364 193.545 161.099 155.346 388.84 270.269 183.503 111.484 354.433 243.717 169.393 314.163 238.995"/><polyline points="314.54 238.862 243.858 169.019 111.173 354.685 270.499 183.176 155.189 389.208 193.511 160.7 223.733 161.971 199.347 398.395 299.004 348.3 85.748 260.14 276.401 372.154"/><polyline points="276.648 372.469 85.354 260.072 299.327 348.535 199.34 398.795 223.806 161.578 193.477 160.302 155.032 389.576 270.729 182.849 110.862 354.937 243.999 168.645 314.917 238.728"/><polyline points="315.294 238.595 244.141 168.271 110.55 355.188 270.959 182.522 154.875 389.944 193.443 159.903 223.879 161.185 199.332 399.195 299.651 348.77 84.96 260.003 276.894 372.784"/><polyline points="277.141 373.099 84.566 259.935 299.975 349.005 199.324 399.594 223.952 160.792 193.409 159.505 154.718 390.312 271.189 182.194 110.24 355.44 244.282 167.896 315.671 238.461"/><polyline points="316.048 238.328 244.423 167.522 109.928 355.691 271.419 181.867 154.561 390.68 193.375 159.106 224.026 160.398 199.316 399.994 300.298 349.24 84.171 259.866 277.387 373.414"/><polyline points="277.634 373.729 83.777 259.798 300.622 349.475 199.308 400.394 224.099 160.005 193.341 158.708 154.405 391.048 271.649 181.54 109.618 355.943 244.564 167.148 316.425 238.194"/><polyline points="316.802 238.061 244.705 166.774 109.306 356.194 271.879 181.213 154.248 391.416 193.307 158.309 224.172 159.612 199.3 400.794 300.946 349.71 83.383 259.729 277.881 374.044"/><polyline points="278.127 374.359 82.989 259.661 301.27 349.945 199.292 401.194 224.245 159.219 193.274 157.91 154.091 391.784 272.109 180.885 108.995 356.446 244.846 166.399 317.179 237.927"/><polyline points="317.556 237.794 244.987 166.025 108.684 356.697 272.339 180.558 153.934 392.152 193.24 157.512 224.318 158.825 199.285 401.594 301.593 350.18 82.595 259.592 278.374 374.674"/><polyline points="278.621 374.989 82.201 259.524 301.917 350.415 199.277 401.994 224.392 158.432 193.206 157.113 153.777 392.52 272.569 180.231 108.373 356.949 245.129 165.651 317.933 237.66"/><polyline points="318.31 237.527 245.27 165.276 108.062 357.2 272.799 179.904 153.621 392.887 193.172 156.715 224.465 158.039 199.269 402.394 302.241 350.65 81.807 259.455 278.867 375.304"/><polyline points="279.114 375.619 81.413 259.387 302.565 350.885 199.261 402.794 224.538 157.646 193.138 156.316 153.464 393.255 273.029 179.576 107.751 357.452 245.411 164.902 318.687 237.393"/><polyline points="319.065 237.26 245.552 164.528 107.44 357.703 273.259 179.249 153.307 393.623 193.104 155.918 224.611 157.252 199.253 403.194 302.888 351.12 81.019 259.318 279.361 375.934"/><polyline points="279.607 376.248 80.625 259.25 303.212 351.355 199.245 403.594 224.685 156.859 193.07 155.519 153.15 393.991 273.489 178.922 107.129 357.955 245.693 164.154 319.442 237.126"/><polyline points="319.819 236.993 245.834 163.779 106.818 358.207 273.719 178.595 152.993 394.359 193.036 155.12 224.758 156.466 199.238 403.994 303.536 351.59 80.231 259.181 279.854 376.563"/><polyline points="280.1 376.878 79.837 259.113 303.859 351.825 199.23 404.394 224.831 156.073 193.002 154.722 152.837 394.727 273.949 178.267 106.507 358.458 245.975 163.405 320.196 236.859"/><polyline points="320.573 236.726 246.117 163.031 106.196 358.709 274.179 177.94 152.68 395.095 192.969 154.323 224.904 155.679 199.222 404.793 304.183 352.06 79.442 259.044 280.347 377.193"/><polyline points="280.594 377.508 79.048 258.976 304.507 352.295 199.214 405.193 224.977 155.286 192.935 153.925 152.523 395.463 274.409 177.613 105.885 358.961 246.258 162.657 320.95 236.593"/><polyline points="321.327 236.459 246.399 162.282 105.574 359.213 274.639 177.286 152.366 395.831 192.901 153.526 225.05 154.893 199.206 405.593 304.83 352.529 78.654 258.907 280.84 377.823"/><polyline points="281.087 378.138 78.26 258.839 305.154 352.764 199.198 405.993 225.124 154.5 192.867 153.128 152.209 396.199 274.869 176.958 105.263 359.464 246.54 161.908 321.704 236.326"/><polyline points="322.081 236.192 246.681 161.534 104.952 359.716 275.099 176.631 152.052 396.567 192.833 152.729 225.197 154.106 199.19 406.393 305.478 353 77.866 258.77 281.333 378.453"/><polyline points="281.58 378.768 77.472 258.702 305.802 353.234 199.183 406.793 225.27 153.713 192.799 152.331 151.895 396.935 275.329 176.304 104.641 359.967 246.822 161.16 322.458 236.059"/><polyline points="322.835 235.925 246.963 160.785 104.33 360.219 275.559 175.977 151.739 397.303 192.765 151.932 225.343 153.32 199.175 407.193 306.125 353.469 77.078 258.633 281.827 379.083"/><polyline points="282.073 379.398 76.684 258.565 306.449 353.704 199.167 407.593 225.417 152.927 192.731 151.533 151.582 397.671 275.789 175.649 104.019 360.47 247.105 160.411 323.212 235.792"/><polyline points="323.589 235.658 247.246 160.037 103.708 360.722 276.019 175.322 151.425 398.039 192.697 151.135 225.49 152.534 199.159 407.993 306.773 353.939 76.29 258.496 282.32 379.713"/><polyline points="282.567 380.028 75.896 258.428 307.096 354.174 199.151 408.393 225.563 152.14 192.663 150.736 151.268 398.407 276.249 174.995 103.397 360.973 247.387 159.662 323.966 235.525"/><polyline points="324.344 235.391 247.528 159.288 103.086 361.225 276.479 174.668 151.111 398.775 192.63 150.338 225.636 151.747 199.143 408.793 307.42 354.409 75.501 258.359 282.813 380.343"/><polyline points="283.06 380.658 75.107 258.291 307.744 354.644 199.136 409.193 225.709 151.354 192.596 149.939 150.955 399.143 276.709 174.34 102.775 361.476 247.669 158.914 324.721 235.258"/><polyline points="325.098 235.124 247.81 158.54 102.464 361.728 276.94 174.013 150.798 399.511 192.562 149.541 225.783 150.96 199.128 409.593 308.068 354.879 74.713 258.222 283.306 380.972"/><polyline points="283.553 381.287 74.319 258.154 308.391 355.114 199.12 409.993 225.856 150.567 192.528 149.142 150.641 399.879 277.17 173.686 102.153 361.979 247.951 158.165 325.475 234.991"/><polyline points="325.852 234.857 248.093 157.791 101.842 362.231 277.399 173.359 150.484 400.247 192.494 148.744 225.929 150.174 199.112 410.392 308.715 355.349 73.925 258.085 283.8 381.602"/><polyline points="284.046 381.917 73.531 258.017 309.039 355.584 199.104 410.792 226.002 149.781 192.46 148.345 150.327 400.615 277.63 173.031 101.531 362.483 248.234 157.417 326.229 234.724"/><polyline points="326.606 234.59 248.375 157.042 101.22 362.734 277.86 172.704 150.171 400.983 192.426 147.946 226.076 149.387 199.096 411.192 309.362 355.819 73.137 257.948 284.293 382.232"/><polyline points="284.539 382.547 72.743 257.88 309.686 356.054 199.089 411.592 226.149 148.994 192.392 147.548 150.014 401.351 278.089 172.377 100.909 362.986 248.516 156.668 326.983 234.457"/><polyline points="327.36 234.323 248.657 156.294 100.598 363.237 278.32 172.05 149.857 401.719 192.358 147.149 226.222 148.601 199.081 411.992 310.01 356.289 72.349 257.811 284.786 382.862"/><polyline points="285.033 383.177 71.955 257.743 310.334 356.524 199.073 412.392 226.295 148.208 192.325 146.751 149.7 402.087 278.55 171.722 100.287 363.489 248.798 155.92 327.737 234.19"/><polyline points="328.114 234.057 248.939 155.545 99.976 363.74 278.78 171.395 149.543 402.455 192.291 146.352 226.368 147.815 199.065 412.792 310.657 356.759 71.561 257.674 285.279 383.492"/><polyline points="285.526 383.807 71.167 257.605 310.981 356.994 199.057 413.192 226.442 147.421 192.257 145.953 149.386 402.823 279.01 171.068 99.665 363.992 249.081 155.171 328.491 233.923"/><polyline points="328.868 233.79 249.222 154.797 99.354 364.243 279.24 170.741 149.23 403.191 192.223 145.555 226.515 147.028 199.049 413.592 311.305 357.229 70.772 257.537 285.773 384.122"/><polyline points="286.019 384.437 70.378 257.468 311.628 357.464 199.041 413.992 226.588 146.635 192.189 145.156 149.073 403.559 279.47 170.413 99.043 364.495 249.363 154.423 329.245 233.656"/><polyline points="329.623 233.523 249.504 154.048 98.732 364.746 279.7 170.086 148.916 403.927 192.155 144.758 226.661 146.242 199.034 414.392 311.952 357.699 69.984 257.4 286.266 384.752"/><polyline points="286.512 385.067 69.59 257.331 312.276 357.934 199.026 414.792 226.734 145.848 192.121 144.359 148.759 404.295 279.93 169.759 98.421 364.998 249.645 153.674 330 233.389"/><polyline points="330.377 233.256 249.786 153.3 98.11 365.249 280.16 169.432 148.602 404.663 192.087 143.961 226.808 145.455 199.018 415.192 312.599 358.169 69.196 257.263 286.759 385.381"/><polyline points="287.006 385.696 68.802 257.194 312.923 358.404 199.01 415.591 226.881 145.062 192.053 143.562 148.446 405.031 280.39 169.104 97.799 365.501 249.927 152.925 330.754 233.122"/><polyline points="331.131 232.989 250.069 152.551 97.488 365.752 280.62 168.777 148.289 405.399 192.019 143.164 226.954 144.669 199.002 415.991 313.247 358.639 68.408 257.126 287.252 386.011"/><polyline points="287.499 386.326 68.014 257.057 313.571 358.874 198.994 416.391 227.027 144.275 191.986 142.765 148.132 405.767 280.85 168.45 97.177 366.004 250.21 152.177 331.508 232.855"/><polyline points="331.885 232.722 250.351 151.803 96.866 366.255 281.08 168.123 147.975 406.135 191.952 142.367 227.101 143.882 198.987 416.791 313.894 359.109 67.62 256.989 287.745 386.641"/><polyline points="287.992 386.956 67.226 256.92 314.218 359.344 198.979 417.191 227.174 143.489 191.918 141.968 147.818 406.503 281.31 167.795 96.555 366.507 250.492 151.428 332.262 232.588"/><polyline points="332.639 232.455 250.633 151.054 96.244 366.759 281.54 167.468 147.661 406.871 191.884 141.569 227.247 143.096 198.971 417.591 314.542 359.579 66.832 256.852 288.239 387.271"/><polyline points="288.485 387.586 66.438 256.783 314.865 359.814 198.963 417.991 227.32 142.702 191.85 141.171 147.505 407.239 281.77 167.141 95.933 367.01 250.774 150.68 333.016 232.321"/><polyline points="333.393 232.188 250.915 150.306 95.622 367.262 282 166.814 147.348 407.607 191.816 140.772 227.393 142.309 198.955 418.391 315.189 360.049 66.043 256.715 288.732 387.901"/><polyline points="288.979 388.216 65.649 256.646 315.513 360.284 198.947 418.791 227.467 141.916 191.782 140.374 147.191 407.975 282.23 166.486 95.311 367.513 251.056 149.931 333.77 232.054"/><polyline points="334.147 231.921 251.198 149.557 95 367.765 282.46 166.159 147.034 408.343 191.748 139.975 227.54 141.523 198.939 419.191 315.837 360.519 65.255 256.578 289.225 388.531"/><polyline points="289.472 388.846 64.861 256.509 316.16 360.753 198.931 419.591 227.613 141.129 191.714 139.577 146.877 408.711 282.69 165.832 94.689 368.016 251.339 149.183 334.524 231.787"/><polyline points="334.902 231.654 251.48 148.809 94.378 368.268 282.92 165.505 146.72 409.079 191.681 139.178 227.686 140.736 198.924 419.991 316.484 360.988 64.467 256.441 289.719 389.161"/><polyline points="289.965 389.476 64.073 256.372 316.808 361.223 198.916 420.39 227.759 140.343 191.647 138.779 146.564 409.447 283.15 165.177 94.067 368.519 251.621 148.434 335.279 231.521"/><polyline points="335.656 231.387 251.762 148.06 93.755 368.771 283.38 164.85 146.407 409.815 191.613 138.381 227.833 139.95 198.908 420.79 317.132 361.458 63.679 256.304 290.212 389.79"/><polyline points="290.458 390.105 63.285 256.235 317.455 361.693 198.9 421.19 227.906 139.556 191.579 137.982 146.25 410.183 283.61 164.523 93.445 369.022 251.903 147.686 336.033 231.254"/><polyline points="336.41 231.12 252.044 147.311 93.133 369.274 283.84 164.196 146.093 410.55 191.545 137.584 227.979 139.163 198.892 421.59 317.779 361.928 62.891 256.167 290.705 390.42"/><polyline points="290.952 390.735 62.497 256.098 318.103 362.163 198.885 421.99 228.052 138.77 191.511 137.185 145.936 410.918 284.07 163.868 92.823 369.525 252.186 146.937 336.787 230.987"/><polyline points="337.164 230.853 252.327 146.563 92.511 369.777 284.3 163.541 145.78 411.286 191.477 136.787 228.125 138.377 198.877 422.39 318.426 362.398 62.102 256.03 291.198 391.05"/><polyline points="291.445 391.365 61.708 255.961 318.75 362.633 198.869 422.79 228.199 137.983 191.443 136.388 145.623 411.654 284.53 163.214 92.2 370.028 252.468 146.189 337.541 230.72"/><polyline points="337.918 230.586 252.609 145.814 91.889 370.28 284.76 162.887 145.466 412.022 191.41 135.989 228.272 137.59 198.861 423.19 319.074 362.868 61.314 255.893 291.691 391.68"/><polyline points="291.938 391.995 60.92 255.824 319.397 363.103 198.853 423.59 228.345 137.197 191.376 135.591 145.309 412.39 284.99 162.559 91.578 370.531 252.75 145.44 338.295 230.453"/><polyline points="338.672 230.319 252.891 145.066 91.267 370.783 285.22 162.232 145.152 412.758 191.342 135.192 228.418 136.804 198.845 423.99 319.721 363.338 60.526 255.756 292.185 392.31"/><polyline points="292.431 392.625 60.132 255.687 320.045 363.573 198.837 424.39 228.492 136.411 191.308 134.794 144.995 413.126 285.45 161.905 90.956 371.034 253.032 144.691 339.049 230.186"/><polyline points="339.426 230.052 253.174 144.317 90.645 371.286 285.68 161.577 144.839 413.494 191.274 134.395 228.565 136.017 198.829 424.79 320.369 363.808 59.738 255.619 292.678 392.94"/><polyline points="292.925 393.255 59.344 255.55 320.692 364.043 198.822 425.19 228.638 135.624 191.24 133.997 144.682 413.862 285.91 161.25 90.334 371.538 253.315 143.943 339.803 229.919"/><polyline points="340.181 229.785 253.456 143.569 90.023 371.789 286.14 160.923 144.525 414.23 191.206 133.598 228.711 135.231 198.814 425.589 321.016 364.278 58.95 255.482 293.171 393.57"/><polyline points="293.418 393.884 58.556 255.413 321.34 364.513 198.806 425.989 228.784 134.838 191.172 133.2 144.368 414.598 286.37 160.596 89.712 372.041 253.597 143.195 340.558 229.652"/><polyline points="340.935 229.518 253.738 142.82 89.401 372.292 286.6 160.268 144.211 414.966 191.138 132.801 228.858 134.444 198.798 426.389 321.663 364.748 58.162 255.345 293.664 394.199"/><polyline points="293.911 394.514 57.767 255.276 321.987 364.983 198.79 426.789 228.931 134.051 191.104 132.403 144.055 415.334 286.83 159.941 89.09 372.544 253.879 142.446 341.312 229.385"/><polyline points="341.689 229.251 254.02 142.072 88.779 372.795 287.06 159.614 143.898 415.702 191.071 132.004 229.004 133.658 198.782 427.189 322.311 365.218 57.373 255.208 294.158 394.829"/><polyline points="294.404 395.144 56.979 255.139 322.635 365.453 198.775 427.589 229.077 133.265 191.037 131.605 143.741 416.07 287.29 159.287 88.468 373.047 254.162 141.697 342.066 229.118"/><polyline points="342.443 228.985 254.303 141.323 88.157 373.298 287.52 158.959 143.584 416.438 191.003 131.207 229.15 132.871 198.767 427.989 322.958 365.688 56.585 255.071 294.651 395.459"/><polyline points="294.897 395.774 56.191 255.002 323.282 365.923 198.759 428.389 229.224 132.478 190.969 130.808 143.427 416.806 287.75 158.632 87.846 373.55 254.444 140.949 342.82 228.851"/><polyline points="343.197 228.718 254.585 140.575 87.535 373.801 287.98 158.305 143.27 417.174 190.935 130.41 229.297 132.085 198.751 428.789 323.606 366.158 55.797 254.934 295.144 396.089"/><polyline points="295.391 396.404 55.403 254.865 323.929 366.393 198.743 429.189 229.37 131.692 190.901 130.011 143.114 417.542 288.21 157.978 87.224 374.053 254.726 140.2 343.574 228.584"/><polyline points="343.951 228.451 254.867 139.826 86.913 374.304 288.44 157.65 142.957 417.91 190.867 129.613 229.443 131.298 198.735 429.589 324.253 366.628 55.009 254.797 295.637 396.719"/><polyline points="295.884 397.034 54.615 254.728 324.577 366.863 198.727 429.989 229.517 130.905 190.833 129.214 142.8 418.278 288.67 157.323 86.602 374.556 255.008 139.452 344.328 228.317"/><polyline points="344.705 228.184 255.15 139.077 86.291 374.808 288.9 156.996 142.643 418.646 190.799 128.815 229.59 130.512 198.72 430.389 324.901 367.098 54.221 254.659 296.131 397.349"/><polyline points="296.377 397.664 53.827 254.591 325.224 367.333 198.712 430.788 229.663 130.119 190.766 128.417 142.486 419.014 289.13 156.669 85.98 375.059 255.291 138.703 345.083 228.05"/><polyline points="345.46 227.917 255.432 138.329 85.669 375.31 289.36 156.341 142.33 419.382 190.732 128.018 229.736 129.725 198.704 431.188 325.548 367.568 53.432 254.522 296.624 397.978"/><polyline points="296.87 398.293 53.038 254.454 325.872 367.803 198.696 431.588 229.809 129.332 190.698 127.62 142.173 419.75 289.59 156.014 85.358 375.562 255.573 137.955 345.837 227.783"/><polyline points="346.214 227.65 255.714 137.58 85.047 375.814 289.82 155.687 142.016 420.118 190.664 127.221 229.883 128.939 198.688 431.988 326.195 368.038 52.644 254.385 297.117 398.608"/><polyline points="297.364 398.923 52.25 254.317 326.519 368.272 198.68 432.388 229.956 128.546 190.63 126.823 141.859 420.486 290.05 155.36 84.736 376.065 255.855 137.206 346.591 227.516"/><polyline points="346.968 227.383 255.996 136.832 84.425 376.317 290.28 155.032 141.702 420.854 190.596 126.424 230.029 128.152 198.673 432.788 326.843 368.507 51.856 254.248 297.61 399.238"/><polyline points="297.857 399.553 51.462 254.18 327.166 368.742 198.665 433.188 230.102 127.759 190.562 126.025 141.546 421.222 290.51 154.705 84.114 376.568 256.138 136.458 347.345 227.249"/><polyline points="347.722 227.116 256.279 136.083 83.803 376.82 290.74 154.378 141.389 421.59 190.528 125.627 230.175 127.366 198.657 433.588 327.49 368.977 51.068 254.111 298.103 399.868"/><polyline points="298.35 400.183 50.674 254.043 327.814 369.212 198.649 433.988 230.249 126.973 190.494 125.228 141.232 421.958 290.97 154.051 83.492 377.071 256.42 135.709 348.099 226.982"/><polyline points="348.476 226.849 256.561 135.335 83.181 377.323 291.2 153.723 141.075 422.326 190.46 124.83 230.322 126.579 198.641 434.388 328.138 369.447 50.28 253.974 298.597 400.498"/><polyline points="298.843 400.813 49.886 253.906 328.461 369.682 198.633 434.788 230.395 126.186 190.427 124.431 140.918 422.694 291.43 153.396 82.87 377.574 256.702 134.96 348.853 226.715"/><polyline points="349.23 226.582 256.843 134.586 82.559 377.826 291.66 153.069 140.761 423.062 190.393 124.033 230.468 125.793 198.625 435.188 328.785 369.917 49.492 253.837 299.09 401.128"/><polyline points="299.337 401.443 49.098 253.769 329.109 370.152 198.618 435.588 230.542 125.4 190.359 123.634 140.605 423.43 291.89 152.742 82.248 378.077 256.984 134.212 349.608 226.449"/><polyline points="349.985 226.315 257.126 133.838 81.937 378.329 292.12 152.414 140.448 423.798 190.325 123.236 230.615 125.007 198.61 435.988 329.433 370.387 48.703 253.7 299.583 401.758"/><polyline points="299.83 402.073 48.309 253.632 329.756 370.622 198.602 436.387 230.688 124.613 190.291 122.837 140.291 424.166 292.35 152.087 81.626 378.58 257.267 133.463 350.362 226.182"/><polyline points="350.739 226.048 257.408 133.089 81.315 378.832 292.58 151.76 140.134 424.534 190.257 122.438 230.761 124.22 198.594 436.787 330.08 370.857 47.915 253.563 300.077 402.387"/><polyline points="300.323 402.702 47.521 253.495 330.404 371.092 198.586 437.187 230.834 123.827 190.223 122.04 139.977 424.902 292.81 151.433 81.004 379.084 257.549 132.715 351.116 225.915"/><polyline points="351.493 225.781 257.69 132.341 80.693 379.335 293.04 151.105 139.82 425.27 190.189 121.641 230.908 123.433 198.578 437.587 330.727 371.327 47.127 253.426 300.57 403.017"/><polyline points="300.816 403.332 46.733 253.358 331.051 371.562 198.571 437.987 230.981 123.04 190.155 121.243 139.664 425.638 293.27 150.778 80.382 379.587 257.831 131.966 351.87 225.648"/><polyline points="352.247 225.514 257.972 131.592 80.071 379.838 293.5 150.451 139.507 426.005 190.122 120.844 231.054 122.647 198.563 438.387 331.375 371.797 46.339 253.289 301.063 403.647"/><polyline points="301.31 403.962 45.945 253.221 331.699 372.032 198.555 438.787 231.127 122.254 190.088 120.446 139.35 426.373 293.73 150.124 79.76 380.09 258.114 131.218 352.624 225.381"/><polyline points="353.001 225.247 258.255 130.844 79.449 380.341 293.96 149.796 139.193 426.741 190.054 120.047 231.2 121.861 198.547 439.187 332.022 372.267 45.551 253.152 301.556 404.277"/><polyline points="301.803 404.592 45.157 253.084 332.346 372.502 198.539 439.587 231.274 121.467 190.02 119.648 139.036 427.11 294.19 149.469 79.138 380.593 258.396 130.469 353.378 225.114"/><polyline points="353.755 224.98 258.537 130.095 78.827 380.844 294.42 149.142 138.88 427.477 189.986 119.25 231.347 121.074 198.531 439.987 332.67 372.737 44.763 253.015 302.049 404.907"/><polyline points="302.296 405.222 44.368 252.947 332.993 372.972 198.524 440.387 231.42 120.681 189.952 118.851 138.723 427.845 294.65 148.815 78.516 381.096 258.678 129.721 354.132 224.847"/><polyline points="354.509 224.713 258.819 129.346 78.205 381.347 294.88 148.487 138.566 428.213 189.918 118.453 231.493 120.288 198.516 440.787 333.317 373.207 43.974 252.878 302.543 405.537"/><polyline points="302.789 405.852 43.58 252.81 333.641 373.442 198.508 441.187 231.566 119.894 189.884 118.054 138.409 428.581 295.11 148.16 77.894 381.599 258.96 128.972 354.887 224.58"/><polyline points="355.264 224.446 259.101 128.598 77.583 381.85 295.34 147.833 138.252 428.949 189.85 117.656 231.64 119.501 198.5 441.586 333.964 373.677 43.186 252.741 303.036 406.167"/><polyline points="303.283 406.481 42.792 252.673 334.288 373.912 198.492 441.986 231.713 119.108 189.816 117.257 138.095 429.317 295.57 147.506 77.272 382.102 259.243 128.224 355.641 224.313"/><polyline points="356.018 224.179 259.384 127.849 76.96 382.353 295.8 147.178 137.939 429.685 189.783 116.859 231.786 118.715 198.484 442.386 334.612 374.147 42.398 252.604 303.529 406.796"/><polyline points="303.776 407.111 42.004 252.536 334.936 374.382 198.476 442.786 231.859 118.321 189.749 116.46 137.782 430.053 296.03 146.851 76.65 382.605 259.525 127.475 356.395 224.046"/><polyline points="356.772 223.913 259.666 127.101 76.338 382.856 296.26 146.524 137.625 430.421 189.715 116.061 231.933 117.928 198.469 443.186 335.259 374.617 41.61 252.467 304.022 407.426"/><polyline points="304.269 407.741 41.216 252.399 335.583 374.852 198.461 443.586 232.006 117.535 189.681 115.663 137.468 430.789 296.49 146.197 76.028 383.108 259.807 126.727 357.149 223.779"/><polyline points="357.526 223.646 259.948 126.352 75.716 383.36 296.721 145.869 137.311 431.157 189.647 115.264 232.079 117.142 198.453 443.986 335.907 375.087 40.822 252.33 304.516 408.056"/><polyline points="304.762 408.371 40.428 252.262 336.231 375.322 198.445 444.386 232.152 116.748 189.613 114.866 137.155 431.525 296.95 145.542 75.405 383.611 260.089 125.978 357.903 223.512"/><polyline points="358.28 223.379 260.231 125.604 75.094 383.863 297.18 145.215 136.998 431.893 189.579 114.467 232.225 116.355 198.437 444.786 336.554 375.557 40.033 252.193 305.009 408.686"/><polyline points="305.255 409.001 39.639 252.125 336.878 375.791 198.429 445.186 232.299 115.962 189.545 114.069 136.841 432.261 297.411 144.888 74.783 384.114 260.372 125.229 358.657 223.245"/><polyline points="359.034 223.112 260.513 124.855 74.472 384.366 297.64 144.56 136.684 432.629 189.512 113.67 232.372 115.569 198.422 445.586 337.202 376.026 39.245 252.056 305.502 409.316"/><polyline points="305.749 409.631 38.851 251.988 337.525 376.262 198.414 445.986 232.445 115.175 189.478 113.272 136.527 432.997 297.87 144.233 74.161 384.617 260.654 124.481 359.411 222.978"/><polyline points="359.788 222.845 260.795 124.107 73.85 384.869 298.101 143.906 136.37 433.365 189.444 112.873 232.518 114.782 198.406 446.385 337.849 376.496 38.457 251.919 305.995 409.946"/><polyline points="306.242 410.261 38.063 251.851 338.173 376.731 198.398 446.785 232.591 114.389 189.41 112.474 136.214 433.733 298.331 143.579 73.539 385.12 260.936 123.732 360.166 222.711"/><polyline points="360.543 222.578 261.077 123.358 73.228 385.372 298.561 143.251 136.057 434.101 189.376 112.076 232.665 113.996 198.39 447.185 338.497 376.966 37.669 251.782 306.489 410.576"/><polyline points="306.735 410.89 37.275 251.714 338.82 377.201 198.382 447.585 232.738 113.602 189.342 111.677 135.9 434.469 298.791 142.924 72.917 385.623 261.219 122.984 360.92 222.444"/><polyline points="361.297 222.311 261.36 122.609 72.606 385.875 299.021 142.597 135.743 434.837 189.308 111.279 232.811 113.209 198.374 447.985 339.144 377.436 36.881 251.645 306.982 411.205"/><polyline points="307.228 411.52 36.487 251.576 339.468 377.671 198.367 448.385 232.884 112.816 189.274 110.88 135.586 435.205 299.251 142.27 72.295 386.126 261.501 122.235 361.674 222.177"/><polyline points="362.051 222.044 261.642 121.861 71.984 386.378 299.481 141.942 135.429 435.573 189.24 110.482 232.958 112.423 198.359 448.785 339.791 377.906 36.093 251.508 307.475 411.835"/><polyline points="307.722 412.15 35.699 251.439 340.115 378.141 198.351 449.185 233.031 112.029 189.207 110.083 135.273 435.941 299.711 141.615 71.673 386.629 261.783 121.487 362.428 221.911"/><polyline points="362.805 221.777 261.924 121.112 71.362 386.881 299.941 141.288 135.116 436.309 189.173 109.684 233.104 111.636 198.343 449.585 340.439 378.376 35.304 251.371 307.968 412.465"/><polyline points="308.215 412.78 34.91 251.302 340.762 378.611 198.335 449.985 233.177 111.243 189.139 109.286 134.959 436.677 300.171 140.96 71.051 387.132 262.065 120.738 363.182 221.643"/><polyline points="363.559 221.51 262.207 120.364 70.74 387.384 300.401 140.633 134.802 437.045 189.105 108.887 233.25 110.85 198.327 450.385 341.086 378.846 34.516 251.234 308.462 413.095"/><polyline points="308.708 413.41 34.122 251.165 341.41 379.081 198.32 450.785 233.324 110.457 189.071 108.489 134.645 437.413 300.631 140.306 70.429 387.635 262.348 119.99 363.936 221.377"/><polyline points="364.313 221.243 262.489 119.615 70.118 387.887 300.861 139.979 134.489 437.781 189.037 108.09 233.397 110.063 198.312 451.185 341.734 379.316 33.728 251.097 308.955 413.725"/><polyline points="309.201 414.04 33.334 251.028 342.057 379.551 198.304 451.584 233.47 109.67 189.003 107.692 134.332 438.149 301.091 139.651 69.807 388.139 262.63 119.241 364.69 221.11"/><polyline points="365.067 220.976 262.771 118.867 69.496 388.39 301.321 139.324 134.175 438.517 188.969 107.293 233.543 109.277 198.296 451.984 342.381 379.786 32.94 250.96 309.448 414.355"/><polyline points="309.695 414.67 32.546 250.891 342.705 380.021 198.288 452.384 233.617 108.883 188.935 106.894 134.018 438.885 301.551 138.997 69.185 388.642 262.912 118.493 365.445 220.843"/><polyline points="365.822 220.709 263.053 118.118 68.874 388.893 301.781 138.67 133.861 439.253 188.901 106.496 233.69 108.49 198.28 452.784 343.028 380.256 32.152 250.823 309.941 414.985"/><polyline points="310.188 415.3 31.758 250.754 343.352 380.491 198.272 453.184 233.763 108.097 188.868 106.097 133.704 439.621 302.011 138.343 68.563 389.145 263.195 117.744 366.199 220.576"/><polyline points="366.576 220.442 263.336 117.37 68.252 389.396 302.241 138.015 133.548 439.989 188.834 105.699 233.836 107.704 198.265 453.584 343.676 380.726 31.364 250.686 310.435 415.614"/><polyline points="310.681 415.929 30.97 250.617 344 380.961 198.257 453.984 233.909 107.311 188.8 105.3 133.391 440.357 302.471 137.688 67.941 389.648 263.477 116.996 366.953 220.309"/><polyline points="367.33 220.175 263.618 116.621 67.63 389.899 302.701 137.361 133.234 440.725 188.766 104.902 233.982 106.917 198.249 454.384 344.323 381.196 30.575 250.549 310.928 416.244"/><polyline points="311.174 416.559 30.181 250.48 344.647 381.431 198.241 454.784 234.056 106.524 188.732 104.503 133.077 441.093 302.931 137.034 67.319 390.151 263.759 116.247 367.707 220.042"/><polyline points="368.084 219.908 263.9 115.873 67.008 390.402 303.161 136.706 132.92 441.461 188.698 104.105 234.129 106.131 198.233 455.184 344.971 381.666 29.787 250.412 311.421 416.874"/><polyline points="311.668 417.189 29.393 250.343 345.294 381.901 198.225 455.584 234.202 105.738 188.664 103.706 132.764 441.829 303.391 136.379 66.697 390.654 264.041 115.498 368.461 219.775"/><polyline points="368.838 219.641 264.183 115.124 66.386 390.905 303.621 136.052 132.607 442.197 188.63 103.308 234.275 105.344 198.218 455.984 345.618 382.136 28.999 250.275 311.914 417.504"/><polyline points="312.161 417.819 28.605 250.206 345.942 382.371 198.21 456.384 234.349 104.951 188.596 102.909 132.45 442.565 303.851 135.725 66.075 391.157 264.324 114.75 369.215 219.508"/><polyline points="369.592 219.375 264.465 114.376 65.764 391.409 304.081 135.397 132.293 442.933 188.563 102.51 234.422 104.558 198.202 456.784 346.265 382.606 28.211 250.138 312.407 418.134"/><polyline points="312.654 418.449 27.817 250.069 346.589 382.841 198.194 457.183 234.495 104.165 188.529 102.112 132.136 443.3 304.311 135.07 65.453 391.66 264.606 114.001 369.969 219.241"/><polyline points="370.346 219.107 264.747 113.627 65.142 391.911 304.541 134.743 131.98 443.668 188.495 101.713 234.568 103.771 198.186 457.583 346.913 383.076 27.423 250.001 312.901 418.764"/><polyline points="313.147 419.079 27.029 249.932 347.237 383.31 198.178 457.983 234.641 103.378 188.461 101.315 131.823 444.036 304.771 134.416 64.831 392.163 264.888 113.253 370.724 218.974"/><polyline points="371.101 218.841 265.029 112.879 64.52 392.415 305.001 134.088 131.666 444.404 188.427 100.916 234.715 102.985 198.17 458.383 347.56 383.546 26.634 249.864 313.394 419.394"/><polyline points="313.64 419.709 26.24 249.795 347.884 383.781 198.163 458.783 234.788 102.592 188.393 100.517 131.509 444.772 305.231 133.761 64.209 392.666 265.171 112.504 371.478 218.707"/><polyline points="371.855 218.574 265.312 112.13 63.898 392.918 305.461 133.434 131.352 445.14 188.359 100.119 234.861 102.198 198.155 459.183 348.208 384.015 25.846 249.727 313.887 420.023"/><polyline points="314.134 420.338 25.452 249.658 348.531 384.25 198.147 459.583 234.934 101.805 188.325 99.72 131.195 445.508 305.691 133.107 63.587 393.169 265.453 111.756 372.232 218.44"/><polyline points="372.609 218.307 265.594 111.381 63.276 393.421 305.921 132.779 131.039 445.876 188.291 99.322 235.007 101.412 198.139 459.983 348.855 384.485 25.058 249.59 314.38 420.653"/><polyline points="314.627 420.968 24.664 249.521 349.179 384.72 198.131 460.383 235.081 101.019 188.257 98.923 130.882 446.244 306.151 132.452 62.965 393.672 265.735 111.007 372.986 218.173"/><polyline points="373.363 218.04 265.876 110.633 62.654 393.924 306.381 132.125 130.725 446.612 188.224 98.525 235.154 100.625 198.123 460.783 349.503 384.955 24.27 249.453 314.874 421.283"/><polyline points="315.12 421.598 23.876 249.384 349.826 385.19 198.115 461.183 235.227 100.232 188.19 98.126 130.568 446.98 306.611 131.798 62.343 394.175 266.017 110.259 373.74 217.906"/><polyline points="374.117 217.773 266.159 109.884 62.032 394.427 306.841 131.47 130.411 447.348 188.156 97.728 235.3 99.839 198.108 461.583 350.15 385.425 23.482 249.316 315.367 421.913"/><polyline points="315.613 422.228 23.088 249.247 350.474 385.66 198.1 461.983 235.374 99.446 188.122 97.329 130.255 447.716 307.071 131.143 61.721 394.678 266.3 109.51 374.494 217.639"/><polyline points="374.871 217.506 266.441 109.136 61.41 394.93 307.301 130.816 130.098 448.084 188.088 96.93 235.447 99.052 198.092 462.382 350.798 385.895 22.694 249.179 315.86 422.543"/><polyline points="316.107 422.858 22.299 249.11 351.121 386.13 198.084 462.782 235.52 98.659 188.054 96.532 129.941 448.452 307.531 130.488 61.099 395.181 266.582 108.761 375.248 217.372"/><polyline points="375.626 217.239 266.723 108.387 60.788 395.433 307.761 130.161 129.784 448.82 188.02 96.133 235.593 98.266 198.076 463.182 351.445 386.365 21.905 249.042 316.353 423.173"/><polyline points="316.6 423.488 21.511 248.973 351.769 386.6 198.068 463.582 235.666 97.873 187.986 95.735 129.627 449.188 307.991 129.834 60.477 395.685 266.864 108.013 376.003 217.105"/><polyline points="376.38 216.972 267.005 107.639 60.166 395.936 308.221 129.507 129.47 449.556 187.952 95.336 235.74 97.48 198.061 463.982 352.092 386.835 21.117 248.905 316.847 423.803"/><polyline points="317.093 424.118 20.723 248.836 352.416 387.07 198.053 464.382 235.813 97.086 187.919 94.938 129.314 449.924 308.451 129.179 59.855 396.188 267.147 107.264 376.757 216.839"/><polyline points="377.134 216.705 267.288 106.89 59.544 396.439 308.681 128.852 129.157 450.292 187.885 94.539 235.886 96.693 198.045 464.782 352.74 387.305 20.329 248.768 317.34 424.432"/><polyline points="317.586 424.747 19.935 248.699 353.063 387.54 198.037 465.182 235.959 96.3 187.851 94.141 129 450.66 308.911 128.525 59.233 396.691 267.429 106.516 377.511 216.572"/><polyline points="377.888 216.438 267.57 106.142 58.922 396.942 309.141 128.198 128.843 451.028 187.817 93.742 236.032 95.906 198.029 465.582 353.387 387.775 19.541 248.63 317.833 425.062"/><polyline points="318.08 425.377 19.147 248.562 353.711 388.01 198.021 465.982 236.106 95.513 187.783 93.343 128.686 451.396 309.371 127.87 58.61 397.194 267.711 105.767 378.265 216.305"/><polyline points="378.642 216.171 267.852 105.393 58.299 397.445 309.601 127.543 128.529 451.764 187.749 92.945 236.179 95.12 198.013 466.382 354.035 388.245 18.753 248.493 318.326 425.692"/><polyline points="318.573 426.007 18.359 248.425 354.358 388.48 198.006 466.782 236.252 94.727 187.715 92.546 128.373 452.132 309.831 127.216 57.988 397.697 267.993 105.019 379.019 216.038"/><polyline points="379.396 215.904 268.135 104.644 57.677 397.948 310.061 126.889 128.216 452.5 187.681 92.148 236.325 94.334 197.998 467.182 354.682 388.715 17.965 248.356 318.82 426.322"/><polyline points="319.066 426.637 17.57 248.288 355.006 388.95 197.99 467.581 236.399 93.94 187.647 91.749 128.059 452.868 310.291 126.561 57.366 398.2 268.276 104.27 379.773 215.771"/><polyline points="380.151 215.637 268.417 103.896 57.055 398.451 310.521 126.234 127.902 453.236 187.613 91.351 236.472 93.547 197.982 467.981 355.329 389.185 17.176 248.219 319.313 426.952"/><polyline points="319.559 427.267 16.782 248.151 355.653 389.42 197.974 468.381 236.545 93.154 187.58 90.952 127.745 453.604 310.751 125.907 56.744 398.703 268.558 103.522 380.527 215.504"/><polyline points="380.905 215.37 268.699 103.147 56.433 398.954 310.981 125.58 127.588 453.972 187.546 90.553 236.618 92.761 197.966 468.781 355.977 389.655 16.388 248.082 319.806 427.582"/><polyline points="320.053 427.897 15.994 248.014 356.301 389.89 197.959 469.181 236.691 92.367 187.512 90.155 127.432 454.34 311.211 125.252 56.122 399.206 268.84 102.773 381.282 215.237"/><polyline points="381.659 215.103 268.981 102.399 55.811 399.457 311.441 124.925 127.275 454.708 187.478 89.756 236.765 91.974 197.951 469.581 356.624 390.125 15.6 247.945 320.299 428.212"/><polyline points="320.546 428.526 15.206 247.877 356.948 390.36 197.943 469.981 236.838 91.581 187.444 89.358 127.118 455.076 311.671 124.598 55.5 399.709 269.123 102.025 382.036 214.97"/><polyline points="382.413 214.836 269.264 101.65 55.189 399.961 311.901 124.271 126.961 455.444 187.41 88.959 236.911 91.188 197.935 470.381 357.272 390.595 14.812 247.808 320.793 428.841"/><polyline points="321.039 429.156 14.418 247.74 357.595 390.83 197.927 470.781 236.984 90.794 187.376 88.561 126.804 455.812 312.131 123.943 54.878 400.212 269.405 101.276 382.79 214.703"/><polyline points="383.167 214.57 269.546 100.902 54.567 400.464 312.361 123.616 126.648 456.18 187.342 88.162 237.058 90.401 197.919 471.181 357.919 391.065 14.024 247.671 321.286 429.471"/><polyline points="321.532 429.786 13.63 247.603 358.243 391.3 197.911 471.581 237.131 90.008 187.309 87.764 126.491 456.548 312.591 123.289 54.256 400.715 269.687 100.528 383.544 214.436"/><polyline points="383.921 214.303 269.828 100.153 53.945 400.967 312.821 122.962 126.334 456.916 187.275 87.365 237.204 89.615 197.904 471.981 358.567 391.534 13.236 247.534 321.779 430.101"/><polyline points="322.026 430.416 12.841 247.466 358.89 391.769 197.896 472.38 237.277 89.221 187.241 86.966 126.177 457.284 313.051 122.634 53.634 401.218 269.969 99.779 384.298 214.169"/><polyline points="384.675 214.036 270.111 99.405 53.323 401.47 313.281 122.307 126.02 457.652 187.207 86.568 237.35 88.828 197.888 472.78 359.214 392.004 12.447 247.397 322.272 430.731"/><polyline points="322.519 431.046 12.053 247.329 359.538 392.239 197.88 473.18 237.423 88.435 187.173 86.169 125.864 458.02 313.511 121.98 53.012 401.721 270.252 99.03 385.052 213.902"/><polyline points="385.43 213.769 270.393 98.656 52.701 401.973 313.741 121.653 125.707 458.388 187.139 85.771 237.497 88.042 197.872 473.58 359.861 392.474 11.659 247.26 322.765 431.361"/><polyline points="323.012 431.676 11.265 247.192 360.185 392.709 197.864 473.98 237.57 87.648 187.105 85.372 125.55 458.756 313.971 121.325 52.39 402.224 270.534 98.282 385.807 213.635"/><polyline points="386.184 213.502 270.675 97.908 52.079 402.476 314.201 120.998 125.393 459.123 187.071 84.974 237.643 87.255 197.857 474.38 360.509 392.944 10.871 247.123 323.259 431.991"/><polyline points="323.505 432.306 10.477 247.055 360.833 393.179 197.849 474.78 237.716 86.862 187.037 84.575 125.236 459.491 314.431 120.671 51.768 402.727 270.816 97.533 386.561 213.368"/><polyline points="386.938 213.235 270.957 97.159 51.457 402.979 314.661 120.344 125.079 459.86 187.004 84.177 237.79 86.469 197.841 475.18 361.156 393.414 10.083 246.986 323.752 432.62"/><polyline points="323.998 432.935 9.689 246.918 361.48 393.649 197.833 475.58 237.863 86.075 186.97 83.778 124.923 460.228 314.891 120.016 51.146 403.23 271.099 96.785 387.315 213.101"/><polyline points="387.692 212.968 271.24 96.41 50.835 403.482 315.121 119.689 124.766 460.595 186.936 83.379 237.936 85.682 197.825 475.98 361.804 393.884 9.295 246.849 324.245 433.25"/><polyline points="324.492 433.565 8.9 246.781 362.127 394.119 197.817 476.38 238.009 85.289 186.902 82.981 124.609 460.963 315.351 119.362 50.524 403.733 271.381 96.036 388.069 212.834"/><polyline points="388.446 212.701 271.522 95.662 50.213 403.985 315.581 119.035 124.452 461.331 186.868 82.582 238.083 84.896 197.81 476.78 362.451 394.354 8.506 246.712 324.738 433.88"/><polyline points="324.985 434.195 8.112 246.644 362.775 394.589 197.802 477.18 238.156 84.502 186.834 82.184 124.295 461.699 315.812 118.707 49.902 404.236 271.663 95.288 388.823 212.567"/><polyline points="389.2 212.434 271.804 94.913 49.591 404.488 316.041 118.38 124.138 462.067 186.8 81.785 238.229 84.109 197.794 477.579 363.099 394.824 7.718 246.575 325.232 434.51"/><polyline points="325.478 434.825 7.324 246.507 363.422 395.059 197.786 477.979 238.302 83.716 186.766 81.387 123.982 462.435 316.272 118.053 49.28 404.74 271.945 94.539 389.577 212.3"/><polyline points="389.954 212.167 272.087 94.165 48.969 404.991 316.502 117.726 123.825 462.803 186.732 80.988 238.375 83.323 197.778 478.379 363.746 395.294 6.93 246.438 325.725 435.14"/><polyline points="325.971 435.455 6.536 246.37 364.07 395.529 197.77 478.779 238.448 82.93 186.698 80.59 123.668 463.171 316.731 117.398 48.658 405.243 272.228 93.791 390.332 212.034"/><polyline points="390.709 211.9 272.369 93.416 48.347 405.494 316.962 117.071 123.511 463.539 186.665 80.191 238.522 82.536 197.762 479.179 364.393 395.764 6.142 246.301 326.218 435.77"/></g></svg>