<?xml version="1.0" encoding="utf-8" ?>
<svg xmlns="http://www.w3.org/2000/svg" xmlns:cc="http://creativecommons.org/ns#" xmlns:dc="http://purl.org/dc/elements/1.1/" xmlns:ev="http://www.w3.org/2001/xml-events" xmlns:inkscape="http://www.inkscape.org/namespaces/inkscape" xmlns:rdf="http://www.w3.org/1999/02/22-rdf-syntax-ns#" xmlns:sodipodi="http://sodipodi.sourceforge.net/DTD/sodipodi-0.dtd" xmlns:xlink="http://www.w3.org/1999/xlink" baseProfile="tiny" height="29.7cm" version="1.2" viewBox="0 0 793.7007874015749 1122.5196850393702" width="21.0cm">
  <metadata>
    <rdf:RDF>
      <cc:Work>
        <dc:format>image/svg+xml</dc:format>
        <dc:source/>
        <dc:date>2021-02-09T20:47:55.414336</dc:date>
      </cc:Work>
    </rdf:RDF>
  </metadata>
  <defs/>
  <g fill="none" id="layer1" inkscape:groupmode="layer" inkscape:label="1" stroke="#00f" style="display:inline">
    <line x1="680.315" x2="113.3858" y1="113.3858" y2="113.3858"/>
    <line x1="113.3858" x2="680.315" y1="124.7244" y2="124.7244"/>
    <line x1="680.315" x2="372.8949" y1="130.3937" y2="130.3937"/>
    <line x1="364.558" x2="680.315" y1="141.7323" y2="141.7323"/>
    <line x1="680.315" x2="113.3858" y1="147.4016" y2="147.4016"/>
    <line x1="113.3858" x2="680.315" y1="136.063" y2="136.063"/>
    <line x1="680.315" x2="358.1268" y1="153.0709" y2="153.0709"/>
    <line x1="353.209" x2="680.315" y1="164.4094" y2="164.4094"/>
    <line x1="680.315" x2="113.3858" y1="158.7402" y2="158.7402"/>
    <line x1="113.3858" x2="680.315" y1="170.0787" y2="170.0787"/>
    <line x1="680.315" x2="349.6253" y1="175.748" y2="175.748"/>
    <line x1="347.258" x2="680.315" y1="187.0866" y2="187.0866"/>
    <line x1="680.315" x2="113.3858" y1="192.7559" y2="192.7559"/>
    <line x1="113.3858" x2="680.315" y1="204.0945" y2="204.0945"/>
    <line x1="680.315" x2="345.9225" y1="209.7638" y2="209.7638"/>
    <line x1="346.0354" x2="680.315" y1="198.4252" y2="198.4252"/>
    <line x1="680.315" x2="113.3858" y1="181.4173" y2="181.4173"/>
    <line x1="113.3858" x2="680.315" y1="215.4331" y2="215.4331"/>
    <line x1="680.315" x2="346.9171" y1="221.1024" y2="221.1024"/>
    <line x1="349.0496" x2="680.315" y1="232.4409" y2="232.4409"/>
    <line x1="680.315" x2="113.3858" y1="238.1102" y2="238.1102"/>
    <line x1="113.3858" x2="680.315" y1="226.7717" y2="226.7717"/>
    <line x1="680.315" x2="352.3867" y1="243.7795" y2="243.7795"/>
    <line x1="357.0399" x2="680.315" y1="255.1181" y2="255.1181"/>
    <line x1="680.315" x2="113.3858" y1="249.4488" y2="249.4488"/>
    <line x1="113.3858" x2="680.315" y1="260.7874" y2="260.7874"/>
    <line x1="680.315" x2="363.1805" y1="266.4567" y2="266.4567"/>
    <line x1="371.0666" x2="680.315" y1="277.7953" y2="277.7953"/>
    <line x1="680.315" x2="113.3858" y1="283.4646" y2="283.4646"/>
    <line x1="113.3858" x2="680.315" y1="272.126" y2="272.126"/>
    <line x1="680.315" x2="381.3447" y1="289.1339" y2="289.1339"/>
    <line x1="395.0655" x2="680.315" y1="300.4724" y2="300.4724"/>
    <line x1="680.315" x2="113.3858" y1="294.8031" y2="294.8031"/>
    <line x1="113.3858" x2="680.315" y1="306.1417" y2="306.1417"/>
    <line x1="680.315" x2="414.9656" y1="311.811" y2="311.811"/>
    <line x1="429.2992" x2="533.7586" y1="297.6378" y2="297.6378"/>
    <line x1="540.5298" x2="423.0966" y1="291.9685" y2="291.9685"/>
    <line x1="415.9107" x2="546.4825" y1="286.2992" y2="286.2992"/>
    <line x1="551.6209" x2="408.6721" y1="280.6299" y2="280.6299"/>
    <line x1="401.9679" x2="556.0378" y1="274.9606" y2="274.9606"/>
    <line x1="560.1225" x2="397.1193" y1="269.2913" y2="269.2913"/>
    <line x1="394.8724" x2="563.5205" y1="263.622" y2="263.622"/>
    <line x1="566.6215" x2="394.2455" y1="257.9528" y2="257.9528"/>
    <line x1="396.3625" x2="569.3028" y1="252.2835" y2="252.2835"/>
    <line x1="571.6011" x2="398.6158" y1="246.6142" y2="246.6142"/>
    <line x1="401.0429" x2="573.6296" y1="240.9449" y2="240.9449"/>
    <line x1="575.2424" x2="402.5824" y1="235.2756" y2="235.2756"/>
    <line x1="403.7409" x2="576.6625" y1="229.6063" y2="229.6063"/>
    <line x1="577.6644" x2="404.2419" y1="223.937" y2="223.937"/>
    <line x1="404.7006" x2="578.5054" y1="218.2677" y2="218.2677"/>
    <line x1="578.9402" x2="405.1428" y1="212.5984" y2="212.5984"/>
    <line x1="405.6881" x2="579.2188" y1="206.9291" y2="206.9291"/>
    <line x1="579.1058" x2="406.1658" y1="201.2598" y2="201.2598"/>
    <line x1="406.5641" x2="578.8273" y1="195.5906" y2="195.5906"/>
    <line x1="578.1645" x2="407.6528" y1="189.9213" y2="189.9213"/>
    <line x1="409.2633" x2="577.3235" y1="184.252" y2="184.252"/>
    <line x1="576.0868" x2="412.0028" y1="178.5827" y2="178.5827"/>
    <line x1="415.3324" x2="574.6667" y1="172.9134" y2="172.9134"/>
    <line x1="572.8073" x2="418.9429" y1="167.2441" y2="167.2441"/>
    <line x1="422.4624" x2="570.7788" y1="161.5748" y2="161.5748"/>
    <line x1="568.2159" x2="426.1068" y1="155.9055" y2="155.9055"/>
    <line x1="429.8864" x2="565.5345" y1="150.2362" y2="150.2362"/>
    <line x1="562.143" x2="435.2386" y1="144.5669" y2="144.5669"/>
    <line x1="441.288" x2="558.538" y1="138.8976" y2="138.8976"/>
    <line x1="554.3334" x2="448.5506" y1="133.2283" y2="133.2283"/>
    <line x1="454.528" x2="549.538" y1="127.5591" y2="127.5591"/>
    <line x1="544.2492" x2="459.4875" y1="121.8898" y2="121.8898"/>
    <line x1="460.2488" x2="537.9941" y1="116.2205" y2="116.2205"/>
    <line x1="680.315" x2="383.8804" y1="119.0551" y2="119.0551"/>
    <line x1="434.7923" x2="525.8113" y1="303.3071" y2="303.3071"/>
    <line x1="516.0298" x2="438.2833" y1="308.9764" y2="308.9764"/>
    <line x1="440.9444" x2="503.0275" y1="314.6457" y2="314.6457"/>
    <line x1="481.8149" x2="443.1872" y1="320.315" y2="320.315"/>
    <line x1="442.8492" x2="680.315" y1="323.1496" y2="323.1496"/>
    <line x1="680.315" x2="113.3858" y1="328.8189" y2="328.8189"/>
    <line x1="113.3858" x2="680.315" y1="317.4803" y2="317.4803"/>
    <line x1="680.315" x2="444.4813" y1="334.4882" y2="334.4882"/>
    <line x1="446.5205" x2="680.315" y1="345.8268" y2="345.8268"/>
    <line x1="680.315" x2="113.3858" y1="340.1575" y2="340.1575"/>
    <line x1="113.3858" x2="680.315" y1="351.4961" y2="351.4961"/>
    <line x1="680.315" x2="444.8635" y1="357.1654" y2="357.1654"/>
    <line x1="436.3601" x2="680.315" y1="368.5039" y2="368.5039"/>
    <line x1="680.315" x2="113.3858" y1="362.8346" y2="362.8346"/>
    <line x1="113.3858" x2="680.315" y1="374.1732" y2="374.1732"/>
    <line x1="680.315" x2="429.3316" y1="379.8425" y2="379.8425"/>
    <line x1="426.1076" x2="680.315" y1="391.1811" y2="391.1811"/>
    <line x1="680.315" x2="113.3858" y1="396.8504" y2="396.8504"/>
    <line x1="113.3858" x2="680.315" y1="385.5118" y2="385.5118"/>
    <line x1="680.315" x2="416.8768" y1="402.5197" y2="402.5197"/>
    <line x1="416.173" x2="148.0784" y1="402.5197" y2="402.5197"/>
    <line x1="145.3683" x2="680.315" y1="413.8583" y2="413.8583"/>
    <line x1="680.315" x2="113.3858" y1="419.5276" y2="419.5276"/>
    <line x1="113.3858" x2="680.315" y1="408.189" y2="408.189"/>
    <line x1="680.315" x2="143.6864" y1="425.1969" y2="425.1969"/>
    <line x1="143.0396" x2="680.315" y1="436.5354" y2="436.5354"/>
    <line x1="680.315" x2="113.3858" y1="442.2047" y2="442.2047"/>
    <line x1="113.3858" x2="680.315" y1="453.5433" y2="453.5433"/>
    <line x1="680.315" x2="143.2808" y1="447.874" y2="447.874"/>
    <line x1="144.4147" x2="680.315" y1="459.2126" y2="459.2126"/>
    <line x1="680.315" x2="113.3858" y1="464.8819" y2="464.8819"/>
    <line x1="113.3858" x2="680.315" y1="476.2205" y2="476.2205"/>
    <line x1="680.315" x2="146.468" y1="470.5512" y2="470.5512"/>
    <line x1="149.4927" x2="680.315" y1="481.8898" y2="481.8898"/>
    <line x1="680.315" x2="113.3858" y1="487.5591" y2="487.5591"/>
    <line x1="113.3858" x2="680.315" y1="498.8976" y2="498.8976"/>
    <line x1="680.315" x2="158.9346" y1="504.5669" y2="504.5669"/>
    <line x1="153.5718" x2="680.315" y1="493.2283" y2="493.2283"/>
    <line x1="680.315" x2="113.3858" y1="510.2362" y2="510.2362"/>
    <line x1="113.3858" x2="680.315" y1="521.5748" y2="521.5748"/>
    <line x1="680.315" x2="173.8646" y1="527.2441" y2="527.2441"/>
    <line x1="165.6267" x2="680.315" y1="515.9055" y2="515.9055"/>
    <line x1="680.315" x2="113.3858" y1="532.9134" y2="532.9134"/>
    <line x1="113.3858" x2="680.315" y1="544.252" y2="544.252"/>
    <line x1="680.315" x2="184.0761" y1="538.5827" y2="538.5827"/>
    <line x1="197.2072" x2="680.315" y1="549.9213" y2="549.9213"/>
    <line x1="680.315" x2="113.3858" y1="555.5906" y2="555.5906"/>
    <line x1="113.3858" x2="680.315" y1="566.9291" y2="566.9291"/>
    <line x1="680.315" x2="214.3303" y1="561.2598" y2="561.2598"/>
    <line x1="240.588" x2="680.315" y1="572.5984" y2="572.5984"/>
    <line x1="680.315" x2="113.3858" y1="578.2677" y2="578.2677"/>
    <line x1="113.3858" x2="680.315" y1="589.6063" y2="589.6063"/>
    <line x1="680.315" x2="306.1517" y1="595.2756" y2="595.2756"/>
    <line x1="309.6802" x2="680.315" y1="606.6142" y2="606.6142"/>
    <line x1="680.315" x2="113.3858" y1="612.2835" y2="612.2835"/>
    <line x1="113.3858" x2="680.315" y1="600.9449" y2="600.9449"/>
    <line x1="680.315" x2="317.4005" y1="617.9528" y2="617.9528"/>
    <line x1="333.3676" x2="680.315" y1="629.2913" y2="629.2913"/>
    <line x1="680.315" x2="536.2911" y1="632.126" y2="632.126"/>
    <line x1="531.3955" x2="680.315" y1="637.7953" y2="637.7953"/>
    <line x1="680.315" x2="356.6109" y1="640.6299" y2="640.6299"/>
    <line x1="381.6827" x2="680.315" y1="651.9685" y2="651.9685"/>
    <line x1="680.315" x2="523.6886" y1="649.1339" y2="649.1339"/>
    <line x1="520.5682" x2="680.315" y1="654.8031" y2="654.8031"/>
    <line x1="680.315" x2="113.3858" y1="657.6378" y2="657.6378"/>
    <line x1="113.3858" x2="680.315" y1="646.2992" y2="646.2992"/>
    <line x1="680.315" x2="527.1908" y1="643.4646" y2="643.4646"/>
    <line x1="517.8868" x2="680.315" y1="660.4724" y2="660.4724"/>
    <line x1="680.315" x2="399.1215" y1="663.3071" y2="663.3071"/>
    <line x1="405.7234" x2="680.315" y1="674.6457" y2="674.6457"/>
    <line x1="680.315" x2="513.8338" y1="671.811" y2="671.811"/>
    <line x1="512.4137" x2="680.315" y1="677.4803" y2="677.4803"/>
    <line x1="680.315" x2="113.3858" y1="680.315" y2="680.315"/>
    <line x1="113.3858" x2="680.315" y1="668.9764" y2="668.9764"/>
    <line x1="680.315" x2="515.7433" y1="666.1417" y2="666.1417"/>
    <line x1="511.2936" x2="680.315" y1="683.1496" y2="683.1496"/>
    <line x1="680.315" x2="408.0639" y1="685.9843" y2="685.9843"/>
    <line x1="416.34" x2="680.315" y1="697.3228" y2="697.3228"/>
    <line x1="680.315" x2="510.0656" y1="694.4882" y2="694.4882"/>
    <line x1="509.8315" x2="680.315" y1="700.1575" y2="700.1575"/>
    <line x1="680.315" x2="113.3858" y1="702.9921" y2="702.9921"/>
    <line x1="113.3858" x2="680.315" y1="714.3307" y2="714.3307"/>
    <line x1="680.315" x2="510.5867" y1="711.4961" y2="711.4961"/>
    <line x1="510.11" x2="680.315" y1="705.8268" y2="705.8268"/>
    <line x1="680.315" x2="426.6993" y1="708.6614" y2="708.6614"/>
    <line x1="430.2409" x2="680.315" y1="720.0" y2="720.0"/>
    <line x1="680.315" x2="511.4276" y1="717.1654" y2="717.1654"/>
    <line x1="512.6401" x2="680.315" y1="722.8346" y2="722.8346"/>
    <line x1="680.315" x2="113.3858" y1="725.6693" y2="725.6693"/>
    <line x1="113.3858" x2="680.315" y1="737.0079" y2="737.0079"/>
    <line x1="680.315" x2="518.3143" y1="739.8425" y2="739.8425"/>
    <line x1="516.0667" x2="680.315" y1="734.1732" y2="734.1732"/>
    <line x1="680.315" x2="430.7995" y1="731.3386" y2="731.3386"/>
    <line x1="437.0955" x2="680.315" y1="742.6772" y2="742.6772"/>
    <line x1="680.315" x2="520.9956" y1="745.5118" y2="745.5118"/>
    <line x1="524.2303" x2="680.315" y1="751.1811" y2="751.1811"/>
    <line x1="680.315" x2="452.0208" y1="754.0157" y2="754.0157"/>
    <line x1="469.8421" x2="680.315" y1="765.3543" y2="765.3543"/>
    <line x1="680.315" x2="532.0658" y1="762.5197" y2="762.5197"/>
    <line x1="527.8611" x2="680.315" y1="756.8504" y2="756.8504"/>
    <line x1="680.315" x2="113.3858" y1="759.685" y2="759.685"/>
    <line x1="113.3858" x2="680.315" y1="748.3465" y2="748.3465"/>
    <line x1="680.315" x2="514.0602" y1="728.5039" y2="728.5039"/>
    <line x1="510.4526" x2="680.315" y1="688.8189" y2="688.8189"/>
    <line x1="680.315" x2="113.3858" y1="691.6535" y2="691.6535"/>
    <line x1="113.3858" x2="680.315" y1="634.9606" y2="634.9606"/>
    <line x1="677.5027" x2="541.9416" y1="626.4567" y2="626.4567"/>
    <line x1="548.6094" x2="670.8348" y1="620.7874" y2="620.7874"/>
    <line x1="680.315" x2="113.3858" y1="623.622" y2="623.622"/>
    <line x1="113.3858" x2="680.315" y1="771.0236" y2="771.0236"/>
    <line x1="680.315" x2="537.1103" y1="768.189" y2="768.189"/>
    <line x1="542.9388" x2="676.5055" y1="773.8583" y2="773.8583"/>
    <line x1="680.315" x2="479.6792" y1="776.6929" y2="776.6929"/>
    <line x1="480.0621" x2="680.315" y1="788.0315" y2="788.0315"/>
    <line x1="680.315" x2="113.3858" y1="793.7008" y2="793.7008"/>
    <line x1="113.3858" x2="680.315" y1="782.3622" y2="782.3622"/>
    <line x1="669.6162" x2="549.828" y1="779.5276" y2="779.5276"/>
    <line x1="558.2457" x2="661.1985" y1="785.1969" y2="785.1969"/>
    <line x1="650.3819" x2="569.0623" y1="790.8661" y2="790.8661"/>
    <line x1="585.5865" x2="633.8578" y1="796.5354" y2="796.5354"/>
    <line x1="680.315" x2="477.0526" y1="799.3701" y2="799.3701"/>
    <line x1="477.2123" x2="680.315" y1="810.7087" y2="810.7087"/>
    <line x1="680.315" x2="113.3858" y1="805.0394" y2="805.0394"/>
    <line x1="113.3858" x2="680.315" y1="816.378" y2="816.378"/>
    <line x1="680.315" x2="476.8631" y1="822.0472" y2="822.0472"/>
    <line x1="472.0516" x2="680.315" y1="833.3858" y2="833.3858"/>
    <line x1="680.315" x2="113.3858" y1="827.7165" y2="827.7165"/>
    <line x1="113.3858" x2="680.315" y1="839.0551" y2="839.0551"/>
    <line x1="680.315" x2="464.4577" y1="844.7244" y2="844.7244"/>
    <line x1="461.8949" x2="680.315" y1="856.063" y2="856.063"/>
    <line x1="680.315" x2="113.3858" y1="861.7323" y2="861.7323"/>
    <line x1="113.3858" x2="680.315" y1="850.3937" y2="850.3937"/>
    <line x1="680.315" x2="465.2407" y1="867.4016" y2="867.4016"/>
    <line x1="464.7846" x2="680.315" y1="878.7402" y2="878.7402"/>
    <line x1="680.315" x2="113.3858" y1="873.0709" y2="873.0709"/>
    <line x1="113.3858" x2="680.315" y1="884.4094" y2="884.4094"/>
    <line x1="680.315" x2="455.8421" y1="890.0787" y2="890.0787"/>
    <line x1="443.2323" x2="330.8027" y1="890.0787" y2="890.0787"/>
    <line x1="326.4259" x2="447.6091" y1="901.4173" y2="901.4173"/>
    <line x1="448.8944" x2="680.315" y1="901.4173" y2="901.4173"/>
    <line x1="680.315" x2="113.3858" y1="895.748" y2="895.748"/>
    <line x1="113.3858" x2="680.315" y1="907.0866" y2="907.0866"/>
    <line x1="680.315" x2="456.1076" y1="912.7559" y2="912.7559"/>
    <line x1="449.6927" x2="324.3423" y1="912.7559" y2="912.7559"/>
    <line x1="324.3577" x2="449.6773" y1="924.0945" y2="924.0945"/>
    <line x1="447.5305" x2="326.5045" y1="935.4331" y2="935.4331"/>
    <line x1="330.9511" x2="443.0839" y1="946.7717" y2="946.7717"/>
    <line x1="435.7426" x2="338.2924" y1="958.1102" y2="958.1102"/>
    <line x1="350.4863" x2="423.5487" y1="969.4488" y2="969.4488"/>
    <line x1="394.0221" x2="380.013" y1="980.7874" y2="980.7874"/>
    <line x1="470.4784" x2="680.315" y1="924.0945" y2="924.0945"/>
    <line x1="680.315" x2="113.3858" y1="918.4252" y2="918.4252"/>
    <line x1="113.3858" x2="680.315" y1="929.7638" y2="929.7638"/>
    <line x1="680.315" x2="481.0507" y1="935.4331" y2="935.4331"/>
    <line x1="485.0949" x2="680.315" y1="946.7717" y2="946.7717"/>
    <line x1="680.315" x2="113.3858" y1="941.1024" y2="941.1024"/>
    <line x1="113.3858" x2="680.315" y1="952.4409" y2="952.4409"/>
    <line x1="680.315" x2="488.457" y1="958.1102" y2="958.1102"/>
    <line x1="492.8285" x2="680.315" y1="969.4488" y2="969.4488"/>
    <line x1="680.315" x2="113.3858" y1="963.7795" y2="963.7795"/>
    <line x1="113.3858" x2="680.315" y1="975.1181" y2="975.1181"/>
    <line x1="680.315" x2="495.6896" y1="980.7874" y2="980.7874"/>
    <line x1="497.1209" x2="680.315" y1="992.126" y2="992.126"/>
    <line x1="680.315" x2="113.3858" y1="986.4567" y2="986.4567"/>
    <line x1="113.3858" x2="680.315" y1="997.7953" y2="997.7953"/>
    <line x1="680.315" x2="496.32" y1="1003.4646" y2="1003.4646"/>
    <line x1="435.9753" x2="338.0597" y1="878.7402" y2="878.7402"/>
    <line x1="350.0633" x2="423.9718" y1="867.4016" y2="867.4016"/>
    <line x1="396.137" x2="377.898" y1="856.063" y2="856.063"/>
    <line x1="301.6321" x2="680.315" y1="583.937" y2="583.937"/>
    <line x1="662.7064" x2="556.7378" y1="615.1181" y2="615.1181"/>
    <line x1="567.1514" x2="652.2929" y1="609.4488" y2="609.4488"/>
    <line x1="637.466" x2="581.9782" y1="603.7795" y2="603.7795"/>
    <line x1="442.3387" x2="265.5888" y1="496.063" y2="496.063"/>
    <line x1="265.0764" x2="446.4534" y1="490.3937" y2="490.3937"/>
    <line x1="449.6574" x2="267.9537" y1="484.7244" y2="484.7244"/>
    <line x1="276.406" x2="452.1125" y1="479.0551" y2="479.0551"/>
    <line x1="453.9075" x2="285.9777" y1="473.3858" y2="473.3858"/>
    <line x1="296.9718" x2="455.1005" y1="467.7165" y2="467.7165"/>
    <line x1="455.7272" x2="308.0601" y1="462.0472" y2="462.0472"/>
    <line x1="319.3232" x2="455.8054" y1="456.378" y2="456.378"/>
    <line x1="455.3365" x2="331.4141" y1="450.7087" y2="450.7087"/>
    <line x1="339.3783" x2="454.3061" y1="445.0394" y2="445.0394"/>
    <line x1="452.6819" x2="341.0024" y1="439.3701" y2="439.3701"/>
    <line x1="343.2743" x2="450.41" y1="433.7008" y2="433.7008"/>
    <line x1="447.4071" x2="346.2772" y1="428.0315" y2="428.0315"/>
    <line x1="350.1363" x2="443.548" y1="422.3622" y2="422.3622"/>
    <line x1="438.6426" x2="355.0417" y1="416.6929" y2="416.6929"/>
    <line x1="361.7144" x2="431.9699" y1="411.0236" y2="411.0236"/>
    <line x1="422.6265" x2="371.0579" y1="405.3543" y2="405.3543"/>
    <line x1="390.7356" x2="402.9487" y1="399.685" y2="399.685"/>
    <line x1="412.4583" x2="151.7931" y1="391.1811" y2="391.1811"/>
    <line x1="156.6126" x2="407.6388" y1="379.8425" y2="379.8425"/>
    <line x1="401.5673" x2="162.6841" y1="368.5039" y2="368.5039"/>
    <line x1="170.2235" x2="394.0279" y1="357.1654" y2="357.1654"/>
    <line x1="384.6983" x2="179.5531" y1="345.8268" y2="345.8268"/>
    <line x1="191.1695" x2="373.0819" y1="334.4882" y2="334.4882"/>
    <line x1="358.1121" x2="206.1394" y1="323.1496" y2="323.1496"/>
    <line x1="227.3472" x2="336.9042" y1="311.811" y2="311.811"/>
    <line x1="269.928" x2="436.8948" y1="501.7323" y2="501.7323"/>
    <line x1="429.8243" x2="278.3929" y1="507.4016" y2="507.4016"/>
    <line x1="287.336" x2="419.2032" y1="513.0709" y2="513.0709"/>
    <line x1="396.6937" x2="295.9723" y1="518.7402" y2="518.7402"/>
    <line x1="302.0806" x2="392.4891" y1="524.4094" y2="524.4094"/>
    <line x1="387.9562" x2="306.717" y1="530.0787" y2="530.0787"/>
    <line x1="308.2442" x2="382.8178" y1="535.748" y2="535.748"/>
    <line x1="377.0478" x2="307.8836" y1="541.4173" y2="541.4173"/>
    <line x1="305.5573" x2="370.7927" y1="547.0866" y2="547.0866"/>
    <line x1="363.2221" x2="301.853" y1="552.7559" y2="552.7559"/>
    <line x1="298.4391" x2="354.6504" y1="558.4252" y2="558.4252"/>
    <line x1="344.5041" x2="296.0946" y1="564.0945" y2="564.0945"/>
    <line x1="296.1126" x2="331.5857" y1="569.7638" y2="569.7638"/>
    <line x1="312.8255" x2="297.3296" y1="575.4331" y2="575.4331"/>
    <line x1="113.3858" x2="680.315" y1="430.8661" y2="430.8661"/>
    <line x1="680.315" x2="113.3858" y1="1009.1339" y2="1009.1339"/>
  </g>
</svg>
