<?xml version="1.0" encoding="utf-8" ?>
<svg xmlns="http://www.w3.org/2000/svg" xmlns:cc="http://creativecommons.org/ns#" xmlns:dc="http://purl.org/dc/elements/1.1/" xmlns:ev="http://www.w3.org/2001/xml-events" xmlns:inkscape="http://www.inkscape.org/namespaces/inkscape" xmlns:rdf="http://www.w3.org/1999/02/22-rdf-syntax-ns#" xmlns:sodipodi="http://sodipodi.sourceforge.net/DTD/sodipodi-0.dtd" xmlns:xlink="http://www.w3.org/1999/xlink" baseProfile="tiny" height="29.7cm" version="1.2" viewBox="0 0 793.7007874015749 1122.5196850393702" width="21.0cm">
  <metadata>
    <rdf:RDF>
      <cc:Work>
        <dc:format>image/svg+xml</dc:format>
        <dc:source/>
        <dc:date>2021-02-09T20:48:29.163678</dc:date>
      </cc:Work>
    </rdf:RDF>
  </metadata>
  <defs/>
  <g fill="none" id="layer1" inkscape:groupmode="layer" inkscape:label="1" stroke="#00f" style="display:inline">
    <line x1="680.315" x2="113.3858" y1="113.3858" y2="113.3858"/>
    <line x1="113.3858" x2="318.5776" y1="119.0551" y2="119.0551"/>
    <line x1="321.6951" x2="113.3858" y1="130.3937" y2="130.3937"/>
    <line x1="113.3858" x2="680.315" y1="124.7244" y2="124.7244"/>
    <line x1="680.315" x2="509.5944" y1="130.3937" y2="130.3937"/>
    <line x1="519.3358" x2="680.315" y1="119.0551" y2="119.0551"/>
    <line x1="680.315" x2="113.3858" y1="136.063" y2="136.063"/>
    <line x1="113.3858" x2="324.1611" y1="141.7323" y2="141.7323"/>
    <line x1="325.843" x2="113.3858" y1="153.0709" y2="153.0709"/>
    <line x1="113.3858" x2="680.315" y1="158.7402" y2="158.7402"/>
    <line x1="680.315" x2="465.5757" y1="153.0709" y2="153.0709"/>
    <line x1="460.1156" x2="680.315" y1="164.4094" y2="164.4094"/>
    <line x1="680.315" x2="113.3858" y1="170.0787" y2="170.0787"/>
    <line x1="113.3858" x2="326.7369" y1="175.748" y2="175.748"/>
    <line x1="326.5738" x2="113.3858" y1="164.4094" y2="164.4094"/>
    <line x1="113.3858" x2="680.315" y1="147.4016" y2="147.4016"/>
    <line x1="680.315" x2="484.9492" y1="141.7323" y2="141.7323"/>
    <line x1="461.4648" x2="680.315" y1="175.748" y2="175.748"/>
    <line x1="680.315" x2="113.3858" y1="181.4173" y2="181.4173"/>
    <line x1="113.3858" x2="326.1798" y1="187.0866" y2="187.0866"/>
    <line x1="324.6535" x2="113.3858" y1="198.4252" y2="198.4252"/>
    <line x1="113.3858" x2="680.315" y1="192.7559" y2="192.7559"/>
    <line x1="680.315" x2="457.0751" y1="187.0866" y2="187.0866"/>
    <line x1="444.8915" x2="680.315" y1="198.4252" y2="198.4252"/>
    <line x1="680.315" x2="113.3858" y1="204.0945" y2="204.0945"/>
    <line x1="113.3858" x2="322.5267" y1="209.7638" y2="209.7638"/>
    <line x1="319.6866" x2="113.3858" y1="221.1024" y2="221.1024"/>
    <line x1="113.3858" x2="680.315" y1="215.4331" y2="215.4331"/>
    <line x1="680.315" x2="433.6046" y1="209.7638" y2="209.7638"/>
    <line x1="429.0964" x2="680.315" y1="221.1024" y2="221.1024"/>
    <line x1="680.315" x2="113.3858" y1="226.7717" y2="226.7717"/>
    <line x1="113.3858" x2="315.7085" y1="232.4409" y2="232.4409"/>
    <line x1="310.9611" x2="113.3858" y1="243.7795" y2="243.7795"/>
    <line x1="113.3858" x2="680.315" y1="238.1102" y2="238.1102"/>
    <line x1="680.315" x2="413.0122" y1="243.7795" y2="243.7795"/>
    <line x1="424.7699" x2="680.315" y1="232.4409" y2="232.4409"/>
    <line x1="680.315" x2="113.3858" y1="249.4488" y2="249.4488"/>
    <line x1="113.3858" x2="305.3427" y1="255.1181" y2="255.1181"/>
    <line x1="298.5466" x2="113.3858" y1="266.4567" y2="266.4567"/>
    <line x1="113.3858" x2="680.315" y1="260.7874" y2="260.7874"/>
    <line x1="680.315" x2="388.8387" y1="266.4567" y2="266.4567"/>
    <line x1="387.0655" x2="433.1549" y1="269.2913" y2="269.2913"/>
    <line x1="450.2044" x2="383.8592" y1="274.9606" y2="274.9606"/>
    <line x1="382.7134" x2="461.1803" y1="280.6299" y2="280.6299"/>
    <line x1="469.7322" x2="382.8972" y1="286.2992" y2="286.2992"/>
    <line x1="386.4502" x2="476.7418" y1="291.9685" y2="291.9685"/>
    <line x1="482.683" x2="392.3487" y1="297.6378" y2="297.6378"/>
    <line x1="399.94" x2="487.8213" y1="303.3071" y2="303.3071"/>
    <line x1="492.0411" x2="407.0975" y1="308.9764" y2="308.9764"/>
    <line x1="413.4338" x2="495.7798" y1="314.6457" y2="314.6457"/>
    <line x1="499.1234" x2="418.4902" y1="320.315" y2="320.315"/>
    <line x1="423.0023" x2="501.8048" y1="325.9843" y2="325.9843"/>
    <line x1="504.1641" x2="427.271" y1="331.6535" y2="331.6535"/>
    <line x1="431.1269" x2="506.1926" y1="337.3228" y2="337.3228"/>
    <line x1="507.7071" x2="433.3652" y1="342.9921" y2="342.9921"/>
    <line x1="434.5172" x2="509.0423" y1="348.6614" y2="348.6614"/>
    <line x1="509.8833" x2="433.2155" y1="354.3307" y2="354.3307"/>
    <line x1="432.4564" x2="510.491" y1="360.0" y2="360.0"/>
    <line x1="510.7695" x2="432.4808" y1="365.6693" y2="365.6693"/>
    <line x1="434.5567" x2="510.677" y1="371.3386" y2="371.3386"/>
    <line x1="510.3985" x2="437.2678" y1="377.0079" y2="377.0079"/>
    <line x1="440.5696" x2="509.604" y1="382.6772" y2="382.6772"/>
    <line x1="508.6555" x2="442.8033" y1="388.3465" y2="388.3465"/>
    <line x1="444.3659" x2="507.2354" y1="394.0157" y2="394.0157"/>
    <line x1="505.5189" x2="445.1604" y1="399.685" y2="399.685"/>
    <line x1="446.4305" x2="503.4904" y1="405.3543" y2="405.3543"/>
    <line x1="500.9142" x2="448.333" y1="411.0236" y2="411.0236"/>
    <line x1="452.9513" x2="498.0492" y1="416.6929" y2="416.6929"/>
    <line x1="494.6511" x2="458.844" y1="422.3622" y2="422.3622"/>
    <line x1="467.0863" x2="490.6445" y1="428.0315" y2="428.0315"/>
    <line x1="486.1147" x2="474.8" y1="433.7008" y2="433.7008"/>
    <line x1="471.0153" x2="193.6616" y1="447.874" y2="447.874"/>
    <line x1="193.3703" x2="680.315" y1="436.5354" y2="436.5354"/>
    <line x1="680.315" x2="113.3858" y1="442.2047" y2="442.2047"/>
    <line x1="113.3858" x2="680.315" y1="453.5433" y2="453.5433"/>
    <line x1="680.315" x2="485.2656" y1="447.874" y2="447.874"/>
    <line x1="483.2212" x2="680.315" y1="459.2126" y2="459.2126"/>
    <line x1="680.315" x2="113.3858" y1="464.8819" y2="464.8819"/>
    <line x1="113.3858" x2="680.315" y1="476.2205" y2="476.2205"/>
    <line x1="680.315" x2="479.5957" y1="470.5512" y2="470.5512"/>
    <line x1="470.9577" x2="680.315" y1="481.8898" y2="481.8898"/>
    <line x1="680.315" x2="113.3858" y1="487.5591" y2="487.5591"/>
    <line x1="113.3858" x2="680.315" y1="498.8976" y2="498.8976"/>
    <line x1="680.315" x2="450.6952" y1="504.5669" y2="504.5669"/>
    <line x1="449.382" x2="680.315" y1="515.9055" y2="515.9055"/>
    <line x1="680.315" x2="113.3858" y1="510.2362" y2="510.2362"/>
    <line x1="113.3858" x2="680.315" y1="521.5748" y2="521.5748"/>
    <line x1="680.315" x2="450.6997" y1="527.2441" y2="527.2441"/>
    <line x1="457.7017" x2="676.3202" y1="535.748" y2="535.748"/>
    <line x1="680.315" x2="455.318" y1="538.5827" y2="538.5827"/>
    <line x1="457.5247" x2="680.315" y1="541.4173" y2="541.4173"/>
    <line x1="680.315" x2="113.3858" y1="544.252" y2="544.252"/>
    <line x1="113.3858" x2="680.315" y1="532.9134" y2="532.9134"/>
    <line x1="671.1818" x2="462.84" y1="530.0787" y2="530.0787"/>
    <line x1="468.4944" x2="665.5275" y1="524.4094" y2="524.4094"/>
    <line x1="659.2724" x2="474.7495" y1="518.7402" y2="518.7402"/>
    <line x1="482.1087" x2="651.9131" y1="513.0709" y2="513.0709"/>
    <line x1="643.6954" x2="490.3265" y1="507.4016" y2="507.4016"/>
    <line x1="499.886" x2="634.1358" y1="501.7323" y2="501.7323"/>
    <line x1="622.1491" x2="511.8728" y1="496.063" y2="496.063"/>
    <line x1="528.6" x2="605.4218" y1="490.3937" y2="490.3937"/>
    <line x1="680.315" x2="458.5375" y1="493.2283" y2="493.2283"/>
    <line x1="452.2164" x2="195.615" y1="459.2126" y2="459.2126"/>
    <line x1="199.0572" x2="364.4872" y1="470.5512" y2="470.5512"/>
    <line x1="359.3048" x2="204.2397" y1="481.8898" y2="481.8898"/>
    <line x1="211.7188" x2="351.8257" y1="493.2283" y2="493.2283"/>
    <line x1="341.3713" x2="222.1732" y1="504.5669" y2="504.5669"/>
    <line x1="237.6757" x2="325.8688" y1="515.9055" y2="515.9055"/>
    <line x1="291.1553" x2="272.3891" y1="527.2441" y2="527.2441"/>
    <line x1="344.777" x2="370.0221" y1="445.0394" y2="445.0394"/>
    <line x1="370.3007" x2="338.5219" y1="439.3701" y2="439.3701"/>
    <line x1="333.3265" x2="370.0349" y1="433.7008" y2="433.7008"/>
    <line x1="369.5053" x2="328.7967" y1="428.0315" y2="428.0315"/>
    <line x1="324.7901" x2="368.6644" y1="422.3622" y2="422.3622"/>
    <line x1="367.2845" x2="321.392" y1="416.6929" y2="416.6929"/>
    <line x1="318.527" x2="365.5944" y1="411.0236" y2="411.0236"/>
    <line x1="363.5653" x2="315.9508" y1="405.3543" y2="405.3543"/>
    <line x1="313.9223" x2="360.884" y1="399.685" y2="399.685"/>
    <line x1="357.7615" x2="312.2058" y1="394.0157" y2="394.0157"/>
    <line x1="310.7857" x2="354.1206" y1="388.3465" y2="388.3465"/>
    <line x1="349.8506" x2="309.8372" y1="382.6772" y2="382.6772"/>
    <line x1="309.0427" x2="344.7123" y1="377.0079" y2="377.0079"/>
    <line x1="338.5303" x2="308.7642" y1="371.3386" y2="371.3386"/>
    <line x1="308.6717" x2="331.0176" y1="365.6693" y2="365.6693"/>
    <line x1="321.0557" x2="308.9502" y1="360.0" y2="360.0"/>
    <line x1="311.024" x2="680.315" y1="345.8268" y2="345.8268"/>
    <line x1="680.315" x2="113.3858" y1="340.1575" y2="340.1575"/>
    <line x1="113.3858" x2="211.1699" y1="334.4882" y2="334.4882"/>
    <line x1="237.0336" x2="113.3858" y1="323.1496" y2="323.1496"/>
    <line x1="113.3858" x2="680.315" y1="328.8189" y2="328.8189"/>
    <line x1="680.315" x2="314.2628" y1="334.4882" y2="334.4882"/>
    <line x1="318.9771" x2="680.315" y1="323.1496" y2="323.1496"/>
    <line x1="680.315" x2="113.3858" y1="317.4803" y2="317.4803"/>
    <line x1="113.3858" x2="254.8537" y1="311.811" y2="311.811"/>
    <line x1="268.9959" x2="113.3858" y1="300.4724" y2="300.4724"/>
    <line x1="113.3858" x2="680.315" y1="294.8031" y2="294.8031"/>
    <line x1="680.315" x2="334.189" y1="300.4724" y2="300.4724"/>
    <line x1="325.3604" x2="680.315" y1="311.811" y2="311.811"/>
    <line x1="680.315" x2="113.3858" y1="306.1417" y2="306.1417"/>
    <line x1="113.3858" x2="280.5917" y1="289.1339" y2="289.1339"/>
    <line x1="290.3033" x2="113.3858" y1="277.7953" y2="277.7953"/>
    <line x1="113.3858" x2="680.315" y1="283.4646" y2="283.4646"/>
    <line x1="680.315" x2="363.2434" y1="277.7953" y2="277.7953"/>
    <line x1="345.8869" x2="680.315" y1="289.1339" y2="289.1339"/>
    <line x1="680.315" x2="113.3858" y1="272.126" y2="272.126"/>
    <line x1="167.6272" x2="258.1101" y1="235.2756" y2="235.2756"/>
    <line x1="262.3205" x2="163.4168" y1="229.6063" y2="229.6063"/>
    <line x1="160.1728" x2="265.5645" y1="223.937" y2="223.937"/>
    <line x1="268.0564" x2="157.6809" y1="218.2677" y2="218.2677"/>
    <line x1="155.8514" x2="269.8859" y1="212.5984" y2="212.5984"/>
    <line x1="271.1122" x2="154.6252" y1="206.9291" y2="206.9291"/>
    <line x1="153.9657" x2="271.7716" y1="201.2598" y2="201.2598"/>
    <line x1="271.8824" x2="153.8549" y1="195.5906" y2="195.5906"/>
    <line x1="154.2905" x2="271.4468" y1="189.9213" y2="189.9213"/>
    <line x1="270.451" x2="155.2864" y1="184.252" y2="184.252"/>
    <line x1="156.8738" x2="268.8635" y1="178.5827" y2="178.5827"/>
    <line x1="266.6314" x2="159.1059" y1="172.9134" y2="172.9134"/>
    <line x1="162.0648" x2="263.6725" y1="167.2441" y2="167.2441"/>
    <line x1="259.8634" x2="165.8739" y1="161.5748" y2="161.5748"/>
    <line x1="170.721" x2="255.0163" y1="155.9055" y2="155.9055"/>
    <line x1="248.5017" x2="177.2356" y1="150.2362" y2="150.2362"/>
    <line x1="186.302" x2="239.4353" y1="144.5669" y2="144.5669"/>
    <line x1="221.4477" x2="204.2896" y1="138.8976" y2="138.8976"/>
    <line x1="173.1318" x2="252.6055" y1="240.9449" y2="240.9449"/>
    <line x1="245.4028" x2="180.3345" y1="246.6142" y2="246.6142"/>
    <line x1="191.3349" x2="234.4024" y1="252.2835" y2="252.2835"/>
    <line x1="248.6722" x2="680.315" y1="357.1654" y2="357.1654"/>
    <line x1="680.315" x2="113.3858" y1="362.8346" y2="362.8346"/>
    <line x1="113.3858" x2="680.315" y1="351.4961" y2="351.4961"/>
    <line x1="680.315" x2="228.7048" y1="368.5039" y2="368.5039"/>
    <line x1="216.2631" x2="680.315" y1="379.8425" y2="379.8425"/>
    <line x1="680.315" x2="113.3858" y1="385.5118" y2="385.5118"/>
    <line x1="113.3858" x2="680.315" y1="374.1732" y2="374.1732"/>
    <line x1="680.315" x2="207.482" y1="391.1811" y2="391.1811"/>
    <line x1="201.3198" x2="680.315" y1="402.5197" y2="402.5197"/>
    <line x1="680.315" x2="113.3858" y1="408.189" y2="408.189"/>
    <line x1="113.3858" x2="680.315" y1="419.5276" y2="419.5276"/>
    <line x1="680.315" x2="196.97" y1="413.8583" y2="413.8583"/>
    <line x1="194.4596" x2="680.315" y1="425.1969" y2="425.1969"/>
    <line x1="680.315" x2="113.3858" y1="430.8661" y2="430.8661"/>
    <line x1="113.3858" x2="680.315" y1="396.8504" y2="396.8504"/>
    <line x1="680.315" x2="398.9458" y1="255.1181" y2="255.1181"/>
    <line x1="369.4668" x2="352.248" y1="450.7087" y2="450.7087"/>
    <line x1="361.4025" x2="368.6258" y1="456.378" y2="456.378"/>
    <line x1="447.0738" x2="680.315" y1="549.9213" y2="549.9213"/>
    <line x1="680.315" x2="461.1907" y1="552.7559" y2="552.7559"/>
    <line x1="461.034" x2="680.315" y1="547.0866" y2="547.0866"/>
    <line x1="680.315" x2="113.3858" y1="555.5906" y2="555.5906"/>
    <line x1="113.3858" x2="680.315" y1="566.9291" y2="566.9291"/>
    <line x1="680.315" x2="444.6214" y1="569.7638" y2="569.7638"/>
    <line x1="440.3318" x2="680.315" y1="561.2598" y2="561.2598"/>
    <line x1="680.315" x2="453.1221" y1="564.0945" y2="564.0945"/>
    <line x1="459.208" x2="680.315" y1="558.4252" y2="558.4252"/>
    <line x1="680.315" x2="434.9691" y1="572.5984" y2="572.5984"/>
    <line x1="435.0702" x2="680.315" y1="575.4331" y2="575.4331"/>
    <line x1="680.315" x2="113.3858" y1="578.2677" y2="578.2677"/>
    <line x1="113.3858" x2="680.315" y1="589.6063" y2="589.6063"/>
    <line x1="680.315" x2="429.7877" y1="586.7717" y2="586.7717"/>
    <line x1="428.364" x2="680.315" y1="592.4409" y2="592.4409"/>
    <line x1="680.315" x2="399.59" y1="595.2756" y2="595.2756"/>
    <line x1="379.016" x2="680.315" y1="606.6142" y2="606.6142"/>
    <line x1="680.315" x2="425.0222" y1="609.4488" y2="609.4488"/>
    <line x1="424.2546" x2="680.315" y1="615.1181" y2="615.1181"/>
    <line x1="680.315" x2="113.3858" y1="612.2835" y2="612.2835"/>
    <line x1="113.3858" x2="680.315" y1="623.622" y2="623.622"/>
    <line x1="680.315" x2="423.9761" y1="620.7874" y2="620.7874"/>
    <line x1="423.6976" x2="680.315" y1="626.4567" y2="626.4567"/>
    <line x1="680.315" x2="361.0778" y1="629.2913" y2="629.2913"/>
    <line x1="366.1815" x2="680.315" y1="617.9528" y2="617.9528"/>
    <line x1="680.315" x2="425.8632" y1="603.7795" y2="603.7795"/>
    <line x1="426.9439" x2="680.315" y1="598.1102" y2="598.1102"/>
    <line x1="680.315" x2="113.3858" y1="600.9449" y2="600.9449"/>
    <line x1="113.3858" x2="680.315" y1="634.9606" y2="634.9606"/>
    <line x1="680.315" x2="423.7817" y1="632.126" y2="632.126"/>
    <line x1="424.0602" x2="680.315" y1="637.7953" y2="637.7953"/>
    <line x1="680.315" x2="355.8905" y1="640.6299" y2="640.6299"/>
    <line x1="352.3749" x2="680.315" y1="651.9685" y2="651.9685"/>
    <line x1="680.315" x2="425.2762" y1="649.1339" y2="649.1339"/>
    <line x1="424.4352" x2="680.315" y1="643.4646" y2="643.4646"/>
    <line x1="680.315" x2="113.3858" y1="646.2992" y2="646.2992"/>
    <line x1="113.3858" x2="680.315" y1="657.6378" y2="657.6378"/>
    <line x1="680.315" x2="426.1171" y1="654.8031" y2="654.8031"/>
    <line x1="427.3727" x2="680.315" y1="660.4724" y2="660.4724"/>
    <line x1="680.315" x2="354.2679" y1="663.3071" y2="663.3071"/>
    <line x1="357.1377" x2="680.315" y1="674.6457" y2="674.6457"/>
    <line x1="680.315" x2="430.4003" y1="671.811" y2="671.811"/>
    <line x1="428.7928" x2="680.315" y1="666.1417" y2="666.1417"/>
    <line x1="680.315" x2="113.3858" y1="668.9764" y2="668.9764"/>
    <line x1="113.3858" x2="680.315" y1="680.315" y2="680.315"/>
    <line x1="680.315" x2="432.4288" y1="677.4803" y2="677.4803"/>
    <line x1="434.4573" x2="680.315" y1="683.1496" y2="683.1496"/>
    <line x1="680.315" x2="355.9451" y1="685.9843" y2="685.9843"/>
    <line x1="352.9851" x2="680.315" y1="697.3228" y2="697.3228"/>
    <line x1="680.315" x2="439.8008" y1="694.4882" y2="694.4882"/>
    <line x1="437.1195" x2="680.315" y1="688.8189" y2="688.8189"/>
    <line x1="680.315" x2="113.3858" y1="691.6535" y2="691.6535"/>
    <line x1="113.3858" x2="680.315" y1="702.9921" y2="702.9921"/>
    <line x1="680.315" x2="446.4009" y1="705.8268" y2="705.8268"/>
    <line x1="443.0029" x2="680.315" y1="700.1575" y2="700.1575"/>
    <line x1="680.315" x2="346.2448" y1="708.6614" y2="708.6614"/>
    <line x1="344.2498" x2="680.315" y1="720.0" y2="720.0"/>
    <line x1="679.5365" x2="454.4854" y1="717.1654" y2="717.1654"/>
    <line x1="450.2807" x2="680.315" y1="711.4961" y2="711.4961"/>
    <line x1="680.315" x2="113.3858" y1="714.3307" y2="714.3307"/>
    <line x1="113.3858" x2="680.315" y1="725.6693" y2="725.6693"/>
    <line x1="680.315" x2="353.0464" y1="731.3386" y2="731.3386"/>
    <line x1="362.325" x2="680.315" y1="742.6772" y2="742.6772"/>
    <line x1="680.315" x2="113.3858" y1="737.0079" y2="737.0079"/>
    <line x1="113.3858" x2="680.315" y1="748.3465" y2="748.3465"/>
    <line x1="680.315" x2="363.6541" y1="754.0157" y2="754.0157"/>
    <line x1="362.1324" x2="680.315" y1="765.3543" y2="765.3543"/>
    <line x1="680.315" x2="113.3858" y1="759.685" y2="759.685"/>
    <line x1="113.3858" x2="680.315" y1="771.0236" y2="771.0236"/>
    <line x1="680.315" x2="362.7507" y1="776.6929" y2="776.6929"/>
    <line x1="359.5159" x2="680.315" y1="788.0315" y2="788.0315"/>
    <line x1="680.315" x2="113.3858" y1="782.3622" y2="782.3622"/>
    <line x1="113.3858" x2="680.315" y1="793.7008" y2="793.7008"/>
    <line x1="680.315" x2="352.3215" y1="799.3701" y2="799.3701"/>
    <line x1="349.1874" x2="680.315" y1="810.7087" y2="810.7087"/>
    <line x1="680.315" x2="113.3858" y1="805.0394" y2="805.0394"/>
    <line x1="113.3858" x2="680.315" y1="816.378" y2="816.378"/>
    <line x1="680.315" x2="352.7883" y1="822.0472" y2="822.0472"/>
    <line x1="360.0714" x2="680.315" y1="833.3858" y2="833.3858"/>
    <line x1="680.315" x2="113.3858" y1="827.7165" y2="827.7165"/>
    <line x1="113.3858" x2="680.315" y1="839.0551" y2="839.0551"/>
    <line x1="680.315" x2="367.6133" y1="844.7244" y2="844.7244"/>
    <line x1="367.3839" x2="680.315" y1="856.063" y2="856.063"/>
    <line x1="680.315" x2="113.3858" y1="850.3937" y2="850.3937"/>
    <line x1="113.3858" x2="680.315" y1="861.7323" y2="861.7323"/>
    <line x1="680.315" x2="360.4378" y1="867.4016" y2="867.4016"/>
    <line x1="357.8416" x2="680.315" y1="878.7402" y2="878.7402"/>
    <line x1="680.315" x2="113.3858" y1="873.0709" y2="873.0709"/>
    <line x1="113.3858" x2="680.315" y1="884.4094" y2="884.4094"/>
    <line x1="680.315" x2="361.4766" y1="890.0787" y2="890.0787"/>
    <line x1="364.7126" x2="680.315" y1="901.4173" y2="901.4173"/>
    <line x1="680.315" x2="113.3858" y1="895.748" y2="895.748"/>
    <line x1="113.3858" x2="680.315" y1="907.0866" y2="907.0866"/>
    <line x1="680.315" x2="368.1384" y1="912.7559" y2="912.7559"/>
    <line x1="375.7596" x2="680.315" y1="924.0945" y2="924.0945"/>
    <line x1="680.315" x2="113.3858" y1="918.4252" y2="918.4252"/>
    <line x1="113.3858" x2="680.315" y1="929.7638" y2="929.7638"/>
    <line x1="680.315" x2="382.515" y1="935.4331" y2="935.4331"/>
    <line x1="382.7046" x2="680.315" y1="946.7717" y2="946.7717"/>
    <line x1="680.315" x2="113.3858" y1="941.1024" y2="941.1024"/>
    <line x1="113.3858" x2="680.315" y1="952.4409" y2="952.4409"/>
    <line x1="680.315" x2="383.3603" y1="958.1102" y2="958.1102"/>
    <line x1="390.6107" x2="680.315" y1="969.4488" y2="969.4488"/>
    <line x1="680.315" x2="113.3858" y1="975.1181" y2="975.1181"/>
    <line x1="113.3858" x2="680.315" y1="963.7795" y2="963.7795"/>
    <line x1="680.315" x2="400.0195" y1="980.7874" y2="980.7874"/>
    <line x1="408.495" x2="680.315" y1="992.126" y2="992.126"/>
    <line x1="680.315" x2="113.3858" y1="986.4567" y2="986.4567"/>
    <line x1="113.3858" x2="680.315" y1="997.7953" y2="997.7953"/>
    <line x1="680.315" x2="417.3038" y1="1003.4646" y2="1003.4646"/>
    <line x1="516.5746" x2="617.4472" y1="762.5197" y2="762.5197"/>
    <line x1="630.5161" x2="503.5057" y1="756.8504" y2="756.8504"/>
    <line x1="493.1828" x2="640.8391" y1="751.1811" y2="751.1811"/>
    <line x1="649.6048" x2="484.4171" y1="745.5118" y2="745.5118"/>
    <line x1="476.7729" x2="657.2489" y1="739.8425" y2="739.8425"/>
    <line x1="663.6386" x2="470.3832" y1="734.1732" y2="734.1732"/>
    <line x1="464.3917" x2="669.6302" y1="728.5039" y2="728.5039"/>
    <line x1="674.7685" x2="459.2534" y1="722.8346" y2="722.8346"/>
    <line x1="535.4347" x2="598.5872" y1="768.189" y2="768.189"/>
    <line x1="680.315" x2="420.4165" y1="583.937" y2="583.937"/>
    <line x1="431.8162" x2="680.315" y1="581.1024" y2="581.1024"/>
    <line x1="680.315" x2="113.3858" y1="1009.1339" y2="1009.1339"/>
  </g>
</svg>
