<?xml version="1.0" encoding="utf-8" ?>
<svg xmlns="http://www.w3.org/2000/svg" xmlns:cc="http://creativecommons.org/ns#" xmlns:dc="http://purl.org/dc/elements/1.1/" xmlns:ev="http://www.w3.org/2001/xml-events" xmlns:inkscape="http://www.inkscape.org/namespaces/inkscape" xmlns:rdf="http://www.w3.org/1999/02/22-rdf-syntax-ns#" xmlns:sodipodi="http://sodipodi.sourceforge.net/DTD/sodipodi-0.dtd" xmlns:xlink="http://www.w3.org/1999/xlink" baseProfile="tiny" height="29.7cm" version="1.2" viewBox="0 0 793.7007874015749 1122.5196850393702" width="21.0cm">
  <metadata>
    <rdf:RDF>
      <cc:Work>
        <dc:format>image/svg+xml</dc:format>
        <dc:source/>
        <dc:date>2021-02-09T20:49:07.857822</dc:date>
      </cc:Work>
    </rdf:RDF>
  </metadata>
  <defs/>
  <g fill="none" id="layer1" inkscape:groupmode="layer" inkscape:label="1" stroke="#00f" style="display:inline">
    <line x1="680.315" x2="113.3858" y1="113.3858" y2="113.3858"/>
    <line x1="113.3858" x2="680.315" y1="124.7244" y2="124.7244"/>
    <line x1="680.315" x2="463.7803" y1="127.5591" y2="127.5591"/>
    <line x1="463.9017" x2="680.315" y1="133.2283" y2="133.2283"/>
    <line x1="680.315" x2="113.3858" y1="136.063" y2="136.063"/>
    <line x1="113.3858" x2="680.315" y1="147.4016" y2="147.4016"/>
    <line x1="680.315" x2="464.4587" y1="144.5669" y2="144.5669"/>
    <line x1="464.1802" x2="680.315" y1="138.8976" y2="138.8976"/>
    <line x1="680.315" x2="417.2401" y1="141.7323" y2="141.7323"/>
    <line x1="408.1964" x2="680.315" y1="153.0709" y2="153.0709"/>
    <line x1="680.315" x2="466.1303" y1="155.9055" y2="155.9055"/>
    <line x1="465.2894" x2="680.315" y1="150.2362" y2="150.2362"/>
    <line x1="680.315" x2="113.3858" y1="158.7402" y2="158.7402"/>
    <line x1="113.3858" x2="680.315" y1="170.0787" y2="170.0787"/>
    <line x1="680.315" x2="469.969" y1="172.9134" y2="172.9134"/>
    <line x1="468.549" x2="680.315" y1="167.2441" y2="167.2441"/>
    <line x1="680.315" x2="402.3141" y1="164.4094" y2="164.4094"/>
    <line x1="398.5175" x2="680.315" y1="175.748" y2="175.748"/>
    <line x1="680.315" x2="471.7632" y1="178.5827" y2="178.5827"/>
    <line x1="473.7917" x2="680.315" y1="184.252" y2="184.252"/>
    <line x1="680.315" x2="113.3858" y1="181.4173" y2="181.4173"/>
    <line x1="113.3858" x2="680.315" y1="192.7559" y2="192.7559"/>
    <line x1="680.315" x2="475.8435" y1="189.9213" y2="189.9213"/>
    <line x1="478.5249" x2="680.315" y1="195.5906" y2="195.5906"/>
    <line x1="680.315" x2="387.8235" y1="198.4252" y2="198.4252"/>
    <line x1="395.0607" x2="680.315" y1="187.0866" y2="187.0866"/>
    <line x1="680.315" x2="481.2062" y1="201.2598" y2="201.2598"/>
    <line x1="484.2885" x2="680.315" y1="206.9291" y2="206.9291"/>
    <line x1="680.315" x2="113.3858" y1="204.0945" y2="204.0945"/>
    <line x1="113.3858" x2="680.315" y1="215.4331" y2="215.4331"/>
    <line x1="680.315" x2="491.2537" y1="218.2677" y2="218.2677"/>
    <line x1="487.6865" x2="680.315" y1="212.5984" y2="212.5984"/>
    <line x1="680.315" x2="377.0082" y1="209.7638" y2="209.7638"/>
    <line x1="371.096" x2="680.315" y1="221.1024" y2="221.1024"/>
    <line x1="680.315" x2="495.4584" y1="223.937" y2="223.937"/>
    <line x1="499.6718" x2="680.315" y1="229.6063" y2="229.6063"/>
    <line x1="680.315" x2="113.3858" y1="226.7717" y2="226.7717"/>
    <line x1="113.3858" x2="680.315" y1="238.1102" y2="238.1102"/>
    <line x1="680.315" x2="504.8102" y1="235.2756" y2="235.2756"/>
    <line x1="509.9485" x2="680.315" y1="240.9449" y2="240.9449"/>
    <line x1="680.315" x2="390.6568" y1="243.7795" y2="243.7795"/>
    <line x1="392.9759" x2="680.315" y1="255.1181" y2="255.1181"/>
    <line x1="680.315" x2="522.6308" y1="252.2835" y2="252.2835"/>
    <line x1="516.181" x2="680.315" y1="246.6142" y2="246.6142"/>
    <line x1="680.315" x2="113.3858" y1="249.4488" y2="249.4488"/>
    <line x1="113.3858" x2="680.315" y1="260.7874" y2="260.7874"/>
    <line x1="680.315" x2="538.8414" y1="263.622" y2="263.622"/>
    <line x1="530.2749" x2="680.315" y1="257.9528" y2="257.9528"/>
    <line x1="680.315" x2="381.4122" y1="266.4567" y2="266.4567"/>
    <line x1="366.5331" x2="680.315" y1="277.7953" y2="277.7953"/>
    <line x1="680.315" x2="560.5397" y1="274.9606" y2="274.9606"/>
    <line x1="548.553" x2="680.315" y1="269.2913" y2="269.2913"/>
    <line x1="680.315" x2="113.3858" y1="272.126" y2="272.126"/>
    <line x1="113.3858" x2="680.315" y1="283.4646" y2="283.4646"/>
    <line x1="680.315" x2="359.6314" y1="289.1339" y2="289.1339"/>
    <line x1="368.218" x2="680.315" y1="300.4724" y2="300.4724"/>
    <line x1="680.315" x2="113.3858" y1="294.8031" y2="294.8031"/>
    <line x1="113.3858" x2="680.315" y1="306.1417" y2="306.1417"/>
    <line x1="680.315" x2="383.3636" y1="311.811" y2="311.811"/>
    <line x1="390.8341" x2="680.315" y1="323.1496" y2="323.1496"/>
    <line x1="680.315" x2="113.3858" y1="328.8189" y2="328.8189"/>
    <line x1="113.3858" x2="680.315" y1="317.4803" y2="317.4803"/>
    <line x1="680.315" x2="392.3805" y1="334.4882" y2="334.4882"/>
    <line x1="399.1604" x2="680.315" y1="345.8268" y2="345.8268"/>
    <line x1="680.315" x2="113.3858" y1="340.1575" y2="340.1575"/>
    <line x1="113.3858" x2="680.315" y1="351.4961" y2="351.4961"/>
    <line x1="680.315" x2="406.8371" y1="357.1654" y2="357.1654"/>
    <line x1="406.9077" x2="680.315" y1="368.5039" y2="368.5039"/>
    <line x1="680.315" x2="113.3858" y1="362.8346" y2="362.8346"/>
    <line x1="113.3858" x2="680.315" y1="374.1732" y2="374.1732"/>
    <line x1="680.315" x2="406.4376" y1="379.8425" y2="379.8425"/>
    <line x1="410.8964" x2="680.315" y1="391.1811" y2="391.1811"/>
    <line x1="680.315" x2="113.3858" y1="396.8504" y2="396.8504"/>
    <line x1="113.3858" x2="680.315" y1="385.5118" y2="385.5118"/>
    <line x1="680.315" x2="399.9631" y1="402.5197" y2="402.5197"/>
    <line x1="416.5226" x2="528.5948" y1="399.685" y2="399.685"/>
    <line x1="538.0413" x2="421.2235" y1="405.3543" y2="405.3543"/>
    <line x1="426.8382" x2="545.6855" y1="411.0236" y2="411.0236"/>
    <line x1="552.3817" x2="435.5859" y1="416.6929" y2="416.6929"/>
    <line x1="445.5907" x2="558.425" y1="422.3622" y2="422.3622"/>
    <line x1="563.5634" x2="457.6214" y1="428.0315" y2="428.0315"/>
    <line x1="467.4404" x2="568.1952" y1="433.7008" y2="433.7008"/>
    <line x1="572.3998" x2="475.7652" y1="439.3701" y2="439.3701"/>
    <line x1="478.6783" x2="575.9939" y1="445.0394" y2="445.0394"/>
    <line x1="579.3919" x2="479.729" y1="450.7087" y2="450.7087"/>
    <line x1="478.4988" x2="582.1806" y1="456.378" y2="456.378"/>
    <line x1="584.8619" x2="477.1328" y1="462.0472" y2="462.0472"/>
    <line x1="476.3191" x2="586.9944" y1="467.7165" y2="467.7165"/>
    <line x1="589.0229" x2="477.1647" y1="473.3858" y2="473.3858"/>
    <line x1="477.309" x2="590.5965" y1="479.0551" y2="479.0551"/>
    <line x1="592.0165" x2="477.0798" y1="484.7244" y2="484.7244"/>
    <line x1="476.6391" x2="593.0941" y1="490.3937" y2="490.3937"/>
    <line x1="593.9351" x2="476.6439" y1="496.063" y2="496.063"/>
    <line x1="477.1519" x2="594.5553" y1="501.7323" y2="501.7323"/>
    <line x1="594.8338" x2="479.2621" y1="507.4016" y2="507.4016"/>
    <line x1="481.7211" x2="595.0164" y1="513.0709" y2="513.0709"/>
    <line x1="594.7379" x2="484.4851" y1="518.7402" y2="518.7402"/>
    <line x1="488.3791" x2="594.4594" y1="524.4094" y2="524.4094"/>
    <line x1="593.6454" x2="492.7374" y1="530.0787" y2="530.0787"/>
    <line x1="496.4227" x2="592.8045" y1="535.748" y2="535.748"/>
    <line x1="591.5274" x2="499.2538" y1="541.4173" y2="541.4173"/>
    <line x1="501.1954" x2="590.1073" y1="547.0866" y2="547.0866"/>
    <line x1="588.3242" x2="501.7698" y1="552.7559" y2="552.7559"/>
    <line x1="502.5012" x2="586.2957" y1="558.4252" y2="558.4252"/>
    <line x1="583.9383" x2="503.9844" y1="564.0945" y2="564.0945"/>
    <line x1="508.297" x2="581.257" y1="569.7638" y2="569.7638"/>
    <line x1="578.2215" x2="514.1308" y1="575.4331" y2="575.4331"/>
    <line x1="522.6638" x2="574.8234" y1="581.1024" y2="581.1024"/>
    <line x1="570.9515" x2="530.7737" y1="586.7717" y2="586.7717"/>
    <line x1="538.4771" x2="566.7469" y1="592.4409" y2="592.4409"/>
    <line x1="561.7935" x2="545.9031" y1="598.1102" y2="598.1102"/>
    <line x1="553.9464" x2="556.4822" y1="603.7795" y2="603.7795"/>
    <line x1="558.6572" x2="680.315" y1="606.6142" y2="606.6142"/>
    <line x1="680.315" x2="113.3858" y1="612.2835" y2="612.2835"/>
    <line x1="113.3858" x2="355.9601" y1="606.6142" y2="606.6142"/>
    <line x1="361.5724" x2="113.3858" y1="617.9528" y2="617.9528"/>
    <line x1="113.3858" x2="680.315" y1="623.622" y2="623.622"/>
    <line x1="680.315" x2="584.4678" y1="629.2913" y2="629.2913"/>
    <line x1="576.6237" x2="680.315" y1="640.6299" y2="640.6299"/>
    <line x1="680.315" x2="113.3858" y1="646.2992" y2="646.2992"/>
    <line x1="113.3858" x2="368.7006" y1="640.6299" y2="640.6299"/>
    <line x1="370.4708" x2="113.3858" y1="651.9685" y2="651.9685"/>
    <line x1="113.3858" x2="680.315" y1="657.6378" y2="657.6378"/>
    <line x1="680.315" x2="558.4242" y1="663.3071" y2="663.3071"/>
    <line x1="565.7718" x2="680.315" y1="651.9685" y2="651.9685"/>
    <line x1="680.315" x2="113.3858" y1="634.9606" y2="634.9606"/>
    <line x1="113.3858" x2="365.7676" y1="629.2913" y2="629.2913"/>
    <line x1="379.9325" x2="553.3547" y1="606.6142" y2="606.6142"/>
    <line x1="539.2304" x2="394.0567" y1="617.9528" y2="617.9528"/>
    <line x1="414.4365" x2="518.8506" y1="629.2913" y2="629.2913"/>
    <line x1="549.0376" x2="680.315" y1="674.6457" y2="674.6457"/>
    <line x1="680.315" x2="113.3858" y1="668.9764" y2="668.9764"/>
    <line x1="113.3858" x2="370.7183" y1="674.6457" y2="674.6457"/>
    <line x1="371.1357" x2="113.3858" y1="663.3071" y2="663.3071"/>
    <line x1="113.3858" x2="680.315" y1="680.315" y2="680.315"/>
    <line x1="680.315" x2="536.1392" y1="685.9843" y2="685.9843"/>
    <line x1="521.9913" x2="680.315" y1="697.3228" y2="697.3228"/>
    <line x1="680.315" x2="113.3858" y1="691.6535" y2="691.6535"/>
    <line x1="113.3858" x2="369.2106" y1="685.9843" y2="685.9843"/>
    <line x1="366.5725" x2="137.6498" y1="697.3228" y2="697.3228"/>
    <line x1="136.9398" x2="158.2792" y1="694.4882" y2="694.4882"/>
    <line x1="177.1899" x2="135.5197" y1="688.8189" y2="688.8189"/>
    <line x1="134.5912" x2="188.7169" y1="683.1496" y2="683.1496"/>
    <line x1="197.5971" x2="133.7503" y1="677.4803" y2="677.4803"/>
    <line x1="133.3648" x2="204.8634" y1="671.811" y2="671.811"/>
    <line x1="211.0159" x2="133.0862" y1="666.1417" y2="666.1417"/>
    <line x1="133.2259" x2="216.1542" y1="660.4724" y2="660.4724"/>
    <line x1="220.5551" x2="133.5044" y1="654.8031" y2="654.8031"/>
    <line x1="134.1719" x2="224.4545" y1="649.1339" y2="649.1339"/>
    <line x1="227.8525" x2="135.0129" y1="643.4646" y2="643.4646"/>
    <line x1="136.2317" x2="230.6262" y1="637.7953" y2="637.7953"/>
    <line x1="233.1231" x2="137.6518" y1="632.126" y2="632.126"/>
    <line x1="139.469" x2="235.1516" y1="626.4567" y2="626.4567"/>
    <line x1="236.7979" x2="141.4975" y1="620.7874" y2="620.7874"/>
    <line x1="143.9906" x2="238.218" y1="615.1181" y2="615.1181"/>
    <line x1="239.1033" x2="146.672" y1="609.4488" y2="609.4488"/>
    <line x1="149.9612" x2="239.84" y1="603.7795" y2="603.7795"/>
    <line x1="240.1185" x2="153.4236" y1="598.1102" y2="598.1102"/>
    <line x1="157.6282" x2="240.1575" y1="592.4409" y2="592.4409"/>
    <line x1="239.8789" x2="162.2288" y1="586.7717" y2="586.7717"/>
    <line x1="167.3672" x2="239.2208" y1="581.1024" y2="581.1024"/>
    <line x1="238.3798" x2="173.5067" y1="575.4331" y2="575.4331"/>
    <line x1="180.4732" x2="236.9964" y1="569.7638" y2="569.7638"/>
    <line x1="235.435" x2="188.6328" y1="564.0945" y2="564.0945"/>
    <line x1="198.6583" x2="233.4065" y1="558.4252" y2="558.4252"/>
    <line x1="231.0009" x2="211.9676" y1="552.7559" y2="552.7559"/>
    <line x1="223.2303" x2="113.3858" y1="538.5827" y2="538.5827"/>
    <line x1="113.3858" x2="680.315" y1="544.252" y2="544.252"/>
    <line x1="680.315" x2="341.0497" y1="538.5827" y2="538.5827"/>
    <line x1="339.2212" x2="680.315" y1="527.2441" y2="527.2441"/>
    <line x1="680.315" x2="113.3858" y1="532.9134" y2="532.9134"/>
    <line x1="113.3858" x2="214.303" y1="527.2441" y2="527.2441"/>
    <line x1="202.4873" x2="113.3858" y1="515.9055" y2="515.9055"/>
    <line x1="113.3858" x2="680.315" y1="510.2362" y2="510.2362"/>
    <line x1="680.315" x2="338.41" y1="515.9055" y2="515.9055"/>
    <line x1="338.5926" x2="680.315" y1="504.5669" y2="504.5669"/>
    <line x1="680.315" x2="113.3858" y1="498.8976" y2="498.8976"/>
    <line x1="113.3858" x2="184.9602" y1="504.5669" y2="504.5669"/>
    <line x1="214.992" x2="324.2265" y1="470.5512" y2="470.5512"/>
    <line x1="335.9322" x2="203.2863" y1="459.2126" y2="459.2126"/>
    <line x1="195.0626" x2="344.1559" y1="447.874" y2="447.874"/>
    <line x1="355.5943" x2="680.315" y1="447.874" y2="447.874"/>
    <line x1="680.315" x2="113.3858" y1="453.5433" y2="453.5433"/>
    <line x1="113.3858" x2="680.315" y1="442.2047" y2="442.2047"/>
    <line x1="680.315" x2="362.9897" y1="436.5354" y2="436.5354"/>
    <line x1="350.0721" x2="189.1465" y1="436.5354" y2="436.5354"/>
    <line x1="185.2602" x2="353.9583" y1="425.1969" y2="425.1969"/>
    <line x1="356.2407" x2="182.9778" y1="413.8583" y2="413.8583"/>
    <line x1="182.1198" x2="357.0988" y1="402.5197" y2="402.5197"/>
    <line x1="356.3215" x2="182.8971" y1="391.1811" y2="391.1811"/>
    <line x1="185.1239" x2="354.0947" y1="379.8425" y2="379.8425"/>
    <line x1="350.3295" x2="188.889" y1="368.5039" y2="368.5039"/>
    <line x1="194.7364" x2="344.4821" y1="357.1654" y2="357.1654"/>
    <line x1="336.4255" x2="202.793" y1="345.8268" y2="345.8268"/>
    <line x1="214.2581" x2="324.9604" y1="334.4882" y2="334.4882"/>
    <line x1="306.7829" x2="232.4356" y1="323.1496" y2="323.1496"/>
    <line x1="113.3858" x2="680.315" y1="408.189" y2="408.189"/>
    <line x1="680.315" x2="384.033" y1="413.8583" y2="413.8583"/>
    <line x1="372.293" x2="680.315" y1="425.1969" y2="425.1969"/>
    <line x1="680.315" x2="113.3858" y1="430.8661" y2="430.8661"/>
    <line x1="113.3858" x2="680.315" y1="419.5276" y2="419.5276"/>
    <line x1="680.315" x2="349.7659" y1="459.2126" y2="459.2126"/>
    <line x1="345.2785" x2="680.315" y1="470.5512" y2="470.5512"/>
    <line x1="680.315" x2="113.3858" y1="476.2205" y2="476.2205"/>
    <line x1="113.3858" x2="680.315" y1="464.8819" y2="464.8819"/>
    <line x1="680.315" x2="341.9807" y1="481.8898" y2="481.8898"/>
    <line x1="339.7725" x2="680.315" y1="493.2283" y2="493.2283"/>
    <line x1="680.315" x2="113.3858" y1="487.5591" y2="487.5591"/>
    <line x1="113.3858" x2="680.315" y1="521.5748" y2="521.5748"/>
    <line x1="680.315" x2="343.9487" y1="549.9213" y2="549.9213"/>
    <line x1="348.0081" x2="680.315" y1="561.2598" y2="561.2598"/>
    <line x1="680.315" x2="113.3858" y1="566.9291" y2="566.9291"/>
    <line x1="113.3858" x2="310.8602" y1="561.2598" y2="561.2598"/>
    <line x1="327.5712" x2="113.3858" y1="572.5984" y2="572.5984"/>
    <line x1="113.3858" x2="680.315" y1="578.2677" y2="578.2677"/>
    <line x1="680.315" x2="360.2333" y1="583.937" y2="583.937"/>
    <line x1="353.3709" x2="680.315" y1="572.5984" y2="572.5984"/>
    <line x1="680.315" x2="113.3858" y1="555.5906" y2="555.5906"/>
    <line x1="113.3858" x2="283.3256" y1="549.9213" y2="549.9213"/>
    <line x1="339.4243" x2="113.3858" y1="583.937" y2="583.937"/>
    <line x1="113.3858" x2="680.315" y1="589.6063" y2="589.6063"/>
    <line x1="680.315" x2="368.9245" y1="595.2756" y2="595.2756"/>
    <line x1="348.6963" x2="113.3858" y1="595.2756" y2="595.2756"/>
    <line x1="113.3858" x2="680.315" y1="600.9449" y2="600.9449"/>
    <line x1="680.315" x2="576.2613" y1="617.9528" y2="617.9528"/>
    <line x1="510.0014" x2="680.315" y1="708.6614" y2="708.6614"/>
    <line x1="680.315" x2="113.3858" y1="702.9921" y2="702.9921"/>
    <line x1="113.3858" x2="680.315" y1="714.3307" y2="714.3307"/>
    <line x1="680.315" x2="502.3637" y1="720.0" y2="720.0"/>
    <line x1="497.9776" x2="680.315" y1="731.3386" y2="731.3386"/>
    <line x1="680.315" x2="113.3858" y1="725.6693" y2="725.6693"/>
    <line x1="113.3858" x2="680.315" y1="737.0079" y2="737.0079"/>
    <line x1="680.315" x2="495.9987" y1="742.6772" y2="742.6772"/>
    <line x1="493.169" x2="680.315" y1="754.0157" y2="754.0157"/>
    <line x1="680.315" x2="113.3858" y1="748.3465" y2="748.3465"/>
    <line x1="113.3858" x2="680.315" y1="759.685" y2="759.685"/>
    <line x1="680.315" x2="483.9906" y1="765.3543" y2="765.3543"/>
    <line x1="469.7522" x2="680.315" y1="776.6929" y2="776.6929"/>
    <line x1="680.315" x2="113.3858" y1="771.0236" y2="771.0236"/>
    <line x1="113.3858" x2="680.315" y1="782.3622" y2="782.3622"/>
    <line x1="680.315" x2="459.9278" y1="788.0315" y2="788.0315"/>
    <line x1="453.2256" x2="680.315" y1="799.3701" y2="799.3701"/>
    <line x1="680.315" x2="113.3858" y1="793.7008" y2="793.7008"/>
    <line x1="113.3858" x2="680.315" y1="805.0394" y2="805.0394"/>
    <line x1="680.315" x2="440.7696" y1="810.7087" y2="810.7087"/>
    <line x1="429.9035" x2="680.315" y1="822.0472" y2="822.0472"/>
    <line x1="680.315" x2="113.3858" y1="816.378" y2="816.378"/>
    <line x1="113.3858" x2="680.315" y1="827.7165" y2="827.7165"/>
    <line x1="680.315" x2="414.1531" y1="833.3858" y2="833.3858"/>
    <line x1="392.0132" x2="680.315" y1="844.7244" y2="844.7244"/>
    <line x1="680.315" x2="113.3858" y1="839.0551" y2="839.0551"/>
    <line x1="113.3858" x2="680.315" y1="850.3937" y2="850.3937"/>
    <line x1="680.315" x2="360.4307" y1="856.063" y2="856.063"/>
    <line x1="337.8583" x2="680.315" y1="867.4016" y2="867.4016"/>
    <line x1="680.315" x2="113.3858" y1="861.7323" y2="861.7323"/>
    <line x1="113.3858" x2="680.315" y1="873.0709" y2="873.0709"/>
    <line x1="680.315" x2="329.9295" y1="878.7402" y2="878.7402"/>
    <line x1="330.1469" x2="680.315" y1="890.0787" y2="890.0787"/>
    <line x1="680.315" x2="113.3858" y1="884.4094" y2="884.4094"/>
    <line x1="113.3858" x2="680.315" y1="895.748" y2="895.748"/>
    <line x1="680.315" x2="330.9002" y1="901.4173" y2="901.4173"/>
    <line x1="333.8183" x2="680.315" y1="912.7559" y2="912.7559"/>
    <line x1="680.315" x2="113.3858" y1="907.0866" y2="907.0866"/>
    <line x1="113.3858" x2="680.315" y1="918.4252" y2="918.4252"/>
    <line x1="680.315" x2="334.3819" y1="924.0945" y2="924.0945"/>
    <line x1="329.6908" x2="680.315" y1="935.4331" y2="935.4331"/>
    <line x1="680.315" x2="113.3858" y1="929.7638" y2="929.7638"/>
    <line x1="113.3858" x2="680.315" y1="941.1024" y2="941.1024"/>
    <line x1="680.315" x2="328.407" y1="946.7717" y2="946.7717"/>
    <line x1="337.5294" x2="680.315" y1="958.1102" y2="958.1102"/>
    <line x1="680.315" x2="113.3858" y1="952.4409" y2="952.4409"/>
    <line x1="113.3858" x2="680.315" y1="963.7795" y2="963.7795"/>
    <line x1="680.315" x2="355.908" y1="969.4488" y2="969.4488"/>
    <line x1="378.0307" x2="680.315" y1="980.7874" y2="980.7874"/>
    <line x1="680.315" x2="113.3858" y1="975.1181" y2="975.1181"/>
    <line x1="113.3858" x2="680.315" y1="986.4567" y2="986.4567"/>
    <line x1="680.315" x2="399.0072" y1="992.126" y2="992.126"/>
    <line x1="414.5881" x2="680.315" y1="1003.4646" y2="1003.4646"/>
    <line x1="680.315" x2="113.3858" y1="997.7953" y2="997.7953"/>
    <line x1="113.3858" x2="680.315" y1="1009.1339" y2="1009.1339"/>
    <line x1="342.0005" x2="162.2218" y1="742.6772" y2="742.6772"/>
    <line x1="153.4179" x2="350.8044" y1="731.3386" y2="731.3386"/>
    <line x1="357.554" x2="146.6683" y1="720.0" y2="720.0"/>
    <line x1="141.4947" x2="362.7276" y1="708.6614" y2="708.6614"/>
    <line x1="330.7241" x2="173.4982" y1="754.0157" y2="754.0157"/>
    <line x1="188.6198" x2="315.6024" y1="765.3543" y2="765.3543"/>
    <line x1="292.2764" x2="211.9459" y1="776.6929" y2="776.6929"/>
    <line x1="233.5864" x2="305.6321" y1="481.8898" y2="481.8898"/>
    <line x1="416.3011" x2="516.986" y1="394.0157" y2="394.0157"/>
    <line x1="500.5007" x2="432.7864" y1="388.3465" y2="388.3465"/>
    <line x1="378.7798" x2="680.315" y1="232.4409" y2="232.4409"/>
    <line x1="667.7562" x2="576.1501" y1="280.6299" y2="280.6299"/>
    <line x1="604.0881" x2="639.8183" y1="286.2992" y2="286.2992"/>
    <line x1="680.315" x2="467.1289" y1="161.5748" y2="161.5748"/>
    <line x1="464.0588" x2="680.315" y1="121.8898" y2="121.8898"/>
    <line x1="680.315" x2="439.0812" y1="119.0551" y2="119.0551"/>
    <line x1="427.2736" x2="680.315" y1="130.3937" y2="130.3937"/>
    <line x1="680.315" x2="464.3374" y1="116.2205" y2="116.2205"/>
  </g>
</svg>
