<svg xmlns="http://www.w3.org/2000/svg" xmlns:ev="http://www.w3.org/2001/xml-events" xmlns:xlink="http://www.w3.org/1999/xlink" width="21cm" height="29.7cm" baseProfile="tiny" version="1.2" viewBox="0 0 793.701 1122.52"><metadata/><g id="layer1" fill="none" stroke="#00f" style="display:inline"><line x1="680.315" x2="113.386" y1="113.386" y2="113.386"/><line x1="113.386" x2="680.315" y1="124.724" y2="124.724"/><line x1="680.315" x2="372.895" y1="130.394" y2="130.394"/><line x1="364.558" x2="680.315" y1="141.732" y2="141.732"/><line x1="680.315" x2="113.386" y1="147.402" y2="147.402"/><line x1="113.386" x2="680.315" y1="136.063" y2="136.063"/><line x1="680.315" x2="358.127" y1="153.071" y2="153.071"/><line x1="353.209" x2="680.315" y1="164.409" y2="164.409"/><line x1="680.315" x2="113.386" y1="158.74" y2="158.74"/><line x1="113.386" x2="680.315" y1="170.079" y2="170.079"/><line x1="680.315" x2="349.625" y1="175.748" y2="175.748"/><line x1="347.258" x2="680.315" y1="187.087" y2="187.087"/><line x1="680.315" x2="113.386" y1="192.756" y2="192.756"/><line x1="113.386" x2="680.315" y1="204.095" y2="204.095"/><line x1="680.315" x2="345.923" y1="209.764" y2="209.764"/><line x1="346.035" x2="680.315" y1="198.425" y2="198.425"/><line x1="680.315" x2="113.386" y1="181.417" y2="181.417"/><line x1="113.386" x2="680.315" y1="215.433" y2="215.433"/><line x1="680.315" x2="346.917" y1="221.102" y2="221.102"/><line x1="349.05" x2="680.315" y1="232.441" y2="232.441"/><line x1="680.315" x2="113.386" y1="238.11" y2="238.11"/><line x1="113.386" x2="680.315" y1="226.772" y2="226.772"/><line x1="680.315" x2="352.387" y1="243.78" y2="243.78"/><line x1="357.04" x2="680.315" y1="255.118" y2="255.118"/><line x1="680.315" x2="113.386" y1="249.449" y2="249.449"/><line x1="113.386" x2="680.315" y1="260.787" y2="260.787"/><line x1="680.315" x2="363.18" y1="266.457" y2="266.457"/><line x1="371.067" x2="680.315" y1="277.795" y2="277.795"/><line x1="680.315" x2="113.386" y1="283.465" y2="283.465"/><line x1="113.386" x2="680.315" y1="272.126" y2="272.126"/><line x1="680.315" x2="381.345" y1="289.134" y2="289.134"/><line x1="395.065" x2="680.315" y1="300.472" y2="300.472"/><line x1="680.315" x2="113.386" y1="294.803" y2="294.803"/><line x1="113.386" x2="680.315" y1="306.142" y2="306.142"/><line x1="680.315" x2="414.966" y1="311.811" y2="311.811"/><line x1="429.299" x2="533.759" y1="297.638" y2="297.638"/><line x1="540.53" x2="423.097" y1="291.969" y2="291.969"/><line x1="415.911" x2="546.482" y1="286.299" y2="286.299"/><line x1="551.621" x2="408.672" y1="280.63" y2="280.63"/><line x1="401.968" x2="556.038" y1="274.961" y2="274.961"/><line x1="560.122" x2="397.119" y1="269.291" y2="269.291"/><line x1="394.872" x2="563.52" y1="263.622" y2="263.622"/><line x1="566.621" x2="394.245" y1="257.953" y2="257.953"/><line x1="396.363" x2="569.303" y1="252.284" y2="252.284"/><line x1="571.601" x2="398.616" y1="246.614" y2="246.614"/><line x1="401.043" x2="573.63" y1="240.945" y2="240.945"/><line x1="575.242" x2="402.582" y1="235.276" y2="235.276"/><line x1="403.741" x2="576.663" y1="229.606" y2="229.606"/><line x1="577.664" x2="404.242" y1="223.937" y2="223.937"/><line x1="404.701" x2="578.505" y1="218.268" y2="218.268"/><line x1="578.94" x2="405.143" y1="212.598" y2="212.598"/><line x1="405.688" x2="579.219" y1="206.929" y2="206.929"/><line x1="579.106" x2="406.166" y1="201.26" y2="201.26"/><line x1="406.564" x2="578.827" y1="195.591" y2="195.591"/><line x1="578.164" x2="407.653" y1="189.921" y2="189.921"/><line x1="409.263" x2="577.323" y1="184.252" y2="184.252"/><line x1="576.087" x2="412.003" y1="178.583" y2="178.583"/><line x1="415.332" x2="574.667" y1="172.913" y2="172.913"/><line x1="572.807" x2="418.943" y1="167.244" y2="167.244"/><line x1="422.462" x2="570.779" y1="161.575" y2="161.575"/><line x1="568.216" x2="426.107" y1="155.905" y2="155.905"/><line x1="429.886" x2="565.534" y1="150.236" y2="150.236"/><line x1="562.143" x2="435.239" y1="144.567" y2="144.567"/><line x1="441.288" x2="558.538" y1="138.898" y2="138.898"/><line x1="554.333" x2="448.551" y1="133.228" y2="133.228"/><line x1="454.528" x2="549.538" y1="127.559" y2="127.559"/><line x1="544.249" x2="459.488" y1="121.89" y2="121.89"/><line x1="460.249" x2="537.994" y1="116.221" y2="116.221"/><line x1="680.315" x2="383.88" y1="119.055" y2="119.055"/><line x1="434.792" x2="525.811" y1="303.307" y2="303.307"/><line x1="516.03" x2="438.283" y1="308.976" y2="308.976"/><line x1="440.944" x2="503.027" y1="314.646" y2="314.646"/><line x1="481.815" x2="443.187" y1="320.315" y2="320.315"/><line x1="442.849" x2="680.315" y1="323.15" y2="323.15"/><line x1="680.315" x2="113.386" y1="328.819" y2="328.819"/><line x1="113.386" x2="680.315" y1="317.48" y2="317.48"/><line x1="680.315" x2="444.481" y1="334.488" y2="334.488"/><line x1="446.521" x2="680.315" y1="345.827" y2="345.827"/><line x1="680.315" x2="113.386" y1="340.158" y2="340.158"/><line x1="113.386" x2="680.315" y1="351.496" y2="351.496"/><line x1="680.315" x2="444.863" y1="357.165" y2="357.165"/><line x1="436.36" x2="680.315" y1="368.504" y2="368.504"/><line x1="680.315" x2="113.386" y1="362.835" y2="362.835"/><line x1="113.386" x2="680.315" y1="374.173" y2="374.173"/><line x1="680.315" x2="429.332" y1="379.842" y2="379.842"/><line x1="426.108" x2="680.315" y1="391.181" y2="391.181"/><line x1="680.315" x2="113.386" y1="396.85" y2="396.85"/><line x1="113.386" x2="680.315" y1="385.512" y2="385.512"/><line x1="680.315" x2="416.877" y1="402.52" y2="402.52"/><line x1="416.173" x2="148.078" y1="402.52" y2="402.52"/><line x1="145.368" x2="680.315" y1="413.858" y2="413.858"/><line x1="680.315" x2="113.386" y1="419.528" y2="419.528"/><line x1="113.386" x2="680.315" y1="408.189" y2="408.189"/><line x1="680.315" x2="143.686" y1="425.197" y2="425.197"/><line x1="143.04" x2="680.315" y1="436.535" y2="436.535"/><line x1="680.315" x2="113.386" y1="442.205" y2="442.205"/><line x1="113.386" x2="680.315" y1="453.543" y2="453.543"/><line x1="680.315" x2="143.281" y1="447.874" y2="447.874"/><line x1="144.415" x2="680.315" y1="459.213" y2="459.213"/><line x1="680.315" x2="113.386" y1="464.882" y2="464.882"/><line x1="113.386" x2="680.315" y1="476.221" y2="476.221"/><line x1="680.315" x2="146.468" y1="470.551" y2="470.551"/><line x1="149.493" x2="680.315" y1="481.89" y2="481.89"/><line x1="680.315" x2="113.386" y1="487.559" y2="487.559"/><line x1="113.386" x2="680.315" y1="498.898" y2="498.898"/><line x1="680.315" x2="158.935" y1="504.567" y2="504.567"/><line x1="153.572" x2="680.315" y1="493.228" y2="493.228"/><line x1="680.315" x2="113.386" y1="510.236" y2="510.236"/><line x1="113.386" x2="680.315" y1="521.575" y2="521.575"/><line x1="680.315" x2="173.865" y1="527.244" y2="527.244"/><line x1="165.627" x2="680.315" y1="515.905" y2="515.905"/><line x1="680.315" x2="113.386" y1="532.913" y2="532.913"/><line x1="113.386" x2="680.315" y1="544.252" y2="544.252"/><line x1="680.315" x2="184.076" y1="538.583" y2="538.583"/><line x1="197.207" x2="680.315" y1="549.921" y2="549.921"/><line x1="680.315" x2="113.386" y1="555.591" y2="555.591"/><line x1="113.386" x2="680.315" y1="566.929" y2="566.929"/><line x1="680.315" x2="214.33" y1="561.26" y2="561.26"/><line x1="240.588" x2="680.315" y1="572.598" y2="572.598"/><line x1="680.315" x2="113.386" y1="578.268" y2="578.268"/><line x1="113.386" x2="680.315" y1="589.606" y2="589.606"/><line x1="680.315" x2="306.152" y1="595.276" y2="595.276"/><line x1="309.68" x2="680.315" y1="606.614" y2="606.614"/><line x1="680.315" x2="113.386" y1="612.284" y2="612.284"/><line x1="113.386" x2="680.315" y1="600.945" y2="600.945"/><line x1="680.315" x2="317.401" y1="617.953" y2="617.953"/><line x1="333.368" x2="680.315" y1="629.291" y2="629.291"/><line x1="680.315" x2="536.291" y1="632.126" y2="632.126"/><line x1="531.395" x2="680.315" y1="637.795" y2="637.795"/><line x1="680.315" x2="356.611" y1="640.63" y2="640.63"/><line x1="381.683" x2="680.315" y1="651.968" y2="651.968"/><line x1="680.315" x2="523.689" y1="649.134" y2="649.134"/><line x1="520.568" x2="680.315" y1="654.803" y2="654.803"/><line x1="680.315" x2="113.386" y1="657.638" y2="657.638"/><line x1="113.386" x2="680.315" y1="646.299" y2="646.299"/><line x1="680.315" x2="527.191" y1="643.465" y2="643.465"/><line x1="517.887" x2="680.315" y1="660.472" y2="660.472"/><line x1="680.315" x2="399.122" y1="663.307" y2="663.307"/><line x1="405.723" x2="680.315" y1="674.646" y2="674.646"/><line x1="680.315" x2="513.834" y1="671.811" y2="671.811"/><line x1="512.414" x2="680.315" y1="677.48" y2="677.48"/><line x1="680.315" x2="113.386" y1="680.315" y2="680.315"/><line x1="113.386" x2="680.315" y1="668.976" y2="668.976"/><line x1="680.315" x2="515.743" y1="666.142" y2="666.142"/><line x1="511.294" x2="680.315" y1="683.15" y2="683.15"/><line x1="680.315" x2="408.064" y1="685.984" y2="685.984"/><line x1="416.34" x2="680.315" y1="697.323" y2="697.323"/><line x1="680.315" x2="510.066" y1="694.488" y2="694.488"/><line x1="509.832" x2="680.315" y1="700.158" y2="700.158"/><line x1="680.315" x2="113.386" y1="702.992" y2="702.992"/><line x1="113.386" x2="680.315" y1="714.331" y2="714.331"/><line x1="680.315" x2="510.587" y1="711.496" y2="711.496"/><line x1="510.11" x2="680.315" y1="705.827" y2="705.827"/><line x1="680.315" x2="426.699" y1="708.661" y2="708.661"/><line x1="430.241" x2="680.315" y1="720" y2="720"/><line x1="680.315" x2="511.428" y1="717.165" y2="717.165"/><line x1="512.64" x2="680.315" y1="722.835" y2="722.835"/><line x1="680.315" x2="113.386" y1="725.669" y2="725.669"/><line x1="113.386" x2="680.315" y1="737.008" y2="737.008"/><line x1="680.315" x2="518.314" y1="739.842" y2="739.842"/><line x1="516.067" x2="680.315" y1="734.173" y2="734.173"/><line x1="680.315" x2="430.8" y1="731.339" y2="731.339"/><line x1="437.096" x2="680.315" y1="742.677" y2="742.677"/><line x1="680.315" x2="520.996" y1="745.512" y2="745.512"/><line x1="524.23" x2="680.315" y1="751.181" y2="751.181"/><line x1="680.315" x2="452.021" y1="754.016" y2="754.016"/><line x1="469.842" x2="680.315" y1="765.354" y2="765.354"/><line x1="680.315" x2="532.066" y1="762.52" y2="762.52"/><line x1="527.861" x2="680.315" y1="756.85" y2="756.85"/><line x1="680.315" x2="113.386" y1="759.685" y2="759.685"/><line x1="113.386" x2="680.315" y1="748.346" y2="748.346"/><line x1="680.315" x2="514.06" y1="728.504" y2="728.504"/><line x1="510.453" x2="680.315" y1="688.819" y2="688.819"/><line x1="680.315" x2="113.386" y1="691.654" y2="691.654"/><line x1="113.386" x2="680.315" y1="634.961" y2="634.961"/><line x1="677.503" x2="541.942" y1="626.457" y2="626.457"/><line x1="548.609" x2="670.835" y1="620.787" y2="620.787"/><line x1="680.315" x2="113.386" y1="623.622" y2="623.622"/><line x1="113.386" x2="680.315" y1="771.024" y2="771.024"/><line x1="680.315" x2="537.11" y1="768.189" y2="768.189"/><line x1="542.939" x2="676.505" y1="773.858" y2="773.858"/><line x1="680.315" x2="479.679" y1="776.693" y2="776.693"/><line x1="480.062" x2="680.315" y1="788.032" y2="788.032"/><line x1="680.315" x2="113.386" y1="793.701" y2="793.701"/><line x1="113.386" x2="680.315" y1="782.362" y2="782.362"/><line x1="669.616" x2="549.828" y1="779.528" y2="779.528"/><line x1="558.246" x2="661.198" y1="785.197" y2="785.197"/><line x1="650.382" x2="569.062" y1="790.866" y2="790.866"/><line x1="585.587" x2="633.858" y1="796.535" y2="796.535"/><line x1="680.315" x2="477.053" y1="799.37" y2="799.37"/><line x1="477.212" x2="680.315" y1="810.709" y2="810.709"/><line x1="680.315" x2="113.386" y1="805.039" y2="805.039"/><line x1="113.386" x2="680.315" y1="816.378" y2="816.378"/><line x1="680.315" x2="476.863" y1="822.047" y2="822.047"/><line x1="472.052" x2="680.315" y1="833.386" y2="833.386"/><line x1="680.315" x2="113.386" y1="827.716" y2="827.716"/><line x1="113.386" x2="680.315" y1="839.055" y2="839.055"/><line x1="680.315" x2="464.458" y1="844.724" y2="844.724"/><line x1="461.895" x2="680.315" y1="856.063" y2="856.063"/><line x1="680.315" x2="113.386" y1="861.732" y2="861.732"/><line x1="113.386" x2="680.315" y1="850.394" y2="850.394"/><line x1="680.315" x2="465.241" y1="867.402" y2="867.402"/><line x1="464.785" x2="680.315" y1="878.74" y2="878.74"/><line x1="680.315" x2="113.386" y1="873.071" y2="873.071"/><line x1="113.386" x2="680.315" y1="884.409" y2="884.409"/><line x1="680.315" x2="455.842" y1="890.079" y2="890.079"/><line x1="443.232" x2="330.803" y1="890.079" y2="890.079"/><line x1="326.426" x2="447.609" y1="901.417" y2="901.417"/><line x1="448.894" x2="680.315" y1="901.417" y2="901.417"/><line x1="680.315" x2="113.386" y1="895.748" y2="895.748"/><line x1="113.386" x2="680.315" y1="907.087" y2="907.087"/><line x1="680.315" x2="456.108" y1="912.756" y2="912.756"/><line x1="449.693" x2="324.342" y1="912.756" y2="912.756"/><line x1="324.358" x2="449.677" y1="924.095" y2="924.095"/><line x1="447.531" x2="326.505" y1="935.433" y2="935.433"/><line x1="330.951" x2="443.084" y1="946.772" y2="946.772"/><line x1="435.743" x2="338.292" y1="958.11" y2="958.11"/><line x1="350.486" x2="423.549" y1="969.449" y2="969.449"/><line x1="394.022" x2="380.013" y1="980.787" y2="980.787"/><line x1="470.478" x2="680.315" y1="924.095" y2="924.095"/><line x1="680.315" x2="113.386" y1="918.425" y2="918.425"/><line x1="113.386" x2="680.315" y1="929.764" y2="929.764"/><line x1="680.315" x2="481.051" y1="935.433" y2="935.433"/><line x1="485.095" x2="680.315" y1="946.772" y2="946.772"/><line x1="680.315" x2="113.386" y1="941.102" y2="941.102"/><line x1="113.386" x2="680.315" y1="952.441" y2="952.441"/><line x1="680.315" x2="488.457" y1="958.11" y2="958.11"/><line x1="492.829" x2="680.315" y1="969.449" y2="969.449"/><line x1="680.315" x2="113.386" y1="963.779" y2="963.779"/><line x1="113.386" x2="680.315" y1="975.118" y2="975.118"/><line x1="680.315" x2="495.69" y1="980.787" y2="980.787"/><line x1="497.121" x2="680.315" y1="992.126" y2="992.126"/><line x1="680.315" x2="113.386" y1="986.457" y2="986.457"/><line x1="113.386" x2="680.315" y1="997.795" y2="997.795"/><line x1="680.315" x2="496.32" y1="1003.465" y2="1003.465"/><line x1="435.975" x2="338.06" y1="878.74" y2="878.74"/><line x1="350.063" x2="423.972" y1="867.402" y2="867.402"/><line x1="396.137" x2="377.898" y1="856.063" y2="856.063"/><line x1="301.632" x2="680.315" y1="583.937" y2="583.937"/><line x1="662.706" x2="556.738" y1="615.118" y2="615.118"/><line x1="567.151" x2="652.293" y1="609.449" y2="609.449"/><line x1="637.466" x2="581.978" y1="603.779" y2="603.779"/><line x1="442.339" x2="265.589" y1="496.063" y2="496.063"/><line x1="265.076" x2="446.453" y1="490.394" y2="490.394"/><line x1="449.657" x2="267.954" y1="484.724" y2="484.724"/><line x1="276.406" x2="452.113" y1="479.055" y2="479.055"/><line x1="453.908" x2="285.978" y1="473.386" y2="473.386"/><line x1="296.972" x2="455.101" y1="467.716" y2="467.716"/><line x1="455.727" x2="308.06" y1="462.047" y2="462.047"/><line x1="319.323" x2="455.805" y1="456.378" y2="456.378"/><line x1="455.337" x2="331.414" y1="450.709" y2="450.709"/><line x1="339.378" x2="454.306" y1="445.039" y2="445.039"/><line x1="452.682" x2="341.002" y1="439.37" y2="439.37"/><line x1="343.274" x2="450.41" y1="433.701" y2="433.701"/><line x1="447.407" x2="346.277" y1="428.031" y2="428.031"/><line x1="350.136" x2="443.548" y1="422.362" y2="422.362"/><line x1="438.643" x2="355.042" y1="416.693" y2="416.693"/><line x1="361.714" x2="431.97" y1="411.024" y2="411.024"/><line x1="422.627" x2="371.058" y1="405.354" y2="405.354"/><line x1="390.736" x2="402.949" y1="399.685" y2="399.685"/><line x1="412.458" x2="151.793" y1="391.181" y2="391.181"/><line x1="156.613" x2="407.639" y1="379.842" y2="379.842"/><line x1="401.567" x2="162.684" y1="368.504" y2="368.504"/><line x1="170.224" x2="394.028" y1="357.165" y2="357.165"/><line x1="384.698" x2="179.553" y1="345.827" y2="345.827"/><line x1="191.169" x2="373.082" y1="334.488" y2="334.488"/><line x1="358.112" x2="206.139" y1="323.15" y2="323.15"/><line x1="227.347" x2="336.904" y1="311.811" y2="311.811"/><line x1="269.928" x2="436.895" y1="501.732" y2="501.732"/><line x1="429.824" x2="278.393" y1="507.402" y2="507.402"/><line x1="287.336" x2="419.203" y1="513.071" y2="513.071"/><line x1="396.694" x2="295.972" y1="518.74" y2="518.74"/><line x1="302.081" x2="392.489" y1="524.409" y2="524.409"/><line x1="387.956" x2="306.717" y1="530.079" y2="530.079"/><line x1="308.244" x2="382.818" y1="535.748" y2="535.748"/><line x1="377.048" x2="307.884" y1="541.417" y2="541.417"/><line x1="305.557" x2="370.793" y1="547.087" y2="547.087"/><line x1="363.222" x2="301.853" y1="552.756" y2="552.756"/><line x1="298.439" x2="354.65" y1="558.425" y2="558.425"/><line x1="344.504" x2="296.095" y1="564.095" y2="564.095"/><line x1="296.113" x2="331.586" y1="569.764" y2="569.764"/><line x1="312.825" x2="297.33" y1="575.433" y2="575.433"/><line x1="113.386" x2="680.315" y1="430.866" y2="430.866"/><line x1="680.315" x2="113.386" y1="1009.134" y2="1009.134"/></g></svg>