<?xml version="1.0" encoding="utf-8" ?>
<svg xmlns="http://www.w3.org/2000/svg" xmlns:cc="http://creativecommons.org/ns" xmlns:dc="http://purl.org/dc/elements/1.1/" xmlns:ev="http://www.w3.org/2001/xml-events" xmlns:inkscape="http://www.inkscape.org/namespaces/inkscape" xmlns:rdf="http://www.w3.org/1999/02/22-rdf-syntax-ns" xmlns:sodipodi="http://sodipodi.sourceforge.net/DTD/sodipodi-0.dtd" xmlns:xlink="http://www.w3.org/1999/xlink" baseProfile="tiny" height="20.5cm" version="1.2" viewBox="0 0 491.33858267716533 774.8031496062991" width="13.0cm">
  <metadata>
    <rdf:RDF>
      <cc:Work>
        <dc:format>image/svg+xml</dc:format>
        <dc:source>Vsketch with params {'__seed__': 1692132538}</dc:source>
        <dc:date>2023-03-17T16:48:08.753466</dc:date>
      </cc:Work>
    </rdf:RDF>
  </metadata>
  <defs/>
  <g fill="none" id="layer1" inkscape:groupmode="layer" inkscape:label="1" stroke="#0000ff" style="display:inline">
    <polyline points="217.0003,401.0251 218.6776,391.8756 219.1112,386.9003 219.7346,383.6022 221.5774,377.9882 223.9166,373.1205 226.6156,369.6403 229.9478,367.2542 233.5514,366.0988 237.9351,366.0725 241.7395,366.8304 249.0768,369.176 255.0585,370.6896 261.7627,373.1419 265.6148,375.0108 268.7719,376.981 271.3299,379.0744 273.458,381.4291 275.2298,384.3284 276.2523,387.3199 276.5539,390.232 276.2394,394.4102 275.3258,398.2951 273.8539,401.7743 271.9023,404.7488 269.42,407.335"/>
    <polygon points="263.0037,410.9108 252.5595,413.8901 242.987,417.6139 238.7813,418.4078 234.8899,418.1414 231.9885,417.0148 229.3415,414.9771 223.854,407.8084 217.9203,402.0666 215.2467,398.6007 209.6803,388.6715 207.4766,383.4657 206.3536,377.7049 206.3861,374.881 206.7758,372.3494 208.4244,367.7912 211.2655,363.5541 215.0083,360.0942 219.384,357.5331 224.7652,355.6011 235.2112,353.0565 245.9968,350.0203 251.0247,349.4277 255.5729,349.9073 260.0819,351.6052 264.366,354.3041 267.8452,357.5882 270.7108,361.6802 272.2688,365.0443 273.4564,368.9894 275.1588,380.6154 276.855,388.3533 277.2622,393.7219 276.9164,396.0743 276.1813,398.3358 274.7069,401.2198 272.8796,403.8613 270.7253,406.2019 268.4524,408.0655 265.7958,409.6823"/>
    <polyline points="234.7245,441.0341 223.5785,434.7074 218.8829,431.4438 214.7706,428.1287"/>
    <polyline points="201.4731,408.7569 199.8583,402.9721 198.9197,397.8667 198.4128,392.1824 198.2955,385.6551 198.5527,382.5386 199.2212,379.4842 201.9176,372.9584 211.1075,355.8049 213.8308,351.8488 216.7004,348.7142 220.0748,346.1309 223.8587,344.199 237.0348,340.2758"/>
    <polyline points="241.1897,300.3472 244.8785,302.9423 251.711,309.7657 254.4757,311.4835 255.9059,311.8171 257.9101,311.7185 264.574,309.5826 267.3849,309.1493 269.9721,309.6205 272.2174,311.0769 274.7949,314.297 279.7697,323.0095 283.1317,327.3208 285.9004,329.7418 292.9081,334.1978 294.7145,336.3086 297.5661,341.1336 299.263,343.248 309.3205,350.9826 314.9771,356.8088 317.4586,360.0722 322.1913,367.5732 326.3026,373.0626 327.8345,376.0535 330.2645,387.2606 331.709,390.5755 336.0774,398.8903 337.4949,402.6654 338.0971,407.0542 337.4191,411.2615 336.4794,413.529 335.1708,415.6702 328.5507,423.9769 321.6648,438.7769 318.0211,444.823 314.3337,448.6372 305.9613,454.2469 304.0246,456.3677 302.3779,458.9779"/>
    <polyline points="333.384,484.165 336.9407,479.7124 342.7985,473.9112 346.6176,471.6948 352.9903,469.419"/>
    <polyline points="364.4505,474.832 356.1481,477.0708 353.231,478.1818 342.0358,485.9084 340.0706,487.6421 337.6345,491.4348 334.7206,498.9378 329.8842,507.6236 325.2553,517.6802"/>
    <polyline points="316.7318,525.6852 305.6582,530.2215 302.6923,530.7031 295.6247,531.1377 292.8088,531.7706 289.4087,533.6731 284.6004,537.8713 282.0283,539.6257 279.269,540.7594 275.3696,541.3537 266.4291,541.3675 262.4553,540.9579 257.4693,539.5647 249.6758,536.0644 245.011,534.6132 239.515,533.7014 229.4786,533.0626 224.0807,532.05 211.0346,527.8475 203.1776,525.8508 200.6625,524.8377 195.1593,521.5477 186.4893,514.7858 179.2949,511.6184 171.512,507.6142 167.9223,505.1023 165.2887,502.7575 163.8056,500.3327 161.3703,493.6207 160.1165,491.1682 157.9949,488.5265 153.2305,483.9285 151.0921,482.5687 149.3596,481.9523 140.4593,480.984 137.3813,480.1935 134.9672,478.7606 132.8313,475.9219 129.8262,468.2792 126.3059,463.2752 124.8753,460.0536 124.1765,455.449 124.3158,446.76 123.573,443.4293 119.0287,435.4011 115.2635,425.1835 110.9808,415.8045 109.9969,412.5255 109.5588,406.5631 110.072,401.3925 111.6344,394.5735 114.8229,386.3315 115.2439,383.1112 114.8825,381.4761 114.0475,379.7985 108.6078,372.5983 107.1845,369.8205 105.9624,366.1197 105.18,362.4095 105.0526,359.6733 105.3429,357.0056 106.0812,354.4366 107.9297,352.168 110.7329,350.221 116.9124,346.7704 119.7596,344.2302 120.6293,341.911 120.8196,336.616 121.4484,334.1484 122.8619,332.0296 129.6955,326.2338 132.2573,323.0141 134.1929,318.4779 137.5398,307.7165 138.648,305.3915 140.9255,301.8155 145.3189,296.6882 151.5724,291.0206 153.6506,289.5535 158.152,287.0813 160.0846,285.4991 161.5536,283.3212 164.0164,276.6705 165.4185,274.1393 167.2958,272.2437 171.4876,269.052 173.2528,266.8529 174.6934,264.3935"/>
    <polyline points="183.6215,258.2684 187.599,257.8628 189.3246,257.3645 190.9027,256.5092 192.741,254.6998"/>
    <polyline points="196.3698,237.3125 192.2565,244.3216 190.7837,245.8828 189.1147,246.8659 185.5254,248.1616 182.6766,248.7867 179.6263,249.0225 173.0287,248.778 169.9455,249.2552 168.1154,250.0318 162.1173,253.507 155.8043,256.5275 145.7613,263.0556 142.6718,264.003 136.7456,264.8389 134.6594,265.5794 132.8995,266.7102 125.3538,275.2142 119.2675,284.8564 114.9616,293.0472 108.5122,300.8459 102.644,309.1399 100.6753,312.6949 98.43,318.3784 96.8865,321.0116 90.6663,327.2582 86.2712,333.391 78.5695,342.4053"/>
    <line x1="77.7717" x2="82.466" y1="346.3469" y2="337.8488"/>
    <polyline points="75.6056,320.4271 74.9273,323.4086 73.4833,326.5083 72.0817,328.4277 67.8318,333.0724 65.9057,336.1257 64.393,341.7433 62.9984,353.3161 63.0912,355.6821 64.4345,364.0042 64.6962,367.4657 64.3473,370.8425 63.0879,376.4282 63.1232,379.8431 64.2494,383.2815 67.9884,392.2154 69.7932,404.23 69.5398,408.6748 66.8978,419.1896 66.7302,424.9778 67.3902,428.3187 70.3503,435.7444 71.2302,439.0142 71.403,442.5098 70.7388,448.7487 70.7345,452.4315 72.8159,466.6202"/>
    <polyline points="72.8827,466.8389 71.5334,460.8926 69.7934,455.2771 69.0567,445.6688 65.1629,430.005 63.3492,426.8613 59.016,421.763 57.3793,418.4463 57.1383,414.8894 58.2369,408.8163 58.3198,406.4537 57.8031,404.1501 55.3009,397.2328 54.4446,393.7027 54.1268,390.1391 54.3543,380.6205 53.9822,377.0221 53.6725,375.8055 52.2793,373.2966 48.33,368.5464"/>
    <polyline points="45.4664,361.2728 46.7142,359.069 47.8591,357.9811 57.1643,352.183 59.3429,350.1975 61.7182,345.8967 64.4304,338.1289 67.3452,331.6997 69.4069,328.7176 73.3592,324.0296 75.7889,320.0812 79.9786,310.7357 84.7135,299.0492 85.0024,296.5695 85.0002,287.0026 85.6906,283.1986 89.7936,275.8629 93.1915,264.7085 94.6002,262.6951 98.4861,259.594 100.1414,257.8034 101.2103,255.4654 102.7641,248.3782 104.1479,246.2243 105.1594,245.4699 106.3669,244.9237 109.2852,244.3956 122.7213,244.9912 125.4491,244.5997 127.7837,243.7739 130.8334,242.01 132.5509,240.4292 134.0023,238.4738 137.7351,231.4844 139.349,229.6067 141.3078,228.2379 145.0289,227.4557 153.2988,227.6569 158.2863,227.1769 161.5184,225.9487 166.9584,221.3464 170.0351,219.7318 172.4093,219.4111 178.7347,219.8125 181.0458,219.5159 183.0895,218.5056 189.8827,213.5976 191.9839,212.5921 197.4638,210.7848 206.7655,204.3628 215.5807,199.4606 217.8684,198.4528 220.2245,197.8617 230.9978,196.2225 235.8418,196.1486 238.2851,197.0073 244.2863,200.6836 246.6315,201.5984 260.7217,202.1842 273.8948,201.716 279.7373,202.8218 288.6668,206.3148 290.9619,206.8646 299.7151,206.5132 302.946,206.8258"/>
    <polyline points="288.0815,191.9581 292.199,197.2503 295.3552,199.8047 301.2873,205.5138 304.3552,207.7394 307.6832,209.1136 316.0602,210.7708 321.8174,212.6736 328.6646,217.9121 336.2042,221.6129 342.2185,227.8637 346.1105,230.5751 349.5473,231.8359 352.1523,232.2582 359.7008,232.1358 362.4713,232.5448 364.6849,233.7195 372.5541,241.607 375.4646,243.8896 377.7719,245.0283 380.4362,245.8227 388.2703,246.9907"/>
    <polyline points="397.4779,253.8234 403.414,262.4438 409.3974,269.1798 411.6602,272.3026 412.6247,274.7518 414.798,283.9319 415.912,286.2062 418.8304,290.3527 419.8749,292.6616 420.37,295.2544 420.8955,301.9907 421.6865,304.3627 423.4196,307.6607 426.2409,311.8596 428.8839,314.8345 433.8993,319.6953 438.1069,322.7878"/>
    <polyline points="436.1823,317.8319 433.8454,312.868 432.4603,307.8568 432.104,303.7679 432.5715,297.7111"/>
    <polyline points="435.6121,301.2642 433.2716,298.905 432.1394,296.5198 431.8644,293.7035 432.4004,289.3332"/>
    <polyline points="415.7996,315.9729 415.0119,308.8221 414.2555,306.5465 412.8521,304.5822 409.4458,302.3303 398.884,298.9109 395.3843,297.0651 390.3771,292.3465 384.562,284.2942 372.3323,274.5193 363.7309,269.3407 360.6792,267.8977 357.2287,266.9405 348.7147,265.6147 343.9787,263.3888 339.8826,260.4436 334.1316,254.567 330.6284,252.497 324.8725,250.2658 318.7903,244.4998 316.2394,242.75 313.3337,241.707 310.1523,241.2995 305.7653,241.2395 296.8947,242.0967 290.9811,241.2878 287.7693,241.832 282.2144,243.9544 279.2367,244.2386 276.6166,243.1272 270.8232,238.3574 269.0574,237.2997 253.9261,232.9219 249.0555,232.0681 242.1684,231.5685 234.3414,232.8047 232.3753,232.7868 230.371,232.3592 229.3398,231.883 227.1775,230.1689 221.2796,223.8233 218.8257,221.8431"/>
    <polyline points="219.192,228.3142 215.66,228.0801 212.3598,228.7972"/>
    <polyline points="210.7876,222.1535 206.554,224.8858 203.0284,228.1455 198.1823,233.7803 195.4945,235.3651 193.5057,235.7715 186.156,236.3021 172.7966,236.6301 163.0276,238.4462 158.8388,239.7363 157.0088,240.8675 155.4172,242.3918 150.0451,249.7594 143.6445,255.233 139.4737,260.0549 137.1156,262.091 133.9398,263.1897 122.252,264.7022 116.332,266.8682"/>
    <polyline points="114.3345,270.5491 125.6958,266.6958 129.7159,264.7762 131.5597,263.5295"/>
    <polyline points="121.8302,245.0163 118.9728,246.0757 112.0359,247.3482 109.8242,248.5423 108.1981,250.3581 105.2904,255.985 103.7554,257.8439 96.2578,262.501 92.5559,266.2883"/>
    <polyline points="104.4449,274.327 101.7983,276.2074 99.3522,278.6283 96.3801,283.5018 89.4933,296.5666 87.4402,299.2875 82.8429,303.5558"/>
    <polyline points="85.0262,286.735 92.5113,282.168 97.5308,277.2408 99.4737,275.832 103.3266,274.5215 110.493,273.2211 112.6472,272.1763 114.8938,269.759 119.0792,261.4639 120.5616,259.7809 122.3531,258.4225 124.4426,257.4006 127.0002,256.9318 135.7632,257.17 138.0698,256.6367 139.9587,255.6092 144.08,252.2805 145.543,250.6811 149.7171,243.4451 153.4286,239.0928 157.0784,236.6423 166.2199,232.8484 167.999,231.509 171.277,228.1261 173.1298,226.8447 176.4406,226.1557 181.4333,226.8459 183.6778,226.6425 185.6536,225.7265 191.0559,221.1907 194.2269,220.2593 196.5647,220.4413 202.622,222.1276 204.9077,222.4534 209.2044,222.0785 215.7677,222.5022 218.8746,221.8256 220.846,220.5989 222.7497,218.6167 228.5474,210.527 231.6941,207.0092 234.9979,204.1955 238.4152,201.8737 240.746,200.7478 243.1681,200.0342"/>
    <polyline points="237.3578,196.6118 232.2554,196.9896 228.8257,196.5259"/>
    <polyline points="228.5702,187.6101 225.4377,188.4625 222.8674,188.1443 220.1653,186.811 216.84,184.2733"/>
    <line x1="208.6419" x2="201.0414" y1="179.6516" y2="177.9845"/>
    <polyline points="204.34,178.6271 201.7883,179.3666 193.4992,183.1801"/>
    <polyline points="182.1837,184.4954 179.7555,185.1032 177.2866,186.1728 170.5614,191.1277 166.2144,192.8988"/>
    <polyline points="172.5422,184.2443 175.1347,183.9528 178.053,183.122"/>
    <polyline points="149.5278,200.7023 143.8974,208.2434 142.0676,210.2611 140.0089,211.846 137.456,212.595 128.6323,213.2568 125.97,214.0181 123.4426,215.4691"/>
    <polyline points="122.4209,216.4121 120.1501,219.4959 115.3455,228.2199 112.9811,231.4275 106.6313,235.8776 98.1035,243.7395 95.9543,247.0371 90.733,257.7756 89.2346,259.8163 87.2744,261.4767 83.7472,263.5372 81.7341,265.2081 77.4508,271.5695 74.7586,274.371 70.4841,277.7147 62.4466,283.2182"/>
    <polyline points="55.1827,304.3938 55.3006,308.9628 54.3972,318.2122 50.7288,334.2839 48.9285,340.3203 44.1519,348.3537 43.5375,350.8393 43.542,352.1399 45.1114,360.1039 49.6704,371.8644 50.9493,376.8406 52.2515,388.9545 51.5391,402.2548 51.6341,407.1076 52.2606,410.6945 53.7066,414.162 56.7493,419.7541 62.2232,427.1022 63.592,430.3721 63.6752,433.9453 62.8105,440.2598 62.8293,442.7225 64.306,449.7374 64.5983,457.2798 65.172,459.6464 67.3067,462.6765 72.8006,466.7656 74.5754,468.5372 75.7316,470.5886 77.1344,476.4908 78.4213,478.485 80.5621,479.9938 87.6714,482.5596 91.3926,484.2719 100.5283,490.2466 102.7675,492.7079 103.6338,494.8171 104.6904,499.6356 105.5842,501.7971 109.9346,506.9405 110.8868,509.1112 111.2531,511.8556 111.3238,519.8091 112.1905,523.9696 113.0831,526.4824 115.1526,529.5327 119.9993,533.0916 121.639,534.8617 126.179,544.7805 131.8355,553.9808 136.0337,566.4712 137.5524,569.0544 140.5427,571.7597"/>
    <polyline points="156.8704,579.3706 170.9473,577.1906 174.0258,576.1987 186.242,570.8891 188.958,570.2059 192.7479,569.949 196.2919,570.4521 203.1781,572.1799 209.0265,573.0922 212.4213,574.2891 215.6719,576.6265 222.1183,583.7496 224.4611,585.2151 225.6741,585.6142 228.1645,585.7215 234.4696,584.0888 236.9361,584.0741 239.3806,585.0152 246.8752,589.1924 249.433,590.1995 251.9981,590.7347 255.8287,590.7599 267.2149,589.3526 277.7603,590.6459 284.7213,589.9789"/>
    <polyline points="286.0749,589.5612 291.4035,586.717 294.6984,586.2119"/>
    <polyline points="300.7525,577.4028 291.0276,579.8861 288.4739,579.872 285.7297,578.9309 278.733,574.9724 276.1467,574.0629 274.9271,573.965 270.2525,574.731 263.2973,576.515 257.3917,577.324 247.921,579.9568 239.4526,581.493 234.5742,581.7966 227.2861,581.2798 220.0689,581.7367"/>
    <polyline points="226.7455,585.7557 230.8139,583.3324 233.303,582.7916 235.7382,583.191 238.5058,584.5904"/>
    <polyline points="245.5351,588.5185 248.13,588.8187 253.1596,588.3973 256.8923,587.5883 261.7949,586.0581 265.3469,584.1154 272.0233,578.5391 274.3127,577.5484 277.9884,577.5421 285.9482,579.9147 289.9085,580.5392 294.812,579.62 306.5615,575.505 309.8172,573.5435 314.5472,568.6772 316.5949,567.2427 320.0894,566.1368 325.2072,565.6029 328.6411,564.243 331.484,561.6971 340.8742,551.2132 344.7321,548.3812 361.603,541.0256 364.2498,540.4528 371.8077,540.0807"/>
    <polyline points="382.0431,533.7136 386.1309,527.7559 389.5017,524.0371 398.2043,518.2087"/>
    <polyline points="397.8784,519.3696 399.6589,512.9074 401.6384,508.9737"/>
    <polyline points="402.8634,505.0086 403.1844,497.0816 403.5716,494.4222 404.304,492.0196 406.0931,488.8799 410.4893,483.0782 412.6674,478.7639 413.4547,476.4533 413.7219,473.8917 412.525,465.4436 412.7528,462.9891 413.7049,459.6024 417.5653,449.8895 419.5721,442.0023 422.5406,433.1974 423.5106,428.6542 423.7462,425.1484 423.6038,419.2522 421.5335,408.6064 421.42,405.198 422.7236,401.9132 426.2345,396.408 427.2466,392.9795 426.6727,389.506 422.9252,382.7059 421.7929,379.3698 421.9878,375.9782 424.127,368.956 423.9629,365.52 422.3261,362.2884 418.1802,357.2516 416.8706,355.2283 416.0663,353.1252 415.7114,350.934 415.3978,341.8319 416.2147,332.1427 414.6472,321.7206 415.0025,319.0847 416.988,310.5436 416.9692,307.915 416.2782,305.578 415.0129,303.514 409.484,296.9396 405.4448,291.0223 403.4541,289.4574 396.6458,285.4785 394.8073,283.9263 393.3984,282.0891 391.502,277.734 390.2365,275.7742 388.5049,274.1753 384.4856,271.4735 382.8205,269.8644 381.5482,267.9203 378.8682,262.5449 376.4088,260.0708 374.2421,258.9446 368.3696,256.7262 366.5258,255.3572 363.332,252.0853 360.4038,250.2433 358.0461,249.5227 352.9912,248.6287 350.8373,247.7685 349.1692,246.2821 346.6019,242.1936 345.0593,240.4647 343.0548,239.4013 336.9046,238.6117 334.8091,237.7844 333.0565,236.3947 329.2762,231.7507 327.475,230.3532 324.1643,229.4144 316.5279,229.9093 313.1176,229.4872 311.1791,228.4686 304.9356,223.3369 299.8994,220.9422 296.6525,220.1533 288.6365,220.0618 285.4249,219.3522 282.4334,217.6951 277.5982,213.7442 274.5412,211.7492 271.3033,210.5578 264.6045,209.3871 261.2859,208.3978 258.012,206.5419 251.3665,201.7056"/>
    <polyline points="262.0293,187.5068 264.614,187.7399 267.2377,187.1619 271.5568,184.4294"/>
    <polyline points="272.2815,184.4753 268.8453,184.571 266.1649,185.2944 258.1011,189.8015 255.5422,190.6126 254.2922,190.6515 251.8136,190.3166 248.1013,189.1063 240.2394,184.9752"/>
    <polyline points="205.0704,205.4059 202.7906,208.1898 198.5779,215.0913 196.7842,217.0727 195.807,217.7248 194.7639,218.1294 192.4839,218.2782 185.5144,216.7047"/>
    <polyline points="182.8723,236.4427 175.0372,238.9964 166.1762,239.8632 162.9921,240.6187 160.1641,242.0655 154.3676,246.7633 151.0546,248.5624"/>
    <polyline points="136.1157,234.3953 138.3537,232.4027 140.495,228.713"/>
    <polyline points="125.2137,213.2299 123.6309,215.2843 121.612,217.0137 114.2333,219.9308"/>
    <polyline points="107.2162,226.8184 105.4462,228.5921 101.7909,230.4813 91.3897,233.2026 87.9041,234.3835"/>
    <polyline points="111.4216,272.8529 110.3346,274.5409 109.5294,276.7372 108.2973,284.0927 107.6597,286.299 103.7357,293.956 101.8116,299.0092 100.7044,303.2525 99.6439,309.816 98.8811,311.7438 96.9035,314.2017 90.1173,319.0647 87.7115,321.4856 86.3827,324.3963 85.3618,330.8318 84.3659,333.8448 79.2351,341.1678 78.2524,343.1263 77.7704,346.337 78.4881,350.9078 78.5401,353.0943 77.3316,361.4881 77.2665,363.6178 77.9699,366.9046 80.6693,373.4714 82.3563,378.7195 84.4842,381.853 90.4183,388.8344 97.1398,401.7291 102.2847,409.3639 103.8642,412.7313 104.3651,416.2651 103.8148,424.6988 103.8362,429.42 104.2879,433.1191 108.728,446.1947 110.4903,450.4579 111.8691,457.0218 113.1097,459.5341 115.3001,462.5813 116.4144,465.1719 116.7234,469.4064 115.6975,480.6455 116.0375,485.3689 117.588,489.2884 120.5823,493.4009 122.1164,496.1168 124.0726,504.1691 124.8535,506.343 126.5876,509.0891 131.4411,514.7608 134.6785,522.5714 135.8695,524.5691 137.3783,526.1881 141.1377,528.4573 156.2979,534.931 159.1628,536.401 162.5387,539.1724 168.7926,546.0796 174.0555,550.5147 177.8815,552.8989 184.0595,555.4693 186.0286,556.6065 192.5482,562.1856 194.552,563.4811 196.7187,564.2327 199.0389,564.3925 201.4641,564.0675 207.5849,562.5024 209.907,562.2711 217.5411,563.935 227.5275,564.9904 230.8031,566.1024 238.5318,570.4731 241.9614,571.4681 244.2648,571.4591 251.0972,569.5256 254.5103,569.2878 256.8453,569.9438 259.265,571.335 265.0259,576.1109"/>
    <polyline points="271.8258,589.7985 274.5735,586.987 276.8967,585.5615 278.1118,585.2076 294.2429,582.362 303.5131,582.4574 307.43,582.0917 313.6167,580.3293 317.7733,578.4377"/>
    <polyline points="317.579,581.5264 312.5164,584.9523 305.4185,587.3788"/>
    <polyline points="306.0169,587.5771 310.2768,586.5138 312.6915,585.4505 314.925,583.9064 321.2392,578.5938 327.2376,576.1761 332.5359,575.2661 338.2818,575.0749 343.2144,575.9326 347.4958,577.3526"/>
    <polyline points="354.0446,568.3555 348.0991,571.0198 345.5216,571.8345 337.0088,572.5698 333.0234,573.2858 329.3867,574.6587 324.8521,576.9433"/>
    <polyline points="314.7779,583.6469 320.4827,573.4152 323.1634,570.1114 325.3623,568.915 331.6969,567.666 334.0692,566.7848 348.9604,557.4019 366.1869,549.0238 368.1458,547.3999 368.9424,546.3588 371.8548,539.9802 374.2142,536.9859 376.3922,535.6819 382.839,533.3831 385.7451,531.6239"/>
    <polyline points="391.5926,525.7843 398.6095,518.5887 400.9476,515.5633 402.0427,513.1839 404.5887,505.618 406.7561,502.5445 414.3082,496.95 423.913,489.1934 427.8335,486.8646 432.1683,484.7498"/>
    <polyline points="436.6262,474.9249 436.6472,467.7762 437.7154,463.962 438.7848,461.9896"/>
    <polyline points="439.2809,468.4519 438.7669,464.3712 438.8033,461.5689 440.0286,455.0563 440.2106,452.3691 439.5747,444.0715 440.2596,441.5994 440.9481,440.4545 445.0438,436.1279"/>
    <polygon points="449.2514,431.7024 449.0745,435.7346 450.2889,445.7109 450.375,448.5483 447.5949,460.4996 445.7248,464.1623 439.5075,470.3973 437.1852,473.7568 431.6189,485.8636 426.9181,493.9225 425.7174,497.861 424.8474,505.2552 423.8225,507.8329 422.1154,509.9637 418.5315,512.4229 404.5403,518.4641 396.8142,523.8026 390.0976,526.3191 387.8354,527.6565 386.3518,529.7393 384.447,536.9145 383.2611,539.4266 378.2631,545.5294 374.8568,551.683 373.958,552.6714 371.7209,554.0941 364.8141,555.796 362.4831,557.0051 361.5285,557.9065 355.0262,567.1159 350.5115,572.534 344.6735,581.5957 341.4759,584.4043 340.2309,584.9969 337.4378,585.5454 319.8982,585.8693 309.4426,588.1815 306.5281,587.7465 300.4455,585.6507 297.6788,585.3346 296.4012,585.5324 290.4299,588.1832 284.2392,590.1345 278.101,592.6517 269.2055,595.0205 261.5936,598.1952 257.6795,599.2136 249.7056,599.322 240.3961,600.6828 236.4135,599.8945 229.9099,597.3349 227.2895,597.0557 225.9372,597.4296 218.915,600.7406 217.5445,600.8717 216.22,600.6145 214.9509,599.9528 212.5672,597.7069 207.171,590.1121 204.9322,588.1024 203.7393,587.5419 201.2012,587.1957 195.7524,587.9995 193.1031,587.9469 191.8576,587.5926 184.8723,583.8532 175.1147,580.6596 169.9148,579.8817 160.0423,579.9419 157.3448,579.5316 154.9036,578.527 149.5346,574.5265 147.2153,573.3021 136.55,570.7657 134.0931,569.6906 131.8355,568.2775 128.7898,565.6316 121.3183,557.8386 117.1112,552.5363 111.843,542.6581 105.9985,533.9915 103.3073,526.0448 102.1172,523.763 100.6157,521.797 98.6357,520.2754 96.1357,519.2011 86.9472,517.1382 82.7401,515.593 76.4073,510.6469 70.0756,507.0959 68.0942,505.2406 66.9066,502.8519 65.8508,497.2908 64.8485,494.8377 63.1292,492.8116 53.4827,484.483 50.4902,481.468 48.0541,478.1397 42.996,469.9828 41.1766,466.3086 40.2787,463.734 37.5692,451.7428 36.485,449.2379 33.6092,444.3902 32.92,441.7471 33.2601,438.8561 37.7312,426.9572 39.3915,420.0408 41.9755,411.8966 43.0092,405.4092 42.2849,394.047 39.6653,386.4312 38.9099,382.5642 39.6043,372.2981 39.5579,364.5275 40.9089,356.9016 41.0473,354.311 40.5308,351.5943 37.9808,344.4198 37.9904,341.7123 39.1663,339.27 44.8164,333.9697 46.3434,331.7138 46.6985,330.4741 46.7718,327.798 45.7777,320.6188 46.2653,318.0028 46.8587,316.8178 51.8869,310.3453 56.4365,302.4198 60.0356,298.4198 61.5564,296.3103 62.2896,293.8011 61.8066,286.158 62.3342,283.4344 63.7633,281.2218 67.9677,277.6535 69.7672,275.7106 71.1833,273.5258 74.072,267.5922 79.1795,261.6223 81.2857,258.2944 82.7402,254.4016 84.7732,247.4098 87.0295,236.5849 88.8766,232.6092 91.6826,229.554 95.4661,227.5463 98.583,226.905 107.4216,226.8159 110.4548,226.3254 111.6265,225.6776 112.5336,224.7036 113.2049,223.4271 115.1502,217.2088 116.8882,215.027 119.4688,213.9985 125.4159,213.1956 128.0626,212.3877 134.9146,208.3789 150.1193,200.4088 153.8794,199.0998 160.4118,197.6141 162.8131,196.5746 164.9195,194.8058 170.2407,186.3593 171.2808,185.2504 173.5822,183.5994 174.8438,183.082 177.6861,183.0319 185.4835,185.649 188.3035,185.9128 189.5853,185.5983 191.9919,184.3502 197.7107,179.5399 200.1796,178.1975 201.491,177.8734 204.2536,177.9634 207.1511,178.9205 215.9017,183.8255 221.3705,186.092 226.6102,187.3345 231.7223,187.8363 234.2366,187.5115 236.7403,186.7052 243.0787,183.3498 245.6794,181.3656 251.0735,176.2927 253.8341,174.4831 256.5665,173.9315 259.2366,174.4646 263.1183,176.424 270.4478,182.2869 272.6951,185.0217 276.9018,191.1151 279.0969,193.1014 280.2759,193.5849 282.812,193.6239 291.1774,190.9239 293.9141,190.5338 296.5011,190.8029 303.9922,192.7021 317.3281,193.8496 322.5628,194.878 323.7901,195.3508 325.935,197.0181 329.456,201.8979 331.4433,203.7316 333.8764,204.6144 339.227,205.5037 341.6177,206.5416 353.4682,216.924 355.6055,218.3377 362.5261,221.8729 367.9654,225.3556 372.4444,230.0697 376.6437,236.9604 378.2664,238.9486 383.8581,244.0907 389.2534,247.6826 395.316,252.5172 401.1154,256.0154 403.2436,257.6203 405.0843,259.4747 408.9116,264.7304 410.6783,266.6585 418.1349,272.6403 419.4158,274.9509 420.2917,279.0535 421.4697,281.397 423.5621,283.2011 430.5385,286.8793 432.2398,289.01 433.7153,292.774 435.0882,299.518 436.5982,304.6557 436.6862,307.4897 435.815,313.4841 435.7723,316.2735 438.3439,323.5862 440.0274,332.5066 441.4054,334.7974 446.3149,340.2619 447.4521,342.6954 448.5761,346.4924 449.7765,348.9448 455.1412,356.1467 456.9943,359.977 457.5207,362.6436 458.4186,372.0943 456.7877,381.6407 456.7012,384.3282 457.2034,388.3533 458.1514,393.7572 457.9729,399.1588 457.0525,404.5091 454.5736,412.363 453.0114,420.236 450.1316,427.8297"/>
    <polyline points="449.6712,429.5295 448.3342,424.8209 446.6593,420.5791 439.6067,410.6613 438.7033,408.0735 438.7097,406.834 439.4907,404.4221 442.1947,400.8729 451.1351,392.2734 457.0169,387.2736"/>
    <polyline points="454.4246,389.465 453.1076,385.7153 449.2527,377.987 448.4828,374.1422 448.5999,372.8368 449.7204,370.1393 455.0656,362.9383 456.8507,359.57"/>
    <polyline points="456.7577,359.3065 451.5914,354.002 450.4431,351.5105 450.2194,349.6381"/>
    <line x1="449.8164" x2="450.4127" y1="349.0072" y2="351.3151"/>
    <line x1="450.5365" x2="454.0712" y1="351.7783" y2="363.3989"/>
    <polyline points="453.9239,364.5083 454.5202,361.6558 455.8623,358.4532"/>
    <polyline points="450.8429,368.4726 449.1724,362.3321 447.7702,351.9861 446.3355,349.6019 441.267,344.0793 440.0862,341.7381 439.8941,339.1652 441.118,334.4031"/>
    <polyline points="449.7509,379.1753 448.7475,383.1862 448.5869,390.9345 448.0698,395.2779"/>
    <polyline points="445.6049,418.8324 440.0442,424.6231 437.814,428.0185 435.06,438.9016 434.3554,443.8893 434.0746,450.3732 433.5051,452.8433 432.4406,455.1453 429.7093,459.5009 423.3038,467.6391 421.3853,470.8383 420.2857,474.4193 419.5084,483.8464 417.4666,489.9479 415.5582,493.238 413.8114,495.1358 406.4915,500.8392 403.7595,503.4793 402.1226,506.9055 400.4149,516.3749"/>
    <polyline points="403.0116,492.5072 400.6778,495.3759 396.9186,498.5681 393.6358,500.5665 385.5462,504.6119 383.6003,505.9944 381.4295,508.683 378.4313,515.3471 375.6896,519.1938 365.6941,527.3053 362.6648,529.1324 360.4266,530.0668 340.1535,534.9557 333.0135,535.9646 325.5616,535.9722 312.6442,533.5539 308.2812,533.7073 300.5449,535.8991 290.478,540.3667 281.5869,541.9196 278.7174,542.7642 269.3595,547.2322 266.4438,548.294 263.4067,548.5776 258.2581,548.0427 256.2421,548.1408 254.2601,548.7169 248.2864,551.8311 244.177,552.8375 230.6956,552.9343 228.6345,552.6718 226.6196,551.9777 220.8985,548.1032 218.0402,546.7024 214.1593,545.5073 209.2378,544.4861 203.0778,544.2215 191.8946,545.8622 185.063,546.3135 180.7292,545.7471 177.8312,544.3929 176.1007,543.0339 174.5547,541.299 169.8118,534.3091 163.7173,528.3964 160.345,526.1398 154.5715,523.8758 152.9433,522.6447 151.5389,521.095 149.8934,518.1684 148.7442,514.6683 147.9772,510.8076 146.8391,501.6111 146.2242,499.4704 145.2433,497.7831 143.033,496.0868 138.357,494.2266 136.8239,493.103 135.6483,491.626 133.3219,487.4064 132.0317,486.0604 129.3299,484.6833 121.7423,482.2384 119.0479,480.6273 115.8554,477.9306"/>
    <polyline points="103.227,493.6508 111.2854,498.5055 114.5355,501.4103 122.56,514.8342 127.1294,521.3043 128.4328,524.9305 130.0201,535.7541 131.0709,540.2338 133.7752,546.7637 136.6294,551.2491 138.6224,552.6804 141.0218,553.4626 149.2412,553.8381 152.9541,554.5308 156.2747,555.8824 162.6119,559.146 169.3965,561.4096 172.3511,563.5734 177.5571,570.147 181.5681,572.7448"/>
    <line x1="182.9537" x2="177.8118" y1="572.132" y2="570.3406"/>
    <polyline points="173.2987,539.4874 177.5602,539.6793 187.3689,543.057 194.6706,543.9725 198.0629,544.8933"/>
    <polyline points="202.1084,544.3016 200.3807,542.585 198.9279,540.3775 194.7416,531.0543 193.4902,528.9109 188.468,523.8266 183.1963,519.8848 180.7139,518.7493 177.9348,518.1979 166.9576,518.855 161.59,518.4577 157.7966,517.1809 151.6711,514.0262 148.2998,512.6655"/>
    <polyline points="172.0445,507.9331 176.2436,508.128 178.7559,508.9251 180.8849,510.4307 183.5867,513.3498"/>
    <polyline points="192.6782,510.3911 200.0728,510.3733 205.6403,511.6551 221.7318,518.4091 233.4617,524.0593"/>
    <polyline points="213.953,525.4845 207.8835,522.1684 202.9296,520.3749"/>
    <polyline points="200.1118,523.6446 196.2123,521.2451 192.2077,519.2703"/>
    <polyline points="197.8462,523.3182 206.2753,524.7615 213.3988,525.4692 231.1728,524.4257 234.6663,523.6575 241.5418,519.7325 244.0167,518.861 250.5991,519.016 255.5298,518.7177 268.5966,517.0006 274.2208,515.7116 282.8113,515.6106 286.9697,514.8212 290.0356,513.4126 295.7974,509.8216 302.0597,507.4782 313.2978,500.2898 315.5988,499.2606 320.5955,497.6813 322.8911,496.5409 325.1986,494.0049 328.0573,488.2816 329.6591,486.3615 337.0177,482.1173 343.0372,477.444 350.052,473.3655 351.9397,471.5702 352.7812,470.0515 353.3824,467.3122 353.3542,460.1763 353.6233,457.4208 354.371,455.007 355.1984,453.6047 356.3696,452.3969 357.9119,451.3812 366.2892,448.1464 369.8473,445.9902 374.2318,442.1239 375.9631,439.9339 377.3131,437.5708 378.577,433.2638 377.9072,425.6438 378.2069,422.0993 379.5817,417.9267 383.1417,410.5086 384.0961,407.045 384.3966,404.3841 383.6745,400.7368 380.9429,394.4127 380.3012,391.7982 378.9034,379.8197 378.9835,376.384 379.8921,369.3458 379.2922,365.0525 376.2813,358.6204 371.2314,350.3024 364.9543,341.9345 362.7279,338.4312 361.9694,336.0986 360.8803,329.3531 357.6251,323.598 356.9721,320.6024"/>
    <polyline points="354.2923,316.856 355.6781,325.6316 356.6258,328.7886 358.653,331.3765 361.648,333.6023"/>
    <polyline points="377.4644,360.88 379.0195,365.9763 379.7948,370.7331"/>
    <polyline points="386.4735,373.4277 381.7547,379.6401 380.7076,382.3043 380.7247,384.0335 382.0485,387.4813 387.0835,394.6832 390.508,400.9854"/>
    <polyline points="390.7056,397.8728 386.4016,391.9517 384.7297,388.3533 384.5555,384.8015 386.5171,376.6256 386.2907,367.5378 385.4696,363.9933 382.9444,358.9676 380.7713,353.0458 379.5152,350.6171 377.1588,347.6204 372.1857,343.7599 370.2988,341.7139 369.4723,340.2092 368.1161,336.177 366.9213,333.9162 365.3027,331.8593 359.7831,326.19 356.402,319.5089 354.9216,317.4917 348.2907,312.0458 344.7865,307.5385 343.0649,305.788 335.9376,301.3242 333.4898,299.2508 330.4993,295.4511 324.5153,286.2635 321.6964,283.1844 318.1708,281.0333 311.7467,278.9009 309.8258,277.3698 307.8986,274.166 302.716,261.9315 297.1334,252.1658 294.452,248.7753 292.0817,247.0468 289.3546,246.3152 286.2027,247.0053 278.5269,250.7932 275.5644,251.6883 271.9656,251.644 263.3019,250.2202 259.8832,249.2376 257.3506,247.9939 249.5951,242.5414 245.9584,240.5113 242.2293,239.3125 237.514,238.6664 228.986,238.5232 226.1683,238.8796 223.4182,239.7299 221.6495,240.6662 219.1256,242.6554 212.2252,250.0454 208.385,253.0001 206.7465,253.6766 204.1285,254.1063 195.691,253.9937 189.6262,255.7363 182.2239,259.0215 174.1032,264.7613 166.2237,268.977 161.362,272.9363 159.6606,273.6264 157.6977,273.9864 151.0477,274.343 148.3463,275.4325 147.0941,276.8231 144.5796,282.2801 143.457,283.7448 141.0779,285.2226 135.1686,287.2019 132.7959,288.827 129.9842,292.5759 125.0941,300.5658 122.6947,303.4088 115.6041,309.9425 108.0559,314.4116 102.8973,318.3421 98.1554,322.6982 94.745,326.7095 93.6343,328.4454 92.8963,330.3355 91.2977,339.4075 86.7001,351.7346 84.7037,361.6554 81.1325,369.3869 80.1815,372.2442"/>
    <polyline points="108.9681,373.1202 109.1575,367.5022 109.755,363.2682 110.6666,359.9652 112.1667,356.814 115.0371,354.0665 123.4188,348.9094 126.8536,345.9335 127.7987,344.6231 128.7391,342.4876 130.0363,336.2481 131.2283,333.337 133.3586,330.9038 140.154,325.8957 142.0066,323.4774 142.8326,321.2985 143.2363,318.8024 142.4667,307.3775 142.8744,303.4613 144.3822,300.3735 145.5271,299.1626 147.6229,297.7062 150.0904,296.6427 152.8151,295.8965 165.9816,293.9985 170.7572,292.6735 172.7307,291.5328 174.9932,289.5034 178.8649,284.2744 181.0392,281.8914 186.7253,277.6806 188.8141,276.6118 191.7892,275.5952 199.6814,274.4061 202.6748,273.6612 205.4479,272.2911 210.8066,268.594 213.7512,267.4929 216.9658,267.5393 223.6334,269.7109 226.7492,270.1388 229.6718,269.2684 237.7855,265.2872 241.6465,264.3709 247.1099,264.2457 255.6981,264.6213 264.1725,266.0602 267.3646,265.9964 271.6903,264.6662 280.6574,259.4964 283.6105,258.5157 285.4673,258.3306 287.2155,258.5262 289.6527,259.3886 291.9089,260.7283 298.9913,265.8873 302.075,267.2818 305.5587,268.2771"/>
    <polyline points="296.8445,251.7363 287.7816,251.1773 285.2001,250.3165 282.5195,248.7811"/>
    <line x1="285.3085" x2="287.4542" y1="258.3382" y2="258.5903"/>
    <polyline points="269.3502,265.5678 271.7884,267.733 277.2706,273.9127 279.8402,275.7234 282.7246,276.4974 290.6047,277.0026 292.824,277.6288 294.845,278.7074 296.6572,280.2 302.0039,286.1091 304.7927,288.6471 310.3132,292.3116 318.486,296.2547 321.0816,297.82 323.924,300.2697 329.8884,307.0134 331.7408,308.358 336.7122,311.0508 338.9747,313.1492 339.7482,314.4838 340.4505,316.8117 341.0026,322.8324 341.7221,326.7435 344.8323,334.9929 345.6914,339.3757 345.623,345.5873 343.4453,356.5066 343.5236,359.9161 343.9878,361.1468 345.2044,362.8689 350.9614,367.8141 352.6367,369.623 353.7358,371.571 354.5203,374.3015 355.1561,378.4875 355.7524,389.06 354.6309,398.8782 354.5157,406.6872 352.9927,414.327 351.5951,423.5453 350.1874,427.6011 346.4993,435.3477 344.8506,444.1922 343.974,447.0534 342.5923,449.6431 340.5995,451.8448 337.9981,453.5983 330.8027,457.1272 327.6923,459.0821 325.0245,461.3377 319.6622,466.6807 315.9049,469.6964 309.9708,473.2281 305.6364,475.3289 302.3977,476.5354 298.0978,477.1865 290.4325,476.7394 287.0923,477.0822 284.1143,478.0451 276.7597,481.3681 269.673,483.6978 248.2617,487.9918 245.156,489.8077 237.0561,497.2919 234.8923,498.5728 232.7287,499.2812 230.5964,499.419 228.5189,499.0401 221.3192,495.7222 218.6691,494.9437 215.1586,494.759 207.6615,495.3634 205.5097,495.0619 203.5218,494.2784 201.7309,493.0037 199.5743,490.8402 188.1055,476.29 181.7564,469.546 179.6904,466.0006 177.145,458.5807 175.4791,455.9557 171.0186,451.055 165.9454,447.353 164.1806,445.6064 162.7336,442.8751 160.8048,436.2137 159.1941,433.672 151.0511,425.9696 141.2863,419.8014 139.4566,418.2297 138.1452,416.4679 137.2288,413.8696 137.164,411.7741 137.8194,408.8591 140.1185,402.4054 140.3367,399.7432 140.087,397.1467 137.171,388.0193 135.4603,379.8497 134.5824,377.0198 131.9996,371.767 127.6797,364.9119"/>
    <polyline points="135.8676,363.0179 139.0922,359.0812 144.1165,351.5079 149.7376,344.5877 151.164,342.3928 151.9454,339.1337 151.5842,328.7883 152.0246,326.5936 152.8304,324.6521"/>
    <polyline points="143.2432,318.6253 146.0743,311.2729 150.8741,302.9638 154.3529,298.6024 158.5037,294.9422"/>
    <polyline points="157.8462,295.4621 154.9606,307.7591 153.2267,312.2035 147.6467,321.8648 144.4123,326.7577 141.9658,329.5768 137.1289,334.1719"/>
    <polyline points="140.3707,325.6734 137.9949,330.7679 136.9699,335.3201 136.8873,344.1848 137.8576,352.919 137.5598,355.7577 136.8061,357.7152 135.3904,359.503 125.9022,366.299 124.0334,368.2719 122.4531,371.1224 121.6475,374.8981 121.3386,382.5913 119.7689,392.6318 119.4841,398.9002 116.4551,408.071 116.0535,410.6018 116.2303,412.982"/>
    <polyline points="116.7843,415.1991 120.0911,422.9577 121.9495,429.1286 124.8821,435.7619 125.6628,438.9212 126.6806,447.4329 127.5354,449.7734 129.325,452.5516 134.3889,457.1409 139.3749,460.5855 148.7136,466.2952 158.8999,474.5997 162.0907,477.862 166.5681,483.2036 171.3508,487.0644 173.4695,489.4051 175.1094,492.5423 177.9007,500.1732 179.3152,502.6499 180.4491,504.0145 183.8235,506.5183 192.2151,510.163 196.5845,512.705 199.2141,515.3182 204.2751,522.0992 207.2435,524.8861"/>
    <polyline points="210.8457,544.7728 216.6058,543.1622 221.6186,542.9908 224.5356,543.4113 231.2816,545.3432 234.2247,545.9055 247.1296,546.4091 250.1431,547.0652 254.4418,548.6514"/>
    <polyline points="262.7909,517.8353 267.2031,514.0725 270.1365,512.406 273.3473,512.102 280.459,513.5672 283.8969,513.5222 286.9411,512.2033 292.2346,507.7049 295.089,506.1369 298.4413,505.6643 303.8509,506.3373"/>
    <polyline points="309.762,533.5117 316.5608,525.8425 325.2787,517.6593 334.1842,510.2963 338.033,505.9305 342.5564,499.597 344.4506,497.5045 349.6455,493.4348 357.7358,489.3 359.9721,487.424 361.0671,485.8323 361.8563,483.9992 363.5987,476.959 364.7279,474.3063 368.9113,469.2168 376.5159,463.8181 378.5373,461.6301 380.2427,458.159 382.2599,451.6481 383.7047,448.091 385.7304,444.7677 388.3704,441.568"/>
    <polyline points="381.8569,452.9339 375.4146,457.8024 373.3844,459.8974 371.6227,463.1908 370.3915,467.993"/>
    <polyline points="362.0596,449.7066 362.6303,447.2964 363.7642,445.0567 368.1022,439.6047 369.9825,436.6924 371.8976,431.0446 373.0253,428.7201 377.4457,422.8061 378.5336,420.8489"/>
    <polyline points="379.062,419.2326 379.2141,416.9536 378.8523,415.1026 377.6798,412.2481 374.2972,405.7432 373.6839,402.3367 373.7426,392.4536 374.2975,386.7067 375.7769,383.3555 378.8783,378.8315"/>
    <polyline points="398.7829,376.9163 395.3599,381.6588 393.3485,385.5237 391.856,390.2209 390.812,396.7065 390.4052,404.1314 390.541,409.788 391.0761,412.7197 393.7089,421.9859 393.9844,425.0441 393.6431,427.9783 389.5738,438.9676 385.8737,446.9087 383.1674,455.2749 379.7898,461.2029 378.6477,463.9066 378.2707,465.9378 377.7898,476.138 376.3997,481.3242 371.1354,492.8256 368.9752,496.4432 366.9121,498.7919 365.3019,500.143 357.1052,505.1382 351.9424,510.1273 347.6926,516.2767 343.7351,524.9101 342.0196,528.0234 339.2643,531.6398 335.3315,535.7433"/>
    <polyline points="343.586,534.1407 348.1175,529.012 355.7248,522.6438 361.164,515.5578 364.9424,511.6269 370.0412,507.4564 378.7464,501.9216 381.1272,499.5594 382.4322,497.7529 385.7937,490.5812 386.79,487.2508 387.4231,483.7283 388.0509,475.2368 386.9001,466.1647 387.3628,462.9358 388.3183,461.1335 389.6818,459.5285 398.3347,452.0301 402.1376,446.6947 402.9862,444.7384 403.4212,442.6378 403.5607,436.0277 404.0949,432.9041 407.8234,425.1441 410.3943,418.7405"/>
    <polyline points="376.9358,423.5244 376.5159,419.9021 373.4816,409.8166 373.4554,407.2991 374.0027,404.8638"/>
    <polyline points="324.3274,370.4749 327.11,375.6209 328.3792,380.3125 330.1006,396.0073 328.9574,408.6306 327.8053,414.638 326.5193,418.9023 325.0986,421.3314 320.6059,426.5209 319.1211,428.7978 317.9902,431.8878 316.3366,440.0238 315.0443,442.5704 313.5619,444.279 310.7571,446.3311 303.1052,450.4517 298.5634,453.467 294.7202,456.3893 288.6792,461.8898 285.4905,463.9758 281.4,465.5223 271.3261,467.7863 257.8534,473.4425 255.1956,474.0343 251.9382,474.2529 241.1286,473.3466 236.8313,473.4555 232.3862,474.3699 223.3318,477.388 218.9919,478.0379 216.6017,477.8696 213.7469,477.1427 208.3135,474.6676"/>
    <polyline points="204.1393,470.155 199.1964,462.7413 196.321,459.2048 192.7116,455.996 182.9821,448.488 180.647,446.2666 178.692,443.6993 175.5769,438.0226 173.5114,434.9528 165.0956,426.15 164.0183,424.2366 163.1997,421.6108 162.6114,413.7913 161.8441,410.6882 159.7985,406.7842 154.2805,398.77 152.121,393.8138 150.2868,381.6067 150.3674,378.072 151.076,374.6072 152.5045,371.2922 154.4114,368.7349 157.4947,365.9851 165.6651,360.0598 167.5818,358.025 168.6877,356.2644 169.5699,353.8546 169.9237,351.1618 169.6001,338.6758"/>
    <polyline points="166.4847,359.2823 165.8847,362.87 164.7327,365.742 163.0125,368.4981 157.334,376.0918 155.9567,378.6897 155.212,380.8473 154.8494,383.0561 154.7749,387.5172 155.1991,400.2329"/>
    <polyline points="146.803,397.3089 147.9945,405.6405 148.2119,417.6685 148.8701,424.3988"/>
    <polyline points="144.9623,422.1005 143.7737,412.2966 143.71,408.3665 144.4537,404.3602 147.1643,395.935 147.5191,391.6714 146.5619,388.0488 143.0685,381.0837 142.0314,378.4397 141.4549,375.7871 141.3097,372.4962 141.7536,368.6117 142.7458,364.8317 147.9884,351.5729 151.074,345.9175 156.7066,338.8441 158.4766,335.5092 161.2299,328.9677 162.6397,326.8357 164.3861,324.9626 166.3924,323.3216 169.2367,321.6177 179.3372,317.8301 184.1836,315.2494 187.5427,312.8278 193.7654,307.1691 196.7259,305.1086 198.9361,304.1529 202.0018,303.6076 211.116,304.2082 214.5816,303.8361 217.134,302.5823 221.9677,298.5484 224.0539,297.1912 226.8625,296.253 229.8394,296.2735 232.8769,297.0689 241.0473,300.3157 253.1192,301.6649 258.5068,302.6846 271.8241,307.504 274.6292,307.7221 282.137,307.1254 286.3027,307.7283 288.9584,308.8695 295.4081,312.6954 301.1728,314.6958 306.8338,317.1873 316.6029,320.3708 324.9877,325.2957"/>
    <polyline points="295.1227,358.5223 290.2171,355.6273 274.3171,347.8985 269.0961,346.0281 257.2074,344.7448 246.8677,341.5299 241.2239,340.6389 228.263,340.0104 223.5371,340.2371 219.1117,340.9226 213.356,342.5152 207.7265,344.875 203.0647,347.6986 200.5057,350.2401 194.9267,360.2649 190.0994,367.8062 188.6398,370.7315 187.5192,375.2946 187.7715,380.782"/>
    <polyline points="146.9475,389.0822 147.7692,385.0439 148.0022,381.4412 147.6,377.1558 146.4622,370.9338"/>
    <polyline points="134.3046,376.32 135.8366,363.9295 135.638,359.2419"/>
    <polyline points="137.0316,346.0009 140.6601,335.5353 142.7465,331.7083 144.7498,329.5201 147.1567,327.6224 158.2695,321.7981 163.667,317.5083 164.9227,315.9287 165.8705,314.0463 168.1773,305.5449 169.3154,303.64 170.3381,302.6577 172.2766,301.6705 174.6053,301.2062 184.7921,301.3439 188.4199,300.9167 201.586,295.4591 214.935,288.7258 218.6516,287.4684 221.8883,286.9869 224.5626,287.1097 227.2793,287.6913 237.7754,291.7643 248.0551,292.9499 251.7157,292.449 260.3043,288.8342 265.7959,287.5245 274.0586,287.1099 277.4109,287.5783 279.9316,288.4756 282.2455,289.9 284.3543,291.7469 290.7984,299.2796 293.187,301.492 296.5104,303.3011 304.0797,305.7685 307.3146,307.9122 309.0311,309.8884 311.8964,314.3665 313.5418,316.3122 315.5137,317.9218 321.0785,321.4913 324.4185,324.6031 328.8457,330.9935 332.2977,337.2151 332.8927,339.0962 333.0572,341.1875 331.9486,349.3292 332.0072,351.2837 332.4794,353.0458 334.6449,356.1149 340.2748,360.8388 342.3198,362.9288 343.8343,365.2164 344.6874,367.6884 344.8236,369.6465 344.5549,371.663 342.3762,378.3596 341.8554,381.531 342.1923,384.6235 344.3579,391.5292 344.7376,394.7353 344.5219,396.6398 343.8988,398.5009 340.6096,404.3927 339.7648,406.7545 339.5401,409.2311 340.0315,414.4898 339.9353,417.0885 339.3156,419.5512 336.5196,426.6245 334.8885,435.7504 333.6432,438.7656 329.9974,444.1455 328.4577,445.4528 326.501,446.4432 324.1596,447.1055 316.7154,448.3162 313.1773,449.9591 308.4404,453.495 298.8736,461.8956 295.7717,466.6315 294.0501,468.3413 291.2098,469.3854 285.5015,469.9309 283.4792,471.0531 281.8789,473.1206 278.5137,479.0144 277.0814,480.4385 275.4227,481.3032 272.9828,481.7902 270.4409,481.875 257.9439,481.0215 255.0348,481.5275 249.2277,483.25 246.2492,483.6594 243.2517,483.3419 237.3673,481.8188 234.4234,481.6669 222.361,484.5105 209.4423,483.9872 202.8963,484.7444 196.0021,486.1545"/>
    <polyline points="199.909,468.0696 195.6174,464.3438 191.9263,461.7441 179.4261,455.3141 165.3643,446.8612"/>
    <polyline points="154.9637,429.7318 154.2129,424.0293 153.1789,419.9121 148.1351,409.1961"/>
    <polyline points="137.6848,409.2936 138.2181,412.9331 138.3691,416.8364"/>
    <polyline points="116.3663,428.2417 116.2256,423.1812 116.8334,416.2562 116.7106,414.6167 115.5098,411.5266 112.3898,407.0179 111.1061,404.6605 110.6111,403.0283 110.3498,399.9557"/>
    <polyline points="144.9397,384.7329 145.3697,378.1433 147.0319,367.7427 148.1645,363.5557 149.7829,360.1654 153.0724,356.1183 162.4166,347.9998 168.5477,339.7932 176.3603,332.4578 178.944,330.3526 181.3469,328.8792 190.7165,324.9614 203.1153,318.5763 209.2727,316.2041 217.8359,314.8956 221.5294,313.5887 224.9094,310.874 230.4066,303.8162 232.8231,301.4119 235.9958,299.6984 238.7044,299.5472"/>
    <polyline points="244.3283,264.241 236.5412,270.5729 233.7212,272.4664 226.8204,275.7755 217.9415,278.6268 212.28,279.4335 198.4109,279.3741 181.6357,281.355"/>
    <polyline points="180.1669,301.1689 178.1904,302.4639 175.624,303.5982 168.2325,305.4307"/>
    <polyline points="167.1924,308.8396 178.3971,303.845 180.156,302.8404 182.0463,301.269"/>
    <polyline points="215.4786,246.4959 222.8298,248.6805 225.5554,248.9938 227.3214,248.8816 234.2746,246.9812 241.3786,245.4411 249.9743,242.8014"/>
    <polyline points="227.7974,230.7181 225.1971,230.4555 217.7016,227.8899 214.5607,227.7463 213.5724,228.0451 211.7337,229.314 206.1824,236.6406 204.4839,237.9207 203.562,238.2567 201.5871,238.4471 199.4691,238.179 191.5474,235.9317"/>
    <polyline points="300.7642,241.7578 303.2926,244.5626 312.3126,252.7381 314.9573,253.8778 323.5242,254.4821 327.3861,255.7193 330.7337,257.8176 337.0135,262.6101 343.7637,266.818 351.2326,270.397 361.4351,275.937 363.9099,277.8402 365.2795,279.3746 367.33,283.0294 368.3874,286.1287 369.6649,297.7049 372.7685,306.1516 375.1428,315.8414 376.8022,318.1743 381.7452,322.1127 383.362,324.5562 383.687,326.5273 383.5895,333.8053 383.9076,340.6886 384.2767,343.5089 384.8303,345.2843 389.8216,353.6511 395.1201,360.3696 396.6059,363.0746 397.2778,365.9373 397.1437,372.8295 398.0099,375.6838 400.0435,378.4884 405.9045,384.2642 407.592,386.2879 408.7724,388.3533 409.3122,390.4404 408.7745,393.5556 404.6656,400.5477 403.9666,403.5465 404.625,406.684 409.1482,414.6318 410.0489,416.928 410.4545,419.1655 410.4964,422.445 409.428,431.0263 409.4519,436.6465 409.9413,441.3675 411.8694,451.477 412.326,467.9342 411.3304,471.3722 406.3694,478.0527 404.8349,481.219 403.9446,484.7833 402.9946,492.6021 402.3018,495.0251 401.2313,497.2112 399.7547,499.1207 397.9089,500.7584 392.7777,504.3798 390.2038,506.8882 388.9117,508.8999 386.1916,514.4238 383.8684,517.1695 382.0079,518.7108 376.7043,521.8663 373.8485,524.032 367.0054,532.409 363.6165,535.8088 360.7353,537.9516 352.4126,542.7427 350.5823,544.2767 348.597,546.6242"/>
    <polyline points="333.8679,559.0804 325.1584,559.7958 320.0349,560.539"/>
    <polyline points="318.9615,566.3583 316.474,566.9473 314.4667,568.4732 313.3456,569.8402"/>
    <polyline points="295.8872,565.64 285.5676,572.7151 281.1172,576.3026"/>
    <polyline points="283.7784,577.8907 287.1243,574.1376 293.0969,568.7065 298.6057,562.7228 300.5384,561.2391 302.6479,560.3307 306.0406,559.6156 310.9586,559.5818 318.8929,560.3799 327.4503,561.7858 331.1905,562.0041"/>
    <polyline points="407.2941,476.7354 409.4523,473.0594 412.0751,469.4024"/>
    <polyline points="439.0136,470.9956 439.8132,464.7783 440.8332,460.9167 442.1403,458.5724 446.8827,453.127 448.2939,450.7489 448.7195,449.47 448.936,446.7303 448.4168,443.8057 444.4028,434.6584 443.622,431.8338 443.5934,430.5109 444.4532,428.0576 446.4888,425.8118 448.2089,424.4647"/>
    <line x1="450.1836" x2="448.7031" y1="444.7689" y2="454.9757"/>
    <polygon points="293.865,372.9857 294.8818,376.8342 298.0691,384.5651 298.9609,388.3533 302.8422,400.4809 303.1349,403.3065 302.7346,406.015 301.5366,409.3062 299.4133,412.6192 295.8999,416.3946 290.5359,421.3023 284.4238,425.5011 278.7457,430.0742 275.3308,431.8104 270.6553,432.617 262.3984,432.3941 259.5977,432.6364 255.3374,433.9015 238.0594,440.4358 234.966,441.0206 232.2489,440.9013 229.3164,440.1036 225.6573,438.3228 221.1294,435.4369 218.0811,432.8528 215.0844,428.7262 211.0669,419.3432 209.041,415.9191 205.9931,412.6213 198.1028,405.8153 195.5108,402.7728 194.2891,400.4836 193.636,398.3438 193.0962,391.3626 192.4706,388.5135 191.2693,385.8924 186.9781,379.5895 185.1815,376.2842 184.2103,372.9413 184.2697,369.7349 185.3145,365.9616 187.1552,362.5014 189.1265,360.0184 194.3595,354.7557 195.9735,352.6959 196.9872,350.1478 198.2335,343.9603 199.0756,341.3711 200.6034,338.7907 202.7205,336.8212 206.8077,334.7583 211.1146,333.2351 213.1825,332.8331 216.748,332.9122 224.944,334.2253 227.1871,334.195 229.2836,333.7827 232.9209,332.0299 240.1708,326.1541 243.7049,323.9536 247.8537,322.5977 251.6052,322.6468 254.8355,323.5053 262.1922,326.2975 266.9168,327.6357 269.8987,328.9896 272.571,330.948 278.5204,336.5683 288.0129,341.9525 290.2331,343.7502 292.0934,345.9046 294.1162,349.974 295.1144,355.494 294.9797,360.3852 293.747,369.4892"/>
    <line x1="294.994" x2="293.6318" y1="360.2366" y2="357.553"/>
    <polyline points="368.5582,286.9148 360.6531,283.5113 355.6443,280.0977 352.7131,277.4833 349.3663,273.8925 347.5749,271.4793 345.6949,267.8598"/>
    <polyline points="201.201,465.7337 206.2067,468.281 214.3011,475.4835 218.0505,478.0209"/>
    <polyline points="215.6711,484.1275 212.594,480.5948 206.7252,472.6477 204.5539,470.4783 202.6353,469.2075 199.4441,467.9192 196.5252,467.2363 184.277,466.2261 179.3636,465.1635"/>
    <polyline points="131.5193,541.5762 133.9815,544.3596 135.9062,545.7913 138.1997,546.6725 143.275,547.584 145.4893,548.4979 147.2101,550.224 148.7722,553.8195"/>
    <polyline points="77.0827,511.1292 76.0282,509.3147 73.5487,506.293 66.2873,499.6999"/>
    <polyline points="50.7108,481.7134 49.0939,479.1463 47.3103,476.9988"/>
    <polyline points="76.1134,471.9427 79.0068,475.4983 81.197,480.273"/>
    <polyline points="55.4409,397.6709 58.1146,393.5988 58.8958,390.0941 58.7744,387.7727 57.729,381.928 57.6891,374.8975 56.2456,366.478 56.0134,362.8585 56.5545,359.3317 59.663,349.7348"/>
  </g>
</svg>
