<?xml version="1.0" encoding="utf-8" ?>
<svg xmlns="http://www.w3.org/2000/svg" xmlns:cc="http://creativecommons.org/ns" xmlns:dc="http://purl.org/dc/elements/1.1/" xmlns:ev="http://www.w3.org/2001/xml-events" xmlns:inkscape="http://www.inkscape.org/namespaces/inkscape" xmlns:rdf="http://www.w3.org/1999/02/22-rdf-syntax-ns" xmlns:sodipodi="http://sodipodi.sourceforge.net/DTD/sodipodi-0.dtd" xmlns:xlink="http://www.w3.org/1999/xlink" baseProfile="tiny" height="20.5cm" version="1.2" viewBox="0 0 491.33858267716533 774.8031496062991" width="13.0cm">
  <metadata>
    <rdf:RDF>
      <cc:Work>
        <dc:format>image/svg+xml</dc:format>
        <dc:source>Vsketch with params {'__seed__': 1492022408}</dc:source>
        <dc:date>2023-03-17T16:49:04.661030</dc:date>
      </cc:Work>
    </rdf:RDF>
  </metadata>
  <defs/>
  <g fill="none" id="layer1" inkscape:groupmode="layer" inkscape:label="1" stroke="#0000ff" style="display:inline">
    <polygon points="253.5946,367.4309 255.4334,366.2799 257.6127,365.9331 259.94,366.304 264.9224,368.5691 273.5618,374.1673 277.5302,375.127 282.5615,377.763 291.8026,380.0948 295.5613,381.5596 298.142,383.4294 299.7679,385.8893 300.6113,389.0788 301.2043,394.8311 301.2249,404.4111 299.7241,413.9848 298.4796,418.2841 296.4803,421.0158 294.9603,421.8863 293.1195,422.3425 286.2074,422.3622 284.0183,422.685 274.406,427.1599 269.7211,428.6294 265.4563,428.7001 261.5717,427.4749 259.2267,425.7967 257.4366,423.6469 255.8942,420.6061 255.1806,417.8626 255.0583,412.2525 256.2871,403.6177 257.8359,397.3424 260.5102,394.4641 257.0366,390.7369 255.8011,387.1713 253.5008,382.6613 252.2089,379.4231 251.4862,376.5703 251.2315,373.7782 251.5082,371.2281 252.2115,369.2689"/>
    <polyline points="219.9568,370.3654 222.2106,367.7447 225.3163,365.7891 228.9069,364.4425 236.851,362.3413 239.9204,360.7015 242.4203,357.9538 245.1451,351.6716 246.4461,349.4031 247.8156,347.7843 249.6892,346.3638 251.7828,345.42 257.4463,343.7586 265.7762,339.8436 268.5472,339.3185 270.9858,339.4734 273.6969,340.3799 279.3282,343.5923 281.7922,344.581 284.4064,345.0023 290.438,345.2014 293.8878,345.978 296.6807,347.3876 299.1194,349.3649 313.8803,365.0478 317.0733,369.165 320.1905,375.7541 324.5063,388.0806 325.2514,391.6031 325.2993,396.6247 324.3069,404.8001 323.4928,407.9155 322.1027,410.8508 319.8748,414.1613 313.5951,422.0463 308.154,431.8572 303.4579,439.0991 296.9868,446.3994 291.6095,450.8291 289.236,452.1123 284.9414,453.8269 278.2108,455.5801 273.5889,456.0048 265.1141,455.8933 252.5684,457.1994 246.6939,456.871 229.1607,453.5819"/>
    <polyline points="232.3305,462.8566 242.3093,462.5327 246.8965,463.1357 250.3162,464.29 262.5235,469.4675 275.0825,473.233 282.3138,475.8637"/>
    <polyline points="275.1678,455.9312 266.7266,453.1314 257.3106,451.8174 253.7853,450.8804 250.5049,449.2044 244.665,444.7657 241.7923,443.5066 238.4144,443.0046 229.2808,442.9822 225.6479,442.3944"/>
    <polyline points="215.1146,414.2181 219.4799,404.9487 219.99,402.0217 219.7273,398.8516"/>
    <polyline points="177.5012,387.5221 181.0461,378.4565 182.4549,373.0581 182.7777,369.6707 182.3742,361.7134 183.6163,356.1602"/>
    <polyline points="159.682,378.424 158.594,380.6093 156.0195,383.5875"/>
    <polyline points="156.986,413.3505 158.1776,416.9355 158.7695,421.3"/>
    <polyline points="159.4396,425.5513 160.6099,429.4804 163.4014,436.7855 165.2425,443.7714 168.9519,451.5582 170.5295,455.6596 174.4958,470.0749 176.3948,473.4256 179.3028,475.9193 182.9197,477.6838 194.2514,481.6657 211.2783,490.7629 215.8329,492.6619 220.0434,493.584 231.8686,495.3769 234.882,494.846 241.6927,492.5381 243.7163,492.3266 244.9714,492.5158 246.7308,493.3392 248.3978,494.7101 254.6225,501.5263 256.5121,502.9211 258.4925,503.8032 262.6031,504.2428 269.4802,503.3886 272.9018,503.5071 285.8333,506.6487 299.702,511.7122 304.6941,512.3964 308.5365,511.6692 311.9766,509.7837 314.9975,506.9804 323.5454,497.1246 325.8969,495.3459 332.6891,491.0953 335.9117,488.0957 337.274,486.2923 338.3418,484.1514 341.5774,473.9993 346.793,465.9231 349.0965,459.2462 350.0205,457.4977 352.4446,455.2516 357.8038,452.5059 360.7705,450.3821 366.7679,445.069 372.6867,439.2826 375.2112,435.6641 380.1263,425.3928"/>
    <polyline points="378.0128,429.8329 375.1583,433.3495 372.1174,439.8259"/>
    <polyline points="378.6442,449.6917 375.989,452.3591 366.9486,460.1684 354.4408,473.8403 349.2225,481.1618 343.664,487.2902 337.7227,497.2197 328.536,506.363 322.8055,514.9398 319.6923,518.5972"/>
    <polyline points="326.9768,515.744 320.5706,518.1691 313.1429,522.4288 308.4188,524.4235 302.7317,526.2758 297.6642,527.1044 294.1855,527.0763 291.4694,526.3145 283.3475,521.9619 279.9956,520.6984 274.3928,520.0303 263.4362,518.1257 261.8834,518.0999 259.5111,518.6294 253.7141,521.2195 251.1805,522.049 247.9039,522.0896 246.3511,521.5553 244.1567,520.1186 238.2959,513.8359 235.6184,511.9446 225.3522,508.8679 219.3012,507.4142 210.2958,506.3349 207.0476,505.6766 200.936,503.4469 197.6749,501.0938 190.9353,494.0918 186.7885,490.419 184.0267,488.7656 177.9168,485.913 175.8763,484.5199 174.1814,482.7783 172.4512,479.9814 168.4207,469.9124 167.081,464.1646 166.123,454.8904 164.9813,448.7627 163.4073,443.0357 159.9016,432.7426 159.3569,424.6619 157.0144,413.5504 156.6442,407.8801 155.3552,400.1621 155.7715,393.7696 155.5711,386.6644 156.381,382.4643 158.1728,379.8499 164.9599,374.0883 166.8469,371.7983 168.0123,368.7221 169.1345,361.543 170.3399,358.4827 171.3757,356.7718 173.9502,354.3147 179.8667,350.7733 182.0035,348.3959 182.7988,346.7222 183.4683,344.2483 184.9101,332.9641 185.5367,330.9734 186.5204,329.2342 188.3342,327.3146 198.165,319.5651 205.754,311.3861 211.6918,307.2935 216.6663,302.7692 219.106,301.7033 224.4122,300.5514 226.1625,299.6583 228.1805,297.6857 234.1485,290.4393 238.8436,286.6557 244.6735,280.023 248.0091,277.6858 253.1207,276.4084 265.0874,275.2226 268.0977,275.491 275.4947,277.4144 278.4615,277.4544 281.5432,276.5678 288.1572,273.2049 291.5026,272.2003 293.8742,272.3633 296.7735,273.7824 298.7347,275.5851 303.4503,281.2821 306.0178,283.0255 309.7066,283.7523 318.5933,284.002 324.8811,285.1662 335.0847,284.798 339.5887,285.2978 344.971,287.6608 357.063,293.9601 359.9406,295.8275 364.1325,300.0331 369.3793,307.813 376.6024,313.927 380.541,318.4441 385.3584,326.5006 390.7299,334.2985 391.7751,337.6011 392.7944,344.5718 393.9869,347.7318 395.4948,349.8852 400.8166,355.3808 402.525,357.5823"/>
    <polyline points="405.4787,368.3965 399.5825,382.4074 398.5441,385.8049 397.9757,389.1176 398.6302,392.3714 401.6542,398.1871 402.6255,400.7495 402.8826,403.3078 402.5508,404.9839 401.7749,406.6157 399.9055,408.958 392.1846,416.0758 386.4116,425.1925 381.6124,430.9061 380.354,432.8487 379.6106,435.7471 379.7787,443.1327 378.6771,449.4053 378.4262,453.1867"/>
    <polyline points="373.3786,454.5969 375.8308,447.159 377.6494,438.1792 380.0924,428.8795 380.1742,425.8512 379.1186,418.9 379.3006,416.0301 380.7263,412.6581 385.2542,405.1572 386.4723,401.5283 387.3671,389.585 387.4435,382.0418 389.0884,373.2137"/>
    <polyline points="387.5879,380.8052 386.4823,376.8529 385.4437,374.7423 383.9142,372.7511 378.6057,367.2146 377.3241,365.3385 376.459,363.3706 375.3772,357.7491 374.7361,344.6819 374.2293,342.4559 373.3185,340.4164 366.6733,332.3141 360.5299,319.3855 357.7472,314.8379 354.0429,311.0728 346.9913,306.5299 345.511,304.8279 344.132,302.4545"/>
    <line x1="344.2681" x2="343.5292" y1="302.7271" y2="302.4527"/>
    <polyline points="360.2316,304.4198 365.5148,308.9867 367.06,310.8851 368.6649,313.7803 370.055,317.8155 373.3254,330.8368 374.5438,333.7053 378.2195,339.6201 379.5285,342.4242 380.4088,345.4167 381.9918,353.8499 384.1322,358.574"/>
    <polyline points="377.7222,365.9978 377.4864,371.1168 377.9758,373.8851 379.2333,376.5247 383.6062,383.1869 384.7698,386.7594 384.7136,388.968 384.0512,391.1894 380.0735,398.3477 379.2032,401.1164 379.5178,404.6508 382.2099,410.2566"/>
    <polyline points="384.1111,407.2733 384.7629,404.376 386.6631,399.9251"/>
    <polyline points="390.962,417.9138 388.2629,409.2371 388.0959,405.4081 389.1362,402.442 393.7533,394.8311 394.4065,392.4511 394.4209,390.8632 393.5686,386.9411 390.4282,378.6042 388.6578,371.8453 385.1534,363.2208 383.8076,357.2555 381.6987,349.8781 381.0806,345.9655 380.9858,340.869 382.2622,328.3077 382.2487,324.4137 381.7232,321.7456 380.7675,319.3206 377.3258,314.6601"/>
    <polyline points="372.1981,310.3554 364.9364,306.1968 361.5796,304.8513 357.144,303.565 351.5036,302.6414 339.914,302.314 336.0714,301.3462 334.2267,300.1827 331.638,297.5113 325.3355,289.2238 322.3098,284.7401"/>
    <polyline points="311.4662,283.8124 315.7977,286.5625 322.8721,292.2462 325.6004,293.3597 328.7635,293.7783"/>
    <polyline points="348.9543,276.7659 350.6509,281.2395 352.045,283.7874 353.8564,285.7301 357.2074,287.6381"/>
    <polyline points="353.4856,279.1928 348.5327,276.5028 345.1047,273.5134 337.7623,262.0509"/>
    <polyline points="333.3802,260.768 339.6447,262.7355 342.7786,264.8628 353.3788,279.0171 355.263,282.4888 357.464,288.2122 358.4491,289.749 360.5008,291.3733 366.476,293.9801 368.5662,295.648 370.2015,297.7655 374.0707,304.9269 377.6351,308.7869 379.997,310.2918 387.4673,313.731 389.9757,315.9249"/>
    <polyline points="392.3881,321.6012 393.8108,325.7407 396.7465,331.3241 397.7292,333.8498 398.1338,336.627 397.7768,344.4454 398.2967,347.9734 399.3325,351.2924 401.8035,355.9995 403.1402,359.2644 406.7246,372.8822 407.1105,376.3879 406.8583,378.1924 405.7792,380.948 402.819,386.3585 402.2161,388.0866 402.0253,389.7818 402.9011,393.1377 406.9924,400.068 407.9682,403.628 407.6378,405.3686 406.6212,407.0435 399.8579,413.1537 398.3427,415.4512 394.7176,429.0284 393.9762,436.5902 392.6351,442.3179 392.3577,444.6877"/>
    <polyline points="394.6011,429.6788 390.6638,434.6368 386.0746,442.378 380.2357,450.1758 377.228,455.6902 375.573,460.1948 373.8753,466.6822 372.5357,480.0961 371.6257,482.6575 370.7221,484.1328 368.9303,485.9694 366.7608,487.4457 355.262,492.4114 348.7713,496.1302 340.6946,500.1694 335.4085,503.846 331.4513,508.3221 327.4098,514.9021 325.5791,518.9697 323.2692,526.9285 316.0553,525.4388 314.215,525.4784 312.5217,525.9085 307.8199,528.4134 297.7661,535.9255 294.3795,537.5633 290.8286,538.4791 287.1789,538.7789 283.4779,538.5097 272.4597,534.5179 261.9712,533.208 258.4901,533.0356 255.8447,533.2669 253.1338,533.9369 244.5256,537.4335 239.8123,538.875"/>
    <polyline points="247.1513,536.3648 242.256,534.7201 230.6936,529.6003 223.564,525.9827 219.4265,524.6074 215.0712,523.7311 211.3192,523.541 207.1231,524.1314 202.5452,525.297"/>
    <polyline points="207.4554,527.4434 203.3249,525.7138 196.2116,521.4997 193.5251,520.638 187.7196,519.4484 185.9688,518.7106 184.4654,517.5946 183.2452,516.078 182.2899,514.217 180.0694,508.0357 179.1143,506.3394 177.8877,505.003 176.3537,504.0418 174.5361,503.3992 167.8408,502.2834"/>
    <polyline points="166.0868,500.7835 168.6318,503.1557 170.7678,506.3376 171.9823,509.2348 174.2918,517.0273 175.5848,520.1705 177.2207,522.946 179.8998,526.046 181.5444,527.167 183.5085,527.7887 192.3017,528.3713 195.1594,529.1846 197.5622,530.8195 201.1316,534.8504"/>
    <polyline points="194.7691,529.0299 197.4966,528.8793 205.52,527.5204 209.4755,527.7065 211.1883,528.3498 213.4874,529.9712 219.1734,535.8879"/>
    <line x1="219.9688" x2="216.7362" y1="535.7192" y2="533.403"/>
    <polyline points="210.664,550.2515 207.1724,545.5449 205.5864,544.0384 203.8072,543.025 200.7757,542.3217 193.9775,542.2119 191.802,541.8954 189.8337,541.1539 188.1463,539.8896 181.8827,532.2374 176.3353,524.1916 173.9634,519.0632 169.7459,507.5062 164.0171,497.3113 161.4438,494.6825 155.6426,491.1751 153.7784,489.0873 153.198,487.1613 153.1191,484.8672 154.301,476.1219 154.443,472.8227 154.2013,470.8976 153.3128,468.3948 151.3454,465.5721 148.7335,463.1045 146.1139,461.5758 139.5945,458.9561 137.7057,457.8595 135.6941,455.7733 134.9436,454.0982 134.6487,451.2344 135.2072,445.1722 135.0243,440.5057 133.8591,427.1375 132.7087,420.2786 132.9867,417.5927 134.1569,414.8013 139.9245,407.3844 141.4523,404.8231 142.7952,400.755 144.7059,392.8878 144.7139,390.5548 143.0197,384.1695 142.9646,378.5829 142.5506,375.3016 141.0879,367.6272 138.5728,357.5483 138.743,349.5186 139.5038,345.1873 140.3767,342.7311 142.2348,340.6932 147.7275,336.64 148.7244,335.2554 149.3026,333.6634 149.5765,329.9782 148.5528,321.3682 148.6286,318.2703 150.5956,308.6441 153.5728,299.189 155.042,292.9308 155.6964,288.2738 156.3436,277.665 157.1662,274.0433 158.2922,272.2068 160.7061,270.247 169.5237,266.4363 173.703,263.5242 176.5053,260.4092 180.3426,253.004 181.726,251.2329 183.3268,249.793 189.6938,246.0074 202.4163,240.7993 206.7134,237.565"/>
    <polyline points="200.9666,234.2051 204.829,232.5041 206.7273,231.3242 208.506,229.7818 210.7059,227.2309"/>
    <polyline points="213.9547,234.676 225.4125,237.3071 233.7931,237.1954 235.9293,237.5061 239.2773,238.9334 248.0442,244.2868 254.9536,246.4798 264.3815,248.8198 270.7578,251.8939 272.5403,252.4469 274.3288,252.563 276.1437,252.1819 282.7934,248.8521 285.7084,247.7732 287.6076,247.6169 292.2231,248.3199 298.9963,247.8493 300.8299,248.3048 302.5511,249.2328 312.775,257.3176 319.3088,260.5872 322.0189,261.1101 328.9735,261.1342 338.7524,260.3697 342.7619,261.0182 344.4834,261.8884 362.6335,274.5395 372.139,279.7813 376.1509,282.6399 378.2139,284.7296 379.7383,287.3377 380.5739,290.5486 381.5073,297.3737 382.8542,299.9179 385.6348,302.4922 388.9258,304.7224 398.7936,309.5812 401.6499,311.2622 406.1808,315.506 411.2296,321.9124 412.0841,323.7417 412.6717,326.8104 413.2998,335.2311 419.3103,352.961 421.0149,355.5759 427.7961,363.3305 430.4229,368.0785 431.4572,372.1081 432.1289,389.677 431.3899,392.7793 428.6041,399.8744 427.4516,403.8504 427.0234,406.8345 426.8438,412.8587 427.0648,416.9425 427.7752,421.1469 428.7541,424.4287 431.8817,432.519 432.3931,434.8172 432.4593,437.0279 431.7061,440.1379 428.3096,449.117 423.3101,460.8367 422.7112,464.052 422.5268,469.2332"/>
    <polyline points="420.9825,478.9199 419.8379,483.2858 418.528,486.5373"/>
    <polyline points="419.6819,486.1973 420.3553,484.8748 420.9273,482.6393 420.715,475.0206 420.9347,472.7006 421.6674,470.6583 424.508,466.0407 425.2532,464.0092 425.6646,457.2107 426.23,455.1472 427.6706,453.4109 429.9876,451.9642 440.1987,447.6152"/>
    <polyline points="438.1891,448.6144 438.6161,443.2093 440.5699,437.9592 441.064,435.7804 441.65,424.5575 442.5885,421.3434 444.7834,416.0236 445.2961,412.7044 444.9158,410.4242 443.8082,408.1037 437.1903,400.1445 436.0123,397.9962 435.6994,395.8841 435.9317,394.8311 437.1864,392.7064 444.2288,385.9709 446.1832,383.6275 446.8642,382.4565 447.545,380.1415 447.0951,376.7762 443.0084,369.3783 441.8545,365.0697 441.4095,360.6421 441.1798,351.5504 441.661,343.2228 441.4831,339.6977 440.6864,336.3466 438.9705,333.314 436.3812,330.6385 427.5605,323.4366 426.1344,321.6777 425.17,319.7131 422.515,311.2011 420.681,308.4358 416.9508,304.2585 415.2458,301.4505 411.8181,290.2916"/>
    <polyline points="410.731,288.2961 408.7701,285.7113 406.3677,283.3374 397.8262,277.5264 391.6797,269.6781 386.0928,264.3232 381.7678,259.1554 379.054,257.2045 375.6919,256.1024 369.5341,255.1974 366.2844,254.169 364.5647,252.8629 360.6187,249.0128 358.8217,247.7907 355.7317,246.6167 350.2362,245.3848 348.2758,244.5051 346.5188,243.2391 342.4137,239.3863 339.5504,237.8331 337.3329,237.4894 331.4999,237.5157 321.1077,238.3124 316.8969,237.8625 312.9304,236.6984 309.1666,234.7314 306.405,232.8572 304.7196,230.7921 299.781,222.5537 297.881,220.5845 295.7801,219.6321 289.1751,218.5126 279.1996,216.1727"/>
    <polyline points="280.5066,215.2965 282.6561,216.0084 286.0624,215.9595 293.4422,213.5691"/>
    <polyline points="291.8312,211.3111 296.1744,217.1195 298.1584,218.9512 300.2484,219.9972 302.4906,220.1802 308.4272,219.3217 310.7275,219.4444 312.9119,220.0641 321.3492,223.4859 326.7651,225.0802 329.0572,225.3789 335.1842,225.2722 338.7848,225.572 350.5875,227.6904 357.9524,230.3507"/>
    <polyline points="360.9578,233.6342 363.0726,236.4587 364.8218,238.046 366.9021,239.0897 369.9088,239.5814"/>
    <polyline points="373.2276,241.4316 376.5486,245.5235 380.9062,249.3674 383.9885,251.0736 387.2245,251.9699"/>
    <line x1="398.0654" x2="401.7677" y1="255.246" y2="257.3459"/>
    <polyline points="399.4003,255.0716 401.1992,256.5871 402.555,258.6478 405.936,266.9948 407.8248,270.7983"/>
    <polyline points="404.72,282.0288 406.4753,284.6791 407.9145,287.777 411.1924,301.4822 412.6717,304.3558 417.1563,310.4339 418.1322,312.3539 419.1226,315.4794 419.8682,321.0762 419.4607,324.7705 418.0066,332.1931 417.9733,334.408 418.3811,336.4281 419.9457,339.0905 424.9297,343.8798 426.8488,346.5442 429.2868,356.6731 433.1333,368.6952 435.1773,372.6591 440.6911,379.611 442.1748,382.7815 443.3812,386.7978"/>
    <polyline points="468.2343,387.419 471.858,376.8595 472.4911,374.2119 472.7044,371.5875"/>
    <line x1="471.3316" x2="470.9576" y1="356.8997" y2="351.4"/>
    <polyline points="470.2461,345.3359 469.7128,343.0593 468.0017,340.8121 460.4939,336.2983 458.1033,334.407 451.1691,323.6701 449.1875,319.1481 447.1771,310.5548 444.3494,300.7897 442.3737,297.5795 440.2007,295.9358 433.3038,292.8671 425.9561,288.9851 416.7768,286.803 414.1947,285.8486 411.1507,283.8622 408.9318,281.2671 407.7569,279.2876 407.2359,276.7406 408.7925,262.6864 408.724,257.6663 408.3346,254.5615 407.9581,253.1677 406.7379,250.8263 400.2747,242.9465 397.3542,240.5207 391.433,237.8209 389.47,236.2558 388.0,234.0264 384.9713,227.3469 383.0678,225.5791 380.6234,224.613 374.0928,222.9888 367.4924,219.1933 359.7434,217.6138 357.5033,216.485 355.726,214.4006 351.6754,204.8066 349.8869,202.3376 344.2628,198.6567 337.7232,193.272 336.4967,192.713 333.8375,192.2155 325.2647,193.0102 322.5966,192.7744 317.617,190.9746 307.4492,187.9725 304.8436,187.499 300.7859,187.7342 293.8848,189.8056 291.2164,190.2801 288.6499,189.9242 282.3197,187.5754 278.4003,187.4807 271.8563,188.3934 265.3921,190.3927 262.8695,192.2693 256.8464,198.4321 254.4567,199.7172 253.2345,199.8696 250.7092,199.2488 243.9648,194.9372 241.2309,193.6124 235.8462,192.2867 228.8534,190.0814 226.1005,189.7157 220.8311,190.3113 215.6439,191.3478 198.1668,197.3654 195.851,198.703 191.7182,202.5408 189.5006,203.9917 182.2239,206.8098 172.0674,212.6294 166.9951,214.1809 164.6208,215.2789 161.6986,218.0082 158.5856,222.7862 156.9405,227.2666 155.2692,233.6971 154.152,236.3818 152.697,238.5454 149.2404,242.0649 145.4737,247.0598 143.47,248.435 141.0118,249.3001 138.1349,249.7348 129.6758,249.7526 126.424,250.0399 123.6423,250.8688 121.4937,252.3607 120.6521,253.3361 119.4035,255.6899 114.9472,271.8138 112.7657,277.9068 112.2333,280.5505 111.7259,287.5748 111.0301,289.9799 108.8487,292.8177 104.0005,296.8557 100.144,304.3407 98.5964,306.2422 94.7989,309.7429 93.4873,311.8107 93.2915,314.3996 95.0163,321.7004 94.6833,324.1192 92.4626,327.0535 87.2384,331.5029 85.6868,333.5269 84.5874,335.7183 82.9464,337.7528 75.2967,343.2826 73.412,345.3967 66.7106,359.6148 65.5946,363.3485 65.2483,367.2071 65.3279,372.4018 65.926,375.041 68.6818,382.8906 69.956,390.4646 73.7057,400.3397 75.554,406.3606 79.9989,414.4412 81.3615,419.0664 81.8368,423.791 81.6712,427.4338 79.5094,438.9453 79.7164,442.6663 81.0836,451.1965 82.4829,454.6212 83.8565,456.7498 88.3297,461.6143 90.561,464.6289 94.978,473.171 97.4912,475.9499 105.0868,482.6615 108.9539,487.1555 110.7504,490.1293 111.4735,492.4071 111.8052,494.9529 109.7548,503.4379 109.4047,506.6399 109.5239,508.0557 112.5599,518.1619 114.5193,523.0343 117.0912,527.4774 124.2052,536.4406 128.3319,539.4838 138.0711,543.7248 140.1954,545.0681 142.707,547.8795 145.9603,553.8596 147.518,555.9893 153.8822,560.1446 155.2225,562.6813 156.4741,572.6447 157.4549,576.1055 158.1637,577.5182 159.9762,579.7325 165.2163,584.1989 171.0328,590.7761 173.2272,592.562 175.6216,593.9578 179.5651,595.2864 182.4468,595.5604 185.8145,594.5993 194.7374,590.185 197.7009,589.7133 198.9704,590.0337 201.2576,591.3995 208.8444,598.0204 213.6536,600.6601 217.5552,601.6199 225.5833,602.4616 232.0883,603.9582 234.7437,604.2598 237.4963,603.88 240.348,602.6162 243.2685,600.4476 250.4013,593.8392 253.056,592.1054 254.3371,591.6324 255.5844,591.5724 256.807,591.9065 259.2219,593.4578 262.8958,596.4108 265.4164,597.5528 269.2414,597.5135 274.3149,596.5973 280.5564,594.6877 284.1619,592.3908 293.1589,584.3404 299.0697,576.0762 301.0982,574.3138 302.182,573.8689 308.8984,572.4006 314.605,571.5835 323.1517,571.9968 327.9323,571.5719 330.2139,570.9872 335.6276,568.7094 337.9335,568.1572 341.853,568.3733 350.4848,570.0285 356.001,570.1743 358.4377,569.5183 359.4839,568.8511 361.2557,566.9313 364.2782,562.3097 366.1425,560.6911 367.2937,560.2561 370.2064,560.3615 379.0194,562.6188 382.0032,562.5133 384.4895,561.6238 392.1184,556.872 394.0697,555.2031 395.7699,553.2267 399.0179,547.1945 401.7216,538.9656 403.7593,535.7379 405.5299,534.0318 407.7288,532.7482 411.8938,531.6048 425.5634,530.2106 428.8959,529.5994 431.7836,528.5542 434.235,527.1106 436.3867,524.5796"/>
    <polyline points="437.9494,509.6594 439.5611,497.7073 440.3789,495.2747 442.0096,493.318 446.658,490.1057 448.44,488.1641 449.3786,485.7796 449.8347,480.3594 450.4397,477.8609 451.8197,475.7174 455.271,472.3973"/>
    <polyline points="457.0633,446.2696 452.2898,452.1326 451.1805,454.321 448.6561,461.1238 446.8444,464.3093 444.126,467.1005 437.9042,472.147 434.3346,476.9205 429.5341,484.9101 428.5886,487.0465 428.0257,489.4166 427.0405,498.5323 426.2777,500.893 424.5592,504.0723 422.3149,506.8882 417.2827,512.0729 415.9565,514.0673 413.2871,519.6436 411.2137,522.6319 406.4324,528.0704 400.6385,532.492 399.2084,534.4786 396.7431,538.9496 393.6303,542.7884 388.3842,547.9542 383.2301,551.2734 379.5331,552.3876 371.4986,553.3834 368.1108,554.6971 360.81,561.0713 357.5707,562.6251 354.0939,563.6991 352.0339,564.9091 348.1543,569.6544"/>
    <polyline points="350.8822,566.0841 343.6523,566.5733 338.0068,568.1529"/>
    <polyline points="335.88,568.634 333.1897,568.8843 326.8948,568.4976 324.5277,568.6711 322.4566,569.7522 320.335,571.8825"/>
    <polyline points="312.9066,567.5431 311.2986,567.8113 309.2109,568.7276 304.3569,572.3655"/>
    <polyline points="295.4369,576.265 292.0116,575.5989 288.3953,574.2169 284.7972,572.3082 274.4707,565.7919 270.1462,563.888 262.772,561.7425 255.7429,557.3004 253.7587,556.4796 251.7276,556.2735 249.6079,556.8358 247.3633,558.214 240.1076,563.9494 237.7305,564.9857 235.5057,565.0389 232.3813,564.008 229.4111,562.3723 221.9159,557.1184 217.5368,553.3909 214.8291,551.5993 212.8983,550.8104 205.7645,549.017 198.5926,544.595 195.4925,543.8406 185.8522,544.4416"/>
    <polyline points="184.8968,536.1326 187.539,536.7417 189.9281,536.6643 197.5449,535.1364 200.98,534.8334 202.9667,535.1955 207.4715,537.0414 210.4677,537.4182 213.6912,537.1205 221.304,535.5009 224.2221,535.5457 232.2267,537.92 239.6114,538.8369 246.815,540.6083 249.4767,541.7107 255.6873,545.6537 259.4213,547.0213 278.5633,546.6137 289.601,542.7844 298.9181,541.4387 300.7028,540.7852 305.8163,538.0466 315.6094,535.0579 317.9564,533.3306 321.2154,528.9854 323.297,526.9061 325.7744,525.834 331.3965,525.0587 333.7794,523.721 338.7093,517.6997 345.7459,512.2017 349.8245,510.3123 358.3335,508.1652 369.1677,503.8016 371.7074,502.4007 373.5855,500.2969 374.4772,497.2504 374.5184,488.6248 374.8217,486.5339 378.0902,479.0188 379.5602,470.5507 380.77,468.3077 385.1057,464.0028 387.4081,460.3975 388.6328,457.1797 390.147,450.3783 391.5727,446.4102 402.2384,426.5786 410.7118,406.5024 413.3606,398.4817 418.2034,390.115 419.0178,387.2405 419.0315,385.3375 418.2133,382.5451 414.7365,376.3113 413.6839,370.8404 412.4098,367.3097 410.4922,363.9491 407.4291,359.9992 406.1591,357.5392 405.5259,354.9169 403.5522,341.2161 402.5322,337.6723 399.6173,331.948 391.2864,319.8942 390.3104,317.2947 388.7197,310.6431 387.143,307.2132 384.4331,303.4378 380.6459,296.8781 376.3521,291.9076 369.2273,285.7962 358.7527,279.4874 351.6913,273.4951 349.4674,270.1224 346.3075,263.1802"/>
    <polyline points="372.0505,255.5582 374.6207,259.2561 377.7809,262.2362 380.6952,263.8221 388.8711,266.9143"/>
    <polyline points="408.008,253.3526 399.2949,255.0913 395.7835,255.3615 393.0082,254.9028 389.4988,253.5619 386.6634,251.4798 382.6696,247.0898 380.0036,244.7675 376.9279,243.0001 371.4913,240.5695 362.5736,235.02 354.7189,227.3499 352.6323,226.2219 345.6958,224.2947 342.6426,222.4515 339.9304,219.727 334.2151,210.9971 332.2142,209.2629 329.8676,208.4959 328.573,208.4877 325.7955,209.1284 318.5492,212.4164 314.6207,213.3721 312.2609,213.1082 305.6058,210.4307 302.1077,209.8271 298.4566,210.1674 286.4425,212.1353 284.0439,213.0646 276.9389,217.4382 274.6816,218.0414 273.5695,218.0082 271.3574,217.231 265.7129,213.059 263.3933,211.8598 262.2327,211.5938 259.9346,211.8215 257.6896,212.9098 252.2974,216.9216 250.1433,217.9417 241.2869,219.1896 239.1449,219.9345 232.9864,223.1969 227.6796,224.6948 222.2884,225.8283 213.3117,226.7195 210.0269,227.434 207.1013,229.165 201.7808,233.7379 198.7614,235.0401 195.2139,235.1894 186.4652,232.5505 183.7117,232.2107 182.4972,232.3796 180.4346,233.4238 178.7612,235.1657 177.4125,237.4347 174.6204,243.7756 172.4901,246.6572 171.6021,247.3268 169.4653,248.1255 164.1845,248.3762 161.6961,248.8007 159.6484,249.8605 158.8298,250.6664 156.8003,253.6073 155.7499,255.9061 155.0655,258.6011 154.3005,264.495 153.5757,266.9487 152.2415,268.6901 148.1749,272.2401 146.358,274.9946 145.6465,277.2913 144.8217,283.7343 143.9896,287.1594 139.8543,295.7199 135.1951,309.6751 129.5371,320.1595 127.8653,322.6427 126.3316,324.0974 118.7881,328.3833 117.0009,329.8553 114.1716,333.1844 112.3966,334.7378 106.2359,338.148 104.0858,339.7041 101.9912,342.4706 100.4372,345.4422 98.1349,352.8055 98.2151,353.9584 99.2284,356.4447 105.8871,365.4054 107.7564,369.8972 108.8571,380.2512 108.3295,387.2802 108.7032,390.3133 109.1472,391.3274 110.8016,393.3453 116.434,398.1744 117.6688,400.0433 117.8357,400.9852 117.6843,401.9404 116.4996,403.9111 110.87,409.2269 109.0978,411.4106 108.5759,412.481 108.1614,414.5685 108.8827,422.6798 107.9415,432.3012 108.3854,436.4658 109.9272,439.2711 114.454,443.2675 115.8505,444.9439 117.6148,449.6707 119.9936,454.149 120.5282,456.1022 120.5223,458.2945 119.8688,460.7986 115.3029,469.863 114.1305,472.8586 113.7702,475.4984 113.9868,476.6243 115.2363,478.4448 118.1067,480.5948 119.617,482.2304 120.2773,484.3662 120.0157,491.0192 120.5869,493.3103 121.8473,495.1535 126.0539,498.9906 127.2253,500.8843 130.9817,513.7711 135.1966,522.3863 137.3637,525.1366 143.1683,529.1297 147.2285,533.2537 149.9562,537.2089 153.9342,544.8045"/>
    <polyline points="162.8731,553.0769 166.9012,553.8344 173.7506,553.9147 176.1139,554.4768 177.1441,555.0105 182.3638,560.0435 184.2866,561.4327 187.4128,563.0547 193.9548,565.6694 196.0023,566.8462 198.8098,569.3117 204.5617,575.5506"/>
    <polyline points="208.7603,576.2892 204.0432,572.2022 196.1079,566.5949 193.5039,563.793 187.9147,556.7624 179.3272,548.9111 175.6127,544.2863 170.7588,535.7577 168.5885,533.2384 167.6137,532.7542 165.2604,532.3129 159.6477,532.448 157.0971,532.093 155.0163,531.1203 151.5858,528.2713 149.6493,527.0908 147.4281,526.2043 138.7161,523.7907 135.0471,522.1245"/>
    <polyline points="130.5723,512.4616 130.4815,508.2642 129.8175,504.4943 126.3482,497.4099 124.6411,490.6071 123.3641,488.8469 120.1911,487.1725"/>
    <polyline points="111.7054,495.773 116.5753,501.5938 119.7007,506.5415 121.378,511.1782 122.531,519.4956 122.9789,520.7035 124.3879,522.6864 130.4752,526.9115 142.9342,538.164 149.9564,542.8013 159.6082,547.7241 160.482,548.5329 161.8818,550.6707 165.3562,558.5194 166.965,560.5508 168.8804,562.1103 181.2618,570.1665 183.5139,571.1648 186.0734,571.4978 191.5029,571.3048 194.0252,571.5513 202.9937,575.0997 206.5163,575.9777 212.5333,576.8806 221.526,580.3827 229.917,581.3894 232.2527,581.9299 234.5009,582.9707 243.3186,589.7999 250.2121,594.0012"/>
    <polyline points="233.0347,580.5988 227.747,574.6742 224.7032,572.4827 222.5322,571.6879 216.801,570.8219 214.5854,570.1797 212.4915,569.1547 206.5254,565.349 204.369,564.6023 196.4458,562.8246 191.0202,560.4918"/>
    <polyline points="221.296,571.446 218.7239,568.29 215.9036,565.8754 212.8066,564.4872 206.1497,563.0739 202.968,561.9189 200.0347,560.1539 192.7331,554.5526 189.5931,550.9078 185.7391,544.2467 183.7067,541.3255 181.3771,539.0081 177.1758,535.7573 169.013,530.8372 165.8759,529.7154 157.7306,527.8544 154.6864,526.3866 152.1795,524.27 149.3438,520.9018 147.6048,518.004 146.4488,514.5784 145.2036,508.4184 143.9,505.3496 141.8844,502.9425 135.0691,496.3048 126.3167,484.4144 125.0347,481.4883 123.2392,475.2613 118.2016,464.3562"/>
    <line x1="109.2297" x2="108.2751" y1="438.3595" y2="435.9852"/>
    <polyline points="166.6982,447.0115 169.9517,448.5527 171.8662,449.8939 174.3738,452.4513 175.9044,454.7621 178.1825,460.8156 180.5025,471.8451 181.3707,474.0349 182.6718,475.8582 183.8036,476.826 185.8532,477.9139 192.1374,479.7236 194.9515,480.8446 197.3093,482.451 199.2448,484.4259"/>
    <polyline points="193.5837,496.8387 201.4263,501.1571 203.8893,503.1971 205.6501,505.2849"/>
    <line x1="190.3562" x2="175.9594" y1="528.1969" y2="520.8871"/>
    <polyline points="179.2853,486.6168 176.8793,481.3403 174.7999,474.7897 173.4648,471.8872 171.4194,469.5833 167.6711,467.2103"/>
    <polyline points="174.3476,452.4201 174.9652,445.8138 174.1102,438.1164 174.1741,433.8566 175.0205,429.4426 177.0618,422.925 177.4293,420.328 177.0681,417.361 175.5055,412.2457 175.2823,409.2767 176.3266,406.1663 181.0392,399.4998 182.0483,396.7298 181.878,395.1029 181.2523,393.4625 176.9668,386.4799 176.3485,384.671 176.2191,382.8944 180.9303,361.1568 182.7151,357.44 186.141,353.2527 190.8247,349.2935 194.9377,346.5896 203.1663,341.912 210.6169,338.8603 212.8088,337.4918 214.1712,336.0084 215.5203,333.7256 218.8141,325.2322 220.1022,323.2997 221.6965,321.7648 223.6661,320.8097 229.2972,319.8637 231.8002,318.9382 234.3337,316.7979 239.1553,311.1303 241.9165,308.7279 243.4601,307.9459 252.7035,304.8074 260.4034,300.4697 264.5052,298.7167 269.3527,297.8644 271.7886,298.0025 273.5881,298.5716 276.4746,300.3728 283.7928,306.8838 285.3286,307.8086 287.4441,308.572 302.3511,310.0553 310.5234,310.3976 312.9617,310.8709 314.6419,311.5418 317.4288,313.8812 322.1497,320.546 325.2872,324.0081 327.4341,325.8958 332.6609,329.538 334.2894,331.1719 335.7919,333.7011 338.2361,340.4978 340.2075,343.1961 342.3779,345.092 344.476,346.4186 352.1046,349.3807 354.7764,350.7103 356.7652,352.466 358.0858,354.5784 359.0453,357.5294 360.6206,365.4384 364.8064,375.7699 366.7256,381.7531 367.048,383.6021 366.9374,386.747 365.8582,392.3759 365.5876,395.4431 366.9004,404.7886 367.0043,407.9462 366.5738,411.0487 365.1403,417.1437 364.2843,424.0654 363.194,427.0275 361.4539,429.0739 359.0441,430.8047 352.5018,434.5057 350.2157,436.6254 349.0037,438.6001 348.1432,440.7698 345.581,451.064 343.6131,454.8753 339.7241,459.5219 331.8629,466.1597 328.626,469.8025 326.0867,473.5 321.8643,481.8489 319.9525,484.9748 309.9266,496.6044 306.441,499.1523 302.487,500.5454 298.2796,501.071 290.4816,501.0619 286.3827,501.3808 283.0656,502.2025 276.7761,504.3846"/>
    <line x1="262.9628" x2="259.3028" y1="504.2216" y2="503.9981"/>
    <polyline points="246.4858,478.01 256.5246,474.683 262.7041,473.5783 267.1663,473.9026 277.9533,476.4326 280.0518,476.5025 281.5735,476.1616 284.4239,474.5719 289.8404,469.3828 291.9327,467.9231 293.7592,467.2918 303.0782,465.489 308.782,463.4697 312.9509,461.5926 316.0147,459.7918 322.4856,454.1206 324.6267,452.699 328.2419,451.2193 336.8026,448.7454 340.5917,446.8616"/>
    <line x1="330.4518" x2="333.3745" y1="430.6586" y2="428.7205"/>
    <polyline points="309.6278,463.098 312.4145,458.1716 318.4408,449.0077 323.4972,437.7163 324.6152,435.8113 327.3681,432.8969 334.7844,427.7061 337.4936,425.3322 339.8878,422.1748 342.0789,417.3033 342.98,414.0295 343.7059,409.7254 344.6486,400.6055 344.8428,395.7942 344.28,385.2211 342.3027,368.169"/>
    <polyline points="343.36,377.6655 339.9203,369.5209 337.3704,358.2873"/>
    <polyline points="351.1798,349.0253 352.5174,359.5914 356.7868,377.9313 358.9373,381.0426 366.671,388.3275"/>
    <polyline points="397.7747,342.8509 394.503,340.1506 392.6154,337.2117 391.9892,334.6411 391.3438,326.0865 390.6143,323.433 389.4326,321.0236 387.8804,318.8388 386.0005,316.8772 377.5005,309.9996 375.8431,307.9843 374.5768,305.6271"/>
    <polyline points="409.9495,282.5993 409.9466,284.7974 410.3622,287.3125 411.8691,290.3734 417.1399,296.256 421.9491,302.5335 428.033,309.5048 430.0884,312.2922 434.3085,319.1542 443.3378,330.4931 444.8199,333.7037 447.0356,342.8445 450.328,350.0296"/>
    <polyline points="454.5537,362.3231 453.9762,366.5867 452.0772,375.1047 451.696,378.6395 452.0852,387.8918 451.8734,393.6764 453.3092,401.8167 452.897,405.2923 448.3575,416.4528 443.8905,431.811 441.7049,442.91 438.1894,454.862 436.6145,465.2541 435.6353,468.5847 433.8038,471.5389 426.884,478.266 423.0736,483.874 421.336,485.4555 418.7435,486.4959 415.3651,486.9942 406.2397,487.4413 403.7152,488.2391 402.8401,488.8898 401.4095,491.6795 399.9323,498.4204 396.2234,510.6844 395.355,512.8408 394.1072,514.6648 392.4748,516.1255 388.7105,518.5191 384.4254,521.8763 376.7931,526.2299 371.4715,529.8546 369.0391,531.9591 365.35,536.0372 358.1916,540.8481 351.612,546.7864 349.6764,547.7895 347.5378,548.3977 338.481,549.4731 336.486,550.2429 331.7809,552.8458 324.3097,554.1929 322.3187,554.9383 319.6809,557.1694 314.2698,565.9095 311.5409,568.7857 308.5034,570.6737 295.5841,576.2233 291.0399,577.0716 285.2372,577.0369 282.8938,576.6118 275.8998,574.0816 273.6331,573.781 270.2627,574.4751 265.1383,576.75"/>
    <polyline points="282.0632,570.5986 299.6443,566.3611 310.032,562.7178 313.2726,562.1996 316.6378,562.0562"/>
    <polyline points="330.1197,553.3055 333.8718,544.2858 335.2527,542.3613 336.8665,541.0027 339.7969,540.0581 347.938,540.0865 351.0926,539.3048 352.919,538.2784 357.7095,534.1091 360.3425,532.4286 368.5832,529.5545 376.8423,524.6182 382.6382,522.9526"/>
    <polyline points="374.5772,492.8627 371.6699,494.5428 369.502,496.207 364.1344,502.3655 362.0837,504.1492 359.6767,505.5025 351.8552,508.5715 347.0335,511.4731"/>
    <polyline points="344.0564,513.37 339.759,515.9732 337.6633,517.659 330.965,525.1725"/>
    <polyline points="324.7615,511.9551 317.1255,518.6193 314.216,520.41 311.8917,521.4086 306.9086,522.3805 296.6474,522.5265 287.8935,524.5334"/>
    <polyline points="297.1864,536.2601 284.21,536.883 279.6908,536.7556 276.0405,535.607 268.9324,532.0116 265.4999,531.0787 262.0523,531.429 258.5383,533.0354"/>
    <polyline points="291.5279,508.6634 294.673,506.9546 297.4117,505.9754 306.7307,504.1893 309.5434,503.3821 318.8306,499.1294 323.1415,497.4972"/>
    <polyline points="320.8382,483.6334 317.772,485.0755 311.3411,489.6837 307.8455,491.5181 304.6967,492.475 297.5865,493.8358 288.4853,497.9715 286.5594,498.4685 284.5691,498.5927 281.8322,498.0429 279.0537,496.6695 270.5263,489.8258 266.969,487.8434 262.8964,487.3548 253.2126,488.943 248.9739,488.7291 245.0294,487.1158 237.558,481.3646 233.9784,479.4372 230.4524,478.8788 221.1481,478.9 217.9283,478.3712 215.5078,477.6034 210.3914,475.2042 206.8274,472.6831 203.9903,469.2892 200.5881,463.0627 198.8359,460.56 197.0368,458.943 191.2852,455.0293 188.6024,452.4184 179.9179,438.1719 177.4526,433.1684 175.4246,428.0417"/>
    <polyline points="108.3262,373.9797 108.5308,371.0455 108.2426,364.7914 108.8079,361.7709 110.8281,359.0785 117.0437,354.4335 118.6101,352.8279 119.493,351.0493 120.2771,348.2283 121.0109,343.3161 121.4062,336.0783 119.2906,328.058"/>
    <polyline points="99.6674,347.4316 100.4752,352.2619 100.2559,358.0017"/>
    <polyline points="150.6457,308.451 161.1904,303.2322 164.1193,301.0989 166.4363,298.4384 170.1336,290.7964 171.1817,287.9368 171.7022,284.3931 171.6499,275.5346 171.9499,272.798 173.2157,269.6143 174.6089,268.1722 176.3943,267.2605 178.4816,266.7925 187.5606,266.4545 191.4208,265.4831 198.8345,261.2892 208.5751,252.736 212.0126,250.8803 214.9247,250.3481 222.0052,250.2324 225.8141,249.65 236.94,247.1347 246.2516,243.4391"/>
    <polyline points="261.5496,248.0794 267.1555,251.1166 272.514,253.3286 276.9021,254.4919 281.2982,254.9632 284.9225,254.4065 292.6596,251.3257 295.6146,250.4814 298.4868,250.2874 304.7251,250.8412 299.3835,247.9201"/>
    <polyline points="297.0295,220.072 294.5124,220.5604 292.2693,220.5997 290.09,220.1982 287.489,219.2213"/>
    <polyline points="289.1202,218.5009 283.3652,220.8927 280.0336,221.3361 275.6869,220.5924 268.0083,218.6388 259.3758,217.4725"/>
    <polyline points="259.5546,217.3007 265.7863,218.2482 268.0075,218.1152 271.6191,217.3499"/>
    <polyline points="269.8374,219.0382 265.8364,221.7861 263.6789,222.5421 260.4199,222.4586 256.0483,220.8978"/>
    <polyline points="265.2584,212.7854 262.3394,214.8234 259.0886,217.7483 248.1927,229.6876 246.2694,231.0863 244.2911,231.9173 238.1538,232.8956 234.9894,232.9363 224.7368,230.759 220.3244,230.8844 211.7698,232.4419 195.9227,236.738 193.0009,238.2315 188.6361,241.6795 186.6966,242.6573 183.1072,242.9167 175.6385,241.5512"/>
    <polyline points="175.904,240.9145 180.7598,241.0061 184.3102,240.5443 188.5718,239.1719 199.4014,234.8451"/>
    <polyline points="188.736,241.6053 195.3262,240.5917 202.7925,238.975 215.7086,234.0494 226.6536,231.0918"/>
    <polyline points="230.2173,248.5651 228.0097,250.4399 225.4872,251.8754 218.3232,254.1291 214.9161,255.7342 206.6472,262.3759 199.3546,266.2661 193.1644,270.2088 189.6802,271.5527 183.0033,273.2393 180.3778,274.3952 176.5411,277.0989 171.7352,281.7707"/>
    <polyline points="171.7251,283.6293 175.2754,282.9183 177.7839,281.6592 183.7313,277.4463 190.7929,273.2978 192.8262,271.41 194.1416,269.6909"/>
    <polyline points="197.29,267.6477 200.6807,266.8125 208.3415,263.8698 215.4134,262.0489 217.8913,260.9774 219.4234,259.9243 221.5645,257.8155 226.269,251.4965"/>
    <polyline points="243.9474,280.7614 251.1018,278.1595 259.1528,276.5322 263.6273,276.3949 274.0788,277.138"/>
    <polyline points="279.7332,277.1917 285.164,277.6751 293.8595,279.6879 303.0306,280.8415"/>
    <polyline points="249.2155,323.1665 245.1805,325.6516 240.2576,329.2895 236.0485,332.8452 228.7104,339.8899 219.7916,346.4134"/>
    <polyline points="220.5199,336.1616 223.4839,333.4518 229.7454,326.0955 235.4758,321.943 238.7187,319.129"/>
    <polyline points="243.405,320.6236 233.4128,328.7952 230.4642,330.2642 224.4698,332.3167"/>
    <polygon points="225.5582,327.8211 229.7703,322.9955 233.4773,320.0316 235.3894,319.2244 236.982,319.0053 241.082,319.7233 249.7961,323.3618 256.1529,324.7361 266.122,329.3383 268.5945,329.3017 274.1631,327.0345 276.7866,326.7449 279.2669,327.6181 285.2358,331.7695 287.9,332.8761 290.8622,333.1039 298.5117,332.4602 300.8251,332.7406 303.3813,333.5993 307.1685,335.9141 311.9655,339.8555 318.0167,342.45 320.4476,343.8848 323.7647,347.0764 326.2563,350.9608 327.817,352.6565 336.2411,357.4276 337.9026,358.7644 339.2252,360.3143 340.9903,363.8752 344.1515,373.798 345.5258,376.0109 349.6813,381.4008 351.2236,384.8726 351.4464,386.9622 351.0915,389.0931 349.9675,391.7472 348.1129,394.8311 346.0606,398.7478 345.6479,400.6811 345.6937,402.1557 346.433,404.7135 349.9187,412.0219 350.5331,414.3242 350.6454,415.9997 348.4843,424.881 347.2073,433.2318 346.0945,437.0226 344.4063,440.5529 338.5418,450.1139 335.9805,453.1007 333.1594,455.0798 329.9671,456.61 320.3781,459.5548 312.6245,462.9432 305.8358,465.3997 303.2941,467.0704 298.6028,471.6725 296.8753,472.9988 285.2909,478.8556 281.6971,480.2922 279.0217,480.8183 276.8188,480.6946 268.1547,477.901 265.0361,477.4474 261.8799,477.8045 253.542,480.01 250.7674,480.0085 248.6544,479.4371 247.1794,478.5843 245.3954,476.8932 239.4743,468.5323 237.9094,467.1181 233.7568,464.3993 231.4627,461.4832 230.1527,458.0915 228.4227,450.1717 226.9181,445.2473 225.2329,441.6296 221.8156,436.1203 220.6877,433.5114 220.3469,431.3468 220.6205,426.612 220.3377,424.6665 219.4168,423.1479 216.2584,419.9436 215.1587,417.254 215.3014,407.9177 215.7718,405.7173 216.9975,403.128 220.2482,398.0081 223.8538,393.2935 224.6611,391.1182 223.9465,388.5144 219.7173,381.8583 218.7759,378.2092 218.9011,375.4364 220.1571,368.9294 220.1334,363.5932 221.107,357.467 220.9606,353.8358 219.4497,342.4117 219.7758,338.6537 221.0383,334.9808"/>
    <polyline points="209.5813,308.7741 214.7656,308.5187 217.8376,307.4532 220.1738,305.0967 222.5681,301.0024"/>
    <polyline points="186.4751,266.5497 179.2006,271.1563 174.3972,275.8981 171.6404,277.9988"/>
    <polyline points="152.6968,270.9951 149.229,277.8164 144.9308,282.8161"/>
    <polyline points="146.3531,275.0082 149.8902,272.4606 154.7968,269.8999 157.2121,267.8242 158.4027,265.9496 161.3959,259.4287 164.9654,253.2797 167.0496,248.3261"/>
    <polyline points="172.0632,248.1138 178.4869,245.8594 183.0536,242.9091"/>
    <polyline points="180.6996,242.5156 178.1137,243.0899 175.1641,244.6525 172.7884,247.1186 168.5997,252.7032 166.8897,254.0654 163.8776,255.2978"/>
    <polyline points="382.4463,225.2823 385.3821,231.1852 388.3284,235.6849 391.1882,238.1329 394.6622,239.2544"/>
    <polyline points="419.9793,287.5724 423.2541,290.799 427.9486,297.5582 430.4222,300.1988 434.6085,303.2852 443.9251,308.0005 445.9667,309.7554 447.5293,311.9744"/>
    <polyline points="449.9272,321.2239 449.532,326.9196 452.0555,342.6358 451.4809,346.515 449.4319,353.1001 449.2494,355.5325 449.4526,356.68 449.9346,357.77 451.6209,359.8222 457.4551,364.8391 459.3529,366.9973 461.1192,370.4459 461.8314,374.0578 462.7569,383.8112 462.4691,388.7225 461.3346,392.4026 458.8613,397.2285 457.4642,400.7823 456.6819,404.3185 456.4571,407.8705 456.8435,410.2827 457.8625,412.7695 462.1763,419.8714"/>
    <polyline points="461.6518,422.9223 464.3031,408.4141 467.589,402.3558 468.3771,400.2687"/>
    <polyline points="445.2625,413.6077 442.8988,416.9122 442.4345,419.0828 442.6992,421.0763"/>
    <polyline points="294.9417,582.0549 288.9109,578.8163 277.0986,575.4968 273.6793,575.3272 265.7117,576.6856 262.2734,576.8366 258.8627,576.2624 252.1613,574.2549 248.7825,573.8858 245.2384,574.8079 236.3008,579.6208 232.4852,580.7229 228.7503,581.253"/>
    <line x1="223.3514" x2="222.1351" y1="580.7592" y2="580.5233"/>
    <polyline points="219.293,601.8262 213.9433,599.5688 210.426,599.0543"/>
    <polygon points="253.7836,619.4678 249.443,620.4091 238.7751,625.2808 234.1444,626.6382 229.6125,626.9397 220.7645,625.8917 213.0082,626.4404 210.0374,625.9718 207.3194,624.5246 204.8635,622.2033 202.6239,619.2839 197.4703,611.3864 194.0725,608.071 190.5255,605.379 182.0873,599.9604 175.4357,597.6828 173.0229,596.2211 171.0376,593.9007 168.6202,589.4504 166.7748,587.0552 164.5719,585.3828 159.7892,582.752 157.8285,580.7086 153.7733,574.4232 149.4638,566.5293 147.8505,564.2656 146.8494,563.4184 145.6712,562.8161 142.8459,562.224 136.3406,561.9724 133.2367,561.5487 129.0204,560.2716 126.6935,558.8043 124.9024,556.7165 121.0669,548.9204 116.5763,543.9387 115.2758,541.4789 114.2934,536.9442 113.6136,528.8163 113.0979,525.8827 111.5939,522.1667 109.3212,519.1081 107.2557,517.4908 104.6943,516.2208 96.9583,513.7947 94.0866,512.5689 89.5218,509.2107 86.8305,507.7412 76.6073,504.2942 72.3514,501.8737 70.4959,499.6787 67.9559,493.0848 66.4681,490.6843 64.2627,488.605 56.5307,482.6403 50.5939,477.1799 47.5822,473.5921 43.1399,465.7219 41.3267,463.1671 34.0377,457.4002 31.7001,454.8468 30.6492,451.9418 31.0503,448.6982 35.2663,440.0874 36.1915,436.8853 36.1711,435.3829 35.1808,432.5407 30.565,425.6524 29.0044,422.7991 26.3151,415.4258 22.2466,406.4456 21.4313,401.8196 22.343,392.5108 22.2085,389.4133 21.5056,386.2911 17.8171,376.6834 17.1809,373.459 16.8183,368.6407 16.7214,363.8225 17.3767,359.0853 18.2117,355.9888 21.1779,348.4495 21.9233,345.3735 22.2488,342.2109 22.2507,338.966 21.7442,335.5803 18.3734,322.9999 17.8787,319.4351 18.4232,316.1579 20.6207,309.9452 21.175,306.6464 21.13,303.1095 19.8379,291.8064 20.0534,288.217 20.7519,284.8086 22.8174,280.1325 29.3054,271.9741 35.735,262.0268 37.0339,258.8829 38.8673,252.076 40.4028,249.0235 41.5701,247.7525 44.7286,245.7728 50.1704,243.3797 53.1068,241.3713 55.0949,238.7066 58.0433,232.5857 60.4798,230.2541 70.6228,225.7693 74.5733,222.7147 77.744,218.988 79.2357,215.9093 81.5638,208.9883 83.4524,206.1809 84.7284,205.1108 87.9073,203.6416 93.1377,202.0239 96.2064,200.5468 98.6678,198.4023 102.64,192.9512 105.1414,190.8198 108.1913,189.3879 116.2051,186.4767 124.6267,181.5592 129.3747,179.9673 136.5872,179.4255 160.6722,181.3931 163.8412,181.0303 165.1312,180.2596 167.1508,177.5014 171.2176,167.8426 173.4336,165.0728 175.8976,162.8091 181.2154,159.0745 192.5041,152.8262 196.8929,150.7877 199.9832,149.9625 204.913,149.8679 215.1186,151.8494 218.3573,152.0658 230.6901,150.251 236.9313,149.9831 240.1243,150.5675 248.128,153.5102 252.7737,154.5519 255.7947,154.3253 263.3152,151.7168 266.3697,151.1786 281.6923,151.4602 286.263,152.0081 292.2419,153.7823 295.2498,154.3008 296.7867,154.267 299.9633,153.4799 308.3553,149.5821 311.7531,148.3134 315.0429,147.8634 318.1846,148.2788 324.1939,150.3859 331.3409,154.2154 335.4051,157.0929 341.8342,162.5196 345.873,164.9299 348.8162,165.7607 358.2435,166.827 362.593,168.412 366.3298,171.4129 372.7023,179.3705 376.0949,182.6659 379.9744,184.9338 387.2585,187.2588 389.7494,188.9593 391.7605,191.4405 397.185,202.1652 400.9409,206.9556 402.5425,209.6749 403.8079,212.7927 406.7976,222.734 409.0965,228.6175 412.0171,237.6035 413.7782,241.5861 415.3086,243.8244 418.139,246.6178 427.1723,252.7608 429.1498,254.5936 430.8337,256.6854 433.5843,261.3615 438.3914,272.707 442.785,279.2731 445.8785,288.1604 447.5164,290.2217 454.4053,295.4185 455.7682,297.7016 456.2327,300.4404 456.2331,307.7287 456.9285,310.2725 458.1256,312.5877 462.8633,319.1199 464.8263,322.5953 466.1005,326.335 467.5906,334.1372 469.8753,338.9424 470.3043,341.5505 470.3068,348.2912 471.4115,354.7173 471.2923,357.3876 469.9792,365.4493 470.5911,367.9543 474.0298,374.0566 474.6172,376.616 474.5159,377.9314 473.4001,380.6177 469.2396,385.9781 467.5991,388.5612 466.9768,391.0817 467.2149,394.8311 468.5046,401.1296 468.9781,410.007 468.7627,412.5295 468.0721,415.0041 466.8391,417.406 460.5799,424.08 458.9836,426.2963 457.993,428.5893 457.3957,430.9428 456.4723,439.4323 457.1554,447.1934 457.1407,451.0473 454.8153,460.7364 454.1963,465.827 454.4207,468.6086 455.6654,474.6128 455.7276,477.4397 454.9244,481.327 452.1922,490.108 450.1788,494.9471 447.5229,499.4444 445.771,501.4373 439.7466,506.8321 437.1737,511.3159 436.3466,513.8926 435.9741,516.8253 436.3489,527.0755 435.6564,529.9738 434.9538,531.1471 432.8753,532.9385 429.0316,534.9656 426.9718,536.7221 423.0246,544.0731 421.2753,546.1464 415.9955,550.4117 414.4137,552.6752 411.9084,558.0186 410.0771,560.0835 408.9318,560.8503 406.2625,561.9162 398.89,563.5231 396.3745,564.6445 394.112,566.0838 390.0879,569.6594 386.1004,575.814 384.2758,578.01 382.1404,579.7435 378.6346,581.8642 374.7232,583.2703 367.5512,584.2447 365.1252,585.4083 361.1281,589.5195 355.5756,597.1927 352.4748,600.5944 348.9706,603.1609 343.8274,605.4675 339.6694,606.3504 336.7606,606.4817 327.377,604.1338 324.4858,603.9165 321.7422,604.1792 320.442,604.5819 317.9887,606.0252 312.1033,611.3357 309.5484,612.7779 302.8571,615.1259 295.9487,616.3859 293.0783,615.9911 285.7743,612.4555 282.9935,612.0376 281.6416,612.3612 278.9683,613.8248 270.7685,620.4258 267.9286,621.7204 266.4993,622.0011 263.644,621.8607 256.6058,619.7192"/>
  </g>
</svg>
