<?xml version="1.0" encoding="utf-8" ?>
<svg xmlns="http://www.w3.org/2000/svg" xmlns:cc="http://creativecommons.org/ns" xmlns:dc="http://purl.org/dc/elements/1.1/" xmlns:ev="http://www.w3.org/2001/xml-events" xmlns:inkscape="http://www.inkscape.org/namespaces/inkscape" xmlns:rdf="http://www.w3.org/1999/02/22-rdf-syntax-ns" xmlns:sodipodi="http://sodipodi.sourceforge.net/DTD/sodipodi-0.dtd" xmlns:xlink="http://www.w3.org/1999/xlink" baseProfile="tiny" height="20.5cm" version="1.2" viewBox="0 0 491.33858267716533 774.8031496062991" width="13.0cm">
  <metadata>
    <rdf:RDF>
      <cc:Work>
        <dc:format>image/svg+xml</dc:format>
        <dc:source>Vsketch with params {'__seed__': 600521302}</dc:source>
        <dc:date>2023-03-17T16:47:51.761390</dc:date>
      </cc:Work>
    </rdf:RDF>
  </metadata>
  <defs/>
  <g fill="none" id="layer1" inkscape:groupmode="layer" inkscape:label="1" stroke="#0000ff" style="display:inline">
    <polyline points="299.4401,364.2027 301.54,370.9282 302.839,377.7406 303.335,384.7266 302.9948,391.4363 301.8087,398.108 299.8811,404.2803 297.182,410.1968 293.6931,415.8418"/>
    <polyline points="295.5462,414.7403 298.7611,409.8435 301.0529,403.6054 303.0072,395.096 304.1802,385.5003 304.3099,378.0146 303.7036,373.421 302.0457,368.6965 299.132,363.7637 294.8483,358.6327 289.0151,353.0991 285.4865,350.3171 276.6758,344.3363 267.4409,335.7697 262.6553,332.4153 258.4887,330.5765 253.4221,329.3794 233.8664,327.8781"/>
    <polyline points="241.8755,328.4471 235.6052,330.4006 228.7044,333.2879 222.152,336.704 216.2144,340.5276 211.184,344.5735 206.5607,349.1589 202.644,354.0274 199.5146,359.1093 196.7161,365.532 194.6026,372.2864 193.2039,379.3265 192.5913,386.2525 192.7324,393.3376 193.6263,400.147 195.2268,406.5794 197.5348,412.6626"/>
    <line x1="192.9339" x2="187.2409" y1="411.6693" y2="403.5298"/>
    <polyline points="187.3662,403.7389 185.8108,396.9696 184.7835,388.7949"/>
    <polyline points="174.3785,387.634 175.8951,384.2552 180.026,376.8225 181.318,373.1148 181.5177,368.455 180.1887,358.219 180.0443,353.8251 180.8605,349.1462 182.8348,344.8756"/>
    <polyline points="191.686,336.3747 200.1792,331.1816 207.8153,327.0078 217.1462,323.1048 226.0572,320.4242"/>
    <polyline points="209.293,326.3314 202.2832,335.7146 196.0775,346.0109 188.3248,357.5691 185.6337,362.1951 183.9063,366.3941 182.616,372.436 182.2481,379.8394 182.9361,397.2842 183.9596,407.0806"/>
    <polyline points="189.5066,410.5092 186.3572,400.5915 185.1474,395.0599 184.7772,389.0196 185.4106,382.2382 187.537,373.4581 191.8722,361.7503 194.9615,355.8435 199.1098,350.2386 205.3347,344.212 213.5843,338.2687 218.3744,335.5849 240.793,324.5089 245.736,322.9218 250.5071,322.3012 256.0728,322.4048 264.9452,323.2569"/>
    <polyline points="271.7945,324.4566 274.1362,325.3272 276.4927,326.6638 278.5958,328.4174 280.4108,330.5422 282.3385,333.6562 287.4986,343.8605 289.683,346.9287 299.0774,358.2031 301.5043,362.2201 303.4336,366.9036 304.7796,371.8103 305.6568,376.8483 306.0904,381.9707 306.0647,387.1376 305.3796,394.55 304.2218,402.0648 302.8885,407.745 301.273,412.2784"/>
    <polyline points="305.7399,410.207 308.9804,402.9722 310.6716,397.4892 311.6507,391.0149 312.0018,382.4872 311.6163,377.2432 310.6056,371.6968 307.5846,360.1147 305.3022,352.8253"/>
    <polyline points="307.4725,354.7358 313.4705,364.391 315.7275,368.7536 319.2768,378.1636 320.9688,384.5416"/>
    <polyline points="342.7311,366.9064 345.9301,379.0133 346.5787,383.3573 346.2051,388.3204 343.4389,397.2925 342.6515,401.4986 342.9799,404.7318 345.3052,413.3125 345.4427,415.4202 345.1991,417.4187 343.9546,420.4485 341.6313,423.7066 339.1572,426.1061 332.6832,431.2177 330.9939,433.0928 329.6774,435.1884 328.3179,438.0163 327.2803,441.1292 324.8229,453.4477 323.2208,458.4861 320.7499,462.8796 316.9775,466.504"/>
    <polyline points="344.089,486.498 345.1179,478.4891 345.9735,475.6983 347.1797,473.3012 350.2203,469.1568 356.3354,464.1972 357.9976,462.2124 359.0665,459.7998 360.6571,453.6758 361.9661,451.5032 363.9594,449.737 369.7244,446.0717 372.1664,443.4024 374.5945,437.7703 380.1069,421.2046 383.0365,414.7592 385.2334,410.7458 386.9426,408.3757 395.413,399.0698"/>
    <polyline points="395.7951,402.0742 395.3484,397.6607 395.8068,393.9473 396.7035,391.1965 399.9314,383.7415 401.6393,377.1425"/>
    <polyline points="400.987,372.9838 400.8923,377.0118 400.4031,379.9071 399.1091,383.726 395.7489,391.1304 395.4824,392.9821 395.6365,394.7323"/>
    <polyline points="395.3993,419.2874 394.4106,422.5515 393.0613,425.1496 390.309,429.2628 387.0718,433.1255"/>
    <line x1="388.2502" x2="392.0537" y1="431.7921" y2="426.7719"/>
    <polyline points="398.2751,427.0922 390.6044,431.3769 382.6662,435.3686 379.9965,437.2176 378.6956,438.6216 377.0153,441.8121 375.735,445.1946 374.4243,451.6882 374.3392,456.9633 376.0793,464.6429 372.9085,467.2605 369.6859,470.8287 362.819,481.2692 358.6485,486.5836 352.194,492.3785 346.5827,499.1484 344.4078,501.0864 340.7223,502.6569 336.2572,503.0674 317.5753,501.1071 307.1938,501.7904 295.3826,499.6549 292.8342,499.7484 289.6393,500.3066 287.321,500.9041 285.2182,502.1768 279.3987,508.5468 275.7367,511.1905 262.7575,515.6305 255.0999,516.1026 251.7104,516.7383 249.1608,518.1218 242.9578,522.9221 240.2065,524.1929 238.3799,524.4653 234.7596,524.309 231.2263,523.3242 219.6453,517.0354 216.3653,515.6999 213.0139,514.7523 208.5335,514.5815 199.5638,516.2871 195.6574,516.3771 191.183,515.245 179.1764,510.532 172.7359,508.7586 158.9785,507.2923 148.3463,506.6611 146.0314,506.3161 144.0136,505.5669 142.4049,504.3101 141.1666,502.6265 139.8375,499.5509 137.1179,490.8799 135.6465,488.2146 133.1116,485.2447 129.7864,482.9679 121.9697,480.4037 118.7522,479.0521 115.069,476.685 112.8578,474.463 111.2686,471.8013 110.1251,468.8615 107.3417,456.3791 106.1127,453.3488"/>
    <polyline points="110.6194,451.542 112.6902,440.8542 112.6962,437.8271 112.0592,434.1186 108.2079,422.8532 107.3887,421.1827 105.4832,418.8416 99.8904,413.4426 98.0041,410.9096 97.1187,409.1224 96.2952,406.3306 95.1458,397.7215 94.1351,393.8229"/>
    <polyline points="91.985,397.3611 92.2406,406.0086 93.1192,408.8681 94.9637,411.52 101.0837,418.0481 102.8367,421.5068 103.3286,424.3223 103.255,432.3973 104.0044,437.2773"/>
    <polyline points="105.0926,442.7817 105.8186,444.9798 107.1619,447.5928 109.6521,450.7173 111.3389,452.0314 114.7322,453.4835 126.2719,456.3953 128.162,457.3207 129.6062,458.5065 134.932,464.5083 142.2005,471.0595 143.9385,473.0174 145.5143,476.3214 148.2557,486.2197 150.1015,489.6185 151.3543,490.9774 152.8683,492.0376 158.1149,494.2867 159.6432,495.2811 161.5081,497.3395 164.145,501.5334 166.1428,503.5295 168.8388,504.4695 176.1431,504.7216 178.9344,505.2489 180.5603,505.9992 183.4571,508.187 185.9388,509.2338 188.7487,509.5517 193.5883,509.5211 195.3526,509.8413 198.4018,511.6783 202.6833,515.7325"/>
    <polyline points="217.904,516.2703 223.4457,515.6573 227.7644,515.8857 230.2536,516.7189 236.0587,519.6384 238.6293,520.6014 245.1676,521.3107"/>
    <polyline points="211.8136,474.3391 196.406,469.6252 192.7412,468.1895 187.6295,465.3081 176.1536,457.611 167.5021,453.9053 163.7989,451.8763"/>
    <polyline points="161.5494,450.1648 158.109,446.441 153.8029,440.0862 146.9212,426.6803"/>
    <polyline points="144.8752,416.0777 147.2444,404.9982 147.5527,397.7075 149.1788,387.3804 149.0659,383.6588 147.9367,380.7272"/>
    <polyline points="160.1845,373.2672 162.7203,369.8565 164.1884,366.827 164.6645,363.6647 164.1867,359.3416"/>
    <polyline points="151.4151,355.2029 156.3741,345.6821 161.7908,338.0853 171.1824,323.3772 172.8562,320.0865 174.1942,315.4632"/>
    <polyline points="208.4495,300.0222 216.7304,298.7407 219.3089,297.7533 221.6559,296.3514"/>
    <polyline points="213.0026,296.8387 205.4061,302.0773 202.5301,304.9398 200.0086,309.1715 196.2454,318.2186 194.0557,321.8698 192.2046,324.2774 189.0678,326.8046 181.6575,330.5999 180.0331,332.0008 179.0818,333.2565 178.0056,335.6869 176.6443,343.2279 175.4044,346.5548 173.8872,348.6362 166.2275,356.352 164.2885,359.1622 162.8393,362.1707 161.2229,367.9999 160.0829,373.9693 159.741,378.3792 160.05,382.7966 161.6294,387.6447 167.5539,399.0547 170.5014,409.4985 174.2784,417.428 176.0751,424.7833 177.3567,427.7366 178.6196,429.4466 180.2054,430.9139 188.1109,435.8142 193.4578,441.2834 195.7563,442.5153 199.1607,443.0926 202.3925,442.8721 209.4527,441.6132 212.6364,441.5133 214.8739,441.9998 218.1122,443.3124 220.3518,443.6092 223.2785,443.2124 229.0852,441.4885 231.1945,441.3292 234.1984,442.3443 239.7175,446.0662 242.5587,446.8188 248.7685,445.526 256.5497,442.6411 258.9872,440.7495 263.1886,435.9054 265.4766,434.8073 269.142,435.3405 280.4686,439.8334 284.0779,440.8724 287.6449,441.4694 291.0328,441.4965 293.6029,440.9992 299.3162,438.104 305.7921,433.518 310.9552,428.775 312.8715,426.4601 313.7017,424.6089 314.1917,421.9836 313.6292,412.9711 314.0575,409.6372 315.7866,406.8879 321.4932,401.3401 322.8068,399.1804 323.5754,396.8566 325.2213,386.7336 327.8608,378.3446 328.7706,374.2204 329.4659,363.1006 329.4674,357.6297 328.874,351.5937 327.6384,345.6159 321.8012,326.2061 320.5236,322.78 319.3318,320.7197 317.3901,318.5092 310.4324,313.052 303.7168,306.5378 299.9149,303.8011 296.7942,302.1658 292.3726,300.5144 278.1031,296.4009"/>
    <polyline points="275.6381,295.8566 257.6104,292.0185 248.0874,288.1492 244.3811,287.1734"/>
    <line x1="248.2897" x2="237.8257" y1="288.2243" y2="287.9746"/>
    <polyline points="228.9697,263.1909 226.045,264.7559 223.1979,265.6514 220.9622,265.8478 213.9378,265.628 211.6684,265.9617 209.5147,266.6846 201.0343,271.859 191.5862,276.3013 182.7943,279.1531 179.2546,280.6952 176.0561,282.782 170.1319,287.5953 163.0705,292.3409 160.3544,295.0692 157.6713,298.8719 155.9961,302.4758 153.9551,308.5628 152.8913,310.5539 151.9276,311.6887 149.2143,313.4311 139.0017,316.9956 136.6949,318.426 134.9348,320.2067 133.7627,322.3196 133.1422,324.7063 132.9698,334.1561 132.0298,337.9601 129.9941,341.367 124.2124,347.8969 122.1115,351.118"/>
    <polyline points="117.9973,363.8703 116.3173,372.1821 113.235,382.136 112.8691,384.6836 112.8988,387.229 113.4004,388.8989 114.9621,391.3212 123.0339,398.6214 125.0828,401.4876 130.1592,418.6757 130.6038,420.985 130.5819,425.1526 129.5415,434.2563 129.9566,438.5919 131.4248,442.4786 133.8706,445.3459"/>
    <polyline points="122.6527,438.3524 126.7984,442.0385 131.2873,444.4391 136.6657,446.1135 148.6217,448.7106 152.9304,450.2334 155.7891,451.7577 162.5814,456.4528 169.5641,460.5665 171.822,462.2605 176.9648,467.0154 178.6504,469.4128 182.753,477.2124 184.3038,478.8505 186.2218,479.9346 189.1436,480.7479 197.0291,481.2686 199.8392,481.9426 208.0162,486.1411 215.9921,489.0854 223.0874,493.1237 226.5022,494.5227 239.3888,497.4287 251.1839,499.1216 256.4222,499.353 273.7724,498.4792 283.2074,495.6841 292.2552,493.9222 297.2332,491.9514 299.7443,490.1078 301.8955,487.6208 304.1634,483.9262 308.3509,475.4094 310.1357,473.0058 312.2036,471.0833 314.6175,469.6495 316.7603,468.9818 319.2361,468.6749 327.7849,468.527 330.3691,467.9944 332.5282,466.9557 334.3832,465.5792 336.4715,463.3564 342.5866,454.6087 346.675,451.0212 351.5637,445.9822 355.2765,443.6848 364.298,440.3723 369.0684,438.0684 373.6689,434.5235 376.8496,430.5374"/>
    <polyline points="380.4914,420.2102 381.9657,413.5949 384.8911,407.0749 386.5922,402.0016 391.1548,383.5759 392.1706,377.2313 392.2254,372.6754 391.4263,367.2634 388.908,355.7312 387.6733,352.2996 386.4187,349.8173 383.7306,345.8919 379.744,341.5478 376.6252,338.9165 369.1188,333.6038 366.5247,331.135 364.4043,327.6488 362.6951,321.2663 361.1684,318.3863 356.612,313.5408 351.8463,307.051 340.7433,293.3152 337.9838,290.392 332.4381,285.743 328.3644,283.1259 323.3683,280.4849 310.9683,275.0746 305.5487,272.0588 301.1848,268.6072 292.827,259.7174 290.0647,257.7498 285.5982,255.5478 282.4678,254.5093 274.4542,252.5841 263.2618,249.0976 259.9561,248.5968 257.4391,248.6483 252.3938,249.7548 247.4472,251.8519 241.1451,255.6148 233.11,261.361 230.2583,262.7831 228.0775,263.3966 224.3056,263.6279 207.1195,262.0064 196.7757,261.9006 189.9468,262.7474 182.6417,264.9262 176.4646,267.6615 171.4714,270.7891 157.5295,282.9058 153.4731,285.9476 150.1981,287.4678 140.8631,290.6892 137.51,292.5067 135.2965,294.1638 132.0763,297.3421 129.9443,300.2296 127.5721,305.0977 124.9915,312.8519 123.6056,315.1123 120.7898,318.2741"/>
    <polyline points="111.7581,317.2435 110.9097,320.0902 109.6355,326.6654 108.7752,329.3302 103.3365,338.423"/>
    <polyline points="103.1386,317.1996 110.0891,314.4697 112.5831,312.502 113.046,311.6694 113.4387,309.7229 113.1494,302.9317 113.8409,299.9222 115.5021,297.4815 119.6858,293.2017 121.1493,290.6508 123.1459,286.0304 124.3659,284.4853 126.0675,283.3269 128.2466,282.5811 136.8264,281.1449 138.7479,280.3663 140.3094,279.2778 145.3375,272.423 150.8654,265.8921 154.7656,258.5291 156.493,255.98 163.5705,249.0038 170.0777,240.4555 173.2323,237.7754 181.8741,232.2532 192.6989,226.116 195.3604,223.5852"/>
    <line x1="184.451" x2="182.8514" y1="222.246" y2="222.4529"/>
    <polyline points="183.7193,222.0182 180.5695,224.0031 173.0397,230.5426 170.8037,233.1056 167.5547,238.0186 165.2493,240.1964 162.3811,241.4019 153.4182,242.855 149.4327,244.5146 146.0562,247.0579 137.7709,255.2264 135.2629,257.149 128.9222,261.2029 126.6226,263.4032 125.0352,266.2752 123.7853,270.812 123.3786,274.5779 123.2867,283.6416 122.3629,286.6733 120.3097,288.8383 113.961,291.7296 112.0532,292.9012 109.2479,295.9502 101.3765,309.1265 94.7003,317.4436 92.3706,321.0094 91.0209,323.8595 88.1155,331.7365 86.2809,335.583 83.2523,341.3585 79.3075,347.0728 78.237,349.0693 77.4552,352.2357 76.5861,363.0515 76.6211,366.3112 77.086,369.5875 79.0836,375.0345 85.2623,383.4214 86.2882,385.4361 86.6938,387.4517 86.4477,390.5112 84.9766,396.7768 84.0452,403.127 80.8164,411.0973 79.9984,414.5243 80.4336,417.7321 83.9825,424.5846 84.4705,426.6608 84.2929,428.9353 82.1035,439.9455 81.4722,444.9275 81.4149,452.2649 82.4492,458.0605 85.499,465.5216 89.4942,472.5111 93.212,476.9668 100.6894,482.9123 103.9399,486.1103 106.5117,489.7855 110.5774,498.1069 113.4876,501.5919 116.4722,503.4634 118.8729,504.2908 123.0996,504.8322 131.8484,505.1675 134.3266,505.6174 137.5165,506.8002 140.2284,508.48 146.7546,513.7581 155.4718,517.7133 157.8466,519.7739 161.4453,523.8779 163.1952,525.0462 166.4187,525.7431 177.993,525.7619 184.2788,526.5178 185.18,526.9512 186.7529,528.3785 191.0554,534.1073 193.8165,535.5507 198.1442,535.5452 205.9951,533.9171 208.0533,533.9275 209.9753,534.4396 212.5361,536.6467 218.187,544.9421 220.0696,546.4019 223.1285,547.3621 227.3934,547.3599 234.9132,545.856 237.0565,544.9658 243.3626,541.2285 246.396,540.3777 251.4304,541.1191 260.7748,544.1865 263.9439,544.8157 268.0859,544.5377 275.0819,542.3751 277.1516,542.2381 282.4978,542.5621 284.5625,542.2577 286.4991,541.4063 289.1555,539.2496 296.2271,531.0152 300.6409,528.6239 312.0948,525.2464 320.356,523.9504 326.506,522.5492 338.2966,522.0498 342.8342,521.2212 344.8078,520.3224 349.2352,517.3204 356.7051,512.9294 358.7368,510.3349 359.486,507.9382 360.5391,496.8156 362.1438,489.9126 364.6445,485.4796 370.6057,478.8766 372.7792,475.5611 374.5982,470.8031 376.7692,461.7765 377.7101,458.988 378.8856,457.4644 380.601,456.2398 388.4002,452.6673 391.1876,450.7083 393.2997,448.3677 399.6802,438.9253 400.5391,435.9711 400.1388,432.5974 397.0641,423.3052 393.9263,415.536 393.4128,412.5221 395.0077,404.2308 396.416,400.6318 399.5186,394.275 400.4169,391.4538 401.6349,376.9931 400.1243,366.4403 399.1339,361.7117 398.0441,358.9592 394.3893,352.8472 393.3402,349.2295 393.2631,340.4982 392.4322,336.7777 392.1338,333.872 392.0992,323.6134 390.5289,320.0337 385.4348,312.7515 380.8535,304.2418 377.8692,300.4061 376.9994,298.6776 376.6918,295.4132 377.9415,288.5641 378.1515,285.9276 378.0211,284.7627 377.1854,282.8402 375.6909,281.4137 369.5537,278.5786 367.1099,276.7259 363.4836,271.9283 356.3074,264.9698 350.6962,257.6694 345.6752,254.2563 337.5284,250.1162 335.0317,248.4645 333.7919,246.7021 330.7619,240.0 328.4655,237.791 325.3291,237.0738 320.6062,237.2929 315.6181,238.341 301.2896,242.3701 297.1146,242.9444 293.3641,242.5465 290.8263,241.4501 289.2594,240.2752 281.8386,231.3878 276.7129,227.3612 270.2823,223.7757 263.4306,222.0852 260.5035,220.9264 251.5665,214.8474 249.4882,213.8703 247.3867,213.3607 239.9816,212.8121 235.7686,213.2278 231.6571,214.6381 226.7307,217.5055 223.7799,218.796 217.5803,219.2641 210.1203,220.2601"/>
    <polyline points="223.1226,218.946 229.1047,220.0088 241.457,223.4015 250.3203,226.4979 256.0082,229.1451 264.7958,236.15 268.2437,237.9263 270.9859,238.0404 277.8465,236.3483 280.6356,236.6476 283.9974,238.5242 290.3637,242.9438 296.112,245.7398 301.9317,250.5454 304.2983,251.7811 306.129,252.038 309.3401,251.5058 318.5401,247.6442 322.4294,246.511 324.7741,246.3096 334.0682,247.1593"/>
    <polyline points="304.922,251.9172 306.833,252.636 308.3233,253.6381 313.2521,259.4299 315.9842,261.6454 320.6978,263.8853 328.7334,266.0322 331.1436,267.2314 332.5468,268.3165 334.2855,270.4097 335.1642,272.1343 337.3975,278.895 338.8719,282.3324 340.6781,285.3193 342.4536,287.1021 345.8864,289.6357 348.9676,291.4142 359.1385,295.3894 361.8079,296.7145 364.957,298.866 366.9722,300.7657 372.2324,308.1545 378.6179,315.0934 380.5393,318.2635 381.0755,320.0498 381.2555,321.986 380.8477,330.0023 381.6186,332.5839 384.6719,336.2991 391.6273,342.8953 393.1665,345.1427 390.3569,341.5694"/>
    <line x1="392.6414" x2="393.1787" y1="344.581" y2="347.8037"/>
    <polyline points="398.0756,359.0262 395.2525,365.9641 394.8637,367.8717 394.865,369.7359 395.949,373.3998 399.8805,381.6736 399.8272,373.2045 398.5831,360.1507"/>
    <polyline points="369.3765,345.6793 365.3406,340.116 361.0808,333.4125 354.438,326.3932 352.5456,323.989 351.1686,321.3183 349.2748,315.3933 347.7844,312.7291 344.7973,310.1929 338.1959,306.8116 336.5191,305.3404 335.1862,303.5818 333.7616,300.896 332.6387,297.8604 330.321,286.9354 329.2557,283.6405"/>
    <polyline points="336.4066,289.0191 338.0181,291.4891 341.3574,299.1762 343.7459,303.2759 347.1677,307.5068 355.0375,315.4434 357.8081,319.3299 361.9614,329.6282 363.5854,332.3647 367.566,337.6486 368.6237,339.8294 369.2805,342.9905 369.5139,350.3617 370.5532,354.1779 372.5219,357.0229 379.4243,364.2041 380.829,366.5737 381.3706,368.2148 381.6038,370.7387 381.3504,373.2917 378.5538,383.3381 378.0186,393.2038 374.9034,405.9982 373.607,416.6428 370.8912,425.2856 367.213,439.0741"/>
    <polyline points="375.0615,447.7168 373.328,452.1166 371.9745,454.4829 369.9895,456.4608 365.9508,459.2095 363.9395,461.0744 362.4771,463.3056 358.6492,471.6526 351.8788,480.1361 347.3461,484.562 340.1267,488.6456 337.5522,491.1413 335.7214,494.6228 332.5055,502.7762"/>
    <line x1="333.6016" x2="335.2874" y1="497.14" y2="495.6796"/>
    <polyline points="334.8605,496.7939 327.696,498.8993 325.3396,500.2115 323.743,501.6761"/>
    <polyline points="332.0913,522.2555 336.0369,520.4535 340.1079,519.0643 349.3895,517.2248"/>
    <polyline points="377.3139,562.0568 369.5973,563.1421 365.3662,564.2107 361.5305,565.8215 357.0371,568.9633 354.5842,570.1857 351.8076,570.8105 345.8188,571.0884 343.0382,571.5482 340.5306,572.5235 337.5367,574.3261"/>
    <polyline points="355.1923,577.5596 361.8313,574.3959 366.6639,571.4632 371.1458,567.9925 378.3187,561.0752 380.5076,559.3265 390.6601,554.0476 393.4099,552.2132"/>
    <line x1="391.8943" x2="394.2299" y1="553.2989" y2="550.0826"/>
    <polyline points="404.8769,534.5348 404.8122,521.396 405.7582,516.9618 407.1481,514.7027 408.0738,513.769 410.3493,512.2384 415.5089,509.5657 417.5804,507.7922 419.0249,505.5437 424.1572,494.5875 426.4841,491.3685 429.6689,488.6449 433.5841,486.2767 439.6423,483.4171 449.9374,479.2939 454.481,476.7215 456.9978,474.7073 459.0782,472.4637 463.2395,466.3199 465.3045,462.4211 466.192,459.6333 467.5933,447.8467 469.8327,433.5003"/>
    <polyline points="470.9283,456.5401 472.9041,443.3173 472.3827,440.139 468.821,430.3566 468.4594,427.3671 468.8278,424.5466 471.2247,417.7576 471.8082,414.9633 472.0502,406.3815 471.8647,400.6618 471.1825,396.3575 467.1416,387.7726 466.4831,384.9974 466.4558,383.6204 467.1768,368.4282 467.7798,365.614 469.6533,359.8613 470.0489,355.5819 468.8932,341.498 468.4129,338.712 467.0803,336.0985 462.154,330.0295 460.7772,327.5157 460.3863,326.1895 460.292,324.7856 460.891,321.749 463.7723,314.295"/>
    <polyline points="464.0804,307.9711 462.6578,304.9008 458.0293,299.0083 456.624,296.5134 455.7536,293.8047 454.3036,286.6708 452.9782,283.6743"/>
    <polyline points="448.6879,279.4889 442.1853,275.3825 432.9194,271.1662 430.6765,269.3613 429.9641,268.2169 429.3182,265.4334 429.0357,259.1018 428.0426,256.4485 424.7748,252.0089 423.6034,249.445 423.0814,246.3643 422.6941,239.5297 421.8004,236.5951 420.0709,233.2087"/>
    <polyline points="419.3501,232.098 418.034,230.4351 415.878,228.5304 408.3533,223.9109 406.3585,221.9097 402.9754,217.2665 400.8456,215.39 399.5421,214.7139 396.4558,213.9207 387.6232,213.5207 383.0418,212.6479 379.3534,210.7569 371.732,205.1348 368.009,203.3932 365.3435,202.5352 352.72,200.1958 342.8072,199.2943 338.8705,198.5187 337.664,198.066 335.5332,196.5797 331.756,192.4415 328.6634,189.7617 325.2842,187.6678 322.8632,186.6671 318.8899,186.0916 310.4907,186.6332 306.4726,186.6124 301.438,185.6639 299.0788,184.6195 296.8401,183.0473 290.4696,175.9345 288.1085,174.2885 286.8533,173.8012 285.5526,173.5453 282.8401,173.6834 280.0334,174.5179 274.431,176.827 270.4145,177.803 266.5183,178.0637 257.5495,177.9354 254.9995,177.7343 251.1779,176.918 239.4658,172.7733 232.8312,171.7837 230.1963,171.9132 227.6156,172.6309 220.1452,176.2989 205.4997,182.2589 204.2206,182.3874 201.4063,181.5653 193.6011,177.2344 192.1267,176.8632 189.4431,177.1509 186.954,178.1289 184.6096,179.5504 170.4185,190.4032 168.1265,191.6221 164.4763,192.9442 161.634,192.9457 153.1687,190.5064 150.081,190.3417 148.7586,190.7168 147.5923,191.3948 145.5915,193.3567 141.4145,199.5065 139.5991,201.616 132.3602,207.3663 127.7999,209.9902 125.1809,210.8461 118.0801,212.4207 115.6265,213.6268 113.6221,215.4103 110.2347,219.6931 107.0572,222.1327 104.4968,223.2809 100.1955,224.5752 90.7817,226.6896 82.1686,228.1516 77.506,229.6423"/>
    <polyline points="81.1333,228.395 79.7409,229.7774 78.0779,232.0982 75.7252,237.5247 74.6544,239.2747"/>
    <polyline points="72.0105,251.6002 73.5912,250.0053 75.1932,247.7816 78.0965,241.3001 79.5969,238.9516 80.5744,237.9672 82.9517,236.374 89.406,232.977 96.5715,226.6692 104.6467,223.2199"/>
    <polyline points="71.264,252.279 59.3609,262.0559 51.5429,269.997"/>
    <line x1="51.6178" x2="53.5712" y1="271.4543" y2="267.9518"/>
    <line x1="54.6892" x2="57.9552" y1="258.403" y2="255.5978"/>
    <polyline points="56.1414,255.9552 53.2603,261.5985 51.6119,267.2738 51.7158,277.0037 50.0558,283.9557 49.3278,289.7141 49.4921,301.6031 50.2486,307.6104 50.0706,310.359 48.9771,312.7736 46.9916,314.9017 44.3769,316.8639 35.0171,322.637 32.4573,324.8361 30.6521,327.2713 30.1726,328.6019 30.0275,331.4541 31.1549,337.4061 31.1212,340.2258 29.5538,344.1772 25.681,350.6681 24.8192,353.401 24.6849,354.807 24.9707,357.6757 25.8364,360.5828 32.8712,376.1392 35.0441,382.8737 35.4283,386.8759 33.9878,394.9986 34.1904,397.6844 34.6199,398.9994 36.3429,401.5331 42.5833,407.4555 43.9405,409.8895 44.1075,411.173 43.7612,413.8512 40.2649,422.5009 39.5735,425.3696 39.1114,432.3751 39.8384,436.3758 43.483,443.7446 45.428,451.6029 46.3599,454.1315 47.7455,456.4882 52.7935,463.1099 57.5053,472.6474 64.3946,482.4857 68.8138,493.715 74.7252,502.56 77.7997,508.5665 82.0306,520.729 86.7821,527.4639 89.7495,530.3093 93.1523,532.7163 103.229,537.8552 111.1621,543.0095 114.8689,544.7862 122.5348,547.8282 132.1006,552.4096 136.1351,555.7596 146.5305,566.6539 153.0591,571.4502 156.927,572.6613 161.2687,572.7684 167.2222,572.2657 174.9258,570.4101 177.6936,570.2868 178.9601,570.5194 181.2516,571.6541 187.2123,578.2178 189.4368,579.8603 190.645,580.3782 194.5805,580.8111 204.2607,579.1655 214.4126,580.3543 218.1536,581.1403 220.5991,582.0605 221.7832,582.8661 228.8612,589.9449 231.402,591.3384 232.7137,591.6098 235.3891,591.3799 242.0922,588.7425 244.7147,588.2775 256.5487,590.3488 260.5319,590.6717 269.7045,589.4398 273.6628,589.2029 276.4191,589.8602 283.661,592.8855 286.4063,592.8602 288.9156,591.5684 297.0466,584.9927 301.7042,581.9682 303.8814,580.0394 307.9666,575.6326 310.0888,573.8602 319.2697,569.3009 322.9826,568.3401 325.871,568.6652 327.4841,569.192 336.7751,573.9755 342.2199,576.0092 351.8955,576.7764 361.2277,579.0266 364.6219,579.1257 366.0964,578.7702 367.4301,578.1718 369.739,576.3878 375.4594,569.3286 379.5766,565.239 381.864,563.5358 388.1699,560.0273 390.2891,558.0924 392.605,554.1711 396.8288,544.0538 399.0855,540.3721 402.7734,536.2354 408.0636,531.7343 412.3203,526.2561 415.7055,523.6939 424.1126,519.7212 426.7542,518.1875 429.9966,515.2877 432.3807,511.7386 436.44,502.5011 440.0805,496.4506 441.7962,494.1826 444.0748,492.224 458.1241,483.2773 461.5804,480.0116 462.9894,477.393 464.4671,471.5765 466.1056,467.6225"/>
    <polyline points="447.1134,480.5055 448.3225,476.952 448.5608,473.9778 448.091,470.7149 445.926,462.358 445.8062,459.41 447.0647,454.1599 451.2272,445.6719 453.5487,437.9512 454.2945,433.9806 454.8448,425.8628 456.494,413.9792 456.044,404.5616 456.129,399.2726 455.3903,396.5767 452.1288,389.8762 451.6428,387.285 451.748,386.0037 453.5166,374.3918 454.9466,357.299 455.8267,354.5425 458.4432,348.8053 459.2181,345.9592 459.2885,344.5788 458.0434,337.9423 457.4683,329.7442 456.1142,324.4828 454.7426,320.6384 450.9242,311.9102 449.0572,309.7062 444.647,305.6385 443.0322,303.4253 442.5276,302.2035 441.8809,296.7224 441.3501,285.1088 440.0164,278.1188 438.7632,273.8027"/>
    <polyline points="429.0949,259.5535 425.7268,254.7111 423.6464,252.8299 421.2356,251.2136 417.0956,249.2531 400.9849,243.7621 397.1413,242.0353 394.8596,240.6645 391.9623,238.1354 390.5572,235.924 388.1717,230.9822 385.6476,227.9932 383.3774,226.6517 373.0025,223.1001 369.5557,221.3492 367.5869,219.7647 365.8992,217.7886 363.0619,212.9709 361.363,210.9015 359.2966,209.3609 353.6571,206.2511 347.6247,201.2423 344.48,199.4584"/>
    <polyline points="363.9119,214.3924 356.2098,214.1027 353.5805,213.5764 352.4229,213.0788 350.4112,211.5978 346.9223,207.6678 344.9796,205.9947 342.7655,204.7967 337.8682,203.322 332.4954,202.95 325.3836,203.7329 321.4221,203.7519 319.0673,203.1392 314.6636,201.1584 312.3516,200.4585 306.3292,199.4962 298.917,199.2803 296.6153,198.7 294.4431,197.6166 292.394,195.9697 286.4675,189.0711 284.3165,187.1999 280.8367,185.4785 274.7316,184.1338 271.1135,182.8261 268.7467,181.3536 265.0709,178.0403"/>
    <polyline points="244.6275,174.4663 240.8921,176.2783 237.0764,177.2739 229.3628,177.3723 222.9463,177.825 217.4259,177.3754"/>
    <polyline points="198.9595,180.1754 185.5691,182.6143 182.8727,182.7762 180.7295,182.5621"/>
    <polyline points="149.9316,244.245 145.7654,248.413 142.7433,250.4051"/>
    <line x1="152.2106" x2="144.2134" y1="274.3606" y2="282.2535"/>
    <polyline points="145.9208,277.937 144.3849,281.8963 143.0428,284.33 141.9078,285.7173 139.771,287.4064"/>
    <polyline points="127.5538,298.825 126.0396,301.9747 122.6018,307.3544 121.2612,310.7834 120.7706,314.6284 120.6295,324.4104 118.94,331.2516 118.3293,335.6329 118.4009,339.2764 119.1671,343.9385 123.4095,354.2964 123.8744,356.8285 123.7225,358.4129 123.1037,359.9152 120.9693,362.0066 111.6549,367.568 108.6914,369.9206 106.8033,372.4423 106.1951,374.1904 106.0634,375.9682 106.5494,378.6491 108.2923,383.9361 108.6934,386.5518 108.3571,390.0801 106.195,398.3041 106.479,401.8866 110.2013,415.7352 111.3968,419.1045 113.4739,422.1898 119.7039,429.2676 121.14,431.4729 122.1827,433.8232 122.6818,437.3571 122.1841,443.386 122.2673,446.326 125.8018,456.2322"/>
    <polyline points="156.0025,443.4626 154.8868,432.3065 154.3195,423.056 153.615,418.4827 151.8375,413.0352 147.3827,403.7713"/>
    <polyline points="114.6335,423.5159 113.4252,413.1259 108.723,400.6602 107.1037,394.4031"/>
    <polyline points="108.1493,383.4289 110.9517,374.4149 112.5158,367.0172"/>
    <polyline points="96.7932,384.044 100.4455,379.4791 101.4284,377.6486 101.8882,375.8237 102.4482,366.6676 103.3179,359.3785 103.0112,356.535 101.754,350.6232 101.6746,346.7555 104.908,329.9284 105.7374,327.1849 106.9613,324.5913 113.829,314.1866 122.7521,303.1503 126.2099,299.8967 135.4155,293.1238 138.0351,290.6385 139.4092,288.2889 141.3222,282.7421 142.7437,280.3233 144.8464,278.5481 152.1519,274.4032 159.7861,268.1151 169.2426,262.8712 178.0241,256.6907 181.9634,254.5638 185.5486,253.7441 194.4867,254.3527 197.896,253.5925 200.0593,252.0079 204.6527,246.5259 206.1401,245.3236 207.7681,244.5378 211.3848,244.2361 216.1016,244.8995 220.8204,246.1247 227.2912,248.4215 229.9208,249.0056 233.3094,249.2073 238.2971,248.9032 239.9427,248.5381 241.5753,247.7387 248.3037,242.2992 250.9594,240.5817 254.5637,239.143 259.1105,238.2596 265.4864,238.0174 268.1613,238.4978 270.713,239.711 276.4143,243.203 284.7726,246.1451 292.7007,250.0981 296.0776,251.0002 304.1721,251.7336"/>
    <polyline points="298.8826,266.2013 290.9988,266.8163 288.652,266.541 286.4735,265.8295 283.0916,263.8256 273.6895,256.2438 262.6972,249.358"/>
    <polyline points="263.1198,249.0672 257.97,252.452 254.6445,253.9012 251.4263,254.5034 245.0666,254.4978 242.3133,254.8536"/>
    <polyline points="268.6776,288.0141 273.3208,294.1297 275.2216,295.6468 276.7988,296.2569 278.5449,296.3986 281.1599,295.9352 289.8848,292.6655"/>
    <polyline points="294.2427,301.1734 299.8835,306.8914 314.5891,318.7016 321.4261,325.0488"/>
    <line x1="341.175" x2="342.1686" y1="353.6869" y2="361.7023"/>
    <polyline points="275.5253,324.3463 269.5279,324.3793 265.4281,323.4619 262.3385,321.7977 254.8802,316.3734 251.1857,314.5472"/>
    <line x1="249.314" x2="258.2195" y1="314.819" y2="313.9546"/>
    <line x1="273.4873" x2="269.0653" y1="433.2863" y2="435.3177"/>
    <polyline points="271.6951,436.2792 273.4755,433.3147 276.109,425.8119 277.84,423.625 279.6422,422.731 285.185,421.4122 287.6451,420.4251 294.7834,415.1576 303.6792,411.2493 306.7344,409.6163 308.9944,407.9032 310.7683,405.8857 318.2552,391.6072 319.9176,387.7061 321.22,383.6455 322.1695,378.9927 322.4834,374.2615 322.0739,369.5477 321.1494,366.3531 319.5064,363.8376 317.2318,361.5771 307.6506,354.8742 304.4542,351.891 302.2999,348.5086 299.8335,342.4 298.4946,339.8138 296.5498,337.1437 293.6578,334.2045 290.1838,331.9229 283.1208,329.2664 280.2767,327.8789 272.2392,321.8329 267.1551,319.2592 261.7098,315.6306 259.3714,314.3931 256.9097,313.6013 254.788,313.3629 252.6361,313.5213 250.4821,314.1981 246.7424,316.7364 240.241,323.0094 238.543,324.0051 237.1375,324.3705 235.2728,324.3018 233.2548,323.7445 225.7023,320.2706 222.1344,319.0616 218.7259,318.7122 215.6605,319.3576 212.9977,320.8483 206.2413,326.3281 198.4093,330.6102 195.4515,332.6958 188.4329,339.7495 182.1114,345.5962 180.2253,347.7987 178.9638,349.8198 177.9424,352.4744 177.4736,355.8244 178.4471,366.5219 178.3251,370.5462 177.5704,373.5691 174.6545,381.0974 174.0383,384.807 174.3605,387.5703 177.2617,396.3856 178.9691,400.1418 181.1145,403.6726 183.421,406.56 185.6407,408.4295 188.7861,410.1991 192.3839,411.5138 204.8195,413.9206 210.6041,415.9293 213.4994,417.9901 219.8217,425.1234 222.1647,426.9985 224.4691,428.3201 231.4788,431.3938 237.238,433.1589 241.2173,433.7395 253.2823,434.1329 256.8487,435.0258 262.0545,437.0676"/>
    <polyline points="178.02,468.4084 196.4753,473.4985 200.5167,474.3514 203.3342,474.5539 212.4442,474.3797 222.3615,476.1445 231.832,475.8055 238.473,476.2541 242.1289,475.6623 252.1123,472.3419 259.5062,471.1985 266.7643,469.5581 275.7023,469.4739 279.3013,469.122 282.1874,468.4047 287.7586,466.354 291.3765,465.5961 297.5804,465.4958 310.1865,467.1129 315.1837,466.9716 319.3173,465.4639 321.0403,464.2554 323.0168,462.2772 326.0712,457.4609 330.4402,447.7163 331.5982,444.3968 332.6925,438.737 333.6814,436.296 335.3992,434.328 341.1513,430.0566 343.0574,427.2898 344.7665,423.6685 348.537,412.2855 348.6632,409.5581 348.1996,402.0421 348.5688,399.4818 349.7531,395.0866 349.9931,391.8524 349.3029,387.9119 342.6137,366.4235 342.2197,363.425 342.0217,357.2438 341.1685,353.6696 339.9726,351.4792 338.705,349.9788 331.4051,344.5832 329.4202,342.3458 328.4003,339.0335 328.0252,330.5032 326.5504,325.7137 323.8563,320.9033 318.4758,314.2574 315.1087,307.0752 312.7243,304.0542 309.5178,301.988 302.7402,299.635 299.3477,298.0764 291.7972,293.988 284.1255,288.4188 281.8699,287.3076 279.4728,286.5733 275.581,286.4927 268.2541,288.1018 265.1496,288.4373 262.1972,288.1718 252.8489,286.4952 240.4401,287.473 236.9682,288.2155 234.1684,289.331 225.9197,294.637 223.3703,295.8919 220.6454,296.4941 214.7307,296.6573 211.8167,297.0734 200.3228,301.2253 197.2634,302.931 192.7204,306.5981 189.7974,308.5232 169.6457,317.4775 166.1736,319.6115 162.675,322.6529 160.6812,325.222 158.6163,329.2774 155.2789,339.1135 151.4982,347.9123 151.0754,350.4598 151.3683,358.3683 150.3543,365.7556 149.4256,376.2311 147.7266,381.1821 141.9601,391.8756 140.8758,395.395 140.6617,398.1755 141.0978,402.9565 141.8883,406.9901 146.5704,421.3006 146.9019,424.1386 147.0772,432.5713 147.9932,436.9515 149.1832,440.4338 150.9411,443.6066 153.0103,445.704 155.6567,447.352 161.3914,450.0699 163.6955,451.7653 165.6357,454.6673 166.9978,459.0351"/>
    <line x1="164.6378" x2="173.6429" y1="502.1507" y2="504.6554"/>
    <polyline points="142.4952,510.3916 140.8707,504.5258 139.9609,502.4535 138.7808,500.7142 136.5395,498.6382 128.0017,492.6882 119.3324,485.1455 114.5631,479.6226 111.6741,475.2849 109.9395,471.4415 108.5617,466.2067 105.8154,451.5423 105.0073,441.0723 104.4091,438.1654 102.8638,435.6379 96.2854,429.5761 93.8081,426.1355 91.9714,421.4035 89.6477,411.5547 89.4634,406.4579 90.2641,401.2735 91.5649,398.1172 95.7556,390.9135 96.7642,387.9906 96.957,386.0828 96.4054,382.2948 93.5742,374.5655 92.3295,369.6141 91.8461,364.6408 92.3377,360.7311 95.7762,347.3861 101.4566,337.8508 103.7339,331.5413 104.1196,326.5729 103.1219,316.6287 103.6245,312.4629 105.7059,307.896 110.0585,301.1406 113.087,294.7695 114.1672,291.6323"/>
    <polyline points="36.6517,321.5184 36.6838,328.7611 37.5558,337.3147 37.4926,341.4217 35.8983,349.3405 32.4928,362.5553 30.9076,371.6136"/>
    <polyline points="35.2968,387.9921 35.7326,392.2079 35.359,400.2964"/>
    <polyline points="39.3196,427.6928 40.3224,432.076 42.1953,437.133 44.633,441.9952 47.6403,446.6208 58.1679,459.4412 61.5214,462.1994 69.0837,467.0586 71.1538,468.8137 74.9692,475.2068 79.058,479.9799 79.6375,481.0665 80.1895,483.6147 79.7074,491.3255 80.2834,493.988 81.9647,495.914 90.573,500.5168 92.455,502.1982 93.9855,504.1471 98.8092,511.4496 99.7804,513.9261 100.0191,517.1107 99.3758,526.5995 100.2042,529.4775 102.5764,532.7122 109.2217,539.154 113.6343,544.2406"/>
    <line x1="115.8284" x2="113.6211" y1="532.9122" y2="527.1048"/>
    <polyline points="115.2912,532.3625 111.9451,521.1294 110.4306,517.4416 109.0526,515.3854 106.5375,512.7481 103.4365,510.6362 97.6924,507.503 94.9811,504.9346 93.862,502.6643 92.4518,496.0299 91.537,493.6917 86.0169,487.1757 81.8933,479.7212 79.196,475.6683 75.8039,469.2122 71.5536,459.1384 70.6811,455.5602 70.1626,449.2873 69.4694,445.7204 64.2564,434.831 62.6776,429.031 62.1037,425.4599 62.0324,421.7887 62.3201,419.2874 65.1205,410.3959 65.5842,407.9754 65.3328,402.1777 66.9804,392.8166 66.6912,390.5513 64.3973,381.4442 64.1339,377.5774"/>
    <line x1="92.0621" x2="94.1794" y1="421.7063" y2="426.7719"/>
    <polyline points="83.8506,431.1066 85.3798,433.0854 89.0728,439.7174 90.7228,443.64 91.0981,446.9429 90.694,453.0088 90.8572,455.3367 92.0082,458.4222 94.9899,463.0266 95.8488,466.2966 95.9142,470.0705 95.2506,477.3814"/>
    <polyline points="100.818,483.0229 98.6396,480.2218 94.1281,476.3968 92.582,474.6738 91.3724,472.7405 87.5759,464.4373 85.4663,461.682 82.6691,458.7506"/>
    <polyline points="71.6583,469.4889 70.6377,460.8825 69.7746,457.2644 68.5074,453.8367 67.2441,451.7188 61.5772,445.9541 60.2909,443.7704 59.5448,441.3989 59.272,437.5875 60.6589,429.5566 60.8667,425.7572 60.188,422.1954 57.2276,415.3715 56.5076,413.0241 55.4297,402.1106 55.9074,398.403 57.3836,393.4513 58.7589,386.2154 59.9055,382.6392 62.4995,379.1211 68.4393,373.5374 69.8829,371.3553 70.2042,370.2529 70.0193,366.874 67.5211,358.6646 67.2292,345.8271 67.635,343.5502 68.4897,341.3706 73.4527,335.5104 74.9454,332.4019 75.0656,327.7175 73.9661,318.8864 74.581,315.399 76.4458,312.3848 80.8527,307.9834 82.7569,305.0789 83.6067,301.6871 84.6152,291.7987 85.338,288.175 86.2372,285.9764 88.4662,283.1993 94.4869,278.7451 98.8506,274.7479 101.735,272.5943 115.8973,263.8034 118.3284,261.5221 122.5497,256.3563 125.0702,254.1721 129.3103,252.2312 139.9906,249.6582 142.8794,248.1495 144.3672,246.5952 147.4084,241.7043 148.8493,240.0017 151.3947,237.9697 159.4905,232.5125 162.4092,231.0582 169.5955,228.4483 171.3901,227.219 176.3464,222.4633 178.3061,221.4904 179.4172,221.3086 181.8655,221.5186 189.5894,223.659 199.5382,223.7661 202.6802,223.4793 204.6355,222.8232 214.2256,218.3481 223.0448,213.8053 229.2098,211.569 236.4665,207.6311 238.6212,207.0172 242.9891,206.5402 250.6929,204.9574 256.2591,204.3881 260.7132,204.4254 276.1327,206.5393 279.3608,207.4139 284.34,210.626 287.4674,211.6803 289.7482,211.5679 292.1644,211.0042 302.5587,207.4332 305.0735,207.1164 307.4257,207.3554 311.8189,208.7871 317.7266,212.6241 320.4229,215.0371 325.0592,221.137 326.6933,222.8609 337.6378,230.5147 341.6343,232.4425 349.7104,234.3765 351.7756,235.3495 357.5529,238.9149 364.5688,241.0838 366.5069,242.3452 367.8873,244.2519 370.0792,250.2803 371.2673,252.2932 377.9895,258.2857 382.592,264.7145 386.3945,268.8395 388.4088,271.5352 392.0995,279.8925 395.906,285.3498 397.2593,288.4251 397.3659,292.2181 396.351,297.7986 396.7098,300.0412 398.0582,301.7419 402.4446,304.3424 404.3667,305.8303 413.0123,321.2692 414.6081,323.0564 419.7792,327.2645 421.4033,329.1471 425.7123,338.6664 426.5467,342.0183 426.6318,344.3511 426.181,346.7764 424.2059,352.8757 423.9995,356.3098 425.091,359.5622 428.1375,364.9343 429.5711,368.2617 430.1726,371.6764 430.6029,379.7172 431.2638,383.1777 432.9504,387.8639 437.4173,397.6207 437.8896,400.0769 437.1896,403.6263 434.5696,409.2992 433.92,411.6024 433.3878,415.1262 433.0362,422.3495 432.4057,425.8849 431.4636,428.1125 428.3506,433.4217 427.1218,436.7578 426.8104,439.1429 427.0365,444.2491 426.8299,446.7229 426.1225,449.0231 423.8604,453.2892 423.0597,455.5528 422.6778,458.0052 422.4335,464.556 421.5209,468.1891 419.4427,472.6279 417.2342,475.6033 414.0389,477.9819 408.9836,480.5551 407.161,482.2233 406.2162,484.4456 406.067,491.6071 405.5801,494.2505 405.0731,495.3938 403.5396,497.3048 399.5646,500.4051 397.976,502.2476 393.3298,512.7871 391.3496,519.4623 390.2578,521.9146 387.9843,525.0044 383.5436,529.5212 380.5158,531.8327 377.0767,533.6432 373.2704,534.953 365.3706,536.9351 360.9321,537.0971 348.4099,535.6512 343.1279,535.9337 339.9401,537.2921 335.4854,541.0452 333.4332,542.0802 324.0013,543.6005 318.6802,545.5342 313.2267,547.0757 307.0382,549.7978 303.7932,550.7455 300.3122,550.9159 291.9685,549.9838 281.8912,550.0532 275.4697,551.1383 264.863,554.063 261.5739,554.1292 254.99,553.6559 249.5593,554.3233 244.1097,554.0426 241.9229,554.2521 239.7074,554.9327 237.4382,556.1984 231.4623,561.0001 229.02,562.5156 226.6291,563.1993 225.4708,563.1622 222.1406,561.964 216.9322,558.3391 213.7063,557.1204 212.5639,557.0771 210.1456,557.5855 202.1461,561.4377 199.5474,562.0981 198.3244,562.101 193.7265,560.985 184.9255,557.511 180.4031,556.1347 159.4399,553.1187 154.5914,551.8437 151.3115,550.1816 144.8105,544.4137 140.6813,541.8469 135.9298,540.1543 125.297,537.8793 119.1782,535.4498 116.11,533.2004 111.229,527.2999 109.3915,525.579 102.6956,521.5552 100.7435,519.6844"/>
    <polyline points="99.9868,515.3817 100.7568,519.8917 100.5216,529.9922"/>
    <polyline points="98.4048,507.9324 95.3285,503.0697 92.7124,495.8365 91.1627,493.1233"/>
    <polyline points="45.2317,443.0367 44.6836,440.5903 43.6875,438.1058 41.3191,435.0111"/>
    <polygon points="14.86,334.1348 15.5763,329.7054 17.8757,324.1157 20.9198,318.7764 30.0854,306.2986 31.4119,303.7003 33.8725,296.9109 34.5212,292.4889 34.0985,277.7904 34.5897,274.7027 35.5762,271.843 38.0321,268.0555 41.2277,264.7002 46.1363,260.6901 50.3436,258.0942 55.3598,256.122 67.4337,254.0445 70.4967,252.8382 71.6629,251.9883 73.2832,249.7737 74.1683,246.9907 74.8026,236.7555 75.4006,233.5421 76.6441,230.8402 80.3418,226.4657 82.65,224.7072 87.7573,221.7276 90.0195,219.9819 98.5087,210.3321 106.417,204.2561 114.6391,196.2112 120.1725,191.6179 125.3613,186.3919 127.7951,184.833 130.7001,184.0639 139.4522,185.0207 142.368,184.5028 144.672,182.859 147.7563,179.6014 151.1284,176.816 164.8272,168.9996 171.3586,166.0181 185.0128,161.6453 187.8703,161.2242 190.8771,161.4143 194.1037,162.5997 200.6202,165.933 203.5938,166.6528 204.9694,166.5178 208.8185,164.6219 215.0688,159.6503 219.0129,157.236 221.7711,156.3992 230.2717,155.7569 233.0578,154.8303 235.8223,153.1247 241.4392,148.5705 244.3393,146.9281 247.2814,146.3815 256.1472,146.012 262.1433,144.8188 266.7622,143.0452 279.7351,136.4154 281.3669,135.9319 284.5604,135.6101 287.6589,135.9933 296.7329,138.3497 304.441,139.5578 307.3921,140.6122 310.1655,142.3133 312.798,144.4368 321.3433,153.0889 323.8493,155.0807 325.2004,155.7604 326.646,156.1635 329.8394,156.1545 338.6569,154.3887 341.7773,154.8819 344.6467,156.0044 347.3402,157.5275 360.1596,166.1834 362.4681,168.3248 367.4935,174.7923 369.8858,176.6341 373.0264,177.2437 380.1662,177.3017 381.6756,177.7882 382.9549,178.6281 383.9926,179.8246 384.8113,181.3306 385.9832,184.9514 388.0586,194.7222 389.2556,197.9669 390.7289,200.7898 391.6303,201.977 393.8116,203.8718 399.234,206.4351 401.5488,208.2068 406.4842,215.6641 413.3146,221.0887 415.2643,223.2295 416.7841,225.7628 419.716,232.7596 425.8428,238.8294 427.5353,241.1442 429.3192,245.1757 432.1216,253.6351 434.0007,257.4619 436.8128,260.6713 441.7224,264.299 443.7214,266.4295 444.9102,269.0382 446.1141,274.8619 447.2085,277.4823 449.9513,280.8567 455.4724,286.1381 458.0383,289.7226 459.1099,292.4006 460.7679,299.4822 463.7982,306.0237 464.1365,308.9432 463.6675,316.5664 463.8744,319.4548 465.44,326.3485 467.9402,334.478 470.4454,338.3238 478.0457,347.3049 486.0797,355.2771 487.7911,358.145 488.183,359.6334 488.3393,362.6676 488.1111,365.7242 486.7218,371.8418 485.1396,376.3863 484.2686,377.8913 481.8423,380.8679 476.8471,386.6352 475.8275,389.4827 476.073,392.3709 478.1855,399.7593 478.7156,402.732 478.5954,408.598 479.1155,417.5657 477.9057,426.3393 477.6028,436.8975 476.813,441.3074 473.2278,452.6753 471.7707,455.329 468.2294,460.3675 466.4614,464.4278 466.1704,465.8952 466.2054,469.09 467.4577,477.7403 467.232,480.958 466.8359,482.4473 466.25,483.8508 464.529,486.3937 458.6534,491.8716 456.7399,494.2455 456.0518,495.5743 455.1985,498.5302 454.5864,503.3991 453.8086,506.4675 452.4158,509.1781 448.0891,515.4247 447.1254,518.449 445.8159,525.0344 443.8698,529.3599 441.9722,531.8053 424.3727,551.3123 420.9849,554.4755 417.2177,557.2356 413.1106,559.5941 404.5282,563.7029 399.3305,566.9182 395.9404,569.9345 391.0898,576.0924 388.816,578.1513 385.9712,579.406 376.0283,580.8169 371.6767,582.3 365.0717,585.7333 358.1623,591.7412 355.6437,593.3954 352.9461,594.7049 343.2292,598.6684 337.5488,600.5849 333.0727,601.4298 323.9391,602.3142 318.2788,603.956 314.3135,606.1152 305.2818,612.6372 302.4681,613.7947 296.6196,615.2351 293.7548,616.277 285.3861,621.3258 281.0161,623.2551 273.3883,624.2786 261.253,627.7964 258.1265,627.4908 251.883,625.5796 248.8046,625.6159 247.2644,626.1544 244.1478,628.339 235.9719,636.7986 232.6236,638.8629 230.9735,639.1931 227.7331,638.8636 222.9573,637.5236 213.6642,633.6391 204.6657,629.2084 200.1717,627.3985 183.3944,622.9555 178.5877,622.5774 169.9084,623.7657 166.6189,623.4883 165.1182,622.9042 163.7182,622.0339 161.2034,619.5452 155.8265,611.4731 153.5036,608.9179 149.6313,606.1503 145.5573,603.9134 135.1271,600.5952 131.0947,598.2592 128.7991,595.998 124.5745,590.9779 117.6887,584.6895 115.7715,582.0679 112.4012,576.3037 110.3109,574.0842 107.8378,572.4149 96.7668,567.1333 92.9569,564.6364 89.8623,561.2905 84.9959,553.2712 81.0685,548.7642 77.4583,546.0497 68.9867,541.6354 66.6429,539.6699 65.753,538.437 64.4804,535.5497 61.8124,526.1543 60.0904,521.8808 56.5593,515.3438 50.9064,506.7517 45.7614,496.162 43.1166,492.6085 34.989,486.8342 32.941,484.5041 32.1111,481.5817 32.4443,471.6986 31.2108,462.7429 30.0887,458.5076 26.465,448.9856 26.2654,447.5256 26.9215,444.3111 29.2763,439.197 30.4115,435.9758 30.2964,433.1041 28.7684,430.5676 23.7648,425.8133 21.7155,423.2754 21.0206,421.932 19.3908,416.3219 17.6905,413.6292 9.8704,405.6328 6.6394,401.3809 4.9983,398.4493 3.8271,395.4537 2.9993,390.8752 3.0298,389.3332 3.7623,386.2375 7.6337,378.6035 10.004,372.6439 13.6689,365.3934 14.6825,362.5145 15.0932,358.1246 14.2356,349.1109 15.0151,341.7313"/>
    <polyline points="142.0808,561.9808 149.1526,561.8363 151.8434,562.2909 153.0301,562.8057 155.2426,564.1472 157.2907,565.8367 163.3712,572.6763"/>
    <polyline points="264.4028,590.3246 268.3106,588.7533 272.2228,588.2724 274.9333,588.7361 281.9335,590.7004 284.6687,590.8108 288.5758,589.8331 294.3487,587.1452"/>
    <polyline points="406.4322,483.7492 406.6102,480.4755 407.4662,478.2339 408.952,476.378 414.6396,471.4169 416.2054,469.5407 417.375,467.448 418.4553,463.9758 419.6883,456.6876 420.6594,453.2488 422.689,448.9764 426.9532,442.363"/>
    <polyline points="436.43,405.3198 434.2259,397.339 433.6281,389.3937"/>
    <polyline points="457.5592,350.8233 453.063,345.6463 446.4784,338.9976 443.9267,335.6514 442.8715,333.3008 441.6462,327.0844 440.2825,323.5274 431.097,309.4877 424.0895,300.443 421.4941,297.6296 418.2935,295.1675 413.4957,292.2844 411.5408,290.6608 406.6906,283.9744 402.2254,278.5043 400.7808,275.2514 399.6313,267.3502 398.568,265.1587 396.4551,263.7775 388.7194,262.4967 387.4433,262.0612 385.6741,260.5421 384.8675,258.1736 384.0427,252.5928 382.6673,248.9982 380.0691,244.861 375.4564,239.2831 373.6181,235.9122 372.9837,232.924 372.0298,222.6776"/>
  </g>
</svg>
