<?xml version="1.0" encoding="utf-8" ?>
<svg xmlns="http://www.w3.org/2000/svg" xmlns:cc="http://creativecommons.org/ns" xmlns:dc="http://purl.org/dc/elements/1.1/" xmlns:ev="http://www.w3.org/2001/xml-events" xmlns:inkscape="http://www.inkscape.org/namespaces/inkscape" xmlns:rdf="http://www.w3.org/1999/02/22-rdf-syntax-ns" xmlns:sodipodi="http://sodipodi.sourceforge.net/DTD/sodipodi-0.dtd" xmlns:xlink="http://www.w3.org/1999/xlink" baseProfile="tiny" height="20.5cm" version="1.2" viewBox="0 0 491.33858267716533 774.8031496062991" width="13.0cm">
  <metadata>
    <rdf:RDF>
      <cc:Work>
        <dc:format>image/svg+xml</dc:format>
        <dc:source>Vsketch with params {'__seed__': 349725321}</dc:source>
        <dc:date>2023-03-17T16:49:11.815476</dc:date>
      </cc:Work>
    </rdf:RDF>
  </metadata>
  <defs/>
  <g fill="none" id="layer1" inkscape:groupmode="layer" inkscape:label="1" stroke="#0000ff" style="display:inline">
    <polyline points="272.0547,380.0652 275.6838,384.1626 279.339,389.4246 281.5399,393.5971 283.2565,398.2849 284.4969,403.9238 285.0561,410.2348 284.8089,415.3505 283.7871,419.8167"/>
    <line x1="312.8906" x2="312.8249" y1="420.1204" y2="422.7179"/>
    <polyline points="312.8493,410.3845 312.3342,402.4006 312.3409,393.2489 312.0404,389.2664 310.763,383.652 308.8727,380.0924"/>
    <polyline points="305.4355,376.7128 301.0322,373.116 296.8591,368.4462 290.6547,360.7086 283.6267,353.7276"/>
    <polyline points="276.5589,350.1333 282.7348,358.1281 288.5268,364.5628 291.1429,367.938 293.1702,371.2378 296.8576,378.7886 298.8352,382.008 300.8896,384.4229 306.4941,389.9635 309.025,393.5445 309.9736,396.3241 310.0406,399.6785 309.2576,405.1002 307.5824,411.5113 304.9322,419.0622 302.8078,422.8904 292.1876,435.2844 289.7896,437.4229 287.1807,438.8773 283.8407,439.9884 273.7621,441.4306 271.4135,442.0514 267.5942,444.1593 262.6689,448.2841 260.5198,449.6642 248.7345,454.9021 245.7922,455.7904 243.9854,455.863 241.0402,454.8804 236.4846,451.902 234.4175,450.8764 226.5125,449.6634 222.6457,448.3991 219.8629,446.8414 214.8314,443.3852 206.4933,438.5684 203.0185,435.3363 199.1379,429.5683 193.3734,423.0379 191.6876,419.9747 191.033,416.9683 191.1309,414.8866 191.7644,412.4483 195.3457,405.3068 196.2116,402.8996 196.8617,391.5621 197.7924,386.4028 201.9691,375.4247 205.4199,368.8869 207.9208,365.3953 211.9545,360.6811 215.1462,357.555 218.367,354.9636 229.1858,348.1172 232.8417,346.5614 237.3177,345.29"/>
    <polyline points="221.3933,339.9308 218.7224,345.109 216.3385,348.0652 213.8628,349.6206 207.1001,352.1802 204.1437,353.8741 201.8899,355.8157 196.4046,361.6934 189.5697,367.5994 187.0191,371.0629 184.2531,376.8895 182.6992,379.4656 175.289,387.906"/>
    <polyline points="171.2857,372.1922 174.5032,369.6159 181.3091,360.3142 189.9977,351.4445 201.2339,342.588 205.1446,340.4806 208.6077,339.6693 212.2374,339.3954 225.32,340.2461 229.2277,341.4201 237.4454,345.3371 241.4494,346.0574 245.7394,345.7477 255.5924,343.6015 260.2607,343.4928 264.3588,344.349 269.0822,346.0553 281.8197,353.1575 291.8584,355.6631 294.5364,356.7217 296.554,357.8989 298.1523,359.5096 299.2827,361.5265 301.4546,369.8215 303.5197,374.0886 305.8766,377.2036 311.6191,382.8582 313.647,385.9365"/>
    <polyline points="330.4828,370.3044 328.3654,367.8686 327.487,365.0374 327.4354,361.7068 328.4795,354.3452"/>
    <polyline points="326.6096,334.7581 322.0275,333.3304 312.73,329.6195 309.2675,327.6775 306.7827,325.5918 304.5863,323.0793 303.557,321.1048 301.1372,312.2276 299.952,309.0206"/>
    <polyline points="292.7531,304.3366 288.7879,303.859 286.0483,303.0539 277.7985,298.5209 266.9083,294.3648 264.0612,293.7403 257.552,292.9772 252.5429,291.5856 243.7415,290.6668 234.5457,286.8159 230.5555,285.5753 217.6839,284.6439 210.2875,284.705 200.2024,282.7357 197.5236,282.7353 194.9938,283.2056 192.6099,284.0717 190.4009,285.3445 183.7755,290.8687 180.8735,292.4805 177.5498,293.3718 169.2574,294.466 165.6163,295.2435 162.2803,296.5564 159.4176,298.5528 157.0884,301.2139 153.921,308.0541 151.9226,310.8767 148.9837,312.7163 142.4586,314.8084 140.8742,315.7274 139.6132,316.9456 138.0201,320.1625 134.9406,331.7581 132.7282,336.3256 130.0473,339.5916 122.8994,345.3483 120.7349,348.1278 117.1498,354.1269 113.5335,356.9806"/>
    <polyline points="103.9549,350.3406 105.9195,355.4616 106.2473,357.5665 105.9905,359.4396 98.7957,373.8587 95.2778,379.9065 94.3003,382.65 94.1073,384.561 94.6136,390.4076 94.1889,397.9942 94.5905,401.8073 96.1759,405.6109 100.4461,412.9367 103.3271,420.8713 105.0338,424.2663 108.3351,428.2436 115.9987,434.6185 117.43,436.8358 117.7513,438.4465 117.6279,440.1716 114.8225,447.9327 114.042,451.7997 114.1516,458.2568 115.4627,464.402 119.577,474.2539 120.9584,476.5422 122.7757,478.5737 126.02,480.7406 135.6511,484.661 137.8121,486.1958 138.8221,487.5206 139.2992,490.319 138.1013,499.0892 138.0194,501.5074 138.314,503.6429 139.0358,505.4256 140.8407,507.452 144.1001,509.3031 146.9947,510.1731 153.3133,511.0842 156.1244,511.7936 165.4856,516.422 172.1441,518.5849 174.4084,519.6728 176.3445,521.2843 177.4377,522.7114 181.8103,530.6814 184.0195,534.092 189.8568,540.7035 192.7464,543.2581 195.1919,544.5359 200.4115,546.208 208.2216,552.5557 216.1128,556.195 224.1142,560.7822 239.3838,567.7849 247.9091,570.936"/>
    <polyline points="253.0153,586.6727 251.0774,585.2224 248.8235,584.2926 241.067,583.8684 234.4231,583.7679 226.4742,585.2967 223.0955,585.2161 220.9453,584.3511 217.8698,582.2552 212.1771,576.6313 209.3358,574.4071 206.2039,573.7002 200.4446,574.5439 198.1804,574.5916 196.0649,574.0725 194.1362,572.9348 188.3328,566.5828 183.015,562.7697 177.348,557.4906 173.9621,555.0124 168.5478,552.0814 166.1273,550.1031 164.8113,548.2852 160.3703,540.1451 154.8015,532.6997 152.7103,525.9464 151.6978,524.1994 150.066,523.2364 142.8503,522.8973 139.9576,521.7625 138.6181,520.3475 137.2326,517.5955 135.372,510.0871 134.0675,507.464 132.6414,506.2256 127.2063,503.3977 125.6867,502.1727 121.758,497.9526 117.1197,495.3241 115.6272,493.982 114.0202,491.5363 112.9981,488.7303 111.9961,483.7093 111.3817,476.4647 110.4524,473.7712 109.3388,472.2185 106.6557,470.3294 96.9378,465.9623 87.6097,459.5771 84.0988,456.2911 82.2684,452.4189 79.2789,440.0664 79.7674,433.5581 79.5678,430.4078 77.497,424.2943 76.9181,421.161 77.5144,417.945 81.2286,409.4878 81.8739,405.386 81.4081,402.2963 78.1739,394.8297 76.9865,390.4823 76.8684,386.1907 77.88,382.0405 80.0137,378.1122 82.5071,375.3927 86.9104,372.1262 95.7245,367.158 98.8674,365.0458 101.1798,362.7677 103.2662,359.4826 104.3507,355.8745 104.2356,351.7736 103.0985,347.1446 100.7234,340.6877 100.3751,338.3005 100.587,336.1544 102.4237,330.2375 102.695,324.4853 103.065,322.2882 104.2911,319.3698 106.8845,316.0806 109.3202,313.9682 114.0051,310.9933 116.7023,307.9068 117.8016,304.8513 118.9238,294.8009 120.2709,291.6916 121.6995,290.0944 123.6141,288.9723 134.3884,286.552 136.4178,285.732 139.1134,284.1459 141.0722,281.6942 143.5948,274.8275 144.6441,272.7107 147.1903,268.9725 148.7701,267.4995 151.874,266.3819 156.6698,266.0365 158.8303,265.5523 163.4495,263.1016 165.5813,262.6488 168.1244,263.0086 175.2459,265.8456 176.494,266.1461 178.5841,265.9467 179.4745,265.5253 181.0168,264.142 186.0869,255.2769 190.5591,249.2769 193.1632,247.037 201.0542,243.6446 208.9617,239.7217 218.3781,236.9434 223.7614,236.1484 227.1373,237.0603 232.7434,239.7608 235.9678,240.51 239.1132,239.9172 244.3955,237.5069 246.5453,236.9862 249.7636,237.2831 256.0757,239.4133 259.2428,239.782 271.4934,236.9836 274.8817,236.5704 277.0697,236.7806 280.1952,237.892 287.1375,241.609 294.5396,246.8941 296.5231,247.6527 303.0615,248.2804 306.1309,249.2368 318.4916,255.6044 324.86,259.4917 331.0151,261.587 337.6124,265.1614 342.9547,266.8645 344.8455,267.9389 346.2763,269.6488 348.517,275.5352 350.2198,278.4712 352.606,280.5305 358.2582,283.6852 363.2541,287.6652 366.2042,290.7231 369.3422,295.0442 371.2371,298.9958 374.1627,307.359 376.2918,312.1858 376.6706,314.4267 376.532,320.6193 376.7956,322.8161 377.6798,325.7558 379.1167,328.3335 381.2186,330.5308 386.9429,335.3664 393.833,343.3221 400.6258,349.5082 402.6872,352.1126 404.0227,355.001 404.7101,358.1052 406.1546,368.5975 405.9748,370.7844 404.5515,376.3708 404.2807,378.5054 405.1267,383.5388 404.9045,390.7472 405.4365,394.7712 407.7258,401.7895 408.7284,407.9459 410.1062,412.109 413.0732,418.552 418.9595,426.6532 420.3299,429.0385 424.0122,439.8608 424.7951,443.5187 424.8064,445.8813 423.8945,448.0502 417.9949,453.6604 416.9063,455.6985 416.7848,458.0046 417.9957,464.3252 418.1313,466.7923 417.1011,473.4228"/>
    <polyline points="416.56,458.3456 417.2728,437.5427 417.7633,434.2751 418.5192,431.9013"/>
    <polyline points="418.4872,427.355 416.7822,430.8123 411.3228,438.6853 407.4064,447.5994 402.434,453.8309 400.6517,456.5227 399.4642,459.3764 398.2619,464.3988 397.1395,467.2751 395.218,469.8228 390.1865,474.2784 388.1188,476.6338 387.1754,478.3992 386.0057,482.3025 384.9618,484.0217 383.3703,485.4322 381.3013,486.5476 373.1445,489.5844 371.4337,490.754 369.6267,492.98 366.432,501.3061 362.7899,509.625 361.2642,514.8751 358.9513,526.8169 357.6848,530.0286 355.9101,532.755 354.3449,534.16 351.4542,535.6213 341.8797,538.5299 338.9534,539.7186 336.4521,541.4766 329.5142,547.7136 320.6277,552.8965 313.9694,555.6623 303.8156,557.8702 301.1027,559.2982 296.8174,562.4838 293.0432,564.1657 284.7841,565.0663 275.9775,567.834 258.8078,571.093 255.7233,571.2743 249.5327,570.8813 238.2269,571.6055 235.0681,572.6928 227.3854,576.4118 225.175,576.9855 223.0013,577.1092 220.8844,576.7582 218.8336,575.9855 209.1348,570.3186 206.5975,567.4409 201.5149,558.9606 199.2651,556.1872 195.9715,553.7377 189.0939,550.098 185.4393,548.8845 182.3532,548.7305 172.6865,550.7038 166.9831,550.9382"/>
    <polyline points="190.8247,541.6814 198.4374,540.7699 206.7841,537.4305 209.4852,537.1987 211.0704,537.7986 215.6705,540.4494 223.0815,542.7009 224.7072,543.4437 227.054,545.4614 231.8339,550.7101 233.5433,551.9925 235.3169,552.7286 237.1375,552.8595 238.9789,552.4858 245.3302,549.2685 247.9795,548.5149 250.6485,548.8365 259.8171,551.2555 264.3971,551.3003 270.6075,549.8562 278.2769,546.8487 286.2824,542.3349 291.96,539.8243 299.214,534.4081 302.285,532.7944 304.9538,532.3526 306.9784,532.513 315.2454,534.7612 318.7217,535.2918 328.0178,534.2469 330.7598,533.1956 332.338,532.1162 336.3202,527.8826 338.6345,526.2171 340.6308,525.6588 346.739,525.4076 350.0952,524.7439 351.8934,523.7729 353.8066,521.4659 354.9502,518.4061 357.0773,509.7413 359.7552,500.876 364.779,487.4893 366.4436,481.0927 366.7015,477.131 366.4043,473.9591 365.5381,470.5676 362.7046,462.6508 362.4013,460.7214 362.534,459.0102 363.5435,456.8048 367.8857,450.6133 371.5301,443.1184 372.4308,439.0773 373.0859,430.7985 376.0687,423.724 376.6556,421.2735 376.5943,419.5929 375.9385,417.8726 372.2626,412.7634 371.046,410.3308 370.9622,408.7403 372.9067,400.6789 373.1207,396.6056 372.5816,393.402 370.5301,387.178 369.8992,384.0314 370.5344,381.4394 375.7406,373.3756 376.4397,370.5182 376.1171,368.8164 373.5806,362.3966 373.5068,354.9922 373.1994,352.2611 372.483,349.6831 369.9163,343.056 369.2068,335.2554 368.4928,332.5045 367.1462,330.1188 362.6168,324.383 360.3476,320.4004 358.1527,315.1246 355.499,306.3037 354.2138,303.6094 352.4487,301.3406 348.8559,298.2019 347.628,296.7263 346.6333,294.9831 344.7178,289.8417 343.2975,286.9621 341.4452,284.5517 337.8274,281.1479 336.5453,279.5386 334.9921,276.5392 332.9269,270.3837"/>
    <polyline points="333.5215,265.3981 338.3873,267.8573 342.6414,271.0191 344.8519,273.3695 347.9632,277.9336 349.4733,279.387 351.2891,280.468 355.694,282.1459"/>
    <polyline points="357.8905,283.438 359.5585,285.3946 360.5012,287.4629 362.5691,298.447 363.6502,301.5528 364.6571,303.3386 366.5778,305.6477 368.2058,306.9023 370.27,307.8242 375.0025,309.1941"/>
    <polyline points="361.5849,292.5424 359.1186,290.3898 352.6422,288.3263 349.994,286.7386 348.2186,284.1389 346.0964,278.6215 345.0361,276.6041 343.7506,274.8489 342.2192,273.4053 340.4495,272.2874 337.4182,271.1749 328.6124,269.6638 325.652,268.683 323.9274,267.6159 322.4461,266.1009 319.5311,261.6743"/>
    <polyline points="322.4262,262.2049 315.8973,260.9576 312.9049,260.0871 310.0609,258.922 306.534,256.6129"/>
    <line x1="306.7257" x2="306.1352" y1="256.7579" y2="256.7383"/>
    <polyline points="306.9815,256.9497 299.7317,260.2702 296.2524,261.2011 294.2566,260.996 287.7568,258.9008 283.947,258.0431 274.1548,257.3584"/>
    <polyline points="270.7516,262.2844 275.1685,261.9499 281.0026,260.7974"/>
    <polyline points="290.3277,253.4242 287.1135,253.8889 279.4848,255.6992 267.9998,259.245 256.5409,260.15 252.8404,259.5152 250.0775,258.3073 243.4443,252.8715 240.4655,250.9318 238.4639,250.3137 235.5006,250.6238 231.691,252.6396 224.6338,258.9737 222.8948,260.1426 221.1082,260.8702 218.3022,261.1444 213.3704,260.4955 210.4479,260.4824 200.0073,262.1279 196.3551,263.3026 193.8224,264.7686 188.2665,268.8624 178.9445,273.4168 174.539,275.1556 167.0161,277.2804 164.3271,278.3857 161.3434,280.8288 155.8024,287.7977 152.0916,290.6803 149.647,292.1447 144.8935,293.8637 135.9352,295.5668 132.6838,296.4932 130.7547,297.3903 124.6397,301.3027 117.997,303.5202 126.2657,297.2943 128.2912,294.9993 131.1357,290.6061 135.5755,286.1028"/>
    <polyline points="143.3526,275.4368 147.5248,274.863 150.4462,273.6145 152.8283,271.6096 156.3817,267.5511 158.8483,265.6915"/>
    <line x1="163.6782" x2="167.3993" y1="264.0253" y2="262.8526"/>
    <polyline points="166.3698,262.6974 164.8829,263.5362 158.8998,265.6675 157.0352,266.6258 150.5797,271.994 148.6269,272.8363 144.0318,273.8778"/>
    <polyline points="168.1357,294.6617 165.4451,297.9685 162.9315,300.296 160.7346,301.6288 155.6743,303.9223"/>
    <polyline points="149.8253,312.3341 148.0524,318.7873 146.0007,323.5591 143.8816,327.0924 138.276,335.0615 135.6215,340.0946 128.8153,361.6057 127.783,366.2355 127.6849,370.303 129.3765,379.471 129.6846,384.8637 131.1931,391.7803 131.1793,395.4045 130.44,397.5001 129.4587,398.87 122.446,405.2551 120.5306,407.5555 119.7212,409.1247 119.1057,412.291 118.8987,415.4693 119.4972,422.5758 120.5582,427.2224 124.9595,436.7142 127.8634,446.3438 128.4616,449.4142 129.625,462.5835 130.4042,465.7797 131.7816,468.6968 133.7825,471.2676 135.8464,472.8418 138.5586,473.9696 146.2391,476.2884 148.4276,477.4962 150.0976,479.0434 157.7381,491.2572 165.0192,500.1795 172.5914,512.0907 179.2686,521.2133 184.1811,526.2202"/>
    <polyline points="177.736,523.1756 182.4683,525.7211 191.5022,528.0592 198.3678,530.9141 200.8028,531.4653 204.2903,531.4089 212.3297,529.766 215.6231,529.6244 219.5476,530.067 227.9911,531.9481 242.09,533.829 258.9075,535.006 266.9567,534.3765 270.667,534.7767"/>
    <polyline points="278.5563,532.0925 273.3116,529.6743 270.7835,529.1428 269.2161,529.26 266.2839,530.5612 261.4186,534.8949"/>
    <polyline points="273.9378,548.6741 280.4139,544.3668 285.9915,538.4845 288.179,536.8874 292.2809,535.641 297.6389,535.6072"/>
    <polyline points="304.9502,557.5193 311.6493,550.7173 316.7936,543.5 319.032,541.5646 320.8361,540.8441 323.9549,540.4275 333.5599,540.819 337.5137,540.6495"/>
    <polyline points="343.9293,537.8978 347.3069,532.2431 348.5782,530.6069 351.0076,528.7763 355.7858,526.4732 357.9691,524.3214 358.9344,522.3966 361.1471,515.4078"/>
    <polyline points="355.4355,505.3505 356.5399,497.1232 358.604,486.5323 360.146,470.5655 359.9552,467.6753 359.4768,465.6073 356.6517,458.1442 356.195,456.264 355.9638,450.4494 356.6302,445.1453 358.0594,440.9252 360.0766,437.6099 362.7997,434.3798 370.6351,426.2969 372.9112,423.3449 376.1392,418.3105"/>
    <polyline points="360.7827,409.1039 358.4508,412.2419 357.691,414.3507 358.1976,423.7565 358.0794,428.2643"/>
    <polyline points="362.2142,393.7614 361.0995,389.4855 360.209,378.2479 358.7196,371.4782"/>
    <line x1="352.7258" x2="352.2909" y1="356.9797" y2="355.4828"/>
    <polyline points="352.9779,355.7853 345.4781,353.2799 343.0667,352.1597 341.3303,350.7076 338.8086,347.2903 337.3077,345.7529 329.0207,340.7043 327.5379,338.4061 326.1832,333.1879 325.2677,331.1779 323.9206,329.5565 319.4706,326.1148 318.1445,324.4553 315.8951,317.397"/>
    <line x1="304.8326" x2="311.1072" y1="329.7921" y2="335.344"/>
    <polyline points="296.9897,331.01 298.5835,334.5597 301.1503,342.1129 302.4092,344.7782 304.3923,347.3659 309.5618,352.0838 311.7408,355.1647 313.0886,358.8216 313.8434,363.9881 313.4997,375.5171 313.8916,382.5021 313.1245,393.0788 314.347,403.9972 314.0979,406.1987 312.9173,410.093 312.5147,412.6476 312.8653,422.3082 312.464,424.466 311.7772,426.0987 307.9003,431.1877 307.0277,433.1199 307.1429,436.4254 309.8597,445.9981 310.0884,450.0977 309.4829,452.6528 306.7361,458.066 304.3,464.8475"/>
    <polyline points="304.0516,476.9637 300.8857,479.6279 299.9068,481.1843 299.1608,483.4968"/>
    <polyline points="284.6066,475.2033 278.1169,474.819 274.7489,475.3476 267.0967,478.8034 258.1562,484.4668 254.8362,485.4501 251.8684,485.387 249.3781,484.7305 242.2196,481.9323 234.0269,480.1657 224.6482,476.3652 222.3509,476.1787 214.7915,476.6025 210.5351,475.6357 208.0128,474.2868 206.2342,472.615 204.7943,470.4738 202.1539,465.4228 200.1966,463.5518 196.5018,462.3225 186.5085,461.6149 181.6148,460.5131 179.4689,459.5785 177.1351,458.0541 175.6001,456.5478 174.5124,454.7197 173.797,452.0425 173.7184,449.055 175.8981,435.4526 175.9446,428.6368 174.9817,420.1198 174.1405,417.993 170.9443,412.3559 170.3785,410.5166 170.2933,408.6476 170.7571,406.7837 171.7551,404.9636 177.4201,398.366 178.1733,396.7601 178.4174,395.0798 177.5186,391.8091 173.3352,384.4968 171.5741,380.2975 170.7819,375.6623 171.3492,371.9881 173.5569,367.9295 187.0143,349.8416 189.6893,346.6587 192.8263,343.9529 200.6326,338.8912 205.6572,334.0821 211.1873,329.6632 216.5331,324.8375"/>
    <polyline points="190.594,329.961 189.0043,336.5203 187.5851,339.2672 173.4569,350.8196 170.8092,353.8606 169.4065,356.3886 168.9474,359.5 170.1492,367.8437 169.8892,370.6868 168.6384,373.0029 164.8369,377.7489 163.428,380.1028 161.3356,386.8077 158.2925,393.4156 156.7843,399.3516 152.8232,407.0794 151.6318,409.9942 151.589,411.7531 152.1308,413.4813 155.6417,418.919 156.5745,421.6282 156.2765,424.536 153.7297,431.6232 153.48,433.5347 153.6908,435.3373 154.3884,436.9959 155.8415,439.0149 162.4169,445.7485 166.5148,451.2805 174.9108,457.0329 176.4191,458.5854 180.6403,464.115 184.175,467.3972 186.895,469.177 192.8567,471.9015 194.5966,473.0353 199.5564,478.6886 201.0018,479.3591 203.3599,479.4859 209.3597,477.9669 211.6518,477.7346 224.8893,480.6009 227.417,482.2754 232.3413,488.1094 234.6515,490.2358 237.1532,491.5184 239.8743,491.7875"/>
    <polyline points="233.0237,479.8205 238.7265,479.0232 241.4517,478.3335 244.9886,476.8689 248.3551,474.9575 254.1301,470.8485 256.1337,468.5301 260.1796,462.9038 261.3426,461.8034 262.6036,461.1043 264.0136,460.8509 265.6267,461.0781 271.44,463.1982 274.4329,463.8915 276.6982,463.8368 279.0344,462.9893 281.8004,460.5416 286.4072,453.6092 288.7766,451.0307 291.5168,449.3129 301.2128,444.8847 305.1302,442.2254 308.0158,439.5813"/>
    <polyline points="324.4508,453.4133 319.7802,455.676 318.124,457.2607 315.4169,460.793 313.5181,462.1256 311.2915,463.143 305.7433,464.6708 302.3058,464.9572 294.7993,464.9112 292.6667,465.3368 290.9213,466.1656 288.7374,467.9314 287.2097,469.8405 283.7017,477.0597 281.7895,479.8844 279.1395,482.645 276.0856,484.743 273.675,485.7457 271.0986,486.2761 265.5874,485.7899 263.5528,486.0033 261.6504,486.7653 257.9332,489.1632 256.2119,489.894"/>
    <polyline points="218.4328,476.503 213.4206,473.9951 205.5288,471.6704"/>
    <polyline points="192.8089,462.0126 180.2869,456.3461 173.8422,452.3326"/>
    <polyline points="175.8809,435.6009 178.2122,438.9963 184.4718,445.4002 187.1238,448.9818 189.2868,453.5292 191.7087,461.4837"/>
    <line x1="171.8942" x2="170.6699" y1="414.2147" y2="407.0225"/>
    <polyline points="196.3815,401.9237 199.5622,409.2227 200.5232,412.2627 200.8462,416.1703 200.2395,423.7993 200.3217,427.3217 201.2325,430.9686 203.1902,434.1159 206.5987,436.9407 211.45,439.3802 224.7195,442.9972 233.6799,446.3871 236.8509,447.1822 239.8854,447.2183 242.908,446.4178 246.22,444.5857 251.6036,440.1479 253.6048,438.8707 255.5294,438.2437 261.9861,437.3063 265.8076,435.6138 272.6929,429.1575 279.6331,424.1522 282.2673,421.7666 284.6798,418.2311 285.9227,413.9564 286.1303,407.4243 285.3154,400.712 283.5602,394.7508 280.887,389.4676 276.6855,384.3404 270.2135,378.5447 264.047,374.1276 261.1896,372.7227 258.4076,371.7851 255.9822,371.3976 253.482,371.5046 245.9108,373.4723 243.3189,373.7563 227.8398,370.5713 223.626,370.4257 220.1391,371.0387 217.1981,372.2396 214.3623,374.165 208.1926,379.801 200.4639,385.9218 197.0561,389.9001"/>
    <polyline points="257.2497,371.5346 264.2776,374.7016 267.8149,376.6786"/>
    <polyline points="275.7603,349.6411 266.4441,348.3958 256.3003,343.5152"/>
    <polyline points="271.5273,296.2378 275.5515,301.1147 278.5664,303.1552 281.9775,303.9021 288.3623,303.7654"/>
    <polyline points="316.7235,275.2675 323.008,280.7065 326.3173,282.5126 329.2121,283.454"/>
    <polyline points="345.1976,291.1369 339.3435,290.3091 336.5508,289.2622 334.0471,287.8829 331.1172,285.5045 324.6685,278.0096 322.425,276.1464 320.6006,275.4586 318.5411,275.2093 310.8017,275.736 307.9856,275.1615 299.4532,269.0785 296.8718,267.9396 290.5998,265.9611 283.0099,261.619 280.3226,260.5896 277.4758,260.2143 274.4644,260.6998 271.3496,261.9765 265.2339,265.1655 261.4575,266.1977 259.667,266.0559 257.9233,265.4237 250.8995,261.1453 249.0671,260.5892 247.2137,260.5211 243.5138,261.7045 236.4007,266.0793 234.6508,266.673 232.8745,266.8089 229.1865,265.8516 220.3533,261.0282"/>
    <polyline points="224.8431,263.5103 218.5218,262.3671 214.7747,262.6176 211.2175,263.7993 199.2654,269.1166 191.1699,271.1043 184.1307,273.4692 180.3498,274.1117"/>
    <line x1="181.2778" x2="178.1374" y1="274.022" y2="275.2532"/>
    <polyline points="187.6028,253.2215 193.7479,252.244 201.7187,250.1572 210.0042,249.5462 211.9805,249.031 214.7241,247.0425 221.0623,240.397 224.9205,238.3756"/>
    <polyline points="220.3456,236.5213 223.9752,237.9063 231.8402,241.8388 240.3017,244.8044 244.4082,245.5486 247.4755,245.3822 250.5768,244.5055 260.2158,240.7833 263.1272,238.9074"/>
    <polyline points="262.6998,239.2228 269.7166,241.4758 279.0836,243.212 283.0385,244.8869 284.901,246.1286 286.6388,247.7714 288.2245,249.8571 292.475,256.9286 294.049,258.5156 294.9331,258.9915 297.9471,259.3736 300.2579,258.8591 307.8253,256.3035 311.2104,256.3025 315.1874,257.6335 323.1606,262.6376 326.9211,264.4312 331.2546,265.3114 338.1073,265.3629"/>
    <polyline points="348.695,245.4712 346.0198,245.6284 342.0282,245.2673 338.3986,244.4064 336.218,243.4489 327.9066,238.8945 321.345,233.2084 315.7118,229.162"/>
    <polyline points="297.8653,220.5365 294.905,221.0302 289.8361,221.2762 283.2275,223.3798 280.7329,223.7768 278.413,223.3402 271.8287,219.391 268.3649,218.1226 264.7318,218.1577 261.1476,219.3986"/>
    <polyline points="260.1104,240.8303 263.9633,245.0475 265.8853,246.2594 266.8805,246.5508 270.0284,246.3187 278.6364,243.1001"/>
    <polyline points="252.8342,262.1717 247.1692,263.0892 241.0945,263.1657"/>
    <polyline points="246.4276,255.4676 241.5062,253.5038 238.5565,252.6673 236.5896,252.4826 231.3356,252.9196"/>
    <polyline points="210.2949,264.1887 215.6502,266.8744 224.8542,273.4464 229.4179,275.7084 231.135,276.0389 233.637,275.9373 241.0735,273.6707 244.4519,273.3562 247.8301,273.7116 251.1749,274.4667 254.459,275.6398 258.4459,277.6042 262.2517,280.1767 269.2645,286.3927 275.3247,290.9451 281.279,297.1549 284.2736,299.6483 294.4078,305.3005 302.2068,310.4148 314.498,316.5645 317.5141,318.5878 319.6928,320.5024 321.0779,322.2156 325.1719,330.2977 326.4392,332.0008 328.0619,333.3744 338.6992,339.5346 348.8782,342.6429 352.0316,344.3711 353.5822,346.1983 354.1925,348.5545 353.9869,351.3086 352.4628,358.8087 352.806,362.7029 353.593,364.7701 354.75,366.6975 358.8234,371.6058 360.588,374.2312 361.4524,376.357 361.9322,379.3726 362.3162,389.2926 362.2898,401.2805 361.9789,404.2554 360.267,412.3105 360.873,420.4187 360.6692,423.3575 359.9242,425.4776 358.6863,427.4971 352.9533,433.6111 351.6015,436.1498 349.2315,451.6934 348.3486,454.4224 345.8461,459.5612 345.2661,461.681 343.7669,477.2228 342.7653,483.1608 341.2149,485.9057 336.9416,489.4186 335.3906,491.1476 334.3172,493.3327 332.6048,498.2699 331.3591,500.4187 328.9455,502.503 322.1257,505.4393 318.0223,509.1161 316.0295,510.3805 313.6842,511.111 306.8989,511.9299 304.7953,512.8578 303.1197,514.5471 299.2734,520.6313 292.7896,527.7123 290.0667,529.7031 286.9747,530.7638 276.4697,532.5055 272.6087,533.7643 268.8971,535.9447 261.3838,541.8582 256.4514,543.9126 242.6879,547.5443 229.8934,548.7041"/>
    <polyline points="226.5605,592.6654 223.4719,591.7581 221.279,590.5593 213.1274,583.5646 208.0897,580.2789 201.9319,577.5148 195.6611,575.4526 189.7417,572.3906 182.309,570.4613 179.4191,568.8486 175.8216,566.1695 173.8832,565.188 171.6967,564.7456 169.2025,564.913 159.0172,567.6878 150.6077,568.5146 147.8986,568.4747 145.3919,568.0435 143.1442,567.1613 141.1526,565.8669 139.3806,564.2462 137.9888,562.0918 135.0169,552.3622 133.8748,550.1172 132.3222,548.4287 130.3412,547.276 127.915,546.638 119.2991,545.9505 115.3186,545.0436 113.1018,543.9251 110.4539,541.5239 107.8571,537.4233 105.1851,530.3137 104.0513,528.2122 99.9312,524.0591 98.4936,522.2204 97.4847,520.0551 96.1782,515.2571 95.0056,513.2644 91.9986,511.1294 85.1018,508.6306 82.7202,507.3075 80.0077,504.7439 72.7439,496.3279 71.4155,494.2732 70.6348,491.9465 70.465,489.3428 70.842,482.6013 70.2561,480.2682 69.6404,479.2367 67.8121,477.4008 61.0403,472.5973"/>
    <polyline points="57.7449,486.0445 57.4493,484.2024 57.8578,481.3102 60.8444,473.5443 61.1446,470.8462 60.4445,468.5076 57.3291,461.7907 56.0469,458.3267 55.439,454.6827 55.5326,448.3956 56.4085,442.0567 57.5009,439.4326 61.2793,432.8961 61.9835,430.4637 61.9704,429.2997 61.736,428.1617 60.6416,425.9427 55.265,419.276 52.8762,414.5829 50.8782,408.5553 50.2924,402.4432 50.4435,398.7775 51.1168,395.1456 55.3722,383.4036 56.2933,378.6876 56.3423,375.045 54.9727,366.1271 54.9767,363.6189 55.6787,360.0052 57.6486,352.9172 57.7325,351.662 57.3796,348.9764 55.9677,343.2713 55.7411,340.5264 56.5783,336.7967 60.6767,324.7786 61.9522,322.5713 64.1882,320.8337 71.6881,317.6412 73.7297,315.9526 74.5845,313.6346 74.3641,306.3835 75.0122,303.855 75.6852,302.7994 77.6007,301.0529 81.2642,298.9981 90.3196,296.4006 92.7256,295.2032 93.6287,294.3934 94.8609,292.342 96.2974,287.3759 98.0875,284.1664 99.9272,282.5674 107.3973,278.0334 109.6467,276.9037 112.1965,276.1022 122.1852,274.8106 124.244,273.6979 127.4778,270.4986 129.484,269.3579 131.9861,268.8456 136.1308,268.6696 138.4037,267.9903 139.1864,267.1918 139.7319,266.069 141.2194,258.4683 142.4661,256.2263 144.3459,254.8967 149.5563,252.3884 151.3333,250.8893 156.2858,245.5704 162.0249,241.4452 164.5443,238.5697 167.5194,233.6457 170.2228,230.7961 178.7525,225.9672 182.2479,224.9031 189.6033,224.0318 191.9475,223.4465 194.1063,222.1878 198.2859,218.8992 201.6769,217.2412 212.6467,215.7857 222.5862,216.4514 229.8519,216.0825 231.0774,216.2536 233.5543,217.2071 239.6517,220.4933 244.3698,221.1384 251.3699,222.585 254.8702,222.6687 258.4867,221.2379 266.2268,215.596 272.9417,211.6654 275.6408,210.5554 278.2958,209.9333 282.145,209.9732 287.0919,211.0777 290.5662,212.9013 294.7772,216.7156 301.4132,224.699 304.5445,226.7582 309.1877,228.031 318.9077,229.6964 322.4859,230.6085 325.7392,232.279 330.6098,236.1397 332.7372,237.2866 335.3177,237.5795 341.1702,237.089 343.7123,237.6275 344.7351,238.3326 346.3113,240.5097 349.4275,247.0115 351.4484,250.4868 353.8591,253.2959 355.7462,254.7499 359.3973,255.8384 368.1207,256.5142 372.1489,257.4621 375.6753,259.0877 382.2004,263.0808 391.453,266.3712 393.5145,267.954 395.3834,271.4627 398.3647,282.2357 400.9485,288.1218 402.5155,290.0432 407.4607,294.1448 409.0124,296.1109 412.5561,304.2059 418.2497,315.228 419.2524,318.8847 420.0465,328.0026 421.2063,332.7785 422.2827,334.9456 426.6467,341.0606 427.7688,343.2507 428.3338,345.6385 428.6706,350.6436 429.1249,353.0377 433.0655,362.0404 435.3791,369.0351 441.7321,380.5025 446.2042,387.5958 447.3265,390.0546 447.9903,392.5709 448.3538,396.4036 448.2182,411.7871 446.4586,423.2051 443.378,434.3456 442.8878,440.6529 442.2114,443.0993 440.7679,445.3932 434.7551,451.7376 433.1983,453.8837 428.6776,466.5225 427.5151,471.2607 426.4482,473.4635 424.8963,475.4776 420.4222,480.1816 415.2946,487.0231 413.5003,490.096 410.1506,497.6801 408.3759,499.4011 402.5902,502.804 398.5015,508.4351 397.3354,511.835 397.5228,523.6243 397.31,526.5122 396.5736,529.4215"/>
    <polyline points="388.8749,525.6633 383.1345,527.1368 379.7684,528.7512 377.2619,531.0901 372.8271,536.3112 369.0823,538.994 364.4842,540.684 357.3895,542.7173 353.4111,544.8149 349.0006,548.0949 343.9792,552.4268 337.1728,556.0954 335.3813,557.378 333.0593,559.946 329.508,565.0042 325.8813,568.5202"/>
    <polyline points="318.7236,572.1545 315.5994,572.3937 312.2603,573.156 304.9784,576.1239 299.5816,577.6926 297.1646,579.4144"/>
    <polyline points="291.9494,581.2406 288.7439,580.5737 285.4514,581.2573 276.335,586.4655"/>
    <polyline points="281.9748,588.5428 286.23,584.5656 288.2201,583.1112 292.3631,581.0541 295.5434,579.8625 302.2558,578.5985 309.8397,579.426 312.6149,579.1792"/>
    <polyline points="315.2412,576.8347 318.2127,572.7216 320.8269,570.278 323.9116,568.8843 329.6391,567.6406 331.5498,566.3926 335.2532,561.4881 336.9318,559.9319 339.1145,559.2049 344.5684,559.3248 347.0882,558.9758 350.0842,557.2497 356.7297,550.8276 358.5932,549.5 359.6958,549.0438 362.352,548.6503 368.8078,549.0012 371.6754,548.6505 373.796,547.4315 375.4871,545.1486"/>
    <polyline points="378.3352,537.1862 374.5057,539.6387 367.316,542.1149 365.2217,543.2017 363.5274,544.7265 362.8811,545.7236 362.0873,548.6713"/>
    <polyline points="354.1701,544.3274 357.03,542.2875 363.6966,539.8116 365.6704,538.6544 366.4611,537.8599 367.9602,534.5832 369.4842,526.826 372.4627,520.7805 373.7795,519.0845 375.4127,517.6575 382.25,513.4338 385.9696,509.3937 388.1742,506.4452"/>
    <polyline points="397.6273,510.4952 394.2408,513.9126 392.9573,515.8302 390.5395,522.7316 389.453,524.8553 387.9878,526.6811 383.4604,530.8535"/>
    <polygon points="379.8729,533.5149 378.8358,535.7326 373.158,552.1056 371.1046,555.3078 368.3809,557.7629 361.8223,561.2532 352.5297,566.9995 348.7222,567.7968 345.7219,567.5432 339.5065,566.4113 336.9017,566.5531 334.828,567.5745 330.0308,573.361 327.0581,575.2743 323.6215,576.2344 317.2987,576.3332 315.0386,576.9063 314.0483,577.5258 312.3641,579.5368 308.8885,587.0264 307.1742,589.3973 306.1654,590.1831 301.7142,592.1649 295.9534,594.084 292.3305,594.6197 289.6673,593.918 286.8029,592.1891 281.0942,587.95 278.5314,586.8317 274.9807,586.4406 269.2839,586.8003 265.7546,585.9635 263.4638,585.7429 256.7596,586.5785 247.7619,587.0683 239.7987,589.8999 230.5275,591.0572 223.2092,594.0364 219.5896,594.4345 217.2993,593.7414 210.7921,589.981 203.8588,588.9712 201.6066,588.3529 199.4633,587.3105 196.4642,585.0408 194.3898,583.8977 192.0936,583.5418 185.7353,584.3864 183.4128,583.941 181.4843,582.3823 177.4804,576.6693 175.4861,575.5137 173.0314,575.4543 166.057,576.8647 163.4961,576.7828 161.2176,576.0733 158.0104,574.5648 155.6812,573.9099 151.7915,573.5823 144.8237,573.5759 140.8724,573.005 133.7761,570.3527 128.7038,568.9308 125.1393,567.4452 119.7942,564.095 116.1834,560.5745 114.0817,557.2598 109.6006,547.5438 107.4027,544.5608 106.3919,543.8464 103.8905,542.8659 95.9537,541.7602 93.1666,540.8579 92.0166,540.177 90.1462,538.4316 86.1582,533.4784 84.2548,531.7346 74.9138,525.8143 71.8525,523.169 70.4128,520.9889 69.1437,515.6375 68.2165,513.1746 64.2257,508.0013 63.2149,505.5981 63.0314,502.77 63.7037,496.6996 63.1997,494.1322 59.2845,488.9499 58.0124,486.7247 55.8747,479.3613 54.7218,477.0791 49.4847,470.7532 48.3258,468.4115 48.0277,465.8055 49.4266,457.4726 48.7785,455.0226 47.1133,452.8021 40.8816,447.5238 38.8621,445.2361 37.8376,442.7406 36.8801,436.2157 35.8083,432.3576 30.848,423.438 29.0661,419.4829 28.2699,416.7974 27.8714,414.0833 28.0623,405.9024 27.7356,403.1699 25.1588,393.4288 23.8021,386.3464 20.4891,377.4461 19.8169,373.022 19.9662,371.5964 20.9175,368.8561 24.1855,363.6845 25.4286,361.0578 26.3281,356.9241 27.7291,352.9151 30.0289,349.1669 33.2499,345.7379 34.8326,343.3248 37.1977,335.3766 41.3063,328.0814 42.4371,324.0878 42.6568,318.1589 43.3317,315.4088 45.0206,313.1254 49.6687,309.2468 51.2207,306.9558 51.7008,304.0971 51.3677,295.9409 51.994,293.0425 53.224,290.4866 56.3186,285.7595 62.3542,279.6497 65.0396,276.403 71.8063,263.8253 73.3772,261.4438 75.3059,259.3644 84.9018,250.9238 87.721,247.7621 90.0031,244.0155 92.938,236.6415 93.7872,235.4261 95.9104,233.4731 98.4447,232.0103 101.4364,231.1319 112.0492,230.9786 114.8068,230.0383 115.8857,229.1659 118.3578,225.433 120.2828,223.2934 122.7466,221.9438 128.3791,220.4115 130.7573,218.9803 132.6075,216.6479 135.876,211.0314 137.7696,208.5745 139.9977,206.6917 143.8242,204.7743 148.1711,203.9558 158.8926,203.8331 167.1564,202.0758 174.2236,201.3709 176.8193,200.4756 179.0561,198.4306 185.0727,188.9964 187.4889,186.9396 190.0354,185.268 195.461,183.0813 199.7096,182.1791 202.6528,182.1678 205.7456,183.099 211.9329,185.7145 214.8472,186.1855 218.9864,185.2277 227.1569,181.1734 231.3979,180.1835 234.2804,180.3971 240.0395,181.764 242.8881,182.1223 252.848,181.7326 262.7563,182.8088 271.3457,182.7367 276.9511,183.8361 281.054,185.2173 285.0477,187.049 292.7939,191.2472 297.6485,194.864 306.3595,204.2011 308.6276,205.9089 312.212,207.792 314.8191,208.388 317.7888,208.0146 326.3999,204.5372 329.602,204.0208 332.6207,204.0383 335.4914,204.4601 338.1982,205.284 340.665,206.6339 342.8899,208.4661 344.7951,210.8908 348.8031,220.8371 355.6151,235.1389 358.2716,238.1363 363.8748,241.3449 364.8446,242.2023 366.2912,244.5716 368.1133,250.5505 369.5691,252.7547 370.6039,253.4683 373.1934,254.2799 384.3665,255.1254 387.3598,255.7406 389.9526,256.8304 394.1686,260.0774 402.0126,267.2507 409.6078,271.2999 411.9759,272.8506 414.0386,274.6695 418.4172,279.8605 420.5697,281.6577 428.916,285.9294 432.4217,288.6418 441.1641,301.3948 443.6763,306.4255 446.6097,311.252 448.1976,315.1708 449.9815,322.0482 455.2094,330.5628 458.3079,338.4544 460.2828,342.2839 462.9024,345.9607 469.024,351.7817 470.7613,354.3598 471.2662,355.7431 471.5216,358.6808 470.5359,361.8622 465.3017,370.1137 463.3935,374.6761 463.203,378.9124 464.8181,385.7163 465.1144,388.4843 464.7391,394.086 463.1612,403.8227 462.8907,407.9459 462.9116,416.1858 462.198,418.9006 460.2525,421.5232 453.6439,427.7203 451.9543,430.1945 451.1904,432.744 450.9943,439.3297 450.4336,441.8979 444.7631,456.7016 437.9777,468.1466 437.3369,471.9591 437.9687,481.7654 436.5415,491.0721 435.2881,494.8366 432.5418,499.3609 429.8628,505.3747 428.203,507.469 425.9268,509.2057 418.1523,512.1514 415.4864,513.4965 413.4879,515.2192 411.2977,518.2952 409.4249,520.0616 403.9415,522.2963 401.578,523.618 400.6763,524.4749 397.8376,528.4742 396.8708,529.2712 395.6723,529.877 392.5798,530.4854 383.7652,530.7594 381.3996,531.7662"/>
    <polyline points="387.5885,525.9878 387.9623,517.8134 388.5051,515.3839 389.4973,513.313 391.3671,510.4971 392.9692,508.864 395.0391,507.5283 401.0054,504.7531"/>
    <polyline points="402.2347,503.1936 403.922,499.5602 408.333,495.3671 409.6102,493.4001 411.2312,483.871 412.1349,481.753 416.1528,474.6733 417.6988,472.7807 423.1202,468.4847 425.9192,465.6444 427.2781,463.5571 429.8261,458.0284 439.0948,446.3427 440.5114,444.069 441.3055,441.6636 441.7018,425.3406 440.7844,416.586 441.2715,414.1308 444.9507,405.4264 445.5425,402.8912 445.6623,400.3572 445.5072,399.0978 444.4747,396.6234 442.6304,394.2278 437.1076,388.5143 435.1185,385.0776 434.7105,381.4803 435.3466,372.7754 434.5696,366.6577"/>
    <polyline points="406.0661,370.0884 402.9979,366.1867 396.4674,360.6721 395.0721,359.0229 394.1392,357.2385 393.6902,355.2914 393.64,352.1257 394.9358,344.4039"/>
    <polyline points="403.7293,354.2002 404.0771,358.3024 405.1388,361.2332"/>
    <polyline points="422.7253,335.6508 421.1513,334.1097 419.8088,332.0687 417.4106,326.5644 413.9013,320.2687 412.9873,318.0388 412.1967,312.9688 412.4015,303.861"/>
    <polyline points="430.4319,286.8978 421.7206,282.5115 418.0067,280.1631 414.9659,277.3746 413.4272,275.1506 412.6439,273.3951"/>
    <polyline points="395.87,272.9133 390.4523,269.0956 384.9625,264.2107"/>
    <polyline points="379.2456,261.324 371.8502,259.7151 369.7067,258.4485 367.7194,256.4695"/>
    <polyline points="437.0111,295.5814 438.4261,301.297 440.2447,305.0555 444.6593,310.6349 447.4145,312.9526"/>
    <polyline points="466.294,349.1464 467.3183,352.2087 467.3972,355.1571 465.5902,361.422 465.159,364.4019 465.3312,365.8081 466.3992,368.3797"/>
    <polyline points="442.6519,394.2532 442.1029,396.7578 437.1831,404.3129 436.5147,406.7393 438.9026,417.7275 438.2689,423.8111 438.2791,428.7267 437.849,431.1421 435.897,434.5768 433.6674,436.6942 427.2422,441.6216 425.7732,443.7119 425.4478,444.8305 425.5644,447.2308 428.2688,456.37 428.8518,459.9107"/>
    <polyline points="416.8166,458.1965 410.7473,461.9676 408.8754,463.6523 407.4651,465.4674 400.6843,479.0635 398.6266,487.7098 397.8691,489.7779 395.6548,492.2947 390.7824,495.7117 388.7246,498.2175 388.1068,500.3632 387.9695,502.8467 388.5025,511.2122 388.4188,513.9175 387.9479,516.3783 387.0061,518.5087 383.4501,522.922 381.0174,525.3145 373.915,529.5048 372.2386,530.9887 370.6222,534.1028 369.3646,538.8387"/>
    <polyline points="336.4875,523.8981 333.8972,526.2469 329.9992,532.0892 328.1151,534.2188"/>
    <polyline points="330.7683,533.1904 333.4854,530.4416 335.0631,527.7925 336.5707,523.6196 338.7985,514.904 340.0888,512.3312 341.7279,510.1821 343.7713,508.4662 345.465,507.6439 355.121,505.4694 357.0173,504.6561 359.0506,503.2176"/>
    <polyline points="371.2369,490.9486 372.2701,487.9067 374.3838,485.862 376.4139,484.8429 383.6756,482.1967 386.5266,480.4749"/>
    <polyline points="343.8699,476.249 340.3879,478.5107 336.0124,482.6589 334.11,484.9383 330.4939,490.7271 328.3927,492.8684 323.1516,496.0027 315.3832,499.289 312.4236,501.3949 310.9294,503.0601 309.1814,505.7054 306.3456,512.0987"/>
    <polyline points="302.7531,558.3319 298.7944,558.8808 294.8722,559.8671 292.2711,561.6726 289.8352,564.6622"/>
    <polyline points="287.3481,592.5534 291.319,590.6586 293.6878,590.3332 301.2114,592.3732"/>
    <line x1="257.6726" x2="254.4309" y1="586.4794" y2="586.6596"/>
    <polyline points="139.1929,572.47 136.9376,570.0643 131.5758,560.8506 129.168,558.0957 125.9167,556.4387 115.7071,553.5431 113.3889,552.4566 111.1396,550.7148"/>
    <polyline points="108.0397,545.2289 107.0282,543.2211 105.4817,541.3409 100.1135,538.017 98.3119,536.3437 96.6214,532.9635 94.8451,526.5985 93.6024,524.521 90.7868,522.1273 85.9873,519.6109 82.6598,517.4413 76.7445,512.4334 73.1199,507.3467 68.148,497.2915 66.4778,495.339 60.2931,490.272"/>
    <polyline points="103.7116,469.0249 102.0933,463.9376 100.4851,461.4519 97.746,459.3361 88.7717,454.8841 85.526,452.6046 83.3928,449.9375 80.022,443.1896"/>
    <polyline points="113.9344,432.7518 113.4921,428.3199 112.3535,424.2549 110.3824,420.2261 106.1552,413.6115 105.0962,410.1406 105.54,406.6334 106.8116,403.1754 109.362,398.9977 113.9927,393.5052 115.5573,391.2068 117.2125,387.328 117.9623,383.3384 117.8687,381.6609 117.1477,378.9919 113.348,370.2024 111.4022,364.1365 109.6302,356.8652 109.267,351.8005 109.7438,349.9987 110.6311,348.3718 116.4922,342.0544 118.851,338.181 120.1144,334.7259 121.6911,327.0656 122.7572,324.4298 125.5089,320.6861 136.9743,311.0434 141.6346,307.9499 149.9172,303.6465 155.6931,299.5134 158.0975,296.8587 162.5673,289.3161 164.8675,286.2054 168.1976,282.878 172.4825,279.2118 177.8449,275.4191 186.2247,271.2895 195.0187,265.2987 202.0239,261.7783"/>
    <polyline points="202.5359,283.086 200.5271,288.4392 197.7083,300.0258 196.0067,303.3865 194.2423,304.7318 192.1501,305.4011 183.894,305.6827 180.7129,306.2451 177.1351,307.6949 174.6328,309.4228 172.5042,311.6528 167.94,317.9568 165.3575,320.6437 158.8334,325.6844 152.5541,331.1492 142.5896,337.0693 138.9233,340.2894 137.0552,342.85 135.6096,345.6677 133.4216,354.2514 132.5624,356.4215 131.2596,358.3925 129.0941,360.6213"/>
    <polyline points="114.9607,373.9609 115.7161,371.7595 115.777,368.2531 113.591,357.419 113.4145,353.5203 114.744,348.2317 118.0848,340.8469 119.0064,337.8354"/>
    <polyline points="122.5776,324.7924 125.1102,323.8128 132.8581,321.6648 134.6585,320.8246 136.8793,319.2235 138.7119,317.325 140.1041,315.0431 141.0067,312.2851 141.8692,307.8239"/>
    <polyline points="156.4615,327.7393 153.4234,331.874 149.4904,339.1637 145.2748,346.1014 143.3776,350.1038 141.0605,357.9386 140.4798,367.0298 139.7844,369.773 137.6237,372.7567 132.3451,377.1868 130.7211,379.0416 129.7695,381.0968 129.5867,384.1633"/>
    <polyline points="131.2125,391.938 136.4237,382.6518 140.7131,370.8498 141.8535,368.3138 143.0343,366.5501 151.6671,358.6488 153.1239,356.4304 156.3627,349.8695 159.1333,346.1327 161.8013,343.1649 165.3347,340.0956 170.2136,336.5915 173.5891,334.485 176.6461,333.0704 180.6634,331.9166 190.0594,330.0935 211.4882,324.6296 214.4638,324.5651 221.6954,325.6032 224.3903,325.3072 226.8305,323.918 232.6711,318.7517 234.8454,317.8059 237.111,317.5283 240.5525,317.8523 246.7506,319.4717 253.8823,320.7625 256.512,321.8728 260.9739,324.6655 262.5012,325.1787 265.248,325.1642 270.6453,324.0497 273.4615,324.3532 274.9546,325.1274 276.2926,326.2795 280.9502,331.854 283.3458,332.9917 286.8425,333.2715 289.4738,333.076 301.2496,329.9071 303.6926,329.6885 305.788,330.0137 308.416,331.7257 313.3461,338.2845 320.0143,343.9073 326.1342,350.2287 327.5127,352.3284 328.8162,355.2142 329.8673,358.932 330.4071,362.1475 330.6552,367.435 329.946,377.8137 330.4526,380.637 332.6614,385.9174 333.2366,388.127 333.3574,392.7378 332.5219,402.4128 332.8157,404.6177 334.1278,409.6342 334.2575,412.4577 333.8857,414.1285 333.0963,415.7528 328.0646,421.1688 326.6384,423.5995 326.6895,426.2998 329.4125,436.6957 329.5944,441.6095 328.5418,445.5441 325.6899,450.5719 324.3246,453.7714 323.1636,457.8259 322.058,463.4415"/>
    <polyline points="361.8073,392.4999 360.356,396.2641 355.7902,414.9444 354.2616,417.6213 349.1667,424.5144 347.0857,428.8426 341.5319,438.7817 341.139,441.3518 342.1533,447.2987 342.2128,450.2066 341.6768,452.1666 340.1501,454.4064 338.4537,455.7901 336.3478,456.9174 326.187,460.4697 321.4841,463.8332 319.1697,465.07 315.7479,466.0849 309.1597,467.0924 306.4086,468.2516 305.6673,469.0457 304.9801,470.6813 304.019,477.1222 303.1179,479.6456 301.2594,482.004 298.8517,483.6754 295.8972,484.5247 288.1474,483.8121 284.6885,484.3193 281.2906,486.0117 276.2102,490.9458 274.3043,492.2592 269.5455,494.0042 266.208,494.5882 263.2642,494.2532 260.8333,493.3526 258.3483,491.7037 253.0517,487.2738 251.4601,486.3409 249.9425,485.9051 248.4717,486.0105 247.0159,486.6634 241.93,490.7019 239.7782,491.8246 230.9202,493.757 226.9322,494.1609 224.306,493.2432 219.0061,488.1107 217.6025,487.3063 216.0756,486.8766 202.7043,485.0372 199.3694,485.2704 192.5073,486.4367 189.5875,486.4712 185.6859,485.6258 182.8468,484.2587 180.847,481.8499 178.8646,475.1038 177.5631,473.0711 173.8804,470.8379 162.9455,466.2251 160.553,464.7947 159.2117,463.3817 158.3591,460.8987 158.0095,453.881 157.3719,451.4422 156.4251,449.8548 153.3497,446.4862 151.8965,444.3783 150.9953,442.0384 149.9004,436.4786 149.1663,434.7452 144.9222,428.6226 142.2949,422.5299 137.7942,416.3652 136.3331,413.7428 134.4483,407.5993 131.3207,394.1749"/>
    <line x1="106.6726" x2="105.374" y1="403.4861" y2="411.6026"/>
    <polyline points="112.165,423.7966 113.6563,425.77 114.3277,427.3514 115.0309,433.6793"/>
    <polyline points="116.4936,443.6875 118.748,449.3404 119.3281,453.5643 118.5719,461.1647 116.4419,466.9185"/>
    <polyline points="116.8285,466.0758 118.903,471.6012 122.1942,477.9931"/>
    <polyline points="138.5676,504.4183 148.7356,507.0948 154.0963,508.9134 157.1366,510.6064 161.1602,514.1294"/>
    <polyline points="51.5942,411.2486 52.8971,407.3429 57.3378,399.103 58.7334,395.6493 59.2282,392.163 58.936,386.2375 59.102,382.6995 59.9464,378.064 61.3498,373.5382 62.821,370.2494 64.1273,368.1453 69.7386,362.399 71.4621,359.3405 71.8903,357.1078 71.9265,354.7486 70.8554,345.9201 71.4377,342.4177 72.4968,340.3308 74.006,338.4333 80.2665,332.385 82.5011,328.4116 83.1483,324.9127 82.0838,315.1002 82.29,312.4896 82.6863,311.3467 84.0217,309.3828 89.6512,304.5902 90.9164,302.6162 92.8628,298.2387 95.0583,295.4683 96.9844,293.9807 102.3091,290.767 107.6645,286.22 109.5153,283.2229 111.6446,276.251"/>
    <polyline points="111.7745,312.4544 106.5735,318.3618 103.8615,320.1475"/>
    <polyline points="109.0631,315.5822 104.6812,323.2659 102.4679,329.69"/>
    <polyline points="101.8415,332.6047 101.3655,337.6639 101.5388,343.1721"/>
    <polyline points="36.2069,338.535 36.1269,340.8402 35.5007,343.5306 31.5845,351.0311 30.2142,354.9788 29.9303,357.7659 30.8747,366.4245 30.6454,369.1669 29.8025,371.7995 26.5517,378.2709 25.7349,380.96 25.7182,386.5337 27.5978,397.6991 27.3577,401.5181"/>
    <polyline points="51.3592,296.1771 53.1406,293.7263 53.5727,292.3485 53.7552,289.6085"/>
    <polyline points="91.1847,240.805 96.8582,241.0675 100.3074,240.7715 103.3479,240.0693 108.615,237.8173 111.97,235.4379 115.866,231.4894 122.1928,222.1901"/>
    <polyline points="133.4295,215.2868 139.1558,214.0976 142.9504,212.3691 146.2021,209.5653 150.632,203.9194"/>
    <polyline points="167.9895,233.04 171.1867,233.0899 176.7776,231.0138 180.3044,230.2519 188.917,229.9214 190.9866,228.6525 195.515,222.7751 197.5616,221.0347 205.6945,218.4667 211.0362,215.9081"/>
    <polyline points="209.4176,216.791 212.97,217.7259 215.4524,217.9096 219.0609,217.5249 223.5432,216.4723"/>
    <polyline points="206.479,183.4167 203.0466,184.2843 195.9206,185.1817 185.7985,188.3223"/>
    <polyline points="198.155,298.5115 204.8691,298.0744 208.465,297.2493 211.1285,295.9313 216.9254,291.7242 219.7202,290.4151 231.7192,289.1048 236.9459,287.8274"/>
    <polyline points="185.9095,305.5921 182.4258,310.337 179.7485,312.8707 177.258,314.368 170.3252,317.3463 166.7729,319.289"/>
    <polyline points="412.6554,417.7587 411.2441,422.6518 410.859,426.8418 411.1247,430.0607 412.3903,436.926"/>
    <polyline points="418.5003,425.9996 418.5341,434.3924 418.8973,436.6944 419.8893,439.1271 423.2979,445.5637 424.0107,447.8467"/>
  </g>
</svg>
