<?xml version="1.0" encoding="utf-8" ?>
<svg xmlns="http://www.w3.org/2000/svg" xmlns:cc="http://creativecommons.org/ns" xmlns:dc="http://purl.org/dc/elements/1.1/" xmlns:ev="http://www.w3.org/2001/xml-events" xmlns:inkscape="http://www.inkscape.org/namespaces/inkscape" xmlns:rdf="http://www.w3.org/1999/02/22-rdf-syntax-ns" xmlns:sodipodi="http://sodipodi.sourceforge.net/DTD/sodipodi-0.dtd" xmlns:xlink="http://www.w3.org/1999/xlink" baseProfile="tiny" height="20.5cm" version="1.2" viewBox="0 0 491.33858267716533 774.8031496062991" width="13.0cm">
  <metadata>
    <rdf:RDF>
      <cc:Work>
        <dc:format>image/svg+xml</dc:format>
        <dc:source>Vsketch with params {'__seed__': 568247716}</dc:source>
        <dc:date>2023-03-17T16:49:34.510646</dc:date>
      </cc:Work>
    </rdf:RDF>
  </metadata>
  <defs/>
  <g fill="none" id="layer1" inkscape:groupmode="layer" inkscape:label="1" stroke="#0000ff" style="display:inline">
    <line x1="232.8947" x2="228.7035" y1="432.0451" y2="430.4227"/>
    <polyline points="213.0864,416.2931 211.2394,411.5763 209.5588,405.8145 208.3496,400.0793 207.8619,395.6773 208.0443,391.7749 208.8158,387.7285 210.1665,383.601 211.9588,379.8022 213.8217,376.8725 215.93,374.3327 218.0755,372.3483 220.6407,370.575 236.6094,363.1134 240.3248,361.7607 243.6564,360.9541"/>
    <polyline points="226.1417,353.8821 222.6774,355.5275 208.8305,358.7101 206.1762,359.727 203.8754,361.0159"/>
    <polyline points="223.2093,355.3591 216.5194,363.189 207.7342,372.0486 204.9082,375.973 202.9584,379.5859 201.9999,382.3191 201.4184,385.3993 201.0353,395.4411 201.4735,399.2915 202.7997,403.0401"/>
    <polyline points="203.6009,404.591 206.1473,408.4789 210.3786,413.9187 213.7935,416.7977 219.0976,419.7487 220.8784,421.069 222.4388,422.8072 225.8638,427.6505 227.6715,429.5957 230.8108,431.5494 234.5604,432.131 237.6806,431.6372 240.8562,430.3652 249.9426,425.0287 253.0996,422.7279 256.8194,418.8789 261.5836,412.3439 267.0435,405.9597 269.3529,402.6213"/>
    <polygon points="225.9173,353.8257 229.2779,355.0621 236.5243,358.9475 240.7193,359.9012 246.4249,361.8606 252.1349,362.8818 254.0494,363.7258 255.7239,365.0084 262.5526,374.3968 264.2107,375.7903 269.089,378.672 270.9786,381.0861 271.5239,382.8795 271.628,385.0493 270.0137,396.6959 269.4369,400.3502 269.3806,403.0321 271.0195,410.0627 271.3949,413.2873 271.1029,416.4276 270.3709,419.5082 269.499,421.3861 268.2585,423.0102 262.014,428.2107 257.7683,434.5929 256.0492,436.666 253.9906,438.242 251.3307,439.1619 240.2066,439.6788 237.2273,440.3637 228.9413,443.2215 226.1186,443.5288 223.6833,443.2287 219.1684,441.4013 211.6302,436.9482 208.3127,434.3756 206.563,431.8376 205.8126,429.6487 205.3094,426.5898 203.9255,405.6094 202.4657,402.5555 196.6682,396.3126 194.5141,392.7835 194.0127,390.8071 193.3211,383.7564 193.6427,378.915 194.5684,376.4024 197.2735,372.1398 201.7383,363.8811 203.9632,360.917 206.4554,358.6232 211.1061,355.6216 215.7038,353.8704 220.3427,353.3279"/>
    <polyline points="183.4501,331.7419 187.3466,330.0408 191.6946,326.1607 193.9664,324.8139 197.0985,323.9351 203.7029,323.3039 206.5859,322.3073 209.5293,320.0326 214.7594,313.8916 217.4864,311.3199 220.5124,309.5476 223.252,309.0078 226.6958,309.5716 233.9714,312.1632 242.9835,312.7045 247.6942,313.4171 260.2975,317.1416 278.2695,320.8486 281.4436,321.8693 283.8435,323.1855 285.9329,324.9787 287.9655,327.3672"/>
    <line x1="286.9217" x2="281.8952" y1="326.068" y2="322.0662"/>
    <polyline points="269.3081,319.0397 276.1424,325.8552 283.5738,332.0213 285.1607,334.063 286.5491,337.0522 287.4791,340.3949 289.8834,352.5698 296.6691,372.7293 297.4825,375.8555 299.3294,393.1808 299.2387,397.8648 298.5466,402.1032 297.062,406.1716 292.8824,413.6235 290.9964,419.9602 289.88,422.2815 287.2031,425.4053 280.0671,431.2311 278.6882,433.2413 275.0164,440.1021 271.2846,444.196 269.226,445.7455 266.7983,446.7 264.4962,447.047 259.0896,447.2192 256.3927,447.9072 248.7104,453.0944 240.9569,456.3202 234.7983,460.2019 232.3507,461.4226"/>
    <polyline points="225.0495,461.1928 221.3153,458.4686 213.4087,449.7628 207.03,444.1629 205.585,441.9083 201.8976,433.7464 199.9189,431.1897 197.9883,429.8902 195.9346,429.032 187.0608,426.9277"/>
    <polyline points="181.5822,423.3839 179.0708,418.3038 175.0546,408.3785 174.6526,406.4259 175.268,403.1562 178.8712,396.5122 179.7007,393.9771 179.5241,390.3114 176.6177,381.7089 176.1357,379.1169 176.1029,377.0044 176.505,373.2617 177.3755,370.0627 178.7167,367.0452 180.8762,363.5278 183.1877,360.6188 186.1396,357.729 197.1736,349.6363 200.6441,346.4817 203.5666,342.2998 207.4966,333.6985 209.4395,330.4046 212.4986,326.8624 216.4716,323.8133 223.5661,320.2366 228.7649,318.3721 232.7229,318.1793 241.5545,319.3935 245.4613,319.4754 249.0169,318.8139 257.2325,316.3321"/>
    <polyline points="252.5221,303.2631 262.608,307.0407 270.1718,308.5332 273.2194,310.4491 278.2981,316.0054 282.3898,319.1553 284.8012,321.6729 286.4566,324.2064 289.3808,330.2891 291.3385,332.9042 298.5848,338.324 302.6756,343.9056 304.1962,345.4034 310.6195,348.8 312.9682,350.5936 314.5278,352.9121 316.2342,357.6714 317.2783,359.629 319.0327,361.2856 325.4985,365.532 327.0961,367.4869 327.6704,369.1744 327.6889,371.0221 327.2576,372.9694 324.5454,379.4657 323.8435,381.8559 323.9188,386.2949 323.6232,388.5274 320.7298,395.6464 320.226,398.2609 320.5581,400.8889 322.4976,406.3831 323.0233,409.1843 321.8472,417.8617 321.7204,421.2494 322.1329,426.0719 324.3653,435.7244 324.3747,438.3901 323.742,440.7937 322.8199,442.377 321.5223,443.7476 314.283,449.0835 309.7904,454.4816 305.9153,458.0525 302.5666,460.4449 296.37,463.817 292.485,467.0606 290.7897,469.502 287.9032,475.5166 286.1875,478.3847 284.1637,480.9036 281.499,483.2892"/>
    <polyline points="275.3597,486.1272 270.6774,487.9637 262.9092,491.986 259.2186,493.2123"/>
    <polyline points="261.0925,493.9425 256.0204,492.3019 247.3728,491.9934 243.711,491.4314 238.3186,489.604 230.2581,487.862 222.6721,484.4666 216.3135,482.2258 214.3469,481.0158 213.0189,479.6833 211.4618,477.4129 207.8517,470.6422 202.3909,463.8125 199.823,461.6011 197.2383,460.3998 194.6781,459.9653 185.6578,461.2694 183.5684,461.3429 181.7246,461.0514 179.7532,460.0406 175.7075,456.4714 169.7556,453.732 167.9766,452.3082 166.8393,449.6674 166.8407,443.0351 166.3536,440.8398 165.5179,439.5026 162.7051,436.8393 161.3863,435.1186 158.7603,428.6853 156.4161,424.4171 155.9912,421.7351 156.4924,414.5097 156.1553,412.4548 154.9145,410.5551 151.5286,406.7207 150.403,404.0916 150.4852,402.4372 151.1065,400.7646 152.5716,398.5613 156.4293,393.8975 157.3416,391.4081 155.921,378.2187 152.9893,370.1506 152.2656,366.9532 152.8656,359.8029 153.6004,356.9447 155.3573,354.5721 160.1769,351.3591 161.7884,349.7114 162.4805,347.489 162.4524,341.1596 163.0566,339.4048 163.8097,338.4965 165.4551,337.5602 167.5695,337.0585 177.9896,336.1647 180.1614,335.3686 181.8533,334.0988 182.8512,332.8375 183.8738,330.7462 185.911,323.4333 187.1889,320.2502 188.6273,318.2069 190.9384,316.4022 194.8739,315.1257 202.1261,314.4527 211.6544,312.9672 214.7594,311.7877 221.4598,308.5072 229.7347,306.1733 238.9265,302.4327 242.5084,302.0766 249.5496,303.3366 252.5625,303.257 255.1423,302.4341 262.1805,299.2431 266.4535,298.1766 269.7855,298.3893 282.9581,302.4738 289.77,305.1445 292.6561,306.7854 295.5319,309.6509 300.0757,316.6533 304.9136,322.7293 306.5445,325.5712 308.6563,330.4235 310.0755,332.4386 312.7819,334.1605 320.6884,336.826 324.2259,338.339 327.2979,340.299 329.5455,342.5058"/>
    <polyline points="330.9769,350.8236 330.0515,355.8172 330.2346,359.1803 331.8751,361.9347 335.3755,365.2774"/>
    <polyline points="307.3506,347.2173 310.3218,353.4559 315.3179,367.4618 316.3121,370.9946 316.6247,374.1646 316.3489,376.9066 315.3326,380.2626 309.9582,390.2812 308.77,393.5472 308.4215,399.3813 308.3778,409.3448 307.4817,414.7354 303.8795,427.5534 302.5763,430.5158 300.8748,433.27 296.2422,439.0151 290.3391,444.7287 283.7419,452.2251 281.5852,453.9009 279.3795,454.7339 270.2069,455.8274 263.1606,457.7092 255.0117,459.4448 245.2393,460.314 235.9627,461.9151 233.9133,461.8287 229.5283,460.54 227.9166,460.3792 226.2185,460.696 222.4664,462.4854 220.0949,463.1859 217.3983,463.1587 214.9593,462.2014 210.6336,459.0447 208.0897,456.4822 206.5321,454.0746 203.8989,448.3539 202.7313,446.6422 197.495,442.7882 193.0767,437.5042 188.1976,434.0952 187.2596,431.908 187.0934,427.0652 186.2445,425.426 183.9698,424.1104 176.1068,421.6196 174.2739,420.536 172.9119,419.2168 169.2989,412.5859 164.1725,406.1766 162.5943,403.5275 161.4506,400.2763 159.8224,393.0387 156.9569,386.5079"/>
    <polyline points="156.0472,378.9376 157.195,375.3004 159.5372,371.1329 163.4984,365.5486 170.9705,356.5734 173.1389,353.3333 174.0209,350.358 174.5071,340.907 175.5229,336.5346"/>
    <polyline points="134.497,285.5767 132.4245,289.6586 130.9713,293.5012 125.3142,311.397 124.1401,318.1244 123.2962,320.6856 121.4587,323.6017 116.8236,328.898 114.1009,333.3626 108.5325,341.3928 106.6192,345.3752 106.378,349.0457 107.8496,355.9376 107.9712,358.6424 104.0564,377.7139 103.7415,381.9365 103.9394,387.8763 103.374,389.5296 100.1213,395.4018 99.7483,397.9936 100.2496,399.7132 101.2392,401.4043 107.7821,408.5401 109.2095,410.8511 109.6096,412.435 109.3767,414.92 105.8353,423.0869 105.3367,425.7874 105.5435,427.4846 107.0095,429.7463 112.9211,434.1445 114.2366,435.4432 115.1129,436.8634 116.883,443.9857 120.586,453.0297 122.7945,463.0436 124.3069,466.0213 128.6939,472.1055 131.0198,477.6488 132.132,482.1576 132.2524,492.4202 133.28,496.3871 135.2343,499.5632 138.2681,502.9908 139.8599,503.9562 143.8369,505.5018"/>
    <polyline points="158.5156,516.8761 169.7035,515.4888 172.6445,515.4795 175.285,515.9324 176.7817,516.7188 178.0564,517.9616 182.3109,525.276 184.293,527.4093 185.8362,528.3348 193.5996,530.3211 200.8808,533.8927 204.4494,534.3217 209.9971,533.7957 212.6562,533.9106 216.0489,534.921 219.9393,537.1083"/>
    <polyline points="226.4602,539.97 229.8608,539.8592 237.961,537.6746 240.6233,537.7441 243.7547,538.6844"/>
    <polyline points="271.4635,538.4451 280.2088,532.2403 283.3793,530.4633 285.1287,530.0693 287.0438,530.1041 293.1447,531.6519"/>
    <polyline points="290.7547,533.262 297.3696,529.039 303.6684,525.9815"/>
    <polyline points="311.9748,521.7406 322.2484,512.318 326.6118,509.1081 330.0929,507.1855"/>
    <polyline points="330.7271,495.079 328.5913,496.5634 326.222,497.7354 314.3863,501.6175 308.2099,504.1469 299.5352,506.8852 296.6228,508.1889 294.0809,510.2086 291.3085,513.7249 288.8312,516.1679 278.503,524.0631 270.977,532.1459 268.6429,533.7519 266.9633,534.3527 263.4035,534.5925 254.2927,532.8221 249.1022,532.875 247.359,532.6166 244.7324,531.6863 238.7496,528.7541 236.2633,528.0487 234.6131,527.9308 231.2882,528.358 223.5772,530.4577 216.6851,530.7824 206.504,533.3007 203.7576,533.4067 198.2698,532.7968"/>
    <polyline points="228.8582,506.499 232.3343,505.433 236.3094,505.5104"/>
    <polyline points="290.7908,484.2913 296.2551,476.9406 297.7105,475.7509 300.7191,474.107"/>
    <polyline points="338.3381,486.5774 341.2433,482.8098 346.3199,477.1654"/>
    <polyline points="350.279,461.7122 348.629,454.3744 348.6148,451.7284 349.1276,449.38 351.8104,442.9209 353.224,436.0228 353.7719,434.5817 355.1166,432.5756 360.7327,426.7721 361.7823,424.5507 362.6869,420.64 363.1255,415.8352 362.6231,410.9452 361.6577,407.6747 358.437,400.5068 358.0819,397.4556 359.4459,392.8534 366.8636,376.1536 368.4096,371.659 368.7238,369.0192 368.5743,367.3214 366.8008,361.6676 365.1005,357.7759 363.2788,354.8398 360.5323,351.4022 356.1204,346.984 352.4969,341.5365 350.8842,339.6498 349.4779,338.5777 346.8209,337.3068 336.3042,334.6554 332.907,333.3799 330.3601,331.6407 324.9015,325.9594 323.2321,323.6611 322.3585,321.5938 321.6607,318.3463 320.8977,310.8292 320.138,308.3335 318.9809,306.2049 313.6965,300.5388 309.0708,296.3886 303.8897,290.0491 301.3506,288.1285 296.5595,285.322 294.1106,283.1238 292.099,279.8906 288.6607,271.158 286.5266,267.1691 285.26,265.5577 283.1254,263.6656 278.3045,261.0247"/>
    <polyline points="289.6553,273.6516 286.813,271.1922 283.9276,269.2009 281.6116,268.0598 278.3349,267.0705 274.9168,266.5782 271.4012,266.5528 263.3761,267.8344 260.8372,267.9285 258.4079,267.4801 252.0219,265.337 249.5529,264.9531 247.8774,265.0257 245.3303,265.8433 238.6917,269.8972 235.5172,271.0038 225.1462,270.4117 221.9852,270.8547 218.1251,271.9774 216.531,272.0676 207.8873,269.9496 206.1875,269.8897 204.5732,270.2072 203.0674,270.9324 201.0155,272.6769 195.7976,279.8294 193.4353,282.3812 183.4206,289.8405 180.6167,292.5596 177.5343,297.5538 173.4438,306.8651 169.2988,314.8793 167.8445,317.2816 166.4974,318.7589 164.8755,319.9347 162.9183,320.7821 155.634,322.2789 152.7141,323.4265 150.9627,324.7151 148.6011,327.3549 146.897,328.7312 139.3716,332.2901 136.2226,334.6816 134.6761,337.233 134.1554,339.5029 134.3014,342.9259 135.6686,349.209 135.8914,351.6241 134.1013,361.3264 133.5091,366.8649 134.1067,371.2091 136.7506,379.781 136.8385,383.6713 133.8102,395.7196 127.1432,410.2737 126.4297,412.4905 126.1307,414.6793 126.4005,416.7896 127.5783,420.1614 132.259,430.4962 133.1913,439.1001 133.7456,441.1702 134.7336,443.0571 136.3985,444.6172 138.7986,445.7759 152.0198,449.0178 155.5172,450.4827 157.7455,451.933 159.9394,454.097 164.5084,459.7485 165.6139,462.0185 167.4155,467.128 169.0671,469.9317 170.7987,471.7741 175.1558,475.4122 178.6163,479.2497 180.156,480.3837 181.9317,481.1622 188.3763,482.6716 197.6403,487.839 201.1051,491.0208 205.2061,496.9584 207.7716,500.0277 210.0523,502.0052 212.5908,503.1712 214.6408,503.4454 222.2746,503.3354 224.8973,504.2397 230.1714,507.0587 232.9453,507.3166 235.0517,506.4747 237.1261,504.7232 243.4163,496.3754 245.7789,494.5422 248.8349,494.0889 255.8252,494.5648 259.5459,493.9779 266.0084,493.7115 267.8091,493.0748 270.0105,491.6573 276.1932,485.3327 278.7968,483.7218 281.9956,483.3099 289.0918,484.4856 290.5213,484.3696 291.7517,483.9044 293.1826,482.5467 296.5329,477.3186 298.4152,475.6389 302.5757,472.7768 303.8081,471.3167 306.1984,465.7067 307.8903,458.2382 309.0906,456.1733 310.9654,454.6643 316.9141,452.3519 319.6217,450.4723 322.4573,446.4009 325.0578,439.3978 326.7559,436.1222 328.7572,434.2859 334.7258,430.4323 336.633,428.3175 337.4389,426.5052 337.814,424.5635 337.5971,417.8179 338.2886,414.6674 339.8957,412.3018 345.1982,406.906 346.4429,404.2592 346.243,400.8092 343.5186,394.023 342.4525,388.7443 339.3812,382.4797 338.527,379.9928 335.5329,367.454 335.2905,361.3774 334.8295,358.7451 333.8759,356.2903 330.8126,350.4643 329.7666,347.3044 329.5209,342.8682 330.7099,334.8349 330.7666,331.9871"/>
    <line x1="298.5773" x2="297.4769" y1="338.3171" y2="337.3697"/>
    <polyline points="367.5759,334.7237 367.1317,340.448 368.2653,345.7351 368.887,352.0556 369.6196,355.4886 370.5775,357.9332 372.314,361.0862 379.2753,370.5086 380.32,373.097 380.574,374.9027 380.3373,377.6925 378.9252,384.1928 378.629,391.3599 377.2604,401.0989 377.3895,409.952 376.1255,416.0291 375.503,423.9894 374.5371,426.4995 372.7341,428.7954 370.197,430.8547 363.3863,435.0939 360.9789,436.9259 354.6962,444.0857 352.8469,446.7554 351.5343,450.5139 351.3829,457.6334 350.919,460.1696 349.8821,462.4076 347.3401,465.6517 346.402,467.9655 346.3856,476.059 345.7619,479.857 344.527,482.1704 342.7064,484.0219 334.9018,488.4926 332.8996,490.0708 331.8733,491.4221 331.1591,493.1021 330.5812,496.1975 330.0654,507.6079 329.1603,513.8206 327.8776,516.7838 326.5669,518.1955 325.3432,518.9468"/>
    <line x1="320.8103" x2="317.6772" y1="520.2122" y2="520.9232"/>
    <polyline points="346.395,559.6978 349.5718,555.7084 350.9313,553.4122 352.5525,549.4965 355.8435,538.4273 357.5612,535.0891 358.9386,533.1684 360.8516,531.8529 362.0434,531.4448 369.0436,530.3213 371.5879,529.5178 377.0624,526.4971 379.5402,525.504 390.0165,523.2154 392.6816,522.161 394.9407,520.7421 396.7719,518.9665 398.2111,516.8865 399.3151,514.5655 401.8042,507.132 403.7254,503.9227 407.1894,500.2014 413.6593,495.2184 416.1678,492.9214"/>
    <polyline points="418.6517,485.0965 417.544,476.1338 417.7656,472.198 419.2203,468.8043 423.0794,463.6547 424.1776,461.4062 424.9273,457.7263 425.6374,448.9117 428.9775,435.8038 430.6747,431.1074 435.0323,424.2324 436.1005,420.5668 435.7124,416.7306 432.8558,406.544 432.1697,399.1474 430.5858,389.3983 427.8836,381.0781 427.1001,377.5309 426.9855,373.9195 427.7734,365.2672 426.5351,358.4848"/>
    <polyline points="421.3664,346.2229 413.2986,341.8863 411.1836,340.136 409.9944,338.1106 407.5198,331.6907 406.135,329.7741 402.5047,326.3543 401.3069,324.4139 400.803,322.166 400.6191,317.2286 399.9996,314.9831 399.3806,314.0133 396.4267,311.6991 391.1307,309.4847 388.8629,308.2328 386.6623,305.6963 381.945,292.8482 378.1122,285.8917 377.3541,282.1443 376.8795,275.0106 376.0558,272.6225 375.3866,271.6491 373.6102,270.1008 370.4524,268.27 368.6207,266.8087 367.299,264.8401 364.932,258.8269 363.3869,257.0116 361.222,255.8887 356.1917,254.5482 354.1351,253.3818 353.3137,252.5476 350.2685,246.9234 348.1855,243.7664 340.3389,233.9645 337.5578,231.5427 334.3288,229.8441 328.4636,227.9328 326.2862,226.8899 324.3288,225.4186 320.847,221.4921 318.8654,219.9593 316.5425,219.1564 310.0414,218.9025 307.7385,218.1554 305.7859,216.4975 302.3251,211.7202 300.3383,209.8942 299.2117,209.3517 296.7691,208.8439 290.2735,209.0495 287.8579,208.5879 285.6416,207.3644 279.2877,201.8537 275.7871,200.1616 273.2902,199.812 263.1054,200.0568 259.2943,200.4653 255.4327,201.7546 247.8259,205.5515 245.3898,206.1611 228.5705,205.4745 223.0684,206.5269"/>
    <polyline points="208.0825,234.1569 215.5681,235.0935 224.756,234.259 229.8894,234.3786 233.9879,234.8787 236.0314,235.8406 238.0476,237.3529 244.74,244.0984 247.482,246.2712 250.2306,247.5017 256.6392,249.3222 265.9125,255.3015 267.6407,255.8962 270.3579,256.2127 279.0105,255.7482 282.8444,255.91 290.2285,257.4293 293.7828,258.6393 296.9545,260.7494 300.9388,265.3714 303.0637,267.2675 304.6881,268.102 317.1124,272.3819 320.4164,274.1311 323.1815,276.6685 327.4025,281.8124 329.5674,283.5164 331.2442,284.3747 334.1189,285.2786 337.4313,285.7654 344.5024,285.1902 348.438,285.379 350.5389,286.0929 354.7541,288.9804 356.6679,289.9584 363.8375,292.0374"/>
    <polyline points="382.3709,308.128 385.9703,313.6415 389.8118,323.6698 392.3491,337.4841 392.9141,346.0784 394.4735,352.0536 397.0837,358.8255 397.4692,361.9123 397.2572,364.0598 396.3903,367.3518 391.9059,380.1016 389.6424,383.2466 383.296,389.3436 381.6649,392.1544 381.8502,394.8775 385.6024,402.2952 386.1992,405.1336 385.7276,407.9199 382.6494,414.1488 381.8979,416.8329 382.2171,420.6079 384.398,428.641 384.0448,432.4523 382.8945,435.0961 378.6996,440.7309 377.8078,442.3998 375.2653,449.3838 373.6069,455.7491 372.7282,463.6492 372.0629,466.5148 371.2524,468.2463 368.0172,472.9922 365.8188,480.6489 365.0316,482.4462 363.899,484.0159 361.6779,485.9933 353.4903,490.5163 351.1041,492.1922 347.1337,496.1586 343.5333,500.4567 337.7829,505.2393 335.6333,508.4288 332.9823,515.5831 330.9082,517.6075 329.0269,518.3076 324.8369,519.0368 319.0942,520.6392 309.2143,522.1716 306.5171,522.9281 304.4211,524.7803 301.2148,530.7316 299.1368,532.932 296.3269,533.5449 291.1683,533.2383 289.2714,533.4445 287.5315,534.0444 282.6183,536.7829 279.9464,537.5446 268.8106,538.5851 261.9261,536.3804 259.1503,535.9536 246.805,537.1231 244.2043,538.3108 237.0627,545.0648 234.2415,546.1076 232.3726,545.7475 230.5499,544.5378 224.5885,538.1013 222.8911,537.1478 221.1285,536.93 218.3477,537.6252 210.3182,541.6824 202.1076,544.1341 196.9675,544.8715 193.992,544.7235 192.0941,544.2955 188.55,542.6491 181.9614,538.2469 172.2255,534.2585 167.6153,530.6799 165.5819,528.4556 163.7768,525.9049 159.4629,518.7635 155.9331,511.1618 153.6417,508.3285 151.3616,506.9725 148.7475,506.009 145.6588,505.5568 139.847,505.3355 136.9499,504.4058 135.6471,503.0889 133.6763,497.2653 132.1073,495.0026 129.4527,493.737 123.8997,492.456 122.1666,491.4645 121.0306,489.9712 118.6277,482.4582 115.2418,475.877 112.9859,468.7273 107.7295,461.2572 106.4032,459.8755 103.7294,458.0865 90.1436,451.7733"/>
    <polyline points="84.0734,442.8981 83.529,440.8926 82.7588,439.6955"/>
    <line x1="82.953" x2="81.9271" y1="440.5591" y2="436.6096"/>
    <polyline points="78.8907,428.3389 77.3732,424.6354 73.6058,418.9666 72.6968,416.985 72.1541,413.8955 72.3704,410.1414"/>
    <polyline points="73.849,407.795 75.8775,411.4578 76.7163,414.442 76.4283,417.553 74.9952,421.0158"/>
    <polyline points="64.1009,411.3819 65.0221,414.6383 65.0159,417.9318 64.3816,421.3303 62.0594,428.6511"/>
    <polyline points="59.8623,402.572 60.061,396.1386 61.5835,387.2933 63.3425,384.0921 67.8458,379.0476 69.0252,377.0279 69.3097,375.9894 69.1366,372.739 67.7242,367.0707 67.3187,363.6834 67.8277,360.4515 69.1874,356.2947 71.4873,351.2882 73.8184,347.4737 76.7071,345.0195 83.3653,340.6697 85.3271,338.1136 85.794,336.0939 85.6034,333.7929 83.7214,327.2758 83.3234,324.7499 83.8781,321.4505 87.429,314.8207 89.2546,308.4077 90.1444,306.4099 92.1116,303.8016 96.8527,299.177 97.9541,297.3208 98.9367,294.029 100.1752,286.6891 101.0749,283.1209 102.2887,279.7452 104.2962,275.4956 107.3547,270.5798 113.2744,263.5732 117.1325,257.2817"/>
    <polyline points="126.3382,244.5708 130.5027,240.2855 132.4473,238.9075 134.7225,238.0375 142.3124,236.8571 145.8354,235.9552 149.0821,234.6214 155.2053,231.2991 158.0186,229.0994 162.1277,223.6547"/>
    <polyline points="154.5011,221.1808 150.3371,224.2232 147.078,225.8558 144.5671,226.326 140.8006,226.1236"/>
    <polyline points="152.4132,248.0968 148.4798,251.4281 146.3539,254.0693 144.626,257.2355 141.6897,263.9675 139.9167,266.748 132.411,273.6761 129.975,275.526 127.064,276.8725 118.1715,278.132 115.715,278.7311"/>
    <polyline points="111.0946,281.152 106.6369,284.9425 99.8852,288.2662"/>
    <polyline points="101.3371,282.3128 109.2923,281.5137 114.1402,280.1379 115.7329,278.7113 119.0419,271.3539 121.2508,268.9503 130.9296,263.6848 133.6332,261.9293 139.7239,255.7034 144.0082,252.4004 154.5417,246.9036 158.4951,245.1754 162.9074,244.42 171.1859,244.7511 174.8994,245.5534 181.2544,247.8412 183.5046,248.179 185.5252,247.9401 191.1418,245.9867 198.0908,245.1498 200.8733,244.0864 203.3229,241.4326 208.1038,234.1298 209.9335,232.4706 211.9144,231.573 215.0689,231.3807 220.4444,232.3879 222.5352,232.4425 225.6002,231.6756 232.7901,228.1672 235.9632,227.1771 253.2472,225.2459 262.2062,223.7925 264.98,223.6505"/>
    <polyline points="256.5928,224.705 259.6143,226.6553 261.6579,227.5983 269.9837,229.7938 277.024,232.5252 279.921,234.0419 285.4591,237.6421 288.309,239.0194 291.3708,239.7315 299.2539,239.6601 302.5299,240.0788 307.6285,241.7523 313.3644,244.8967"/>
    <line x1="305.2949" x2="299.6962" y1="233.0335" y2="233.3918"/>
    <polyline points="283.2516,228.0608 280.6193,227.0329 274.8205,225.7142"/>
    <polyline points="260.9493,256.3995 254.6575,257.6482 251.1334,257.4645 247.7188,255.9154 243.2466,252.1859"/>
    <polyline points="232.4269,249.4099 229.7372,251.1521 227.0517,252.156 216.8172,251.3138 212.1599,251.4322"/>
    <polyline points="193.9677,253.8607 189.4177,253.3407 184.3528,251.816"/>
    <polyline points="178.7069,246.9967 176.1988,248.7009 173.8128,250.7888 168.4203,257.9249 166.2078,260.0056 163.5342,261.174 159.1102,261.4731"/>
    <line x1="170.8716" x2="171.6827" y1="254.5525" y2="254.1544"/>
    <polyline points="171.0252,254.3305 177.8735,252.7574 185.8249,251.7446 189.0596,252.2684 195.6434,254.3132 199.5577,254.5142 219.3732,249.386 223.0626,248.755 226.8021,248.634 233.3634,249.6097 244.3339,252.4236 253.3337,253.6351 256.8792,254.4336 261.1083,256.4991 267.4167,261.0823 270.697,262.3718 273.4127,262.3293 280.3719,260.6362 282.2388,260.7082 283.9393,261.3032 292.4962,266.4817 297.5675,268.2351 299.9509,269.4552 302.1001,271.1257 307.2711,276.371 309.3408,278.0223 311.7782,279.0692 319.193,280.708 321.681,281.8462 323.8768,283.4013 326.9852,286.6837 341.8466,305.5514 347.017,311.4715 350.3853,314.423 356.9952,318.5067 359.204,320.306 360.5304,322.6756 361.999,329.0766 364.1581,331.981 366.3772,333.8895 369.0374,335.6418 380.7428,341.9163 383.7731,343.9037 386.2299,346.1723 391.1709,351.9439 396.1334,356.0823"/>
    <polyline points="408.9726,353.7642 408.511,348.0666 406.0521,339.8829"/>
    <polyline points="446.7223,319.6612 446.6942,325.6607 447.269,329.8559 448.4741,332.3864 453.1703,338.3065 454.4787,340.8736"/>
    <polyline points="455.9606,351.7093 456.6387,354.8112 458.427,360.2094 461.042,374.1037 461.3636,378.3345 460.8777,386.8461 461.155,391.5673"/>
    <polyline points="457.0852,409.8081 455.5248,413.1978 451.7615,426.562 451.3078,429.2481 451.6347,432.0618 455.0159,441.1163 455.1748,442.578 454.8515,444.9499"/>
    <polyline points="437.6404,478.03 434.0311,481.9263 431.746,485.3304 427.6716,492.3062 422.4694,503.218 418.5011,508.6616 417.1725,510.9919 416.0776,515.0895 415.8326,523.1785 415.4457,526.2478"/>
    <polyline points="407.4316,528.4244 403.2216,530.6715 400.9677,532.2877 395.2639,537.9445 391.2178,541.4569 388.019,544.8608"/>
    <polyline points="395.4329,542.8973 392.0427,544.0778 385.7058,545.3393 383.0488,546.3977 381.1783,548.2446 379.9577,550.7954 379.1553,553.395"/>
    <polyline points="408.1164,534.6986 406.7958,523.2986 406.6878,519.9291 407.0463,516.954 407.5281,515.6944 409.119,513.6169 416.087,508.7299 417.6219,506.5573 418.0651,505.2743 418.2623,503.8497 418.011,500.6533 416.0278,492.1624 415.998,489.2764 416.3422,488.0309 416.9394,486.9162 418.7659,484.9929 426.3849,480.0302 428.2065,477.9807 430.8284,470.6023 434.6511,463.6457 435.297,461.0992 434.794,451.4502 435.5567,445.0036 433.7908,436.7859 433.5627,432.8963 434.3033,430.4762 437.3041,424.5487 437.7212,422.0411 437.3845,419.4453 435.4429,411.6793 435.4307,409.174 436.1938,405.4583 436.2559,402.9548 434.6338,389.2455 433.811,385.5602 431.9358,380.746 431.4395,378.3255 431.7164,375.8287 433.0046,370.6956 432.944,368.1948 431.4211,364.6653 425.6191,357.0379 422.6973,350.2844 420.9364,344.5375 420.1863,341.0008 420.0354,338.5251 420.3776,335.8695 422.4972,327.3026 422.5589,324.6092 421.9115,322.174 415.7966,312.6039 410.5631,305.5444 404.9838,293.0825 403.7193,289.4731 403.1842,286.8407 403.009,283.9327 403.9742,270.5599 402.3931,261.6652 401.5054,258.9079 400.8146,257.7256 398.8205,255.883 393.4226,253.5193 391.1664,251.9833 389.8079,249.6021 388.4417,243.396 387.0436,240.943 384.7548,239.4107 378.7693,237.9751 376.1116,236.9562 373.9641,235.3728 370.4865,231.211 368.5263,229.3804 366.2304,227.9798 360.0179,225.1886 357.7864,223.7511 346.346,214.4932 343.6082,211.2132 340.669,206.3862"/>
    <polyline points="306.9298,196.0395 308.5837,197.9222 312.9519,204.9417 314.9379,206.9351 331.7633,213.6477 338.6666,214.5622 341.1578,215.4883 343.2875,217.0488 350.0954,223.418 358.6528,229.3308 362.0641,231.2854 368.5754,233.5854 373.3955,236.044 375.3449,237.8384 376.7139,240.2811 377.4963,243.3315 378.4406,249.891 379.2245,252.7446 380.9729,256.3683 383.903,260.5419 385.7687,262.2477 389.4491,264.0527 398.8335,266.2635 403.6025,267.7838"/>
    <polygon points="400.8743,240.9028 404.1296,249.3977 409.8973,257.3301 413.4196,263.412 416.6096,271.3492 420.2763,283.6333 421.8776,287.4015 423.5355,289.5606 427.6306,293.4882 434.964,302.0504 437.1895,305.5802 440.6279,313.1278 446.7617,319.7098 454.3421,330.5994 455.536,334.7104 455.2687,337.7389 454.0839,342.4273 453.6597,345.4168 453.7288,346.836 454.5163,349.5238 456.2114,352.0316 462.7404,358.0396 465.0365,360.5887 468.2476,366.0134 470.2667,370.2079 471.2376,374.5597 470.9594,377.5482 470.3843,379.0704 468.4044,382.1412 462.1561,389.6223 458.9038,396.6959 456.7007,402.2169 456.04,406.3327 456.7443,409.1311 461.0109,416.4457 462.1003,419.395 463.0937,435.4128 462.3972,438.2147 460.3864,440.7524 451.7178,447.5148 443.9806,455.3995 442.139,457.6711 440.7106,460.042 439.6961,462.5301 438.7865,466.4647 437.6934,474.6716 437.3773,481.8854 437.0227,483.2223 435.785,485.6679 432.0254,489.9344 430.1189,493.5353 429.2568,497.6817 428.6573,508.3853 427.8076,511.1261 427.1199,512.3438 421.2707,518.5286 411.3606,531.8985 409.3279,533.8235 406.8895,535.4042 401.1199,537.7098 398.6368,539.1445 396.7055,541.0479 392.1078,547.8988 389.2289,550.7943 386.7436,552.1367 383.8055,552.9686 380.499,553.345 373.4836,553.4116 370.3258,553.7244 362.3987,556.1988 346.3561,559.7078 342.9414,561.2385 338.1579,565.2179 329.5075,569.9891 327.1539,570.8126 324.5688,571.1537 321.8091,571.0856 311.3018,568.2607 307.4081,568.0534 304.1537,569.3229 297.4651,574.9838 295.3188,576.0389 293.024,576.6439 282.4119,578.1321 279.9159,577.7921 273.5577,575.8652 272.3625,575.7445 270.0917,576.0846 267.9303,577.0581 261.5856,581.7563 258.2351,583.4783 254.7585,584.3909 247.685,585.2831 239.4054,588.3374 236.9945,588.412 235.7911,588.1124 233.4142,586.5752 228.8339,582.1441 226.5602,581.0219 225.3949,581.0479 224.1978,581.5037 221.6881,583.5517 216.2497,589.9208 213.48,592.4429 212.1326,593.2007 209.5534,593.6456 207.1165,593.0319 202.4647,590.665 200.0648,590.0183 193.7952,589.6817 184.0235,587.6822 174.7999,587.8113 171.0241,587.1185 168.7858,585.8511 163.844,581.1629 158.5524,577.6771 151.7707,571.7692 141.0038,565.9282 137.5531,564.5438 134.9997,564.0118 125.8724,564.3791 122.9883,564.112 120.4997,563.2195 119.4332,562.5119 117.638,560.6309 116.2605,558.2119 112.7903,548.437 111.299,546.3747 110.3281,545.6169 107.7851,544.7853 101.1623,544.6749 98.0329,544.3062 95.5491,543.2023 94.605,542.3338 88.5294,530.5613 86.1015,521.1515 84.3961,516.2318 81.4613,510.8174 78.7255,506.8018 76.4349,503.9514 74.4528,502.3384 66.3085,500.1321 62.1635,498.1762 60.2133,496.3522 53.1921,488.4325 49.4864,483.0179 47.1903,478.3452 45.334,473.4822 42.3913,462.1317 38.9519,455.0582 33.6822,442.9289 33.2751,440.3302 33.4739,434.953 33.2816,432.3385 28.5025,418.4419 27.2286,415.9068 21.2546,408.2566 20.6236,406.9242 20.1009,404.2122 20.569,400.104 22.6848,394.6712 24.6099,390.6747 29.0531,382.9236 31.7886,376.5979 36.4987,369.3767 37.3762,366.9302 37.4403,363.0739 36.6569,356.4172 37.1745,349.9304 34.8538,341.2558 34.6246,338.4429 34.7938,337.1101 35.8506,334.6574 39.2894,330.2187 40.4528,327.8423 40.8683,325.2021 40.7316,319.4991 41.1221,316.7899 42.1724,314.3412 45.476,309.9878 47.7752,308.1395 54.3182,304.0793 56.0483,302.0725 56.8434,299.5798 57.2868,295.3927 57.9168,292.7549 61.1258,287.0742 63.8228,274.618 67.0511,267.0167 67.5867,264.0185 67.9439,255.4978 68.4163,252.2523 69.4797,249.4666 72.1771,244.3141 75.4652,235.6268 76.8052,232.8906 77.708,231.7494 80.038,230.0122 85.9749,227.9978 88.5706,226.6357 102.1502,213.9668 104.5928,212.4665 111.1981,209.4943 116.9032,205.2351 119.4037,203.8711 122.393,203.3365 130.3537,203.1214 134.6192,202.2635 139.8696,200.4008 142.3478,199.1936 150.325,193.3183 152.8032,192.0299 155.6783,191.7217 161.7688,192.1934 164.5227,191.7538 172.0856,188.4488 174.7227,187.6866 181.5251,186.575 191.7592,182.1304 195.7863,181.1575 198.6359,181.405 207.3554,184.1427 218.3155,185.4868 222.3325,185.5703 230.3007,184.921 234.3018,185.1252 238.29,185.9827 246.1195,188.9841 250.0065,189.6829 259.2132,189.4218 265.7946,189.6682 272.9017,187.0647 275.6981,186.6408 277.0207,186.8749 280.6714,189.1021 286.2404,194.4395 289.8183,196.2745 292.4905,196.3874 299.8442,194.7253 303.9988,194.8668 306.5092,195.789 313.3673,200.2793 319.6423,202.4454 326.7021,206.1386 330.8813,206.6412 338.7343,206.0629 341.5262,206.6207 348.6919,210.5735 360.8167,214.559 364.6729,216.2963 367.9838,218.8271 374.9644,225.6473 380.844,229.3967 383.5939,230.4693 391.6842,232.0196 393.1457,232.5421 395.6645,234.0366 397.7708,235.9686 399.5103,238.2631"/>
    <polyline points="292.5649,196.3741 288.0812,197.8103 285.3115,198.2782 276.1339,198.3911 265.6795,199.6845 261.9087,199.5735 255.7258,198.6039 251.9772,198.3985 243.2078,198.8695 239.4676,199.403 234.521,200.6113 229.6524,202.3491 220.3367,207.9774 205.274,211.6902 202.8363,211.4995 194.6429,207.4706 192.0473,207.1058 190.8577,207.4018 188.6697,208.7328 182.9022,215.008 180.8796,216.5319 178.6388,217.3201 172.7491,218.4834 170.6088,219.5652 166.6782,222.5418 164.545,223.5671 163.3319,223.7343 160.5636,223.326 152.7065,220.7408 151.2806,220.6194 148.7771,221.1291 145.3619,222.6061 142.276,224.7018 139.6057,227.4913 134.8936,233.8453 129.0768,238.1971 127.0875,241.6485 125.3762,249.2856 124.3329,251.7343 122.7523,253.4591 117.8459,256.5927 113.0532,261.6426 109.6873,263.1316 100.601,264.0249 89.0501,266.1659"/>
    <line x1="88.4202" x2="87.2793" y1="266.9141" y2="268.5777"/>
    <polyline points="77.0118,284.6925 75.5903,287.402 74.0863,289.3512 68.8449,294.1656"/>
    <polyline points="60.4105,312.1689 58.6622,318.6394 54.81,327.6648 53.7575,332.4962 53.5372,337.5635 54.0704,342.7822 54.6485,345.4397 57.5982,354.7032 57.9948,359.5262 55.9279,368.5252 55.5305,373.1294 54.719,375.3557 52.3819,379.7853 51.6043,382.067 51.5507,385.5844 52.7743,391.4721 52.9169,393.7966 51.4112,399.619 51.0786,410.1884 49.346,417.4667 49.2041,419.8808 49.761,422.2108 51.0683,424.4231 56.9028,430.5554 58.1726,432.6553 58.5604,434.9224 58.3457,440.8951 58.9247,444.3401 61.9821,454.3301 65.4136,461.7159 65.2079,464.2801 62.5257,471.7588 62.2674,474.4918 62.4947,475.7111 64.1337,478.9394 65.816,480.8001 68.0728,482.3505 75.9696,486.1538 77.8023,487.7792 78.4599,488.7333 79.6767,492.0452 81.4453,502.0326 81.5374,507.7619"/>
    <polyline points="81.4964,502.4677 84.9168,505.3689 89.3668,510.8541 94.3367,514.3727 96.8148,516.8503 98.4491,520.0637 100.6676,528.9072"/>
    <polyline points="93.579,526.4782 96.2324,526.878 98.8781,527.6985 107.6096,534.1555 111.0172,535.707 117.0131,537.776 118.834,539.2336 122.006,542.7397 124.199,543.7275 128.5289,543.7588 139.2877,542.1965 143.4327,541.8816 147.0581,542.2245 149.1019,543.0062 149.9904,543.6142 151.462,545.3647 155.1725,554.6052 156.5654,556.8154 158.2938,558.4162 160.2525,559.5699 167.8637,561.9269 171.7656,564.3287 174.3172,567.2217 179.0539,574.8026 180.9502,576.6344 182.0034,577.2454 184.3056,577.8351 191.6635,577.7758 196.0894,579.504 205.8463,585.4524 212.9793,592.7245"/>
    <line x1="212.628" x2="213.7751" y1="592.4173" y2="592.2037"/>
    <polyline points="199.4161,589.987 196.4759,589.0365 193.2715,589.5982"/>
    <polyline points="230.621,583.8087 233.4749,583.6048 239.3619,584.3875 241.7244,584.4186 245.2439,583.7949 251.0088,581.9139 254.4602,581.184 257.9776,581.1813 261.6185,581.7333"/>
    <polyline points="247.4442,583.1122 241.5955,578.9576 234.7539,576.3173 225.0059,570.102 211.528,564.3321 210.4839,564.1065 208.2963,564.2408 202.4673,566.0435 200.1585,566.421 193.6115,565.5566 185.467,565.9355 182.2692,564.97 179.5924,562.4987 175.8525,556.837 173.4243,554.2131 170.428,553.0636 164.7762,552.5349 162.6149,552.0405 160.6577,551.1071 158.9256,549.7323 156.6455,547.1197 155.3192,545.0808 152.16,537.9329 150.4155,534.8621 148.222,532.5914 143.3896,528.8087 137.6895,522.8727 133.4369,520.0759 130.4492,518.87 128.0986,518.4331 121.3676,518.0348 117.7586,517.1768 115.2238,515.1746 111.6338,509.7711 108.4786,506.8741 103.0721,504.3786 94.2557,502.0273"/>
    <polyline points="97.4277,502.9088 96.4719,501.1918 96.0109,498.8035 96.692,487.911 96.0414,484.5914 94.989,482.7823 93.5561,481.1978 87.0834,476.3232 85.852,474.5517 85.2307,472.4681 85.2154,468.9267 85.7386,465.2042 89.8544,454.6007 90.1552,452.3566 89.9722,450.3174 88.5724,447.6703 84.6761,443.6979 83.5171,441.945 82.4874,439.0913 81.1382,433.1877 79.5484,429.3975 77.5585,426.6784 72.4296,421.2426 70.671,418.2994 70.0874,416.2398 70.1002,415.1731 70.7423,412.9844 74.5687,406.4305 75.1807,403.3272 74.2634,400.2854 70.388,394.0713 69.4489,391.9441 69.0543,389.8141 69.2544,386.6435 72.3103,377.4119 74.3381,369.2812 78.5627,358.5478 81.0266,349.6441 84.9156,342.3169 86.2434,338.4669 86.4056,336.3386 86.0921,333.9956 83.3274,324.6101"/>
    <polyline points="84.2659,328.0668 88.6886,324.9658 99.048,320.0354 102.4213,317.4057 103.4715,315.7409 104.0922,313.81 105.0868,306.1215 105.8744,304.2108 107.1746,302.6564 109.0076,301.5019 111.285,300.7107 122.8935,298.8469 125.7967,297.6269 127.2854,296.4453 129.4982,293.3801 131.2777,288.488 132.3776,286.8809 134.9213,285.4134 139.1322,284.4504 140.9633,283.7071 142.862,281.6047 144.7645,276.4005 146.5093,273.9442 148.1911,272.9932 153.0858,271.6797 155.3329,269.9173 156.9502,267.1205 160.1216,259.0562 162.5697,255.1916 168.8172,249.5407 175.6295,245.8152"/>
    <polyline points="179.911,216.9634 184.5961,216.5498 188.3673,216.9211 199.925,220.6071 204.6266,221.1213 206.8417,220.7473 213.3283,218.435 220.1236,218.2063 227.8941,215.6632 230.1599,215.2511 231.3096,215.4641 233.6162,216.701 239.226,221.3556 241.4107,222.2692 242.5067,222.3296 243.6118,222.1305 245.8638,221.0616 251.7271,217.1223 254.0685,216.4175 255.2107,216.4398 256.3272,216.7155 258.4768,217.9209 263.4968,222.5994 265.5173,223.9671 267.6397,224.6084 280.6789,226.7995 282.7271,227.6764 284.5775,229.2248 288.7215,234.2632 290.5733,235.4899 291.6221,235.7215 293.9491,235.5459 302.0086,232.6781 304.4098,232.6663 305.4394,233.0935 307.1522,234.751 311.8003,242.9591 314.0796,245.5886 317.6071,248.0296 324.7749,250.5346 327.368,252.4497 331.8132,259.1957 336.0235,267.5068 338.0218,269.9231 344.5456,274.8367 353.1724,282.0879 361.6056,288.326 362.9034,289.9454 364.6632,293.8541 366.2368,296.5427 369.6999,300.3716 373.2062,302.9567 383.4891,308.8855 389.3914,314.2232 392.1751,317.689 395.5202,323.3686 396.105,325.5103 396.5447,331.2458 397.28,333.2839 397.915,334.1983 399.7657,335.8199 408.9287,342.0607 410.5824,343.9254 411.5483,346.0175 411.7041,347.1597 411.2153,349.6545 409.8704,352.3401 406.4778,357.7213 405.47,360.1748 405.2922,361.3184 405.4943,368.9433 407.3908,378.4396 407.6883,381.6535 407.1418,384.9265 405.3471,390.3512 404.7332,399.8556 403.1975,406.0969 402.8739,409.2165 403.6585,412.4377 407.7084,420.4273 408.1414,423.7827 406.9302,426.8821 401.594,433.4589 400.6476,436.4977 400.7913,439.8163 402.1288,446.8921 402.4472,452.721 404.4492,462.9495 404.7736,466.7626 403.9059,471.3783 399.3707,484.5798 397.9015,486.4155 396.9029,487.1795 390.495,490.0305 388.4399,491.4057 387.7478,492.295 387.0848,494.5402 387.3451,501.5857 386.6157,505.3266 384.5873,508.1606 375.9403,516.0361 372.0845,518.7526 369.706,519.6652 365.5469,520.3906 356.9594,521.1581 354.6344,521.8535 352.7468,522.987 351.1913,524.4766 347.1985,529.7836 341.9248,535.4069 340.1418,538.5322 337.0714,545.8299 335.6836,547.8351 333.2004,550.2825 329.383,552.7759 324.0491,554.8997 322.0572,555.9877 317.4524,559.4789 308.6986,565.1308 303.1067,569.8453 301.0382,570.973 295.5842,573.0642 293.6025,574.5456 292.0851,576.3594"/>
    <line x1="296.6303" x2="285.1625" y1="575.4551" y2="577.8342"/>
    <polyline points="374.3921,517.2395 374.532,510.3875 375.3948,505.3619 376.2508,503.233 377.4202,501.3574 382.2033,496.6406 383.4249,494.7938 384.1747,492.6392 384.8941,487.8961 385.5659,485.7537 386.1836,484.8553 388.0629,483.4255 395.0522,480.9586 397.631,479.7609 399.4827,478.1491 400.0818,477.172 400.7355,474.9525 400.8201,472.4795 399.0863,463.1907 399.0093,460.7934 400.1968,456.5678 402.4656,452.8439"/>
    <polyline points="383.2013,434.5249 382.7634,428.286 380.1662,417.5086 379.8474,412.9035 380.2936,411.1348 381.3994,409.4175 386.196,405.0926"/>
    <polyline points="284.5925,192.9627 278.2598,194.2935 275.5978,194.3903 273.0482,193.9353 266.8233,191.7452 264.2404,191.409 262.9123,191.5353 260.1957,192.4244 252.0826,196.9739 249.5002,197.9288 238.2314,198.3914 234.4738,197.2811 226.7028,192.7241 224.0542,191.5772 217.4537,190.4559 209.0714,186.7744 206.3169,186.3565 203.6629,186.6961 190.9958,191.2911 184.5483,192.8019 182.128,193.9967 181.0088,194.9017 179.9651,196.0452 178.1167,199.0232 173.4842,209.5586 171.87,212.4453 170.0291,214.5596 167.9482,215.9539 160.0092,219.063 155.2524,220.3911 152.5648,220.4461 145.0518,219.3263 142.2368,219.3979 140.984,219.7427 137.8492,221.9195 133.6039,227.0969 130.7762,229.6382 127.4372,231.3678 119.8729,233.6796 116.3127,235.2495 113.4957,237.8273 112.1043,240.1439 111.0962,242.8902 108.8164,251.6371 107.1106,255.1829 104.5621,257.7673 102.5278,259.1444 93.6149,262.4152 90.5514,264.6501 88.0346,267.3975 86.7664,269.5778 85.9422,272.1093 84.9727,277.6108 83.3863,280.982 81.5021,282.6043 74.0009,286.3277 72.0522,288.0133 70.5772,290.0231 68.986,293.4279 68.6345,296.1103 68.7335,301.8345 68.1483,304.2872 67.5371,305.335 64.287,309.1252 56.8284,315.1194 50.8554,322.1182 48.2191,326.5277 47.2937,330.2352 47.5257,336.9436 47.3465,339.5032 45.5458,345.1101"/>
    <polyline points="38.9097,330.7321 44.7943,342.6743 45.8831,346.8559 45.938,349.4322 45.5832,350.6219 44.0753,352.8228 39.364,356.9607 36.9942,359.6189"/>
    <polyline points="33.5104,373.852 34.921,376.9043 40.922,383.7086 42.8074,386.2885 45.997,392.4842 47.1971,396.0981 47.2213,398.4892 46.5944,400.8946 44.8489,405.7806 43.0997,409.5392 39.9676,414.7418 33.4651,421.8208 31.9327,424.6364 31.733,425.9816 32.8147,429.7751 36.256,437.0551 38.4383,449.8122 42.1517,460.8493 45.963,470.4526 48.4642,479.2087 49.6966,481.4962 50.8002,482.414 60.0485,486.4121 67.1088,491.0672 71.1313,494.381 74.5163,497.9854 77.7252,503.091 83.0532,509.6516 85.8445,513.5722 89.8298,518.0825 91.0752,520.1754 96.915,534.6696 97.5472,537.5477 98.2412,544.3421"/>
    <polyline points="116.6287,537.604 114.6294,535.1917 112.1812,529.3099 110.9703,527.2633 104.9226,520.4088 101.586,515.7576 98.7686,510.7246 96.5104,505.3413 94.6988,502.5076 86.7726,495.6967 79.669,492.0172"/>
    <polyline points="75.7007,485.992 75.3635,483.8449 72.9572,478.5838 72.4268,476.2753 72.5799,473.662 74.5008,466.6155 74.9567,462.8203 74.5938,460.594 72.198,454.4454 71.666,452.3033 71.3343,448.9517 71.4007,439.8917 70.9358,435.5719 70.5321,434.5617 68.8524,432.7212 61.8037,428.4942 59.5296,426.6019 58.8058,425.5705 58.4096,424.4812 58.654,422.1462 60.0085,419.6819 63.4856,414.7984 64.2163,412.5243 64.1169,411.4356 62.9243,408.2281 59.4392,401.7311 57.6734,397.2608 56.3247,394.9886 52.4417,389.8429"/>
    <polyline points="69.5236,385.4381 71.6035,388.8742 72.4369,390.9908 72.8803,394.1105 72.8417,397.8969"/>
    <polyline points="72.7056,473.0673 76.3624,476.8871 80.5502,483.6138 85.7236,489.6944 86.8208,491.647 88.749,497.259"/>
    <polyline points="118.0874,538.5252 126.4002,540.8658 128.3747,542.0461 129.9712,543.5691"/>
    <polyline points="87.2907,315.117 89.0263,313.2547 90.0505,311.3747 90.4652,309.1297 90.2719,306.2066"/>
    <line x1="90.3929" x2="95.0313" y1="307.345" y2="301.068"/>
    <polyline points="75.6063,235.3007 80.533,232.6167 82.6164,230.6654 84.2469,228.5746"/>
    <polyline points="94.8121,220.9301 99.2491,219.5451 105.4836,216.1091 108.1881,215.0597 115.8543,213.9364 118.6722,213.2113 121.0191,211.7806 124.1171,208.937 126.4017,207.3812 128.9709,206.316 135.7007,204.3113 137.9178,202.637 139.4408,200.557"/>
  </g>
</svg>
