<?xml version="1.0" encoding="utf-8" ?>
<svg xmlns="http://www.w3.org/2000/svg" xmlns:cc="http://creativecommons.org/ns" xmlns:dc="http://purl.org/dc/elements/1.1/" xmlns:ev="http://www.w3.org/2001/xml-events" xmlns:inkscape="http://www.inkscape.org/namespaces/inkscape" xmlns:rdf="http://www.w3.org/1999/02/22-rdf-syntax-ns" xmlns:sodipodi="http://sodipodi.sourceforge.net/DTD/sodipodi-0.dtd" xmlns:xlink="http://www.w3.org/1999/xlink" baseProfile="tiny" height="20.5cm" version="1.2" viewBox="0 0 491.33858267716533 774.8031496062991" width="13.0cm">
  <metadata>
    <rdf:RDF>
      <cc:Work>
        <dc:format>image/svg+xml</dc:format>
        <dc:source>Vsketch with params {'__seed__': 1000022321}</dc:source>
        <dc:date>2023-03-17T16:48:24.658234</dc:date>
      </cc:Work>
    </rdf:RDF>
  </metadata>
  <defs/>
  <g fill="none" id="layer1" inkscape:groupmode="layer" inkscape:label="1" stroke="#0000ff" style="display:inline">
    <polyline points="206.7436,359.5456 215.0229,354.794 217.9061,352.8094 220.4361,350.5008 226.0921,344.3193 229.5086,341.4794 233.2047,339.5172 236.9943,338.6411 241.9189,338.9132 247.5861,340.7495 263.4686,348.2908 267.1391,350.575 270.1148,353.0459 272.5393,355.7526 274.8275,359.1746 277.0222,363.4753 279.2273,368.8378 280.6321,373.2604 281.5081,377.3701 281.8848,381.3419 281.7554,385.0984 281.2225,388.3183 280.3747,391.2088 277.3636,397.5132 269.1964,409.4592 266.5642,412.7028 263.9617,415.3059"/>
    <polyline points="246.698,419.847 232.8589,415.8524 221.7056,414.2271"/>
    <line x1="224.0359" x2="230.3626" y1="449.8061" y2="452.3912"/>
    <polyline points="235.7793,460.7597 238.0501,460.247 240.5912,460.184 248.8283,461.5925 251.9774,461.7939 265.7352,460.3311"/>
    <polyline points="256.6386,495.3788 260.0735,493.2405 268.7758,486.3155 272.482,484.1965 279.3745,481.1282 283.5347,478.7411 306.6926,462.8455 316.1446,455.5036 320.6269,451.4816 324.214,447.5067 333.0511,436.5002 334.526,434.2405 335.6162,431.7591 337.326,424.3912 341.689,409.8807 343.7294,405.6809 348.7374,397.1676 350.3233,393.2634 350.8967,389.8769 352.231,374.0563 352.7414,371.17"/>
    <polyline points="359.4573,392.451 355.9349,384.6042 354.6421,380.3023 352.5248,369.8592 352.4563,362.1208 351.8136,358.6714 350.3136,355.4127 345.9027,348.7379 344.5036,345.6192 342.5259,338.378 342.0226,329.482 341.4366,325.8059 339.8069,321.8233 337.2182,317.5533 335.2954,315.4128 332.9981,313.5675 323.9944,308.3228 319.1134,303.5622 316.3777,301.5061 308.1458,297.7079 300.7545,292.1319 291.1892,287.6027 278.7377,279.8037 262.8727,270.6089 254.8488,267.1096 249.9554,265.6367 243.5008,264.9301 234.6959,262.7549 231.7331,262.6923 228.8384,263.364 219.2996,268.0583 212.3248,269.6853 209.612,270.6146 205.2071,273.1903 197.2635,279.6807 193.0999,283.6403 190.3084,286.9782 185.9385,293.7011 184.1878,295.7113 177.7655,300.0032 175.8549,301.7336 174.3468,303.907 170.8156,311.1418 165.9101,316.7655 164.9001,318.345 164.0287,321.561 163.6601,327.9133 162.729,330.1205 160.9131,331.7856 153.9502,335.6023 150.5053,338.1292 147.5464,341.7176 145.9792,345.2438 145.7442,347.8729 146.6548,355.3481 146.4868,358.4861 145.3864,362.0462 141.9992,369.1553 141.345,371.6468 141.2088,373.5516 141.5041,376.7435 143.2059,384.2703 143.7283,389.2293 146.2722,397.6081 146.5611,401.3201 145.3751,404.8167 140.2206,413.8461 139.332,416.319 138.9867,418.6537 139.1208,420.8433 139.8231,423.5822 145.2023,436.6412 147.0475,439.6618 149.6018,442.207 153.2636,444.7539 160.8543,449.2038 163.4993,451.3491 165.6057,453.9724 170.0567,461.0918 172.3987,463.6292 175.1124,465.7362 178.6482,467.8769 181.8381,469.2645 187.7849,471.2304 196.4243,473.3791 200.0853,474.837 203.4319,477.0546 208.7752,481.9279 211.6518,484.1518 224.3728,491.1473 228.4592,492.8507 232.7085,493.6897 235.5994,493.5885 242.7712,492.4712 246.3292,492.6526 267.7186,498.3984"/>
    <polyline points="264.7639,502.5631 267.8154,498.2718 269.6795,496.1937 272.2679,494.1844 274.9693,492.7993 280.4125,490.4036 281.873,490.109 284.2943,490.2446 291.4412,491.7153 294.036,491.8246 295.6366,491.5689 299.1556,489.8824 309.5396,482.9803 318.0617,478.8129 319.8102,477.2263 321.1393,475.1409 323.4671,467.3361 324.6983,465.3618 327.3401,463.7652 336.909,461.0842 339.3485,460.0447 340.723,459.1159 342.7734,456.6755 344.7815,452.2409 346.0613,450.2438 347.842,448.577 352.1011,445.5838 353.7079,443.7186 356.7287,436.1955 358.7354,434.4772 364.9544,430.9352 366.782,428.9599 367.3704,427.3807 367.3905,424.7017 366.2544,420.7979 357.1833,404.557 355.836,401.2874 355.3175,398.2533 355.4683,396.818 356.1907,395.4641 362.0154,390.1693 363.0828,388.7332 363.6039,387.2386 363.2764,384.1651 360.5101,378.1075 359.8791,375.1538 360.3943,372.1541 363.1212,365.8514 363.9215,362.65 363.6262,360.3499 360.6677,354.6559 360.1833,352.4243 360.9256,345.8853 363.4906,337.6102 364.765,331.0302 364.6568,327.4728 363.3666,322.5317 361.8548,319.5219 358.1632,314.836 356.8544,312.6991 354.6865,307.1477 352.42,299.438 350.5184,294.3931 348.132,289.5993 345.9762,286.8374 337.9131,280.0841 334.9086,278.2242 331.3892,277.0068 322.813,275.5238 318.1134,273.5583 314.8154,271.1151 310.376,266.4388"/>
    <polyline points="306.1865,263.3054 303.3752,262.938 298.6045,263.2866 296.9393,263.0082 295.8313,262.3788"/>
    <polyline points="287.5745,261.1657 295.669,267.5537 300.4854,271.7731 311.3317,279.0813 314.1051,281.7836 319.4034,288.51 321.9837,291.2532 324.931,293.5869 330.8178,297.3318 333.1244,299.3519 335.75,303.1137 342.1613,316.1032 345.0557,320.4493 347.4308,323.4088 348.7699,324.4046 351.3326,325.6628 361.1445,328.9683 364.7867,330.6456"/>
    <polyline points="342.0437,329.8147 340.007,327.3741 334.9141,323.134 331.6352,319.5825 329.6347,316.0144 327.7058,310.556"/>
    <line x1="303.9045" x2="309.1535" y1="339.0609" y2="352.5746"/>
    <polyline points="308.9317,348.8669 309.7417,374.0637 309.5986,385.9691 310.2381,398.4475 309.8435,402.0561 309.0618,405.1138 307.856,408.0223 306.1976,410.7155 293.3022,426.4233 290.7438,428.7918 287.4037,430.9127 282.3321,432.7488 269.7527,435.4711 251.2145,441.8965 246.5209,442.8341 241.7403,442.9883 237.0303,441.9499 229.0173,438.2507 225.8092,437.0966 222.4672,436.406 214.5356,435.4117 209.5665,433.7971 206.1637,431.724 198.9431,426.0682 189.6546,420.1749 186.8292,417.5555 184.8582,414.8016 182.642,409.2916 180.3185,399.092 179.1525,391.0262 176.4957,367.2555 176.6354,363.3919 177.227,360.0207 181.0455,346.6623 183.1478,340.6067"/>
    <polyline points="176.145,343.6904 184.3775,339.9556 187.1282,338.1616 189.0254,336.3514 191.1061,332.9991 194.6181,324.4473 196.9551,319.9519 200.4352,314.9346 203.9149,311.2451 207.859,309.2188 218.8377,306.4807 226.9039,302.5811 231.6722,301.0064 236.6215,300.3404 241.6167,300.4826 246.5541,301.2598 253.2736,303.0017 261.5015,306.0897 273.8057,312.3144 286.497,317.8831"/>
    <polyline points="258.1858,304.7009 252.4449,305.4527 239.4466,308.6019 234.734,310.6953 225.1393,316.7685 221.0708,318.7724 216.766,320.0285 207.5263,321.181 203.0054,322.1338 198.3091,323.9475 193.5966,326.8554"/>
    <polyline points="191.3253,315.3439 189.5576,319.357 187.2331,323.4537 184.946,326.7221 180.5929,332.0228 178.7632,334.9258 177.4544,338.1439 175.7274,345.4026 174.7654,348.0674 172.6093,351.743 167.4296,358.0932 165.6973,360.6903 164.302,363.9494 163.815,367.4143 164.0015,372.4405 164.9539,377.8938 168.285,391.5589 171.2365,400.0032 174.9904,408.4781 178.5829,414.8934 182.1843,419.6371 186.7865,424.0825 189.7525,426.2302 193.3625,428.2416 205.7182,433.0837 212.457,436.8604 215.6341,439.7059 222.1829,448.1529 224.4654,450.1238 226.5424,451.3304 229.2037,452.1851 232.8866,452.6277 243.4956,452.2553 251.3323,452.4258 255.9228,451.873 262.7394,450.5003 266.7531,449.3266 269.719,447.9827 273.1717,445.5248 279.4081,439.1204 282.4761,436.5822 285.1553,435.0274 291.2892,432.5784 294.2778,431.0648 303.4121,424.0992 311.962,419.1225 314.7675,417.1619"/>
    <polyline points="313.4982,408.618 309.4452,414.4131 299.5599,427.1112"/>
    <polyline points="315.1935,428.2246 315.2323,420.9765 313.4059,407.2868 313.7714,401.8716 316.7394,393.8217 318.0066,389.1767 319.519,386.9078 325.0404,380.6369 326.0957,378.5404 326.5528,376.3909"/>
    <polyline points="320.0568,386.2938 314.3631,377.3265 312.7217,373.8195 310.408,364.7915 310.3355,356.9711 309.8622,352.7918 307.0903,342.83 305.4434,340.5414 299.6745,334.9828 295.4818,328.2437 291.7605,323.3276 288.5367,319.7958 285.3274,316.9115 274.8061,310.1822 271.7362,308.7761 265.7972,306.7783 258.4479,302.0184 255.1279,300.7068 248.1489,299.7667 238.5,297.6595 236.4171,297.4557 233.3273,297.7803 226.3311,299.7044 222.7753,300.2575 219.0456,300.3134 210.4735,299.6992"/>
    <polyline points="217.8382,300.2386 212.1393,305.3657 208.7885,307.7136 201.5196,311.073 192.406,314.8103 187.003,318.0166 172.9752,328.872 170.2222,332.2293 168.2949,336.1252 167.5135,338.7715 167.1276,341.5768 167.2705,350.153 167.0616,352.7674 166.2413,355.6663 163.1134,362.6727 162.6079,367.2268 162.4585,372.2993 162.8193,378.3465 163.6205,383.3066 166.9837,396.1859 169.4143,402.5253 170.1702,405.8261 170.188,409.4729 168.8295,422.1322 169.0312,426.8159"/>
    <line x1="168.8267" x2="170.5881" y1="424.8339" y2="429.9362"/>
    <polyline points="170.8198,430.38 179.956,435.6395 188.8201,443.0543 196.0917,447.2833"/>
    <polyline points="173.4898,475.5487 176.8276,476.703 179.9211,478.6991 182.6269,481.3624 185.649,485.4961"/>
    <polyline points="180.1906,494.3015 176.6511,491.5642 173.1769,489.4244 170.1803,488.0372 166.3879,486.7863"/>
    <line x1="148.14" x2="146.8413" y1="471.4314" y2="468.8703"/>
    <polyline points="151.0716,457.7119 155.5943,459.556 157.4964,460.8891"/>
    <line x1="145.5461" x2="141.8558" y1="454.0091" y2="447.7246"/>
    <line x1="141.6058" x2="143.3496" y1="451.1491" y2="452.5557"/>
    <polyline points="141.598,451.366 148.8404,456.476 156.1128,460.0865 158.6816,461.7196 172.6897,474.8796 178.642,479.3357 183.6945,484.0083 192.9528,490.9524 197.673,493.5985 203.3487,496.0382 209.2383,497.9044 212.3346,498.2615 219.3849,498.2636 226.1062,499.5815 234.4684,499.9599 251.099,504.5675"/>
    <polyline points="216.0568,510.4082 206.2327,511.8894 203.6248,511.5907 202.0354,510.8728 199.8746,509.1465 195.2793,504.3263 184.1953,496.5415 179.8822,494.1623 171.9621,491.3563 168.4443,489.1486 166.222,486.5399 162.3032,479.5547 160.717,477.6851 158.8743,476.1371 155.9078,474.6307 150.5585,473.169 148.4381,471.7875 147.1018,469.6355 145.2176,462.578 141.9487,454.9963 141.5978,451.3698 142.0658,443.6896 141.3622,440.619 139.3187,437.5153 134.5424,433.259 132.2882,430.8248"/>
    <line x1="82.6723" x2="80.2264" y1="420.3868" y2="411.1146"/>
    <polyline points="77.0469,425.0168 78.3141,418.991 78.4549,415.7027 78.2027,413.6005 77.0651,410.5981 72.1063,403.8333 70.965,401.8016 70.2139,399.7021 69.4181,395.4 68.8668,386.687 67.9808,380.1433 66.6579,374.6246 64.4613,368.4466"/>
    <polyline points="66.3374,358.537 65.0551,366.7574 61.8362,374.4881 61.1804,376.7482 59.71,390.5144 59.6004,394.5711"/>
    <polyline points="76.4601,390.2287 77.455,386.3357 80.7984,379.0876 85.254,368.2209 86.5204,363.3772 86.6839,358.4315 85.9161,348.2133 83.5948,339.3514 83.1565,336.0296 83.284,333.9076 84.001,330.8633 86.4623,324.8424"/>
    <polyline points="69.5672,319.4198 67.4196,325.7568 65.8776,332.4881 64.5575,335.7096 62.7192,337.6442 56.1308,342.2338 54.1054,344.283 53.4466,345.3872 52.5536,348.9098 52.9701,356.2654 52.4743,359.8313 51.4393,362.1465 47.6854,367.9569 46.4802,370.3543 45.089,375.2547 44.0348,381.4653 43.9503,386.4573 44.6143,388.9244 47.4848,396.1713 48.2552,404.746 49.5236,413.2638 48.0677,432.7703 48.2979,436.662 50.0152,440.1201 54.1114,444.0751 55.7688,446.1397 56.6959,448.6768"/>
    <polyline points="45.0369,439.3692 44.2498,436.5025 43.0198,434.1527 36.7364,427.6182 35.4274,425.1885 35.1451,423.8868 35.0992,422.536 35.6184,419.7245 38.234,412.5974 38.5622,407.3063 40.532,399.3216 40.7233,396.7468 39.8521,392.9803 37.335,387.9768 36.4513,385.4212 36.3238,382.8333 36.8377,376.3654 36.0105,369.8601 35.0876,367.2033 32.7166,363.3781"/>
    <polygon points="23.2598,396.8467 26.5465,392.4983 27.8019,389.718 27.7711,387.0172 26.0669,378.9155 25.9737,376.1946 26.5022,373.4878 28.373,369.4996 36.4791,358.1654 52.3462,340.23 56.6387,333.7538 59.0706,330.6699 67.582,322.1772 69.0758,320.2445 70.1789,318.1934 70.8661,315.9973 70.933,313.5589 69.1462,305.2531 69.0046,301.2886 69.3534,300.1329 70.7184,298.1317 76.0025,294.1351 76.8269,293.2393 77.9569,291.182 81.0641,280.7053 80.9822,270.6049 81.4822,264.9479 82.5013,261.0651 84.4295,257.8127 86.2623,256.0657 89.7049,254.0373 99.4125,251.0753 102.8882,249.3618 104.5377,247.6196 107.5283,242.1028 109.8394,239.2603 112.7064,237.0027 119.2101,233.4428 121.1469,232.0149 122.5507,229.9255 124.3274,224.2934 125.5143,221.7735 126.2935,220.7469 128.2377,219.2124 134.063,216.7999 139.1646,213.3655 144.674,210.6083 148.3349,209.6216 156.1907,208.9293 162.8238,206.0949 167.9761,202.8693 168.9454,202.0578 170.5877,199.6514 173.3583,193.0901 174.9454,190.086 176.8526,187.8411 177.933,187.0539 180.3072,186.0953 186.5157,184.5718 193.6801,181.6582 210.0319,178.5012 213.6725,176.7987 222.1698,171.0 224.7232,169.9012 227.3387,169.3652 229.9991,169.4497 234.0119,170.4174 243.2055,174.6499 245.7706,175.4147 248.3323,175.6877 254.7923,175.1376 257.3576,175.3854 263.4745,178.7654 265.9585,179.3903 267.2587,179.211 269.9672,178.162 277.071,174.5171 281.28,173.384 285.3591,173.2219 292.3752,172.4131 295.1376,172.4324 301.827,173.4995 307.0277,174.9526 310.7872,176.4784 313.0706,178.1136 315.0793,180.4423 319.5505,187.1976 321.5801,189.1081 323.8299,190.4458 332.4832,193.3791 335.9266,195.2211 339.0626,197.6341 343.2502,203.3608 345.1371,205.1908 347.343,206.4655 354.5821,209.369 356.6075,210.9534 361.2145,215.5139 363.5108,216.6986 367.3316,218.0224 369.5439,219.3698 370.3917,220.3693 371.5118,223.0506 372.6093,231.4656 373.0355,232.8527 374.3879,235.0379 377.3651,237.2691 379.7946,238.3125 381.2379,238.6151 388.1169,238.8996 390.7772,239.8972 392.3672,241.9193 393.7836,245.7956 395.1325,247.9897 399.9371,252.2628 401.1759,254.5322 401.5214,255.8745 401.9121,263.4323 402.3647,266.1555 403.2602,268.5365 405.3952,271.5491 409.3535,274.8779 415.8788,278.2491 418.2591,279.8068 420.2848,281.597 424.669,286.534 427.6237,289.3934 431.2771,291.9875 437.2693,295.1034 439.9698,296.8717 442.1016,298.9186 443.7301,301.194 447.213,307.1733 448.1112,309.7561 448.5794,312.4794 448.4543,318.2116 447.0234,328.3315 447.469,332.3162 452.9017,344.836 455.1546,351.3089 456.1992,355.2687 457.0325,361.9939 457.5642,363.313 459.5177,365.9116 463.556,369.8452 465.8877,372.5598 467.2243,375.3497 467.4591,376.7621 467.1714,379.5953 465.4212,385.2113 465.1682,388.012 466.3158,392.2928 469.7551,399.6807 470.4775,404.0923 470.2232,408.4256 469.0228,415.551 467.9811,425.6525 468.1821,434.648 469.0458,444.0142 469.0669,447.1148 468.7509,450.1343 468.3042,451.558 466.5953,454.1348 462.3697,458.9334 461.3006,461.6759 461.2295,464.8057 463.309,473.7214 463.7924,478.906 463.3255,482.0557 460.7731,491.074 458.8372,495.2876 455.692,498.8375 452.7034,500.6664 447.4742,502.8693 444.4033,504.5118 441.0295,507.6719 438.7402,511.5088 436.6552,521.0341 435.2864,523.7863 433.1768,525.988 428.0281,529.6098 425.8663,531.7194 411.663,551.4343 407.4483,555.8142 403.8419,558.6205 401.0166,560.0021 399.4004,560.4466 395.8133,560.8749 386.097,560.6544 382.9212,561.304 380.5168,562.9165 376.257,566.8897 369.5886,569.9448 362.7174,575.2651 360.1263,576.5641 357.0321,576.9871 353.4133,576.4206 343.4745,572.7677 339.9185,571.8254 338.338,571.6973 320.4843,574.3169 316.7195,575.5561 303.6419,582.373 296.2463,585.6845 287.8438,591.2039 285.3043,592.3825 281.2487,592.9752 272.8001,591.7239 270.077,591.6926 266.1236,592.6547 258.2301,595.5898 254.1794,596.349 251.4349,596.0815 243.2492,593.8217 239.2073,593.7971 233.7912,594.3832 226.889,596.1703 223.994,598.0189 217.878,603.25 214.81,605.0354 213.3197,605.4283 211.8735,605.4379 209.1447,604.2946 202.9705,598.273 200.4256,596.7094 190.7205,595.4546 188.0822,594.5005 181.8054,591.1041 179.1575,590.3012 173.6245,589.4202 171.012,588.4779 169.8151,587.6939 167.6979,585.4009 162.4383,576.3952 160.402,574.3457 157.0296,572.1177 153.2212,570.8865 137.7438,568.7398 135.1998,567.7147 132.9869,566.106 131.1654,563.8611 128.9576,559.7464 124.9463,549.0839 118.3399,534.5307 114.769,529.1048 108.8896,522.7301 107.679,520.435 105.4686,514.0201 104.709,513.0765 102.4465,511.8985 93.1474,510.3967 90.4932,509.384 88.3434,507.9063 86.0281,504.9171 83.5609,498.894 82.1605,496.8244 79.9616,495.3272 75.8495,493.5859 73.5168,492.092 68.6512,484.6043 64.482,479.6309 63.2402,477.3857 62.5368,474.8548 62.0298,467.9807 61.4797,465.4469 58.4215,458.5438 57.8686,452.0031 57.2456,449.5749 56.5838,448.4936 54.441,446.6135 48.3922,443.3221 46.1006,441.3527 42.108,434.4024 32.6383,423.0462 27.9285,414.2645 22.3475,406.6999 21.121,404.0316 20.861,402.6519 21.4386,399.7877"/>
    <polyline points="67.2727,419.4874 73.6918,422.3514 76.0431,423.9873 77.6436,425.7855 78.6113,427.7423 81.5538,438.0799 81.6726,440.3346 81.1186,444.0446 78.9689,452.1647 76.1587,461.051 75.5738,463.9549 75.7729,467.8384 76.8083,469.9732 78.4914,471.7469 80.5996,473.2569 90.8967,479.1345 93.1401,481.7404 95.8697,486.7849 97.4046,488.4859 99.3492,489.8643 102.9954,491.3049 112.7965,493.1581 116.4227,494.2492 118.3474,495.3811 124.1761,500.0962 130.6258,504.0254 132.7159,506.4303 139.4102,516.815 140.4108,519.1026 142.2106,526.0974 143.9794,529.5043 145.7255,530.9593 150.0981,532.4527 152.0498,533.5625 153.5993,535.3779 156.0574,540.335 157.49,542.5525 161.2628,546.133"/>
    <polyline points="170.5086,550.8727 176.2004,551.7119 179.8614,553.1257"/>
    <polyline points="184.7867,555.7125 188.1015,556.3718 194.0768,556.5527 198.7016,557.0636 207.1537,555.7984 209.4573,555.7724 217.249,557.0019 225.1562,557.1504 231.7566,559.5659 234.0174,559.7665 236.3088,559.118 238.6052,557.3271 245.1803,549.6514 246.2336,548.9437 248.3518,548.5583 250.497,548.8856 257.0891,550.8872 259.292,551.1839 273.5033,550.609 274.6771,550.9312 277.1951,552.315 284.1271,557.5831 286.8641,559.0589 292.0352,560.3138 295.8579,560.7675 300.905,560.9275 304.5768,560.546 306.8028,559.6215 312.8537,555.3276 315.0011,554.2874 318.5879,553.5756 325.0899,553.3317 327.598,552.9445 329.9143,552.1376 331.9772,550.8294 334.6929,548.1956 336.1608,545.8764 337.2972,543.0522 339.8526,533.7529 341.8302,530.4995 344.7687,528.7523 355.302,525.6304 357.5246,524.6933 359.3192,523.2055 361.9062,519.0628 363.4506,517.3187 365.4608,516.1017 372.3931,513.2762 374.4486,512.0132 376.9693,509.5395 378.8665,506.4817 379.7707,504.1363 381.39,497.8564 383.2843,494.9546 386.3022,492.9548 395.0961,489.3362 398.2873,487.5924"/>
    <polyline points="393.0869,490.1283 397.0219,482.0966 398.9354,479.1625 400.6284,477.2518"/>
    <polyline points="400.7498,478.0908 400.1976,473.126 400.4309,470.5963 401.1276,468.356 403.0178,464.1772 404.2719,462.2516 407.6386,458.7905 409.0105,456.884 409.8928,454.7457 410.9381,450.1732 411.8541,448.0623 413.5116,446.2385 418.3484,443.0675 420.4238,441.2943 423.0596,437.1554 426.1465,430.7478"/>
    <polyline points="417.8481,430.7996 420.1494,420.5809 420.714,413.6762 420.3931,408.9907 417.1681,400.5995 416.3919,397.18 417.0173,386.1941 416.2445,378.5009 416.2445,369.7351 415.5353,364.2965 415.8311,362.0672 417.4303,356.3207 417.6789,352.9101 417.1166,350.7405 415.8727,348.6974 414.0856,346.7802 408.9563,342.291 407.3601,340.4608 402.9615,332.8517 401.7222,329.93 401.1059,326.8138 401.1271,323.4565 403.1132,314.6567 403.5809,310.9 403.4862,308.5312 402.8097,306.4037 400.4144,303.8592 393.3278,300.1111 390.8008,297.8252 389.7313,295.9796 388.5646,292.9528 386.6803,283.9425 385.2452,279.6286 382.8486,275.9425 378.7953,272.1428 375.0094,269.6031 367.0451,265.141 355.5901,255.6007 349.9934,252.4016 332.0935,247.1003 327.6296,246.5992 318.5608,246.4363 315.6493,245.7232 313.0298,244.5157 309.8375,242.3146 303.7854,236.914 298.4039,229.3988"/>
    <polyline points="304.7191,209.5482 299.7223,209.2648 284.4731,205.0674 282.5473,203.3568 278.9991,197.8414"/>
    <polyline points="281.8679,196.4757 285.1203,197.3873 288.413,198.7673 290.4611,200.1912 297.0921,206.3353 303.4718,208.8573 310.3369,213.1598 326.4214,218.9626 328.4586,219.991 330.1351,221.6709 333.3238,227.4088 334.9094,229.0886 335.8776,229.6369 338.1639,230.1921 344.6635,230.5915 346.9085,231.355 348.7698,232.6766 353.5054,237.733 357.2077,240.3722 360.443,241.8331 372.6529,245.4638"/>
    <polyline points="377.1915,250.6594 378.6788,257.5961 382.6819,266.1954 385.9682,270.8261 391.026,275.57"/>
    <polyline points="391.7744,282.1152 385.0903,277.038 378.8965,270.6646 372.4285,267.5325 370.6608,266.2109 369.9915,265.364 369.0896,263.2661 367.9028,256.8607 366.9503,254.6875 364.4812,252.4506 358.5022,249.1577 356.9578,247.5842 353.562,243.0469 351.825,241.6708 349.6441,240.868 341.0361,239.6719 335.9623,237.5824 333.7558,237.0577 329.7992,237.388 321.2163,239.7722 317.819,239.6863 316.0174,238.8149 311.5293,234.2952 308.9601,232.6072 302.9253,231.2743 296.3837,228.6211 290.3403,227.6616 283.2931,222.9348 280.492,221.5189 271.426,219.9445 261.5478,216.6181 258.4513,216.465 256.3234,217.1358 247.9283,222.3375 245.9262,223.2796 243.9536,223.7986 236.133,224.3498 233.1921,224.2708 230.2065,223.7356 221.9852,221.433 217.8927,221.21 214.9173,221.7466 208.1436,223.7743 206.1355,223.9969 200.9078,223.878 197.8643,224.2905 195.0223,225.4175 187.1032,230.3067 183.2965,231.5682 168.8063,231.6434 165.337,232.0159"/>
    <polyline points="167.994,231.6814 164.2055,236.2257 159.6254,240.427"/>
    <polyline points="161.4787,235.1063 158.6822,242.9301 156.6651,245.3881 154.8629,246.2908 149.9177,247.9677 148.2566,249.1217 145.2963,251.9118 143.542,252.9413 141.3825,253.4747 134.9309,253.7337 132.5448,254.1658 129.723,255.735 126.7709,258.7385 125.0552,259.9917 122.9471,260.8651 114.1065,262.8307 112.0869,263.9533 110.4996,265.4757 107.2034,271.2617 104.3775,279.9622 102.4974,283.8608 101.2101,285.5634 98.8182,287.8296 91.7002,292.366 88.2226,295.4533 86.2142,298.1401 82.5355,304.9716 78.365,311.6411 75.8273,320.2091 72.5259,326.1584 71.2759,329.2899 70.9448,331.5252 71.0372,337.3101 70.7376,340.6539 68.758,348.0035"/>
    <polyline points="86.193,352.7 87.8281,349.6061 92.1792,343.5318 93.6687,340.9107 96.0224,332.5439 100.2646,324.8659 102.8127,316.5708 104.6407,313.1792 106.831,311.057 113.6803,306.1785 114.843,304.7018 117.4243,299.7344 119.2867,297.616 121.8352,295.9913 126.5378,293.7416 128.6731,291.9559 130.0723,289.6085 132.4676,283.2905 133.9263,280.8922 135.8476,278.9038 140.2393,275.4894 157.4615,260.326 159.8135,257.2289 163.2477,250.3974 165.1895,248.0597 168.2185,245.6125 178.7729,238.6029 184.8561,235.485 191.1272,232.7339 193.9712,231.9913 195.9819,231.8759 203.2453,232.6847 206.1776,232.6011 213.5617,230.6905 219.9953,227.5604"/>
    <polyline points="194.3778,225.7826 202.4608,225.8352 210.449,225.0239 213.5981,225.6722 218.8363,227.3484 221.8068,227.6321 224.652,227.0518 231.2835,225.0241 235.168,224.6394 239.0852,225.3397 246.7701,227.9618 249.6047,228.5973 253.3981,228.8662 263.012,228.6879 267.7565,229.357 271.4358,230.516 278.5184,233.6945 285.991,235.1078 288.5552,236.4353 292.5895,239.2006 294.3188,239.9326 297.1754,240.3553 302.2985,240.3611 305.0796,241.1559 307.3878,242.9799 312.4453,249.6337 314.6004,251.485 318.9639,253.2122 327.7205,255.2394 330.9756,257.2169 332.2871,258.6393 336.71,265.1942 342.7491,269.6475 344.049,271.0005 345.0297,272.6821 345.7022,274.6573 347.5481,283.0208 351.092,290.5657 354.2838,294.8036 361.6534,301.5919 363.4592,303.6362 371.9234,318.5006 372.741,322.0811 372.803,328.7921 372.3678,331.7682 370.2476,338.8467 370.079,340.6644 370.3006,342.3506 371.3345,344.6777 374.8903,349.9135 378.292,357.1466 382.3509,363.665 382.9391,365.3884 383.1333,367.157 382.9461,368.9554 381.5172,374.3369 381.6504,376.9645 383.3631,380.4829 388.19,387.8658 391.3112,393.4374"/>
    <polyline points="362.3524,413.9173 360.1145,417.9365 356.741,425.8154 354.5528,429.0938 343.3998,439.4949 336.3578,445.388 333.991,448.1269 331.7911,451.9038 329.6586,459.7642 328.2363,463.4497"/>
    <line x1="319.3142" x2="317.5962" y1="477.7587" y2="479.0988"/>
    <line x1="317.2821" x2="318.0903" y1="479.3013" y2="478.791"/>
    <polyline points="375.0506,464.4752 373.9186,466.797 371.9591,469.0653 368.618,471.5368 363.9519,474.1346 357.5069,476.3168 344.7955,478.5087 339.8744,479.8764 335.8214,481.965 331.1905,485.9431 328.9301,487.3067 326.1518,487.9794 321.9587,488.0959 319.1673,488.5467 316.8727,489.6465 312.9381,492.8173 310.6049,493.8229 303.2839,494.3175 295.0305,493.9794 289.3062,494.6308 269.0764,500.4276 262.5042,503.6307 258.646,504.6006 250.6995,504.5425 238.1544,503.2437 227.8061,504.7812 223.613,506.0586 211.2898,512.9799 208.3549,514.0537 206.4583,514.4006 203.6855,514.5268 201.0073,514.2299 193.3442,511.9853 191.5337,511.7484 182.0899,513.2189 180.0775,513.1745 178.2334,512.7332 175.8005,511.3677 173.6617,509.4553 166.4734,500.0851 160.6372,494.3968 158.2771,491.6381 153.7381,484.7301 149.0648,474.6935 143.047,467.7289 141.2563,464.8722 140.0516,461.5761 137.6645,452.208 136.1694,449.3582 132.5311,444.0903 131.5295,440.9852 131.4885,436.5308 132.7827,427.4237 132.8074,420.9912 133.8026,414.4894 133.6365,412.2948 130.0066,405.8223 129.4115,403.7259 129.2181,400.8091 128.6802,399.4347 127.0313,397.4897 123.425,394.2407 121.9264,392.1259 118.2662,383.105 117.4554,379.9877 117.5209,378.4187 118.1268,376.8628 121.9003,371.6367 122.6462,369.4165 122.4936,367.8846 121.9041,366.2969 118.0335,359.5025 117.4393,356.9823 117.5637,355.3813 118.9099,353.2188 126.4926,347.8975 127.651,346.6598 128.3786,345.3127 128.6756,343.0514 128.0531,337.22 128.2183,333.1523 131.2752,322.5502 131.2029,313.3763 131.5704,309.7627 132.3778,307.3387 133.6624,305.2114 136.7698,301.3341 139.3816,299.1825 141.884,298.0419 149.9041,295.4525 152.1084,294.2935 153.9377,292.8085 155.5655,290.0118 157.6713,281.6604 159.1854,279.6626 161.5922,278.7469 172.443,277.3718 175.546,276.4365 178.3851,275.1562 181.53,272.9006 185.5011,268.802 187.3961,267.3306 190.3015,266.1264 195.689,264.7967 198.4964,263.4096 200.9934,261.083 205.8408,255.1751 209.3392,252.4235 210.9024,251.8605 213.4694,251.964 220.6415,254.8184 223.9263,255.2592 226.2025,254.3659 232.203,249.5971 233.8025,248.9153 236.2633,248.6424 250.1424,250.8691 258.6822,254.3138 260.2423,254.6312 262.7171,254.2571 268.94,251.8034 271.5135,251.5993 273.1044,252.0469 274.5938,252.8862 280.6254,258.347 285.1582,259.9214 290.2129,262.344 293.549,262.6724 300.4204,261.4389 302.3044,261.3883 304.7204,262.1735 308.5949,265.4932 311.6544,266.8571 320.1968,267.6988 328.426,269.7086 340.03,269.882 343.8587,270.7776"/>
    <polyline points="339.0602,249.2404 339.8352,251.8862 341.3522,262.6017 342.5611,265.6069 344.1806,268.0816 346.2273,270.066 352.643,274.4455 357.1674,280.6688 359.2511,282.6579 361.9299,284.1887 368.1014,286.8136 372.2819,289.9026 374.3305,292.1209 376.9612,296.351 381.9797,302.6805 383.2096,305.434 383.9125,308.4441 384.5747,317.932 385.2692,320.8107 386.7047,323.3829 391.7597,328.8726 394.1647,332.2835 399.2308,343.4289 400.3677,347.333 400.3969,349.3941 399.9951,351.5228 396.9638,359.0397 396.2263,362.0874 396.216,365.0255 397.3004,373.741 396.8406,382.5128 396.2197,385.4088 395.3472,387.3056 390.691,394.5849 389.5076,397.2782 387.7704,402.6687 386.543,404.3388 381.9981,409.0266 380.9333,410.6293 378.8762,416.5529 375.6287,422.9827 372.8487,430.4163 372.3132,434.0139 372.3445,436.9349 373.1021,439.2456 377.2222,447.3866 378.019,449.9392 378.1416,452.1854 375.7072,460.9094 373.6359,471.4467 372.5414,479.4988 371.6471,482.7476 368.7324,489.8693 367.1006,492.663 363.2921,497.8268 360.1797,505.3957 358.4658,508.3525 357.0178,510.0097 355.3008,511.3645 349.436,514.5131 343.0974,518.6912 340.9767,519.4346 338.6005,519.779 335.9616,519.6826 326.4863,518.3696 324.2448,518.5891 322.2743,519.2332 317.1819,522.5978 306.5477,531.2967 299.0982,535.0545 293.5905,538.319 290.3976,538.6353 281.169,536.1554 269.5651,534.5708 265.5676,534.6089 262.7587,535.9351 257.3187,541.6813 254.3994,543.849 250.2916,544.6739 241.9788,544.9102 238.8509,545.312 235.6851,546.229 231.1455,548.3937"/>
    <polyline points="241.9121,553.3396 239.7852,552.9596 236.5542,551.6886 228.2892,546.5977 226.2536,545.7443 224.1727,545.4587 218.8563,545.5914 215.7758,544.8255 208.0713,540.5894 200.3467,537.4264 194.2399,532.878 191.5156,531.4685 187.4382,530.8983 179.8353,530.7544 174.4196,530.2589 168.5519,530.4349 165.0993,530.2279 161.9259,529.3895 150.9356,524.7947 141.2396,522.2148"/>
    <polyline points="146.1333,520.3837 152.3619,522.5265 162.6666,528.0079 169.2275,530.4124"/>
    <polyline points="147.8461,523.8858 146.6071,521.5675 144.74,516.7619 142.9126,513.8931 141.2663,512.5869 136.3175,510.3551 134.2235,508.8146"/>
    <polyline points="132.0424,505.5263 128.9289,498.1934 127.2971,495.4441 125.3724,493.0213 122.9928,491.0396 116.2087,487.3894 111.7357,484.2929 107.8103,480.6626 100.4511,472.8505 97.6872,470.8085 92.4934,467.6277 90.7386,466.1137 89.3423,464.3786 88.3744,462.4022 87.8787,460.1816 87.9441,456.4783 89.7129,447.3893 90.2735,441.4941 91.8503,434.3322 92.0116,431.085 91.5394,429.1375 90.4778,427.3798 83.207,421.004 81.7984,419.2227 80.4884,416.3227 80.0947,413.2083 80.724,406.7672 80.5318,403.6716 77.2146,393.6409 75.8499,386.4014 73.057,377.9992 73.0293,374.805 74.337,368.491 74.6537,365.3317 74.4865,363.1897 73.0397,356.5751 72.8504,353.2853 73.2034,350.0638 74.9442,342.714 75.9219,335.171 76.5003,333.0843 77.4425,331.1044 78.9537,329.3089 81.0642,327.7304 89.5584,322.9342 91.1677,321.3592 92.1629,319.5638 92.5987,317.5435 92.5689,315.313 91.3114,305.5714 91.7611,302.2364 93.0343,299.2964 95.0696,296.7734 99.6981,292.1384 104.2106,286.3046 105.8369,283.6055 108.3954,277.644 109.5634,275.8708 113.1757,271.9884 115.6129,269.9051 118.3775,268.1407 125.3353,264.6966 127.0095,263.4567 128.859,260.924 131.8558,254.4306"/>
    <polyline points="139.8939,253.5971 136.397,260.0956 135.1204,261.6766 133.5678,262.9497 130.7534,264.3667 127.5917,265.4878 121.2721,266.7152"/>
    <polyline points="115.668,259.5181 119.3267,257.2617 123.6081,252.2592 126.1785,250.2073 128.2802,249.2893 130.6484,248.7109 138.3826,248.0354 141.8133,247.3243 142.7859,246.8804 144.3886,245.5378 147.3961,240.688 148.9338,239.1793 150.8807,238.2848 158.4431,236.5424 162.1743,234.6719 165.4367,231.9184 170.5956,225.6402 172.3762,224.3923 177.1446,221.9185 182.1579,216.9165 185.0048,215.1421 188.3398,214.7705 195.6561,216.5621 197.9279,216.7878 207.194,214.4678 217.8591,214.0648 220.9902,213.6623 223.0319,212.9989 225.0406,211.909 233.132,204.2457 235.2864,202.825 237.488,201.9099 247.5899,200.5284 258.0542,197.1716 262.8065,196.1249 266.2648,196.5428 272.9474,198.7952 275.2741,198.8959 279.0257,197.831 286.301,194.5649"/>
    <polyline points="282.1231,190.3314 279.1956,190.8946 276.8195,190.4426 274.6074,189.0222 269.2343,183.4857 266.9627,181.5817 264.5839,180.27 260.3671,179.1497"/>
    <polyline points="262.076,177.9842 258.2423,180.4546 255.6536,181.4868 249.3971,181.7417 238.2378,183.8899 227.201,184.804 223.47,184.5138 215.6996,182.2097 211.8519,181.9103 209.3275,182.0672 205.6513,182.9641 200.8864,184.7467 198.6149,186.0638 194.2843,189.3014 192.0067,190.3425 189.5189,190.5908 179.9457,189.1008 177.4074,189.4681 174.468,190.9062"/>
    <polyline points="177.0528,189.6023 175.6209,191.9883 174.6637,193.0223 172.9852,193.9781"/>
    <polyline points="171.4088,197.858 173.3391,196.5881 177.0291,192.2251 179.0969,190.5387 181.4661,189.716 184.1638,189.6543"/>
    <polyline points="187.8655,190.3927 177.0719,196.0743 170.1046,200.4791"/>
    <polyline points="152.7104,209.3521 146.3895,213.5796 144.5701,215.2381 142.9801,217.2478 141.5417,221.6696 140.2498,230.2214 139.0821,232.5187 137.1569,233.7122 131.9707,234.3605 129.5331,234.9641 126.7284,236.9978 123.1658,241.7006 119.982,245.0118 118.6516,246.939 117.8539,249.4054 117.1177,256.6199 116.7424,257.7933 115.5436,259.6875 113.8906,261.1479 107.9553,264.7421 102.2438,270.1484 100.276,272.8635 98.711,275.867 97.2531,282.925 96.4445,285.0132 95.7998,285.8983 93.9529,287.3246 87.5241,289.9461 85.4133,291.3392 78.2918,300.4611 75.4879,305.4787 73.0769,308.6395"/>
    <polyline points="75.7856,304.9294 79.3748,302.243 81.6736,299.5878 82.9832,296.4533 83.5147,293.6187"/>
    <polyline points="80.9758,270.8729 87.962,268.0987 90.8326,265.7637 92.0247,263.674 92.3917,262.4461 93.5167,255.5976 95.2613,252.2558"/>
    <polyline points="96.2728,251.9816 95.2133,255.4363 92.8037,259.3116"/>
    <polyline points="86.9138,268.619 85.6785,272.3384 84.5711,280.1058 83.6683,283.6707 82.7508,285.8354 78.8201,291.6465 76.063,296.7921 74.9081,300.1216 73.5517,307.1452 70.9444,313.8878"/>
    <polyline points="68.3049,323.2831 69.5081,328.7697 70.0797,334.7686 69.8441,338.164 68.5979,344.7366 69.2052,351.6035 69.0499,353.8095 67.5764,356.9497 63.2673,362.0925 61.8545,364.2424 60.7279,368.7371 57.3987,375.5258 56.8084,377.8459 58.8373,392.8837 59.2485,394.0114 60.863,396.1823 65.4076,400.2639 67.097,402.3031 67.8241,404.4434 67.9965,406.6592 67.2953,415.8617 67.2849,421.6417 67.7947,427.3679 67.6592,429.7741 66.1226,433.8333 58.9237,443.7169 57.531,446.8234 57.7053,450.7309 59.5131,455.3669 63.4177,461.7859 69.3875,468.4563 70.5693,470.5967 72.8269,476.3427 74.2836,478.3329 78.6538,482.8187 81.6037,488.1657 83.0462,490.1331 85.9653,492.535 93.0826,496.2044 97.5212,500.2543 99.7622,503.0163 104.6568,511.4569 106.27,513.2324 110.9171,517.0458 112.3758,518.9881 115.5231,524.4885 123.2765,532.2555 125.3161,533.595 128.7503,535.0778 142.4549,538.2817 148.6707,541.6599 157.7185,544.6407 160.9535,545.9891 172.4376,551.7354 179.4318,553.0039 181.6303,553.7448 185.647,556.4117 189.762,561.53"/>
    <polyline points="176.4888,562.3144 184.0391,561.4354 191.4939,561.5197 198.9504,560.9715 201.3241,561.108 203.4762,562.2412 208.6446,566.6747 210.9574,567.341 212.1919,567.2026 214.7633,566.1452 222.4813,560.987 224.8507,560.3257 225.9924,560.3791 227.1127,560.6818 229.3166,561.9182 234.8856,566.5569 237.1998,568.0606 239.5577,569.038 241.9401,569.5157 249.1118,569.564 256.3572,570.2921 267.3129,570.6331 273.4079,570.3665 279.4219,569.4516 286.9292,569.4895 290.4374,568.3513 295.8354,564.9682 299.2269,563.6124 306.4789,562.3271 314.5655,559.5874 326.0839,558.3002 336.2763,556.3202 339.6226,554.5661 343.9014,549.4553 345.7827,547.7615 348.2708,547.0473 352.269,547.2956"/>
    <polyline points="338.6104,537.9542 331.8746,538.2881 328.6021,539.4652 326.8328,541.013 323.6202,544.8662 321.7756,546.3816 319.6633,547.3515 313.9518,548.7625 311.9378,549.9434 310.1611,551.7485 306.8877,556.2531"/>
    <line x1="307.4235" x2="299.8415" y1="555.5254" y2="558.8149"/>
    <polyline points="287.2321,559.1749 289.0217,558.1157 291.3146,557.6985 298.9843,558.832 301.3973,558.5971 314.3201,552.6524 320.0547,551.0251 324.025,551.0984 329.8264,552.1737"/>
    <polyline points="340.4864,567.4711 343.2124,563.7319 348.3009,559.3623 349.9895,557.0845 351.1373,553.9915 353.1534,543.1441 355.0235,539.3285 357.4943,536.4606 361.3414,533.431 364.5506,531.5639 375.5939,527.3271 380.0368,524.7357 383.8335,521.4129 388.7954,513.9958 391.7097,511.564 396.631,509.1458 404.2431,507.0719 408.5553,505.4577 411.9498,503.0608 413.4619,500.8968 416.6842,493.5456 421.3647,485.6594 422.9889,482.0653 424.9067,475.6924 426.518,466.4097 427.4743,462.6266 428.423,460.2549 432.4144,453.5936 435.4255,445.1311 436.0748,442.6439 436.228,440.0062 435.0652,433.0545 435.0584,430.4497 435.3749,429.2361 435.9266,428.0813 437.6868,425.9174 445.6888,419.7732 453.2809,413.0551 456.2185,409.3938 457.35,406.7977 458.8672,398.7195 459.0845,394.6216 458.4941,390.4856 455.6322,380.9375 455.0539,376.9182 455.1706,367.5294 454.6686,359.4946 455.8696,353.7998"/>
    <polyline points="433.0916,351.5492 432.7378,354.2871 432.9247,356.6993 435.7738,364.9607 436.6488,368.8406"/>
    <polyline points="429.4064,369.4242 426.6785,365.6485 423.502,354.3529 419.2418,345.7956 418.7089,343.5909 418.2449,337.8811 417.6846,335.6759 415.9304,332.6154 411.1954,326.9799 410.276,324.9383 410.0816,321.4775 410.8584,315.5435"/>
    <polyline points="419.7188,303.6991 418.518,311.0042 418.6427,313.4983 419.3079,315.7773 420.8077,319.0185 422.8049,322.1163 428.898,329.4189"/>
    <polyline points="429.3644,335.9867 426.1016,332.338 417.1566,323.9143 413.7852,320.195 410.7088,315.2598 407.1633,306.9107 404.2791,302.0087 402.3628,300.4351 396.5271,297.1849 394.1688,294.7221 393.0953,291.5468 390.5706,271.6833 390.3507,267.5095 390.7649,258.8411"/>
    <polyline points="388.7531,256.9481 385.0167,255.1252 382.5248,253.4225"/>
    <polyline points="367.4789,237.1672 364.0782,235.776 360.1054,233.1497 350.8041,223.767 346.1271,220.006 342.6765,218.7487 336.2825,217.8833 334.1102,216.9446 332.2696,215.3581"/>
    <polyline points="318.3435,207.7502 316.7724,206.8069 311.0236,201.9922 306.7633,199.029"/>
    <polyline points="312.5156,203.1571 301.1766,201.2614 299.013,200.2681 295.4171,197.1571"/>
    <polyline points="300.2753,185.3931 305.3629,188.5945 311.0303,191.5127 315.8076,193.1309 319.4557,193.6319"/>
    <polyline points="345.4698,205.4019 343.8344,204.8974 341.0415,204.6733 331.7083,206.2311 329.1445,205.8712 327.1441,204.3961 322.6043,196.4626 320.732,194.4339 319.6569,193.7254 315.035,191.6349 307.0806,187.4613 298.5473,184.843 292.5291,182.6478 290.2689,181.1168 285.9208,176.9099 283.6183,175.1388 281.1382,174.1331 279.1497,173.7774"/>
    <line x1="278.7542" x2="284.0182" y1="173.8869" y2="175.4152"/>
    <polyline points="268.3272,178.84 275.243,185.2799 279.7334,188.1488 285.8713,194.1965 289.0102,196.4285 292.4783,197.2689 298.7982,196.9624 302.4547,197.3942 308.0614,199.6299 314.4483,203.1113 316.381,204.6976 317.2197,205.7698 320.6081,212.5612 322.089,214.8272 322.948,215.6896 324.9362,216.8498 326.0992,217.0999 328.9067,216.72 341.8659,210.7353 343.6207,210.2044 346.7157,209.9139 349.4269,210.3175 352.946,211.8482 359.9747,217.2237 361.6417,219.2093 362.7218,221.9381 364.0477,230.1851 365.3721,234.2486 370.4744,241.0785 373.8873,247.7395 375.4881,249.4522 378.4827,251.4601 386.5871,255.3453 389.507,257.5927 391.2045,259.3138 393.9204,263.3006 394.8634,265.597 396.8475,272.9594 398.9153,275.8402 401.0181,277.2972 406.0848,279.7741 413.4668,283.9416 415.5098,285.6402 417.0508,287.631 418.0937,289.8882 419.0079,293.5856 419.6063,302.7554 420.6547,307.5758 422.2974,310.8344 426.6931,317.0219 428.453,320.3184 429.0769,323.9796 428.8825,331.6233 429.2422,335.2747 432.0678,348.2736 435.2917,358.8749 436.318,364.9196 436.6956,371.0286 436.3214,377.1538 435.0406,385.6604 434.1121,388.0483 429.9209,394.9751 429.2102,397.2871 429.1502,400.8465 430.0324,406.9523 429.8894,410.5576 429.0472,412.8376 424.5097,419.1777 423.8391,421.4309 424.3151,425.1746 426.9353,433.3113 428.0912,438.7571 428.301,442.7142 427.825,445.1671 424.4187,453.1342 423.1755,455.2928 413.8412,467.1331 411.1775,469.8309 405.8191,473.6959 402.0077,476.9326 399.5343,479.5431 398.6142,481.742 398.2136,488.6275 397.2884,492.3946 394.9634,495.1719 387.7655,500.1552 385.9149,501.702 384.4499,503.5714 383.6795,506.066 383.5046,514.138 382.8045,516.8843 382.1542,517.9792 377.0852,523.4277 375.3423,527.4274"/>
    <polyline points="367.5246,515.2675 371.5593,505.9012 382.7885,493.0814 385.2697,489.2576 386.7112,484.6996 388.0161,474.8192 389.3154,471.7565 390.7707,470.0867 392.8758,468.7906 395.7531,467.9054 401.7272,466.9946"/>
    <polyline points="408.7326,457.3187 410.2498,451.1301 409.7069,442.3442 410.4217,439.0182 412.2994,436.0957 419.6604,428.7837 423.8362,422.3755"/>
    <polyline points="424.4395,419.3532 424.301,415.5494 423.7271,413.0699 422.6509,410.5301 418.5938,403.0245 417.5202,399.5243 417.8843,396.2154 420.3434,389.6878 420.8218,386.3377 420.184,382.9533 417.2995,376.2918 416.6857,373.0091 417.8522,362.9783 417.8283,354.0162 419.2431,345.7989"/>
    <polyline points="430.5891,341.472 430.0411,343.7334 430.1034,346.1651 431.1523,348.4246 432.6325,350.1654"/>
    <polyline points="432.8461,353.033 430.0196,364.2075 429.3908,370.1707 429.8727,373.6928 432.1838,380.79 432.695,384.5097"/>
    <polyline points="435.7967,381.123 432.7752,384.3898 431.4459,386.7388 431.0915,389.1056 431.6949,391.9248"/>
    <polyline points="468.4068,396.5235 467.9079,415.3742 468.1521,423.6794"/>
    <polyline points="468.0294,425.0102 467.6162,427.0565 466.411,429.7556 464.4648,432.2639 460.0098,437.0304 458.6254,439.5864 458.3211,440.9681 458.7291,445.5226 462.1229,455.7332 462.733,458.4332"/>
    <polyline points="461.8248,467.9102 460.1577,470.7649 452.9443,480.4833 450.6203,484.2485 448.8433,488.2849 447.18,495.7796 445.9007,498.4641 443.7877,500.655 438.7571,504.4658 436.9531,506.7856 435.3023,510.9699 433.5601,518.7824 432.5383,521.7337 431.0055,524.3233 428.8719,526.4516 426.1713,528.1105 417.0319,531.9756 413.0325,534.2563 409.4976,536.8996 404.6309,542.2431 402.2332,543.9247 399.0372,544.7484 387.7863,544.9696 383.4055,546.2287 381.029,547.6651 378.9264,549.4254 375.2725,553.6757 372.2848,556.5907 368.7338,558.7461 364.3808,559.6993 353.0745,559.604 348.7634,560.146 346.4154,561.3522 340.642,567.363 338.3647,568.7677 335.8375,569.6774 332.915,569.7405 324.9681,568.1145 322.1957,568.2096 319.9015,569.4073 318.9408,570.4759 316.3355,575.7373"/>
    <polyline points="304.3311,582.0273 299.5231,582.4968 293.2442,584.7166 289.7184,587.1875 283.0872,592.8637"/>
    <polyline points="287.5,589.1357 280.5302,589.0451 272.5362,589.892 268.4396,589.4377 258.8339,586.098 250.9361,584.3376 248.319,583.0587 243.1827,579.7041 240.6735,578.6837 231.9114,578.4471 226.9504,577.6339 211.2271,573.2265 199.527,569.0805 193.577,567.695 191.2746,566.8484 186.8584,564.5784 184.5551,563.806 177.2776,562.5369 173.809,561.3545 171.2818,561.1096 168.3845,561.731 162.029,563.9461 157.6278,564.4476 155.1122,563.7854 149.6339,560.4277 147.2829,559.4071 141.9866,558.3939 139.458,557.6168 132.6653,553.8501 129.8546,553.4285 126.6729,553.6641"/>
    <polyline points="119.5786,537.0652 125.1917,537.8533 133.933,540.3832 142.2901,540.7847 145.9371,541.6522 148.9252,543.5925 153.4627,547.7049 158.5896,550.828 164.5307,558.1963 166.4373,559.9833 169.114,561.5327"/>
    <line x1="174.3944" x2="178.3205" y1="589.5627" y2="590.1513"/>
    <polyline points="211.5347,542.4111 216.2463,541.8878 219.3789,541.8807 232.64,544.398 236.7895,544.5656 245.0801,543.8592 247.1535,544.057 249.4223,544.7326"/>
    <polyline points="277.7737,552.737 280.3663,551.2582 287.527,548.0837 294.1122,543.443 296.0638,542.459 299.2621,541.7988 306.1866,541.6749 309.3939,540.8251 312.1278,538.8547 319.2077,531.0673 320.938,529.7649 323.8222,528.3716 330.2788,526.6943 340.9872,525.2044 346.017,522.7177 348.3208,522.0884 351.0701,522.0058 357.3021,522.558 359.9766,522.3357"/>
    <polyline points="376.2289,458.6765 376.8508,454.7942 378.1619,451.073"/>
    <polyline points="327.9941,362.1409 327.7969,358.7485 326.895,355.5508 325.4716,352.5224 321.5844,345.812 320.5031,343.3245 319.9034,340.5906 319.2399,334.0014 317.8906,330.8545 316.763,329.5664 314.7163,328.2492 304.0758,324.999 301.7335,323.6415 299.8324,321.911 297.3422,318.5513 292.5838,309.2367 286.1168,300.759 281.4982,291.6405 279.0372,288.0188 275.9676,285.5479 271.834,284.031 268.0621,283.5234 258.6425,283.0164 252.6239,281.8968"/>
    <polyline points="237.5151,263.3227 230.1515,268.6229 226.1777,270.5454 222.8684,271.7256 217.4209,272.6347 205.5556,272.9431"/>
    <polyline points="229.3177,251.8132 234.7671,251.3123 240.8575,249.3244"/>
    <line x1="256.1254" x2="261.7675" y1="217.2421" y2="216.6784"/>
    <polyline points="277.6409,255.7 270.8773,254.381 266.839,253.9868 264.3741,254.0593 261.0138,254.8406 252.78,258.0064 248.9005,258.6662 247.3845,258.459 245.1169,257.5863 238.8727,253.7009 236.441,252.5376 233.9979,251.9427 231.5883,252.0896 228.5068,253.5236 222.137,258.9478 220.0369,260.2764 210.4757,262.8911 206.2861,264.7817 203.7283,266.658 196.6524,272.994 192.4108,275.9479 189.8198,277.2352 181.6069,280.4259 178.3907,282.1858 175.5139,284.4617 171.9062,288.1597 165.6112,296.3003 161.0415,300.7883 156.6631,303.56 148.8226,306.5634 146.8447,307.8753 145.8365,308.9976 144.8777,311.0796 144.5766,313.5873 145.6216,321.9753 145.4681,324.3318 144.9881,325.6685 142.1345,329.7147 140.7668,332.1811 138.7922,338.9688 137.9701,340.9003 135.3097,344.4426 128.7277,350.8005 125.1487,356.0893 118.9345,361.3353"/>
    <polyline points="118.4019,360.33 121.0555,356.8494 125.7386,348.5066"/>
    <polyline points="128.5516,344.6583 130.0338,341.9245 133.2889,331.9882 135.9551,325.7985 137.0932,316.8891 138.1897,314.8509 141.6549,310.687 142.9109,308.7573 145.6284,301.0848 146.6052,299.8605 147.9312,298.9336 150.4114,298.0052 155.8081,296.7583 157.2539,296.0679 158.993,294.6304 160.3937,292.8446 161.5187,290.7366 164.4202,282.2833 165.7985,280.2194 167.9821,278.0703"/>
    <polyline points="195.7771,308.2509 189.9085,313.3059 186.3504,315.6898 183.1608,316.9764 174.9826,319.307"/>
    <line x1="172.7179" x2="168.357" y1="329.1278" y2="335.9674"/>
    <polyline points="158.405,347.2887 158.2099,353.1375 158.5325,366.5938 158.2231,370.6703"/>
    <polygon points="221.5512,344.2783 226.3529,341.1153 230.5871,338.8161 234.3623,337.2652 238.3338,336.1422 242.447,335.4449 246.6496,335.2129 252.8358,335.8041 258.5588,337.4567 263.0711,339.8442 266.9137,343.211 270.2514,347.7667 276.0592,358.4028 282.2468,366.0232 284.4222,369.317 286.2668,374.0277 286.9412,379.5953 287.1894,390.5479 286.8469,394.4158 286.1408,397.9624 285.0607,401.1013 283.6558,403.7687 281.656,406.4177 279.2712,408.7351 274.7614,411.762 269.5229,413.935 264.7516,415.149 254.6047,417.0122 242.6973,421.2564 239.7741,421.9118 236.7915,422.1337 231.9875,421.382 227.5665,419.3229 223.3429,415.9287 218.6755,410.6306 210.6468,400.0902 205.1833,391.7772 204.0002,389.0399 203.1956,386.1636 202.5609,379.221 203.158,369.9427 203.7693,366.6799 204.6892,363.747 206.0822,360.7192 208.2193,357.2204 210.6411,353.9174 213.2217,351.0759 216.8384,347.8323"/>
    <polyline points="276.5491,278.5222 273.0871,277.7218 269.6164,277.7409 256.5884,279.9931 252.5658,281.931 244.4155,287.3197 233.7499,291.363 226.1239,295.9193 222.9842,296.6118 216.2285,296.5326 213.067,297.4429 210.4409,299.7386 206.2848,305.9963 203.7776,307.8602 200.5641,308.45 193.4765,308.1777 190.2427,308.3593 186.5774,309.0862 183.7834,310.153 179.3498,313.7713 175.9971,317.6876 170.4654,327.034 166.4667,335.6893 159.9277,344.8548 157.876,348.2875 155.3924,354.6334 155.1345,356.9151 155.3495,359.2906 158.5745,371.9441 161.8116,379.8483 163.0503,385.8339 165.627,392.4838 166.3813,395.8191 165.9307,398.4427 162.9495,404.5609 162.0231,407.0889 161.7083,409.4809 162.0864,411.6569 165.6902,418.9481 170.1147,429.0063 171.9787,432.4189 173.6043,434.6581 176.4973,437.2718 184.1381,441.1783 188.6672,444.8855 190.4749,446.0221 194.233,447.1324 200.7964,447.3784 203.4442,447.7762 209.693,450.6991 212.0606,451.4115 221.2,451.5127 223.9971,451.9822 226.1953,452.9166 228.3374,454.305 235.9614,460.9093 239.4789,463.1456 250.819,465.9294 253.0435,466.1303 255.2292,465.9134 258.3607,464.7498 265.6014,460.399 271.8906,457.6101 274.3334,455.305 278.4129,449.6897 280.4708,448.2874 281.984,447.939 284.3145,447.9308 293.5195,449.3895 297.8904,449.6381 301.1463,449.1299 304.9225,447.3048 308.1491,444.7842 310.602,441.5012 311.9685,438.1056 314.0159,430.4452 315.0283,428.4597 316.0665,427.161 317.3732,426.0206 319.5741,424.7327 329.1804,420.5537 331.4434,418.9091 333.0579,416.9214 334.137,414.0288 334.6157,410.2864 334.4122,406.4025 333.3365,398.1816 332.1045,394.4232 328.2783,387.7367 327.3509,385.4932 326.9304,379.0627 325.7297,370.1027 326.226,366.2795 330.2814,356.9662 331.2687,352.4832 330.9074,348.2667 328.4471,340.9527 327.7963,337.2984 327.9143,333.1383 329.4998,321.8089 329.3726,318.6856 328.8535,316.5828 327.8933,314.7751 325.9401,312.8764 314.6,307.1202 299.7055,294.8579 295.6138,292.9087 289.2962,291.1602 287.1099,289.8981 285.2157,287.9955 281.2971,282.3948 279.0314,279.9822"/>
    <polyline points="364.8833,217.1775 366.5531,221.0975 367.9193,223.4412 369.6901,225.2565 372.0273,226.7205"/>
    <polyline points="371.7519,224.3375 369.7849,223.148 368.8841,222.2424 365.6313,217.419"/>
    <polyline points="410.6541,282.2479 410.7189,284.0814 411.5648,286.3965 413.1515,288.3053 417.2226,291.7151 419.0851,294.1891"/>
    <polyline points="430.6138,291.5682 430.8864,293.6057 432.2054,295.8742 434.249,297.8423 439.0969,301.5677 441.8341,304.8086 443.1057,308.6245 443.5926,311.289 443.4059,319.7143 443.7438,322.3629 444.6014,324.8605 447.0259,328.5055"/>
    <polyline points="445.219,303.7365 443.1668,301.4132 442.0851,298.901"/>
    <polyline points="215.728,182.216 212.1152,183.6238 206.3507,186.7228 203.945,187.2774 201.9962,187.3751"/>
    <polyline points="208.9202,182.1377 203.7361,186.2284 200.3725,188.2591 196.8495,189.4162 192.5574,190.137"/>
    <polyline points="147.5212,209.7731 144.0716,212.008 139.0848,213.4189"/>
    <polyline points="73.0724,378.0744 74.4241,381.1786 74.8309,383.4858"/>
    <polyline points="79.3581,450.7488 84.7674,458.0612 85.3326,460.2591 84.7905,464.5913"/>
    <polyline points="87.9122,456.8271 93.8693,459.4449 96.6299,461.5391 97.2217,462.4113 97.8834,464.4591 97.9736,466.8662 97.5841,470.7459"/>
    <polyline points="85.6837,476.169 86.3819,469.9063 85.8952,466.2901 84.644,464.4098 79.8163,460.5283 77.2001,457.6465"/>
    <polyline points="94.464,484.2948 97.4421,487.039 98.6839,489.4377"/>
    <line x1="85.3998" x2="91.0453" y1="503.6966" y2="509.6284"/>
    <polyline points="78.2795,494.598 75.9504,491.9866 71.5381,489.2716"/>
    <polyline points="280.1252,536.024 282.0568,535.5314 284.1667,535.582 292.2036,537.4145 295.2592,537.4372"/>
  </g>
</svg>
