<?xml version="1.0" encoding="utf-8" ?>
<svg xmlns="http://www.w3.org/2000/svg" xmlns:cc="http://creativecommons.org/ns" xmlns:dc="http://purl.org/dc/elements/1.1/" xmlns:ev="http://www.w3.org/2001/xml-events" xmlns:inkscape="http://www.inkscape.org/namespaces/inkscape" xmlns:rdf="http://www.w3.org/1999/02/22-rdf-syntax-ns" xmlns:sodipodi="http://sodipodi.sourceforge.net/DTD/sodipodi-0.dtd" xmlns:xlink="http://www.w3.org/1999/xlink" baseProfile="tiny" height="14.8cm" version="1.2" viewBox="0 0 396.85039370078744 559.3700787401575" width="10.5cm">
  <metadata>
    <rdf:RDF>
      <cc:Work>
        <dc:format>image/svg+xml</dc:format>
        <dc:source>vsk save -s 0 -c /Users/hhip/src/sketches/machine_typography/config/05_4.json /Users/hhip/src/sketches/machine_typography/sketch_machine_typography.py</dc:source>
        <dc:date>2022-01-24T11:07:55.469207</dc:date>
      </cc:Work>
    </rdf:RDF>
  </metadata>
  <defs/>
  <g fill="none" id="layer1" inkscape:groupmode="layer" inkscape:label="1" stroke="#000000" style="display:inline">
    <line x1="359.0551" x2="37.7953" y1="37.7953" y2="37.7953"/>
    <line x1="359.0551" x2="37.7953" y1="43.4868" y2="43.4868"/>
    <line x1="359.0551" x2="37.7953" y1="49.1783" y2="49.1783"/>
    <line x1="359.0551" x2="37.7953" y1="54.8698" y2="54.8698"/>
    <line x1="359.0551" x2="37.7953" y1="60.5614" y2="60.5614"/>
    <line x1="359.0551" x2="37.7953" y1="66.2529" y2="66.2529"/>
    <line x1="359.0551" x2="37.7953" y1="71.9444" y2="71.9444"/>
    <line x1="359.0551" x2="37.7953" y1="77.6359" y2="77.6359"/>
    <line x1="246.5573" x2="37.7953" y1="83.3275" y2="83.3275"/>
    <line x1="359.0551" x2="275.0865" y1="83.3275" y2="83.3275"/>
    <line x1="239.6122" x2="37.7953" y1="89.019" y2="89.019"/>
    <line x1="359.0551" x2="277.716" y1="89.019" y2="89.019"/>
    <line x1="234.9757" x2="37.7953" y1="94.7105" y2="94.7105"/>
    <line x1="359.0551" x2="278.219" y1="94.7105" y2="94.7105"/>
    <line x1="231.4277" x2="37.7953" y1="100.402" y2="100.402"/>
    <line x1="359.0551" x2="277.6102" y1="100.402" y2="100.402"/>
    <line x1="228.8099" x2="37.7953" y1="106.0936" y2="106.0936"/>
    <line x1="359.0551" x2="275.9971" y1="106.0936" y2="106.0936"/>
    <line x1="227.0718" x2="37.7953" y1="111.7851" y2="111.7851"/>
    <line x1="359.0551" x2="273.377" y1="111.7851" y2="111.7851"/>
    <line x1="226.1682" x2="37.7953" y1="117.4766" y2="117.4766"/>
    <line x1="359.0551" x2="269.7463" y1="117.4766" y2="117.4766"/>
    <line x1="226.089" x2="37.7953" y1="123.1681" y2="123.1681"/>
    <line x1="359.0551" x2="265.0843" y1="123.1681" y2="123.1681"/>
    <line x1="227.5222" x2="37.7953" y1="128.8597" y2="128.8597"/>
    <line x1="359.0551" x2="258.8004" y1="128.8597" y2="128.8597"/>
    <line x1="234.2677" x2="37.7953" y1="134.5512" y2="134.5512"/>
    <line x1="359.0551" x2="246.8458" y1="134.5512" y2="134.5512"/>
    <line x1="359.0551" x2="37.7953" y1="140.2427" y2="140.2427"/>
    <line x1="359.0551" x2="37.7953" y1="145.9342" y2="145.9342"/>
    <line x1="359.0551" x2="37.7953" y1="151.6258" y2="151.6258"/>
    <line x1="359.0551" x2="37.7953" y1="157.3173" y2="157.3173"/>
    <line x1="359.0551" x2="37.7953" y1="163.0088" y2="163.0088"/>
    <line x1="359.0551" x2="37.7953" y1="168.7003" y2="168.7003"/>
    <line x1="359.0551" x2="37.7953" y1="174.3918" y2="174.3918"/>
    <line x1="359.0551" x2="37.7953" y1="180.0834" y2="180.0834"/>
    <line x1="359.0551" x2="37.7953" y1="185.7749" y2="185.7749"/>
    <line x1="359.0551" x2="37.7953" y1="191.4664" y2="191.4664"/>
    <line x1="359.0551" x2="37.7953" y1="197.1579" y2="197.1579"/>
    <line x1="359.0551" x2="37.7953" y1="202.8495" y2="202.8495"/>
    <line x1="359.0551" x2="37.7953" y1="208.541" y2="208.541"/>
    <line x1="359.0551" x2="37.7953" y1="214.2325" y2="214.2325"/>
    <line x1="359.0551" x2="37.7953" y1="219.924" y2="219.924"/>
    <line x1="359.0551" x2="37.7953" y1="225.6156" y2="225.6156"/>
    <line x1="359.0551" x2="37.7953" y1="231.3071" y2="231.3071"/>
    <line x1="359.0551" x2="37.7953" y1="236.9986" y2="236.9986"/>
    <line x1="359.0551" x2="37.7953" y1="242.6901" y2="242.6901"/>
    <line x1="359.0551" x2="37.7953" y1="248.3817" y2="248.3817"/>
    <line x1="180.6798" x2="37.7953" y1="254.0732" y2="254.0732"/>
    <line x1="359.0551" x2="202.1401" y1="254.0732" y2="254.0732"/>
    <line x1="169.2488" x2="37.7953" y1="259.7647" y2="259.7647"/>
    <line x1="359.0551" x2="200.6729" y1="259.7647" y2="259.7647"/>
    <line x1="161.9544" x2="37.7953" y1="265.4562" y2="265.4562"/>
    <line x1="359.0551" x2="197.9519" y1="265.4562" y2="265.4562"/>
    <line x1="157.3888" x2="37.7953" y1="271.1478" y2="271.1478"/>
    <line x1="359.0551" x2="193.9892" y1="271.1478" y2="271.1478"/>
    <line x1="153.4203" x2="37.7953" y1="276.8393" y2="276.8393"/>
    <line x1="359.0551" x2="190.4084" y1="276.8393" y2="276.8393"/>
    <line x1="149.6094" x2="37.7953" y1="282.5308" y2="282.5308"/>
    <line x1="359.0551" x2="186.8928" y1="282.5308" y2="282.5308"/>
    <line x1="145.9027" x2="37.7953" y1="288.2223" y2="288.2223"/>
    <line x1="359.0551" x2="183.4381" y1="288.2223" y2="288.2223"/>
    <line x1="142.2714" x2="37.7953" y1="293.9138" y2="293.9138"/>
    <line x1="359.0551" x2="180.0404" y1="293.9138" y2="293.9138"/>
    <line x1="138.6979" x2="37.7953" y1="299.6054" y2="299.6054"/>
    <line x1="359.0551" x2="176.6962" y1="299.6054" y2="299.6054"/>
    <line x1="135.1706" x2="37.7953" y1="305.2969" y2="305.2969"/>
    <line x1="359.0551" x2="173.4024" y1="305.2969" y2="305.2969"/>
    <line x1="131.6849" x2="37.7953" y1="310.9884" y2="310.9884"/>
    <line x1="359.0551" x2="170.1562" y1="310.9884" y2="310.9884"/>
    <line x1="128.2359" x2="37.7953" y1="316.6799" y2="316.6799"/>
    <line x1="359.0551" x2="166.9564" y1="316.6799" y2="316.6799"/>
    <line x1="124.8208" x2="37.7953" y1="322.3715" y2="322.3715"/>
    <line x1="359.0551" x2="163.8087" y1="322.3715" y2="322.3715"/>
    <line x1="121.4388" x2="37.7953" y1="328.063" y2="328.063"/>
    <line x1="359.0551" x2="160.7028" y1="328.063" y2="328.063"/>
    <line x1="118.0887" x2="37.7953" y1="333.7545" y2="333.7545"/>
    <line x1="326.2604" x2="157.6395" y1="333.7545" y2="333.7545"/>
    <line x1="359.0551" x2="329.7632" y1="333.7545" y2="333.7545"/>
    <line x1="114.7698" x2="37.7953" y1="339.446" y2="339.446"/>
    <line x1="320.4581" x2="154.6198" y1="339.446" y2="339.446"/>
    <line x1="359.0551" x2="329.1458" y1="339.446" y2="339.446"/>
    <line x1="111.481" x2="37.7953" y1="345.1376" y2="345.1376"/>
    <line x1="316.0431" x2="151.6445" y1="345.1376" y2="345.1376"/>
    <line x1="359.0551" x2="327.1372" y1="345.1376" y2="345.1376"/>
    <line x1="108.2216" x2="37.7953" y1="350.8291" y2="350.8291"/>
    <line x1="311.3936" x2="148.7145" y1="350.8291" y2="350.8291"/>
    <line x1="359.0551" x2="322.0356" y1="350.8291" y2="350.8291"/>
    <line x1="104.9907" x2="37.7953" y1="356.5206" y2="356.5206"/>
    <line x1="306.5454" x2="145.8308" y1="356.5206" y2="356.5206"/>
    <line x1="359.0551" x2="317.3711" y1="356.5206" y2="356.5206"/>
    <line x1="101.8091" x2="37.7953" y1="362.2121" y2="362.2121"/>
    <line x1="301.5262" x2="142.9944" y1="362.2121" y2="362.2121"/>
    <line x1="359.0551" x2="312.5568" y1="362.2121" y2="362.2121"/>
    <line x1="98.6976" x2="37.7953" y1="367.9037" y2="367.9037"/>
    <line x1="296.3577" x2="140.2067" y1="367.9037" y2="367.9037"/>
    <line x1="359.0551" x2="307.589" y1="367.9037" y2="367.9037"/>
    <line x1="95.6561" x2="37.7953" y1="373.5952" y2="373.5952"/>
    <line x1="291.0572" x2="137.4919" y1="373.5952" y2="373.5952"/>
    <line x1="359.0551" x2="302.4635" y1="373.5952" y2="373.5952"/>
    <line x1="92.686" x2="37.7953" y1="379.2867" y2="379.2867"/>
    <line x1="285.6327" x2="134.8617" y1="379.2867" y2="379.2867"/>
    <line x1="359.0551" x2="297.1764" y1="379.2867" y2="379.2867"/>
    <line x1="89.7887" x2="37.7953" y1="384.9782" y2="384.9782"/>
    <line x1="280.0369" x2="132.321" y1="384.9782" y2="384.9782"/>
    <line x1="359.0551" x2="291.7232" y1="384.9782" y2="384.9782"/>
    <line x1="86.9659" x2="37.7953" y1="390.6698" y2="390.6698"/>
    <line x1="274.2522" x2="129.8753" y1="390.6698" y2="390.6698"/>
    <line x1="359.0551" x2="286.0994" y1="390.6698" y2="390.6698"/>
    <line x1="84.219" x2="37.7953" y1="396.3613" y2="396.3613"/>
    <line x1="268.2715" x2="127.5304" y1="396.3613" y2="396.3613"/>
    <line x1="359.0551" x2="280.3003" y1="396.3613" y2="396.3613"/>
    <line x1="81.5497" x2="37.7953" y1="402.0528" y2="402.0528"/>
    <line x1="262.0872" x2="125.2932" y1="402.0528" y2="402.0528"/>
    <line x1="359.0551" x2="274.321" y1="402.0528" y2="402.0528"/>
    <line x1="78.9598" x2="37.7953" y1="407.7443" y2="407.7443"/>
    <line x1="255.6914" x2="123.1708" y1="407.7443" y2="407.7443"/>
    <line x1="359.0551" x2="268.1562" y1="407.7443" y2="407.7443"/>
    <line x1="76.4744" x2="37.7953" y1="413.4358" y2="413.4358"/>
    <line x1="249.0754" x2="121.1716" y1="413.4358" y2="413.4358"/>
    <line x1="359.0551" x2="261.8171" y1="413.4358" y2="413.4358"/>
    <line x1="74.1754" x2="37.7953" y1="419.1274" y2="419.1274"/>
    <line x1="242.2301" x2="119.3161" y1="419.1274" y2="419.1274"/>
    <line x1="359.0551" x2="255.3283" y1="419.1274" y2="419.1274"/>
    <line x1="72.1001" x2="37.7953" y1="424.8189" y2="424.8189"/>
    <line x1="235.1308" x2="117.6416" y1="424.8189" y2="424.8189"/>
    <line x1="359.0551" x2="248.672" y1="424.8189" y2="424.8189"/>
    <line x1="70.294" x2="37.7953" y1="430.5104" y2="430.5104"/>
    <line x1="227.7097" x2="116.1902" y1="430.5104" y2="430.5104"/>
    <line x1="359.0551" x2="241.8248" y1="430.5104" y2="430.5104"/>
    <line x1="68.8199" x2="37.7953" y1="436.2019" y2="436.2019"/>
    <line x1="219.9189" x2="115.0241" y1="436.2019" y2="436.2019"/>
    <line x1="359.0551" x2="234.7573" y1="436.2019" y2="436.2019"/>
    <line x1="67.7696" x2="37.7953" y1="441.8935" y2="441.8935"/>
    <line x1="211.7018" x2="114.2411" y1="441.8935" y2="441.8935"/>
    <line x1="359.0551" x2="227.4317" y1="441.8935" y2="441.8935"/>
    <line x1="67.2862" x2="37.7953" y1="447.585" y2="447.585"/>
    <line x1="202.9856" x2="114.0112" y1="447.585" y2="447.585"/>
    <line x1="359.0551" x2="219.7979" y1="447.585" y2="447.585"/>
    <line x1="67.483" x2="37.7953" y1="453.2765" y2="453.2765"/>
    <line x1="193.6737" x2="114.5316" y1="453.2765" y2="453.2765"/>
    <line x1="359.0551" x2="211.7872" y1="453.2765" y2="453.2765"/>
    <line x1="68.3923" x2="37.7953" y1="458.968" y2="458.968"/>
    <line x1="183.5526" x2="116.1714" y1="458.968" y2="458.968"/>
    <line x1="359.0551" x2="203.2967" y1="458.968" y2="458.968"/>
    <line x1="70.3438" x2="37.7953" y1="464.6596" y2="464.6596"/>
    <line x1="171.2879" x2="119.9659" y1="464.6596" y2="464.6596"/>
    <line x1="359.0551" x2="193.891" y1="464.6596" y2="464.6596"/>
    <line x1="73.9521" x2="37.7953" y1="470.3511" y2="470.3511"/>
    <line x1="151.7659" x2="130.4831" y1="470.3511" y2="470.3511"/>
    <line x1="359.0551" x2="183.0055" y1="470.3511" y2="470.3511"/>
    <line x1="79.3468" x2="37.7953" y1="476.0426" y2="476.0426"/>
    <line x1="359.0551" x2="169.7289" y1="476.0426" y2="476.0426"/>
    <line x1="87.8822" x2="37.7953" y1="481.7341" y2="481.7341"/>
    <line x1="359.0551" x2="151.6576" y1="481.7341" y2="481.7341"/>
    <line x1="359.0551" x2="37.7953" y1="487.4257" y2="487.4257"/>
    <line x1="359.0551" x2="37.7953" y1="493.1172" y2="493.1172"/>
    <line x1="359.0551" x2="37.7953" y1="498.8087" y2="498.8087"/>
    <line x1="359.0551" x2="37.7953" y1="504.5002" y2="504.5002"/>
    <line x1="359.0551" x2="37.7953" y1="510.1918" y2="510.1918"/>
    <line x1="359.0551" x2="37.7953" y1="515.8833" y2="515.8833"/>
    <line x1="359.0551" x2="37.7953" y1="521.5748" y2="521.5748"/>
    <line x1="269.7128" x2="255.0343" y1="80.4817" y2="80.4817"/>
    <line x1="275.9758" x2="243.8344" y1="86.1732" y2="86.1732"/>
    <line x1="277.3781" x2="238.0939" y1="91.8648" y2="91.8648"/>
    <line x1="277.2797" x2="233.9751" y1="97.5563" y2="97.5563"/>
    <line x1="276.143" x2="230.8391" y1="103.2478" y2="103.2478"/>
    <line x1="273.9794" x2="228.6248" y1="108.9393" y2="108.9393"/>
    <line x1="270.789" x2="227.2839" y1="114.6308" y2="114.6308"/>
    <line x1="266.5716" x2="226.7724" y1="120.3224" y2="120.3224"/>
    <line x1="261.1046" x2="227.3059" y1="126.0139" y2="126.0139"/>
    <line x1="252.6529" x2="230.5954" y1="131.7054" y2="131.7054"/>
    <line x1="200.4614" x2="190.3537" y1="251.2274" y2="251.2274"/>
    <line x1="200.8035" x2="176.0904" y1="256.9189" y2="256.9189"/>
    <line x1="198.7044" x2="166.4263" y1="262.6105" y2="262.6105"/>
    <line x1="194.9077" x2="160.3804" y1="268.302" y2="268.302"/>
    <line x1="191.2975" x2="156.3015" y1="273.9935" y2="273.9935"/>
    <line x1="187.7544" x2="152.4092" y1="279.685" y2="279.685"/>
    <line x1="184.274" x2="148.6475" y1="285.3766" y2="285.3766"/>
    <line x1="180.8521" x2="144.9757" y1="291.0681" y2="291.0681"/>
    <line x1="177.4852" x2="141.3709" y1="296.7596" y2="296.7596"/>
    <line x1="174.17" x2="137.8184" y1="302.4511" y2="302.4511"/>
    <line x1="170.9034" x2="134.3089" y1="308.1427" y2="308.1427"/>
    <line x1="167.6829" x2="130.84" y1="313.8342" y2="313.8342"/>
    <line x1="164.5136" x2="127.4058" y1="319.5257" y2="319.5257"/>
    <line x1="161.3894" x2="124.0051" y1="325.2172" y2="325.2172"/>
    <line x1="158.3074" x2="120.637" y1="330.9088" y2="330.9088"/>
    <line x1="155.2686" x2="117.3005" y1="336.6003" y2="336.6003"/>
    <line x1="328.6222" x2="323.8306" y1="336.6003" y2="336.6003"/>
    <line x1="152.2737" x2="113.9947" y1="342.2918" y2="342.2918"/>
    <line x1="327.4528" x2="319.2386" y1="342.2918" y2="342.2918"/>
    <line x1="149.3237" x2="110.7188" y1="347.9833" y2="347.9833"/>
    <line x1="323.3472" x2="314.7206" y1="347.9833" y2="347.9833"/>
    <line x1="146.4195" x2="107.4719" y1="353.6748" y2="353.6748"/>
    <line x1="318.744" x2="309.9848" y1="353.6748" y2="353.6748"/>
    <line x1="143.5621" x2="104.2567" y1="359.3664" y2="359.3664"/>
    <line x1="313.9923" x2="305.063" y1="359.3664" y2="359.3664"/>
    <line x1="140.7526" x2="101.1063" y1="365.0579" y2="365.0579"/>
    <line x1="309.0884" x2="299.98" y1="365.0579" y2="365.0579"/>
    <line x1="138.0016" x2="98.0253" y1="370.7494" y2="370.7494"/>
    <line x1="304.0284" x2="294.7555" y1="370.7494" y2="370.7494"/>
    <line x1="135.3333" x2="95.0148" y1="376.4409" y2="376.4409"/>
    <line x1="298.8081" x2="289.4053" y1="376.4409" y2="376.4409"/>
    <line x1="132.7521" x2="92.0765" y1="382.1325" y2="382.1325"/>
    <line x1="293.4232" x2="283.9172" y1="382.1325" y2="382.1325"/>
    <line x1="130.2633" x2="89.2118" y1="387.824" y2="387.824"/>
    <line x1="287.8695" x2="278.2455" y1="387.824" y2="387.824"/>
    <line x1="127.8724" x2="86.4223" y1="393.5155" y2="393.5155"/>
    <line x1="282.1421" x2="272.3823" y1="393.5155" y2="393.5155"/>
    <line x1="125.5858" x2="83.7096" y1="399.207" y2="399.207"/>
    <line x1="276.2363" x2="266.3205" y1="399.207" y2="399.207"/>
    <line x1="123.4105" x2="81.0754" y1="404.8986" y2="404.8986"/>
    <line x1="270.1469" x2="260.0523" y1="404.8986" y2="404.8986"/>
    <line x1="121.3542" x2="78.5223" y1="410.5901" y2="410.5901"/>
    <line x1="263.8726" x2="253.5694" y1="410.5901" y2="410.5901"/>
    <line x1="119.4284" x2="76.1149" y1="416.2816" y2="416.2816"/>
    <line x1="257.4454" x2="246.8631" y1="416.2816" y2="416.2816"/>
    <line x1="117.6661" x2="73.9122" y1="421.9731" y2="421.9731"/>
    <line x1="250.8585" x2="239.9237" y1="421.9731" y2="421.9731"/>
    <line x1="116.1047" x2="71.9534" y1="427.6647" y2="427.6647"/>
    <line x1="244.0904" x2="232.7034" y1="427.6647" y2="427.6647"/>
    <line x1="114.7949" x2="70.2918" y1="433.3562" y2="433.3562"/>
    <line x1="237.1144" x2="225.1426" y1="433.3562" y2="433.3562"/>
    <line x1="113.8133" x2="69.0034" y1="439.0477" y2="439.0477"/>
    <line x1="229.8961" x2="217.1923" y1="439.0477" y2="439.0477"/>
    <line x1="113.2855" x2="68.2038" y1="444.7392" y2="444.7392"/>
    <line x1="222.3908" x2="208.7903" y1="444.7392" y2="444.7392"/>
    <line x1="113.4047" x2="68.0643" y1="450.4308" y2="450.4308"/>
    <line x1="214.5378" x2="199.856" y1="450.4308" y2="450.4308"/>
    <line x1="114.3876" x2="68.5985" y1="456.1223" y2="456.1223"/>
    <line x1="206.2517" x2="190.2816" y1="456.1223" y2="456.1223"/>
    <line x1="116.7839" x2="70.0062" y1="461.8138" y2="461.8138"/>
    <line x1="197.2787" x2="179.5784" y1="461.8138" y2="461.8138"/>
    <line x1="122.2504" x2="72.8081" y1="467.5053" y2="467.5053"/>
    <line x1="187.0335" x2="165.7945" y1="467.5053" y2="467.5053"/>
    <line x1="174.8269" x2="77.4397" y1="473.1969" y2="473.1969"/>
    <line x1="159.0001" x2="84.3859" y1="478.8884" y2="478.8884"/>
    <line x1="134.1529" x2="99.1054" y1="484.5799" y2="484.5799"/>
  </g>
  <g fill="none" id="layer2" inkscape:groupmode="layer" inkscape:label="2" stroke="#00ffff" style="display:inline">
    <line x1="268.6438" x2="253.9653" y1="79.4127" y2="79.4127"/>
    <line x1="274.9068" x2="242.7654" y1="85.1042" y2="85.1042"/>
    <line x1="276.3091" x2="237.0249" y1="90.7957" y2="90.7957"/>
    <line x1="276.2107" x2="232.9061" y1="96.4873" y2="96.4873"/>
    <line x1="275.074" x2="229.7701" y1="102.1788" y2="102.1788"/>
    <line x1="272.9104" x2="227.5558" y1="107.8703" y2="107.8703"/>
    <line x1="269.72" x2="226.2149" y1="113.5618" y2="113.5618"/>
    <line x1="265.5026" x2="225.7034" y1="119.2534" y2="119.2534"/>
    <line x1="260.0355" x2="226.2369" y1="124.9449" y2="124.9449"/>
    <line x1="251.5839" x2="229.5264" y1="130.6364" y2="130.6364"/>
    <line x1="199.3924" x2="189.2847" y1="250.1584" y2="250.1584"/>
    <line x1="199.7345" x2="175.0213" y1="255.8499" y2="255.8499"/>
    <line x1="197.6354" x2="165.3573" y1="261.5415" y2="261.5415"/>
    <line x1="193.8387" x2="159.3113" y1="267.233" y2="267.233"/>
    <line x1="190.2284" x2="155.2325" y1="272.9245" y2="272.9245"/>
    <line x1="186.6854" x2="151.3402" y1="278.616" y2="278.616"/>
    <line x1="183.2049" x2="147.5784" y1="284.3076" y2="284.3076"/>
    <line x1="179.7831" x2="143.9067" y1="289.9991" y2="289.9991"/>
    <line x1="176.4162" x2="140.3019" y1="295.6906" y2="295.6906"/>
    <line x1="173.1009" x2="136.7494" y1="301.3821" y2="301.3821"/>
    <line x1="169.8344" x2="133.2399" y1="307.0736" y2="307.0736"/>
    <line x1="166.6139" x2="129.771" y1="312.7652" y2="312.7652"/>
    <line x1="163.4446" x2="126.3368" y1="318.4567" y2="318.4567"/>
    <line x1="160.3204" x2="122.9361" y1="324.1482" y2="324.1482"/>
    <line x1="157.2384" x2="119.568" y1="329.8397" y2="329.8397"/>
    <line x1="154.1995" x2="116.2315" y1="335.5313" y2="335.5313"/>
    <line x1="327.5532" x2="322.7616" y1="335.5313" y2="335.5313"/>
    <line x1="151.2047" x2="112.9257" y1="341.2228" y2="341.2228"/>
    <line x1="326.3838" x2="318.1696" y1="341.2228" y2="341.2228"/>
    <line x1="148.2546" x2="109.6498" y1="346.9143" y2="346.9143"/>
    <line x1="322.2781" x2="313.6516" y1="346.9143" y2="346.9143"/>
    <line x1="145.3505" x2="106.4029" y1="352.6058" y2="352.6058"/>
    <line x1="317.675" x2="308.9158" y1="352.6058" y2="352.6058"/>
    <line x1="142.4931" x2="103.1876" y1="358.2974" y2="358.2974"/>
    <line x1="312.9233" x2="303.994" y1="358.2974" y2="358.2974"/>
    <line x1="139.6836" x2="100.0373" y1="363.9889" y2="363.9889"/>
    <line x1="308.0194" x2="298.911" y1="363.9889" y2="363.9889"/>
    <line x1="136.9326" x2="96.9563" y1="369.6804" y2="369.6804"/>
    <line x1="302.9593" x2="293.6864" y1="369.6804" y2="369.6804"/>
    <line x1="134.2643" x2="93.9458" y1="375.3719" y2="375.3719"/>
    <line x1="297.739" x2="288.3363" y1="375.3719" y2="375.3719"/>
    <line x1="131.6831" x2="91.0075" y1="381.0635" y2="381.0635"/>
    <line x1="292.3542" x2="282.8482" y1="381.0635" y2="381.0635"/>
    <line x1="129.1943" x2="88.1428" y1="386.755" y2="386.755"/>
    <line x1="286.8005" x2="277.1765" y1="386.755" y2="386.755"/>
    <line x1="126.8034" x2="85.3533" y1="392.4465" y2="392.4465"/>
    <line x1="281.0731" x2="271.3133" y1="392.4465" y2="392.4465"/>
    <line x1="124.5168" x2="82.6406" y1="398.138" y2="398.138"/>
    <line x1="275.1673" x2="265.2515" y1="398.138" y2="398.138"/>
    <line x1="122.3415" x2="80.0064" y1="403.8296" y2="403.8296"/>
    <line x1="269.0779" x2="258.9833" y1="403.8296" y2="403.8296"/>
    <line x1="120.2851" x2="77.4533" y1="409.5211" y2="409.5211"/>
    <line x1="262.8036" x2="252.5004" y1="409.5211" y2="409.5211"/>
    <line x1="118.3594" x2="75.0458" y1="415.2126" y2="415.2126"/>
    <line x1="256.3763" x2="245.7941" y1="415.2126" y2="415.2126"/>
    <line x1="116.5971" x2="72.8432" y1="420.9041" y2="420.9041"/>
    <line x1="249.7895" x2="238.8547" y1="420.9041" y2="420.9041"/>
    <line x1="115.0357" x2="70.8844" y1="426.5956" y2="426.5956"/>
    <line x1="243.0214" x2="231.6344" y1="426.5956" y2="426.5956"/>
    <line x1="113.7259" x2="69.2227" y1="432.2872" y2="432.2872"/>
    <line x1="236.0454" x2="224.0736" y1="432.2872" y2="432.2872"/>
    <line x1="112.7443" x2="67.9344" y1="437.9787" y2="437.9787"/>
    <line x1="228.8271" x2="216.1233" y1="437.9787" y2="437.9787"/>
    <line x1="112.2165" x2="67.1348" y1="443.6702" y2="443.6702"/>
    <line x1="221.3218" x2="207.7213" y1="443.6702" y2="443.6702"/>
    <line x1="112.3357" x2="66.9953" y1="449.3617" y2="449.3617"/>
    <line x1="213.4688" x2="198.787" y1="449.3617" y2="449.3617"/>
    <line x1="113.3186" x2="67.5295" y1="455.0533" y2="455.0533"/>
    <line x1="205.1826" x2="189.2126" y1="455.0533" y2="455.0533"/>
    <line x1="115.7149" x2="68.9372" y1="460.7448" y2="460.7448"/>
    <line x1="196.2097" x2="178.5093" y1="460.7448" y2="460.7448"/>
    <line x1="121.1814" x2="71.7391" y1="466.4363" y2="466.4363"/>
    <line x1="185.9645" x2="164.7255" y1="466.4363" y2="466.4363"/>
    <line x1="173.7578" x2="76.3707" y1="472.1278" y2="472.1278"/>
    <line x1="157.9311" x2="83.3169" y1="477.8194" y2="477.8194"/>
    <line x1="133.0839" x2="98.0364" y1="483.5109" y2="483.5109"/>
  </g>
  <g fill="none" id="layer3" inkscape:groupmode="layer" inkscape:label="3" stroke="#ff00ff" style="display:inline">
    <line x1="270.7818" x2="256.1033" y1="81.5507" y2="81.5507"/>
    <line x1="277.0448" x2="244.9035" y1="87.2422" y2="87.2422"/>
    <line x1="278.4471" x2="239.1629" y1="92.9338" y2="92.9338"/>
    <line x1="278.3487" x2="235.0441" y1="98.6253" y2="98.6253"/>
    <line x1="277.212" x2="231.9082" y1="104.3168" y2="104.3168"/>
    <line x1="275.0484" x2="229.6938" y1="110.0083" y2="110.0083"/>
    <line x1="271.858" x2="228.3529" y1="115.6999" y2="115.6999"/>
    <line x1="267.6406" x2="227.8414" y1="121.3914" y2="121.3914"/>
    <line x1="262.1736" x2="228.3749" y1="127.0829" y2="127.0829"/>
    <line x1="253.7219" x2="231.6644" y1="132.7744" y2="132.7744"/>
    <line x1="201.5304" x2="191.4227" y1="252.2964" y2="252.2964"/>
    <line x1="201.8725" x2="177.1594" y1="257.988" y2="257.988"/>
    <line x1="199.7734" x2="167.4953" y1="263.6795" y2="263.6795"/>
    <line x1="195.9767" x2="161.4494" y1="269.371" y2="269.371"/>
    <line x1="192.3665" x2="157.3705" y1="275.0625" y2="275.0625"/>
    <line x1="188.8234" x2="153.4782" y1="280.7541" y2="280.7541"/>
    <line x1="185.343" x2="149.7165" y1="286.4456" y2="286.4456"/>
    <line x1="181.9211" x2="146.0447" y1="292.1371" y2="292.1371"/>
    <line x1="178.5542" x2="142.4399" y1="297.8286" y2="297.8286"/>
    <line x1="175.239" x2="138.8874" y1="303.5201" y2="303.5201"/>
    <line x1="171.9724" x2="135.3779" y1="309.2117" y2="309.2117"/>
    <line x1="168.7519" x2="131.909" y1="314.9032" y2="314.9032"/>
    <line x1="165.5826" x2="128.4748" y1="320.5947" y2="320.5947"/>
    <line x1="162.4584" x2="125.0741" y1="326.2862" y2="326.2862"/>
    <line x1="159.3764" x2="121.706" y1="331.9778" y2="331.9778"/>
    <line x1="156.3376" x2="118.3695" y1="337.6693" y2="337.6693"/>
    <line x1="329.6912" x2="324.8996" y1="337.6693" y2="337.6693"/>
    <line x1="153.3427" x2="115.0638" y1="343.3608" y2="343.3608"/>
    <line x1="328.5219" x2="320.3076" y1="343.3608" y2="343.3608"/>
    <line x1="150.3927" x2="111.7878" y1="349.0523" y2="349.0523"/>
    <line x1="324.4162" x2="315.7896" y1="349.0523" y2="349.0523"/>
    <line x1="147.4885" x2="108.5409" y1="354.7439" y2="354.7439"/>
    <line x1="319.813" x2="311.0538" y1="354.7439" y2="354.7439"/>
    <line x1="144.6311" x2="105.3257" y1="360.4354" y2="360.4354"/>
    <line x1="315.0613" x2="306.1321" y1="360.4354" y2="360.4354"/>
    <line x1="141.8216" x2="102.1754" y1="366.1269" y2="366.1269"/>
    <line x1="310.1574" x2="301.049" y1="366.1269" y2="366.1269"/>
    <line x1="139.0706" x2="99.0943" y1="371.8184" y2="371.8184"/>
    <line x1="305.0974" x2="295.8245" y1="371.8184" y2="371.8184"/>
    <line x1="136.4023" x2="96.0839" y1="377.51" y2="377.51"/>
    <line x1="299.8771" x2="290.4744" y1="377.51" y2="377.51"/>
    <line x1="133.8211" x2="93.1455" y1="383.2015" y2="383.2015"/>
    <line x1="294.4923" x2="284.9862" y1="383.2015" y2="383.2015"/>
    <line x1="131.3323" x2="90.2808" y1="388.893" y2="388.893"/>
    <line x1="288.9385" x2="279.3145" y1="388.893" y2="388.893"/>
    <line x1="128.9414" x2="87.4913" y1="394.5845" y2="394.5845"/>
    <line x1="283.2111" x2="273.4513" y1="394.5845" y2="394.5845"/>
    <line x1="126.6548" x2="84.7786" y1="400.2761" y2="400.2761"/>
    <line x1="277.3053" x2="267.3895" y1="400.2761" y2="400.2761"/>
    <line x1="124.4795" x2="82.1444" y1="405.9676" y2="405.9676"/>
    <line x1="271.2159" x2="261.1213" y1="405.9676" y2="405.9676"/>
    <line x1="122.4232" x2="79.5913" y1="411.6591" y2="411.6591"/>
    <line x1="264.9416" x2="254.6384" y1="411.6591" y2="411.6591"/>
    <line x1="120.4974" x2="77.1839" y1="417.3506" y2="417.3506"/>
    <line x1="258.5144" x2="247.9321" y1="417.3506" y2="417.3506"/>
    <line x1="118.7351" x2="74.9812" y1="423.0421" y2="423.0421"/>
    <line x1="251.9275" x2="240.9927" y1="423.0421" y2="423.0421"/>
    <line x1="117.1737" x2="73.0224" y1="428.7337" y2="428.7337"/>
    <line x1="245.1595" x2="233.7724" y1="428.7337" y2="428.7337"/>
    <line x1="115.8639" x2="71.3608" y1="434.4252" y2="434.4252"/>
    <line x1="238.1834" x2="226.2116" y1="434.4252" y2="434.4252"/>
    <line x1="114.8823" x2="70.0724" y1="440.1167" y2="440.1167"/>
    <line x1="230.9651" x2="218.2613" y1="440.1167" y2="440.1167"/>
    <line x1="114.3545" x2="69.2728" y1="445.8082" y2="445.8082"/>
    <line x1="223.4598" x2="209.8593" y1="445.8082" y2="445.8082"/>
    <line x1="114.4737" x2="69.1333" y1="451.4998" y2="451.4998"/>
    <line x1="215.6068" x2="200.925" y1="451.4998" y2="451.4998"/>
    <line x1="115.4566" x2="69.6675" y1="457.1913" y2="457.1913"/>
    <line x1="207.3207" x2="191.3506" y1="457.1913" y2="457.1913"/>
    <line x1="117.8529" x2="71.0752" y1="462.8828" y2="462.8828"/>
    <line x1="198.3478" x2="180.6474" y1="462.8828" y2="462.8828"/>
    <line x1="123.3194" x2="73.8771" y1="468.5743" y2="468.5743"/>
    <line x1="188.1025" x2="166.8635" y1="468.5743" y2="468.5743"/>
    <line x1="175.8959" x2="78.5087" y1="474.2659" y2="474.2659"/>
    <line x1="160.0691" x2="85.455" y1="479.9574" y2="479.9574"/>
    <line x1="135.2219" x2="100.1744" y1="485.6489" y2="485.6489"/>
  </g>
</svg>
