<?xml version="1.0" encoding="utf-8" ?>
<svg xmlns="http://www.w3.org/2000/svg" xmlns:cc="http://creativecommons.org/ns" xmlns:dc="http://purl.org/dc/elements/1.1/" xmlns:ev="http://www.w3.org/2001/xml-events" xmlns:inkscape="http://www.inkscape.org/namespaces/inkscape" xmlns:rdf="http://www.w3.org/1999/02/22-rdf-syntax-ns" xmlns:sodipodi="http://sodipodi.sourceforge.net/DTD/sodipodi-0.dtd" xmlns:xlink="http://www.w3.org/1999/xlink" baseProfile="tiny" height="14.8cm" version="1.2" viewBox="0 0 396.85039370078744 559.3700787401575" width="10.5cm">
  <metadata>
    <rdf:RDF>
      <cc:Work>
        <dc:format>image/svg+xml</dc:format>
        <dc:source>vsk save -s 0 -c /Users/hhip/src/sketches/machine_typography/config/09_5.json /Users/hhip/src/sketches/machine_typography/sketch_machine_typography.py</dc:source>
        <dc:date>2022-01-24T11:05:34.984256</dc:date>
      </cc:Work>
    </rdf:RDF>
  </metadata>
  <defs/>
  <g fill="none" id="layer1" inkscape:groupmode="layer" inkscape:label="1" stroke="#000000" style="display:inline">
    <line x1="359.0551" x2="37.7953" y1="37.7953" y2="37.7953"/>
    <line x1="359.0551" x2="37.7953" y1="41.5748" y2="41.5748"/>
    <line x1="359.0551" x2="37.7953" y1="45.3543" y2="45.3543"/>
    <line x1="359.0551" x2="37.7953" y1="49.1339" y2="49.1339"/>
    <line x1="359.0551" x2="37.7953" y1="52.9134" y2="52.9134"/>
    <line x1="359.0551" x2="37.7953" y1="56.6929" y2="56.6929"/>
    <line x1="359.0551" x2="37.7953" y1="60.4724" y2="60.4724"/>
    <line x1="359.0551" x2="37.7953" y1="64.252" y2="64.252"/>
    <line x1="359.0551" x2="37.7953" y1="68.0315" y2="68.0315"/>
    <line x1="359.0551" x2="37.7953" y1="71.811" y2="71.811"/>
    <line x1="145.8011" x2="37.7953" y1="75.5906" y2="75.5906"/>
    <line x1="232.2114" x2="164.639" y1="75.5906" y2="75.5906"/>
    <line x1="359.0551" x2="250.5584" y1="75.5906" y2="75.5906"/>
    <line x1="145.8011" x2="37.7953" y1="79.3701" y2="79.3701"/>
    <line x1="232.2114" x2="171.1853" y1="79.3701" y2="79.3701"/>
    <line x1="359.0551" x2="257.1047" y1="79.3701" y2="79.3701"/>
    <line x1="145.8011" x2="37.7953" y1="83.1496" y2="83.1496"/>
    <line x1="232.2114" x2="171.1853" y1="83.1496" y2="83.1496"/>
    <line x1="359.0551" x2="257.5957" y1="83.1496" y2="83.1496"/>
    <line x1="145.8011" x2="37.7953" y1="86.9291" y2="86.9291"/>
    <line x1="232.2114" x2="171.1853" y1="86.9291" y2="86.9291"/>
    <line x1="359.0551" x2="257.5957" y1="86.9291" y2="86.9291"/>
    <line x1="145.8011" x2="37.7953" y1="90.7087" y2="90.7087"/>
    <line x1="232.2114" x2="171.1853" y1="90.7087" y2="90.7087"/>
    <line x1="359.0551" x2="257.5957" y1="90.7087" y2="90.7087"/>
    <line x1="145.8011" x2="37.7953" y1="94.4882" y2="94.4882"/>
    <line x1="232.2114" x2="171.1853" y1="94.4882" y2="94.4882"/>
    <line x1="359.0551" x2="257.5957" y1="94.4882" y2="94.4882"/>
    <line x1="145.8011" x2="37.7953" y1="98.2677" y2="98.2677"/>
    <line x1="232.2114" x2="171.1853" y1="98.2677" y2="98.2677"/>
    <line x1="359.0551" x2="257.5957" y1="98.2677" y2="98.2677"/>
    <line x1="145.8011" x2="37.7953" y1="102.0472" y2="102.0472"/>
    <line x1="232.2114" x2="171.1853" y1="102.0472" y2="102.0472"/>
    <line x1="359.0551" x2="257.5957" y1="102.0472" y2="102.0472"/>
    <line x1="145.8011" x2="37.7953" y1="105.8268" y2="105.8268"/>
    <line x1="232.2114" x2="171.1853" y1="105.8268" y2="105.8268"/>
    <line x1="359.0551" x2="257.5957" y1="105.8268" y2="105.8268"/>
    <line x1="145.8011" x2="37.7953" y1="109.6063" y2="109.6063"/>
    <line x1="232.2114" x2="171.1853" y1="109.6063" y2="109.6063"/>
    <line x1="359.0551" x2="257.5957" y1="109.6063" y2="109.6063"/>
    <line x1="145.8011" x2="37.7953" y1="113.3858" y2="113.3858"/>
    <line x1="232.2114" x2="171.1853" y1="113.3858" y2="113.3858"/>
    <line x1="359.0551" x2="257.5957" y1="113.3858" y2="113.3858"/>
    <line x1="145.8011" x2="37.7953" y1="117.1654" y2="117.1654"/>
    <line x1="232.2114" x2="171.1853" y1="117.1654" y2="117.1654"/>
    <line x1="359.0551" x2="257.5957" y1="117.1654" y2="117.1654"/>
    <line x1="145.8011" x2="37.7953" y1="120.9449" y2="120.9449"/>
    <line x1="232.2114" x2="171.1853" y1="120.9449" y2="120.9449"/>
    <line x1="359.0551" x2="257.5957" y1="120.9449" y2="120.9449"/>
    <line x1="145.8011" x2="37.7953" y1="124.7244" y2="124.7244"/>
    <line x1="232.2114" x2="171.1853" y1="124.7244" y2="124.7244"/>
    <line x1="359.0551" x2="257.5957" y1="124.7244" y2="124.7244"/>
    <line x1="145.8011" x2="37.7953" y1="128.5039" y2="128.5039"/>
    <line x1="232.2114" x2="171.1853" y1="128.5039" y2="128.5039"/>
    <line x1="359.0551" x2="257.5957" y1="128.5039" y2="128.5039"/>
    <line x1="145.8011" x2="37.7953" y1="132.2835" y2="132.2835"/>
    <line x1="232.2114" x2="171.1853" y1="132.2835" y2="132.2835"/>
    <line x1="359.0551" x2="257.5957" y1="132.2835" y2="132.2835"/>
    <line x1="145.8011" x2="37.7953" y1="136.063" y2="136.063"/>
    <line x1="232.2114" x2="171.1853" y1="136.063" y2="136.063"/>
    <line x1="359.0551" x2="257.5957" y1="136.063" y2="136.063"/>
    <line x1="145.8011" x2="37.7953" y1="139.8425" y2="139.8425"/>
    <line x1="232.2114" x2="171.1853" y1="139.8425" y2="139.8425"/>
    <line x1="359.0551" x2="257.5957" y1="139.8425" y2="139.8425"/>
    <line x1="145.8011" x2="37.7953" y1="143.622" y2="143.622"/>
    <line x1="232.2114" x2="171.1853" y1="143.622" y2="143.622"/>
    <line x1="359.0551" x2="257.5957" y1="143.622" y2="143.622"/>
    <line x1="145.8011" x2="37.7953" y1="147.4016" y2="147.4016"/>
    <line x1="232.2114" x2="171.1853" y1="147.4016" y2="147.4016"/>
    <line x1="359.0551" x2="257.5957" y1="147.4016" y2="147.4016"/>
    <line x1="145.8011" x2="37.7953" y1="151.1811" y2="151.1811"/>
    <line x1="232.2114" x2="171.1853" y1="151.1811" y2="151.1811"/>
    <line x1="359.0551" x2="257.5957" y1="151.1811" y2="151.1811"/>
    <line x1="145.8011" x2="37.7953" y1="154.9606" y2="154.9606"/>
    <line x1="232.2114" x2="171.1853" y1="154.9606" y2="154.9606"/>
    <line x1="359.0551" x2="257.5957" y1="154.9606" y2="154.9606"/>
    <line x1="145.8011" x2="37.7953" y1="158.7402" y2="158.7402"/>
    <line x1="232.2114" x2="171.1853" y1="158.7402" y2="158.7402"/>
    <line x1="359.0551" x2="257.5957" y1="158.7402" y2="158.7402"/>
    <line x1="145.8011" x2="37.7953" y1="162.5197" y2="162.5197"/>
    <line x1="232.2114" x2="171.1853" y1="162.5197" y2="162.5197"/>
    <line x1="359.0551" x2="257.5957" y1="162.5197" y2="162.5197"/>
    <line x1="145.8011" x2="37.7953" y1="166.2992" y2="166.2992"/>
    <line x1="232.2114" x2="171.1853" y1="166.2992" y2="166.2992"/>
    <line x1="359.0551" x2="257.5957" y1="166.2992" y2="166.2992"/>
    <line x1="145.8011" x2="37.7953" y1="170.0787" y2="170.0787"/>
    <line x1="232.2114" x2="171.1853" y1="170.0787" y2="170.0787"/>
    <line x1="359.0551" x2="257.5957" y1="170.0787" y2="170.0787"/>
    <line x1="145.8011" x2="37.7953" y1="173.8583" y2="173.8583"/>
    <line x1="232.2114" x2="171.1853" y1="173.8583" y2="173.8583"/>
    <line x1="359.0551" x2="257.5957" y1="173.8583" y2="173.8583"/>
    <line x1="145.8011" x2="37.7953" y1="177.6378" y2="177.6378"/>
    <line x1="232.2114" x2="171.1853" y1="177.6378" y2="177.6378"/>
    <line x1="359.0551" x2="257.5957" y1="177.6378" y2="177.6378"/>
    <line x1="145.8011" x2="37.7953" y1="181.4173" y2="181.4173"/>
    <line x1="232.2114" x2="171.1853" y1="181.4173" y2="181.4173"/>
    <line x1="359.0551" x2="257.5957" y1="181.4173" y2="181.4173"/>
    <line x1="145.8011" x2="37.7953" y1="185.1969" y2="185.1969"/>
    <line x1="232.2114" x2="171.1853" y1="185.1969" y2="185.1969"/>
    <line x1="359.0551" x2="257.5957" y1="185.1969" y2="185.1969"/>
    <line x1="145.8011" x2="37.7953" y1="188.9764" y2="188.9764"/>
    <line x1="232.2114" x2="171.1853" y1="188.9764" y2="188.9764"/>
    <line x1="359.0551" x2="257.5957" y1="188.9764" y2="188.9764"/>
    <line x1="145.8011" x2="37.7953" y1="192.7559" y2="192.7559"/>
    <line x1="232.2114" x2="171.1853" y1="192.7559" y2="192.7559"/>
    <line x1="359.0551" x2="257.5957" y1="192.7559" y2="192.7559"/>
    <line x1="145.8011" x2="37.7953" y1="196.5354" y2="196.5354"/>
    <line x1="232.2114" x2="171.1853" y1="196.5354" y2="196.5354"/>
    <line x1="359.0551" x2="257.5957" y1="196.5354" y2="196.5354"/>
    <line x1="145.8011" x2="37.7953" y1="200.315" y2="200.315"/>
    <line x1="232.2114" x2="171.1853" y1="200.315" y2="200.315"/>
    <line x1="359.0551" x2="257.5957" y1="200.315" y2="200.315"/>
    <line x1="145.8011" x2="37.7953" y1="204.0945" y2="204.0945"/>
    <line x1="232.2114" x2="171.1853" y1="204.0945" y2="204.0945"/>
    <line x1="359.0551" x2="257.5957" y1="204.0945" y2="204.0945"/>
    <line x1="145.8011" x2="37.7953" y1="207.874" y2="207.874"/>
    <line x1="232.2114" x2="171.1853" y1="207.874" y2="207.874"/>
    <line x1="359.0551" x2="257.5957" y1="207.874" y2="207.874"/>
    <line x1="145.8011" x2="37.7953" y1="211.6535" y2="211.6535"/>
    <line x1="232.2114" x2="171.1853" y1="211.6535" y2="211.6535"/>
    <line x1="359.0551" x2="257.5957" y1="211.6535" y2="211.6535"/>
    <line x1="145.8011" x2="37.7953" y1="215.4331" y2="215.4331"/>
    <line x1="232.2114" x2="171.1853" y1="215.4331" y2="215.4331"/>
    <line x1="359.0551" x2="257.5957" y1="215.4331" y2="215.4331"/>
    <line x1="145.8011" x2="37.7953" y1="219.2126" y2="219.2126"/>
    <line x1="232.2114" x2="171.1853" y1="219.2126" y2="219.2126"/>
    <line x1="359.0551" x2="257.5957" y1="219.2126" y2="219.2126"/>
    <line x1="145.8011" x2="37.7953" y1="222.9921" y2="222.9921"/>
    <line x1="232.2114" x2="171.1853" y1="222.9921" y2="222.9921"/>
    <line x1="359.0551" x2="257.5957" y1="222.9921" y2="222.9921"/>
    <line x1="145.8011" x2="37.7953" y1="226.7717" y2="226.7717"/>
    <line x1="232.2114" x2="171.1853" y1="226.7717" y2="226.7717"/>
    <line x1="359.0551" x2="257.5957" y1="226.7717" y2="226.7717"/>
    <line x1="145.8011" x2="37.7953" y1="230.5512" y2="230.5512"/>
    <line x1="232.2114" x2="171.1853" y1="230.5512" y2="230.5512"/>
    <line x1="359.0551" x2="257.5957" y1="230.5512" y2="230.5512"/>
    <line x1="145.8011" x2="37.7953" y1="234.3307" y2="234.3307"/>
    <line x1="232.2114" x2="171.1853" y1="234.3307" y2="234.3307"/>
    <line x1="359.0551" x2="257.5957" y1="234.3307" y2="234.3307"/>
    <line x1="145.8011" x2="37.7953" y1="238.1102" y2="238.1102"/>
    <line x1="232.2114" x2="171.1853" y1="238.1102" y2="238.1102"/>
    <line x1="359.0551" x2="257.5957" y1="238.1102" y2="238.1102"/>
    <line x1="145.8011" x2="37.7953" y1="241.8898" y2="241.8898"/>
    <line x1="232.2114" x2="171.1853" y1="241.8898" y2="241.8898"/>
    <line x1="359.0551" x2="257.5957" y1="241.8898" y2="241.8898"/>
    <line x1="145.8011" x2="37.7953" y1="245.6693" y2="245.6693"/>
    <line x1="232.2114" x2="171.1853" y1="245.6693" y2="245.6693"/>
    <line x1="359.0551" x2="257.5957" y1="245.6693" y2="245.6693"/>
    <line x1="145.8011" x2="37.7953" y1="249.4488" y2="249.4488"/>
    <line x1="232.2114" x2="171.1853" y1="249.4488" y2="249.4488"/>
    <line x1="359.0551" x2="257.5957" y1="249.4488" y2="249.4488"/>
    <line x1="145.8011" x2="37.7953" y1="253.2283" y2="253.2283"/>
    <line x1="232.2114" x2="171.1853" y1="253.2283" y2="253.2283"/>
    <line x1="359.0551" x2="257.5957" y1="253.2283" y2="253.2283"/>
    <line x1="145.8011" x2="37.7953" y1="257.0079" y2="257.0079"/>
    <line x1="232.2114" x2="171.1853" y1="257.0079" y2="257.0079"/>
    <line x1="359.0551" x2="257.5957" y1="257.0079" y2="257.0079"/>
    <line x1="145.8011" x2="37.7953" y1="260.7874" y2="260.7874"/>
    <line x1="232.2114" x2="171.1853" y1="260.7874" y2="260.7874"/>
    <line x1="359.0551" x2="257.5957" y1="260.7874" y2="260.7874"/>
    <line x1="145.8011" x2="37.7953" y1="264.5669" y2="264.5669"/>
    <line x1="232.2114" x2="171.1853" y1="264.5669" y2="264.5669"/>
    <line x1="359.0551" x2="257.5957" y1="264.5669" y2="264.5669"/>
    <line x1="145.8011" x2="37.7953" y1="268.3465" y2="268.3465"/>
    <line x1="232.2114" x2="171.1853" y1="268.3465" y2="268.3465"/>
    <line x1="359.0551" x2="257.5957" y1="268.3465" y2="268.3465"/>
    <line x1="145.8011" x2="37.7953" y1="272.126" y2="272.126"/>
    <line x1="232.2114" x2="171.1853" y1="272.126" y2="272.126"/>
    <line x1="359.0551" x2="257.5957" y1="272.126" y2="272.126"/>
    <line x1="145.8011" x2="37.7953" y1="275.9055" y2="275.9055"/>
    <line x1="232.2114" x2="171.1853" y1="275.9055" y2="275.9055"/>
    <line x1="359.0551" x2="257.5957" y1="275.9055" y2="275.9055"/>
    <line x1="145.8011" x2="37.7953" y1="279.685" y2="279.685"/>
    <line x1="232.2114" x2="171.1853" y1="279.685" y2="279.685"/>
    <line x1="359.0551" x2="257.5957" y1="279.685" y2="279.685"/>
    <line x1="145.8011" x2="37.7953" y1="283.4646" y2="283.4646"/>
    <line x1="232.2114" x2="171.1853" y1="283.4646" y2="283.4646"/>
    <line x1="359.0551" x2="257.5957" y1="283.4646" y2="283.4646"/>
    <line x1="145.8011" x2="37.7953" y1="287.2441" y2="287.2441"/>
    <line x1="232.2114" x2="171.1853" y1="287.2441" y2="287.2441"/>
    <line x1="359.0551" x2="257.5957" y1="287.2441" y2="287.2441"/>
    <line x1="145.8011" x2="37.7953" y1="291.0236" y2="291.0236"/>
    <line x1="232.2114" x2="171.1853" y1="291.0236" y2="291.0236"/>
    <line x1="359.0551" x2="257.5957" y1="291.0236" y2="291.0236"/>
    <line x1="145.8011" x2="37.7953" y1="294.8031" y2="294.8031"/>
    <line x1="232.2114" x2="171.1853" y1="294.8031" y2="294.8031"/>
    <line x1="359.0551" x2="257.5957" y1="294.8031" y2="294.8031"/>
    <line x1="145.8011" x2="37.7953" y1="298.5827" y2="298.5827"/>
    <line x1="232.2114" x2="171.1853" y1="298.5827" y2="298.5827"/>
    <line x1="359.0551" x2="257.5957" y1="298.5827" y2="298.5827"/>
    <line x1="145.8011" x2="37.7953" y1="302.3622" y2="302.3622"/>
    <line x1="232.2114" x2="171.1853" y1="302.3622" y2="302.3622"/>
    <line x1="359.0551" x2="257.5957" y1="302.3622" y2="302.3622"/>
    <line x1="145.8516" x2="37.7953" y1="306.1417" y2="306.1417"/>
    <line x1="232.1773" x2="171.1853" y1="306.1417" y2="306.1417"/>
    <line x1="359.0551" x2="257.5957" y1="306.1417" y2="306.1417"/>
    <line x1="146.0125" x2="37.7953" y1="309.9213" y2="309.9213"/>
    <line x1="232.0199" x2="171.2195" y1="309.9213" y2="309.9213"/>
    <line x1="359.0551" x2="257.5957" y1="309.9213" y2="309.9213"/>
    <line x1="146.2956" x2="37.7953" y1="313.7008" y2="313.7008"/>
    <line x1="231.7174" x2="171.3768" y1="313.7008" y2="313.7008"/>
    <line x1="359.0551" x2="257.5957" y1="313.7008" y2="313.7008"/>
    <line x1="146.7152" x2="37.7953" y1="317.4803" y2="317.4803"/>
    <line x1="231.2458" x2="171.6793" y1="317.4803" y2="317.4803"/>
    <line x1="359.0551" x2="257.5957" y1="317.4803" y2="317.4803"/>
    <line x1="147.2882" x2="37.7953" y1="321.2598" y2="321.2598"/>
    <line x1="230.5738" x2="172.1509" y1="321.2598" y2="321.2598"/>
    <line x1="359.0551" x2="257.5957" y1="321.2598" y2="321.2598"/>
    <line x1="148.0356" x2="37.7953" y1="325.0394" y2="325.0394"/>
    <line x1="229.6588" x2="172.8229" y1="325.0394" y2="325.0394"/>
    <line x1="359.0551" x2="257.5957" y1="325.0394" y2="325.0394"/>
    <line x1="148.9836" x2="37.7953" y1="328.8189" y2="328.8189"/>
    <line x1="228.4403" x2="173.738" y1="328.8189" y2="328.8189"/>
    <line x1="359.0551" x2="257.5957" y1="328.8189" y2="328.8189"/>
    <line x1="150.1655" x2="37.7953" y1="332.5984" y2="332.5984"/>
    <line x1="226.8276" x2="174.9565" y1="332.5984" y2="332.5984"/>
    <line x1="359.0551" x2="257.5957" y1="332.5984" y2="332.5984"/>
    <line x1="151.625" x2="37.7953" y1="336.378" y2="336.378"/>
    <line x1="224.6729" x2="176.5691" y1="336.378" y2="336.378"/>
    <line x1="359.0551" x2="257.5957" y1="336.378" y2="336.378"/>
    <line x1="153.4216" x2="37.7953" y1="340.1575" y2="340.1575"/>
    <line x1="221.703" x2="178.7239" y1="340.1575" y2="340.1575"/>
    <line x1="359.0551" x2="257.5957" y1="340.1575" y2="340.1575"/>
    <line x1="155.6394" x2="37.7953" y1="343.937" y2="343.937"/>
    <line x1="217.2919" x2="181.6937" y1="343.937" y2="343.937"/>
    <line x1="359.0551" x2="257.5957" y1="343.937" y2="343.937"/>
    <line x1="158.405" x2="37.7953" y1="347.7165" y2="347.7165"/>
    <line x1="208.9512" x2="187.8992" y1="347.7165" y2="347.7165"/>
    <line x1="359.0551" x2="257.5957" y1="347.7165" y2="347.7165"/>
    <line x1="161.9252" x2="37.7953" y1="351.4961" y2="351.4961"/>
    <line x1="359.0551" x2="257.5957" y1="351.4961" y2="351.4961"/>
    <line x1="166.585" x2="37.7953" y1="355.2756" y2="355.2756"/>
    <line x1="359.0551" x2="257.5957" y1="355.2756" y2="355.2756"/>
    <line x1="173.1314" x2="37.7953" y1="359.0551" y2="359.0551"/>
    <line x1="359.0551" x2="257.5957" y1="359.0551" y2="359.0551"/>
    <line x1="179.8347" x2="37.7953" y1="362.8346" y2="362.8346"/>
    <line x1="233.1934" x2="232.0604" y1="362.8346" y2="362.8346"/>
    <line x1="359.0551" x2="257.5957" y1="362.8346" y2="362.8346"/>
    <line x1="192.572" x2="37.7953" y1="366.6142" y2="366.6142"/>
    <line x1="233.1934" x2="218.3519" y1="366.6142" y2="366.6142"/>
    <line x1="359.0551" x2="257.5957" y1="366.6142" y2="366.6142"/>
    <line x1="233.1934" x2="37.7953" y1="370.3937" y2="370.3937"/>
    <line x1="359.0551" x2="257.5957" y1="370.3937" y2="370.3937"/>
    <line x1="233.1934" x2="37.7953" y1="374.1732" y2="374.1732"/>
    <line x1="359.0551" x2="257.5957" y1="374.1732" y2="374.1732"/>
    <line x1="233.1934" x2="37.7953" y1="377.9528" y2="377.9528"/>
    <line x1="359.0551" x2="257.5957" y1="377.9528" y2="377.9528"/>
    <line x1="233.1934" x2="37.7953" y1="381.7323" y2="381.7323"/>
    <line x1="359.0551" x2="257.5957" y1="381.7323" y2="381.7323"/>
    <line x1="145.8011" x2="37.7953" y1="385.5118" y2="385.5118"/>
    <line x1="233.1934" x2="164.639" y1="385.5118" y2="385.5118"/>
    <line x1="359.0551" x2="257.5957" y1="385.5118" y2="385.5118"/>
    <line x1="145.8011" x2="37.7953" y1="389.2913" y2="389.2913"/>
    <line x1="233.1934" x2="171.1853" y1="389.2913" y2="389.2913"/>
    <line x1="359.0551" x2="257.5957" y1="389.2913" y2="389.2913"/>
    <line x1="145.8011" x2="37.7953" y1="393.0709" y2="393.0709"/>
    <line x1="233.1934" x2="171.1853" y1="393.0709" y2="393.0709"/>
    <line x1="359.0551" x2="257.5957" y1="393.0709" y2="393.0709"/>
    <line x1="145.8011" x2="37.7953" y1="396.8504" y2="396.8504"/>
    <line x1="233.1934" x2="171.1853" y1="396.8504" y2="396.8504"/>
    <line x1="359.0551" x2="257.5957" y1="396.8504" y2="396.8504"/>
    <line x1="145.8011" x2="37.7953" y1="400.6299" y2="400.6299"/>
    <line x1="233.1934" x2="171.1853" y1="400.6299" y2="400.6299"/>
    <line x1="359.0551" x2="257.5957" y1="400.6299" y2="400.6299"/>
    <line x1="145.8011" x2="37.7953" y1="404.4094" y2="404.4094"/>
    <line x1="233.1934" x2="171.1853" y1="404.4094" y2="404.4094"/>
    <line x1="359.0551" x2="257.5957" y1="404.4094" y2="404.4094"/>
    <line x1="145.8011" x2="37.7953" y1="408.189" y2="408.189"/>
    <line x1="233.1934" x2="171.1853" y1="408.189" y2="408.189"/>
    <line x1="359.0551" x2="257.5957" y1="408.189" y2="408.189"/>
    <line x1="145.8011" x2="37.7953" y1="411.9685" y2="411.9685"/>
    <line x1="233.1934" x2="171.1853" y1="411.9685" y2="411.9685"/>
    <line x1="359.0551" x2="257.5957" y1="411.9685" y2="411.9685"/>
    <line x1="145.8073" x2="37.7953" y1="415.748" y2="415.748"/>
    <line x1="233.1934" x2="171.1853" y1="415.748" y2="415.748"/>
    <line x1="359.0551" x2="257.5957" y1="415.748" y2="415.748"/>
    <line x1="145.8945" x2="37.7953" y1="419.5276" y2="419.5276"/>
    <line x1="233.1453" x2="171.1853" y1="419.5276" y2="419.5276"/>
    <line x1="359.0551" x2="257.5956" y1="419.5276" y2="419.5276"/>
    <line x1="146.093" x2="37.7953" y1="423.3071" y2="423.3071"/>
    <line x1="232.9693" x2="171.2171" y1="423.3071" y2="423.3071"/>
    <line x1="359.0551" x2="257.5395" y1="423.3071" y2="423.3071"/>
    <line x1="146.4148" x2="37.7953" y1="427.0866" y2="427.0866"/>
    <line x1="232.6456" x2="171.3296" y1="427.0866" y2="427.0866"/>
    <line x1="359.0551" x2="257.3735" y1="427.0866" y2="427.0866"/>
    <line x1="146.8742" x2="37.7953" y1="430.8661" y2="430.8661"/>
    <line x1="232.1496" x2="171.5375" y1="430.8661" y2="430.8661"/>
    <line x1="359.0551" x2="257.0856" y1="430.8661" y2="430.8661"/>
    <line x1="147.4884" x2="37.7953" y1="434.6457" y2="434.6457"/>
    <line x1="231.4492" x2="171.8608" y1="434.6457" y2="434.6457"/>
    <line x1="359.0551" x2="256.6618" y1="434.6457" y2="434.6457"/>
    <line x1="148.2787" x2="37.7953" y1="438.4252" y2="438.4252"/>
    <line x1="230.5006" x2="172.3272" y1="438.4252" y2="438.4252"/>
    <line x1="359.0551" x2="256.0848" y1="438.4252" y2="438.4252"/>
    <line x1="149.2716" x2="37.7953" y1="442.2047" y2="442.2047"/>
    <line x1="229.2413" x2="172.9782" y1="442.2047" y2="442.2047"/>
    <line x1="359.0551" x2="255.3338" y1="442.2047" y2="442.2047"/>
    <line x1="150.5011" x2="37.7953" y1="445.9843" y2="445.9843"/>
    <line x1="227.5775" x2="173.8806" y1="445.9843" y2="445.9843"/>
    <line x1="359.0551" x2="254.3823" y1="445.9843" y2="445.9843"/>
    <line x1="152.0118" x2="37.7953" y1="449.7638" y2="449.7638"/>
    <line x1="225.355" x2="175.1561" y1="449.7638" y2="449.7638"/>
    <line x1="359.0551" x2="253.197" y1="449.7638" y2="449.7638"/>
    <line x1="153.8643" x2="37.7953" y1="453.5433" y2="453.5433"/>
    <line x1="222.2868" x2="177.0777" y1="453.5433" y2="453.5433"/>
    <line x1="359.0551" x2="251.7337" y1="453.5433" y2="453.5433"/>
    <line x1="156.1448" x2="37.7953" y1="457.3228" y2="457.3228"/>
    <line x1="217.7028" x2="180.0318" y1="457.3228" y2="457.3228"/>
    <line x1="359.0551" x2="249.9324" y1="457.3228" y2="457.3228"/>
    <line x1="158.9834" x2="37.7953" y1="461.1024" y2="461.1024"/>
    <line x1="208.7567" x2="187.9055" y1="461.1024" y2="461.1024"/>
    <line x1="359.0551" x2="247.7079" y1="461.1024" y2="461.1024"/>
    <line x1="162.5941" x2="37.7953" y1="464.8819" y2="464.8819"/>
    <line x1="359.0551" x2="244.9316" y1="464.8819" y2="464.8819"/>
    <line x1="167.3792" x2="37.7953" y1="468.6614" y2="468.6614"/>
    <line x1="359.0551" x2="241.3919" y1="468.6614" y2="468.6614"/>
    <line x1="173.9256" x2="37.7953" y1="472.4409" y2="472.4409"/>
    <line x1="359.0551" x2="236.6913" y1="472.4409" y2="472.4409"/>
    <line x1="180.8477" x2="37.7953" y1="476.2205" y2="476.2205"/>
    <line x1="359.0551" x2="229.8783" y1="476.2205" y2="476.2205"/>
    <line x1="194.5358" x2="37.7953" y1="480.0" y2="480.0"/>
    <line x1="359.0551" x2="216.3782" y1="480.0" y2="480.0"/>
    <line x1="359.0551" x2="37.7953" y1="483.7795" y2="483.7795"/>
    <line x1="359.0551" x2="37.7953" y1="487.5591" y2="487.5591"/>
    <line x1="359.0551" x2="37.7953" y1="491.3386" y2="491.3386"/>
    <line x1="359.0551" x2="37.7953" y1="495.1181" y2="495.1181"/>
    <line x1="359.0551" x2="37.7953" y1="498.8976" y2="498.8976"/>
    <line x1="359.0551" x2="37.7953" y1="502.6772" y2="502.6772"/>
    <line x1="359.0551" x2="37.7953" y1="506.4567" y2="506.4567"/>
    <line x1="359.0551" x2="37.7953" y1="510.2362" y2="510.2362"/>
    <line x1="359.0551" x2="37.7953" y1="514.0157" y2="514.0157"/>
    <line x1="359.0551" x2="37.7953" y1="517.7953" y2="517.7953"/>
    <line x1="359.0551" x2="37.7953" y1="521.5748" y2="521.5748"/>
    <line x1="163.5051" x2="146.9349" y1="77.4803" y2="77.4803"/>
    <line x1="249.4245" x2="233.3453" y1="77.4803" y2="77.4803"/>
    <line x1="163.5051" x2="146.9349" y1="81.2598" y2="81.2598"/>
    <line x1="249.9155" x2="233.3453" y1="81.2598" y2="81.2598"/>
    <line x1="163.5051" x2="146.9349" y1="85.0394" y2="85.0394"/>
    <line x1="249.9155" x2="233.3453" y1="85.0394" y2="85.0394"/>
    <line x1="163.5051" x2="146.9349" y1="88.8189" y2="88.8189"/>
    <line x1="249.9155" x2="233.3453" y1="88.8189" y2="88.8189"/>
    <line x1="163.5051" x2="146.9349" y1="92.5984" y2="92.5984"/>
    <line x1="249.9155" x2="233.3453" y1="92.5984" y2="92.5984"/>
    <line x1="163.5051" x2="146.9349" y1="96.378" y2="96.378"/>
    <line x1="249.9155" x2="233.3453" y1="96.378" y2="96.378"/>
    <line x1="163.5051" x2="146.9349" y1="100.1575" y2="100.1575"/>
    <line x1="249.9155" x2="233.3453" y1="100.1575" y2="100.1575"/>
    <line x1="163.5051" x2="146.9349" y1="103.937" y2="103.937"/>
    <line x1="249.9155" x2="233.3453" y1="103.937" y2="103.937"/>
    <line x1="163.5051" x2="146.9349" y1="107.7165" y2="107.7165"/>
    <line x1="249.9155" x2="233.3453" y1="107.7165" y2="107.7165"/>
    <line x1="163.5051" x2="146.9349" y1="111.4961" y2="111.4961"/>
    <line x1="249.9155" x2="233.3453" y1="111.4961" y2="111.4961"/>
    <line x1="163.5051" x2="146.9349" y1="115.2756" y2="115.2756"/>
    <line x1="249.9155" x2="233.3453" y1="115.2756" y2="115.2756"/>
    <line x1="163.5051" x2="146.9349" y1="119.0551" y2="119.0551"/>
    <line x1="249.9155" x2="233.3453" y1="119.0551" y2="119.0551"/>
    <line x1="163.5051" x2="146.9349" y1="122.8346" y2="122.8346"/>
    <line x1="249.9155" x2="233.3453" y1="122.8346" y2="122.8346"/>
    <line x1="163.5051" x2="146.9349" y1="126.6142" y2="126.6142"/>
    <line x1="249.9155" x2="233.3453" y1="126.6142" y2="126.6142"/>
    <line x1="163.5051" x2="146.9349" y1="130.3937" y2="130.3937"/>
    <line x1="249.9155" x2="233.3453" y1="130.3937" y2="130.3937"/>
    <line x1="163.5051" x2="146.9349" y1="134.1732" y2="134.1732"/>
    <line x1="249.9155" x2="233.3453" y1="134.1732" y2="134.1732"/>
    <line x1="163.5051" x2="146.9349" y1="137.9528" y2="137.9528"/>
    <line x1="249.9155" x2="233.3453" y1="137.9528" y2="137.9528"/>
    <line x1="163.5051" x2="146.9349" y1="141.7323" y2="141.7323"/>
    <line x1="249.9155" x2="233.3453" y1="141.7323" y2="141.7323"/>
    <line x1="163.5051" x2="146.9349" y1="145.5118" y2="145.5118"/>
    <line x1="249.9155" x2="233.3453" y1="145.5118" y2="145.5118"/>
    <line x1="163.5051" x2="146.9349" y1="149.2913" y2="149.2913"/>
    <line x1="249.9155" x2="233.3453" y1="149.2913" y2="149.2913"/>
    <line x1="163.5051" x2="146.9349" y1="153.0709" y2="153.0709"/>
    <line x1="249.9155" x2="233.3453" y1="153.0709" y2="153.0709"/>
    <line x1="163.5051" x2="146.9349" y1="156.8504" y2="156.8504"/>
    <line x1="249.9155" x2="233.3453" y1="156.8504" y2="156.8504"/>
    <line x1="163.5051" x2="146.9349" y1="160.6299" y2="160.6299"/>
    <line x1="249.9155" x2="233.3453" y1="160.6299" y2="160.6299"/>
    <line x1="163.5051" x2="146.9349" y1="164.4094" y2="164.4094"/>
    <line x1="249.9155" x2="233.3453" y1="164.4094" y2="164.4094"/>
    <line x1="163.5051" x2="146.9349" y1="168.189" y2="168.189"/>
    <line x1="249.9155" x2="233.3453" y1="168.189" y2="168.189"/>
    <line x1="163.5051" x2="146.9349" y1="171.9685" y2="171.9685"/>
    <line x1="249.9155" x2="233.3453" y1="171.9685" y2="171.9685"/>
    <line x1="163.5051" x2="146.9349" y1="175.748" y2="175.748"/>
    <line x1="249.9155" x2="233.3453" y1="175.748" y2="175.748"/>
    <line x1="163.5051" x2="146.9349" y1="179.5276" y2="179.5276"/>
    <line x1="249.9155" x2="233.3453" y1="179.5276" y2="179.5276"/>
    <line x1="163.5051" x2="146.9349" y1="183.3071" y2="183.3071"/>
    <line x1="249.9155" x2="233.3453" y1="183.3071" y2="183.3071"/>
    <line x1="163.5051" x2="146.9349" y1="187.0866" y2="187.0866"/>
    <line x1="249.9155" x2="233.3453" y1="187.0866" y2="187.0866"/>
    <line x1="163.5051" x2="146.9349" y1="190.8661" y2="190.8661"/>
    <line x1="249.9155" x2="233.3453" y1="190.8661" y2="190.8661"/>
    <line x1="163.5051" x2="146.9349" y1="194.6457" y2="194.6457"/>
    <line x1="249.9155" x2="233.3453" y1="194.6457" y2="194.6457"/>
    <line x1="163.5051" x2="146.9349" y1="198.4252" y2="198.4252"/>
    <line x1="249.9155" x2="233.3453" y1="198.4252" y2="198.4252"/>
    <line x1="163.5051" x2="146.9349" y1="202.2047" y2="202.2047"/>
    <line x1="249.9155" x2="233.3453" y1="202.2047" y2="202.2047"/>
    <line x1="163.5051" x2="146.9349" y1="205.9843" y2="205.9843"/>
    <line x1="249.9155" x2="233.3453" y1="205.9843" y2="205.9843"/>
    <line x1="163.5051" x2="146.9349" y1="209.7638" y2="209.7638"/>
    <line x1="249.9155" x2="233.3453" y1="209.7638" y2="209.7638"/>
    <line x1="163.5051" x2="146.9349" y1="213.5433" y2="213.5433"/>
    <line x1="249.9155" x2="233.3453" y1="213.5433" y2="213.5433"/>
    <line x1="163.5051" x2="146.9349" y1="217.3228" y2="217.3228"/>
    <line x1="249.9155" x2="233.3453" y1="217.3228" y2="217.3228"/>
    <line x1="163.5051" x2="146.9349" y1="221.1024" y2="221.1024"/>
    <line x1="249.9155" x2="233.3453" y1="221.1024" y2="221.1024"/>
    <line x1="163.5051" x2="146.9349" y1="224.8819" y2="224.8819"/>
    <line x1="249.9155" x2="233.3453" y1="224.8819" y2="224.8819"/>
    <line x1="163.5051" x2="146.9349" y1="228.6614" y2="228.6614"/>
    <line x1="249.9155" x2="233.3453" y1="228.6614" y2="228.6614"/>
    <line x1="163.5051" x2="146.9349" y1="232.4409" y2="232.4409"/>
    <line x1="249.9155" x2="233.3453" y1="232.4409" y2="232.4409"/>
    <line x1="163.5051" x2="146.9349" y1="236.2205" y2="236.2205"/>
    <line x1="249.9155" x2="233.3453" y1="236.2205" y2="236.2205"/>
    <line x1="163.5051" x2="146.9349" y1="240.0" y2="240.0"/>
    <line x1="249.9155" x2="233.3453" y1="240.0" y2="240.0"/>
    <line x1="163.5051" x2="146.9349" y1="243.7795" y2="243.7795"/>
    <line x1="249.9155" x2="233.3453" y1="243.7795" y2="243.7795"/>
    <line x1="163.5051" x2="146.9349" y1="247.5591" y2="247.5591"/>
    <line x1="249.9155" x2="233.3453" y1="247.5591" y2="247.5591"/>
    <line x1="163.5051" x2="146.9349" y1="251.3386" y2="251.3386"/>
    <line x1="249.9155" x2="233.3453" y1="251.3386" y2="251.3386"/>
    <line x1="163.5051" x2="146.9349" y1="255.1181" y2="255.1181"/>
    <line x1="249.9155" x2="233.3453" y1="255.1181" y2="255.1181"/>
    <line x1="163.5051" x2="146.9349" y1="258.8976" y2="258.8976"/>
    <line x1="249.9155" x2="233.3453" y1="258.8976" y2="258.8976"/>
    <line x1="163.5051" x2="146.9349" y1="262.6772" y2="262.6772"/>
    <line x1="249.9155" x2="233.3453" y1="262.6772" y2="262.6772"/>
    <line x1="163.5051" x2="146.9349" y1="266.4567" y2="266.4567"/>
    <line x1="249.9155" x2="233.3453" y1="266.4567" y2="266.4567"/>
    <line x1="163.5051" x2="146.9349" y1="270.2362" y2="270.2362"/>
    <line x1="249.9155" x2="233.3453" y1="270.2362" y2="270.2362"/>
    <line x1="163.5051" x2="146.9349" y1="274.0157" y2="274.0157"/>
    <line x1="249.9155" x2="233.3453" y1="274.0157" y2="274.0157"/>
    <line x1="163.5051" x2="146.9349" y1="277.7953" y2="277.7953"/>
    <line x1="249.9155" x2="233.3453" y1="277.7953" y2="277.7953"/>
    <line x1="163.5051" x2="146.9349" y1="281.5748" y2="281.5748"/>
    <line x1="249.9155" x2="233.3453" y1="281.5748" y2="281.5748"/>
    <line x1="163.5051" x2="146.9349" y1="285.3543" y2="285.3543"/>
    <line x1="249.9155" x2="233.3453" y1="285.3543" y2="285.3543"/>
    <line x1="163.5051" x2="146.9349" y1="289.1339" y2="289.1339"/>
    <line x1="249.9155" x2="233.3453" y1="289.1339" y2="289.1339"/>
    <line x1="163.5051" x2="146.9349" y1="292.9134" y2="292.9134"/>
    <line x1="249.9155" x2="233.3453" y1="292.9134" y2="292.9134"/>
    <line x1="163.5051" x2="146.9349" y1="296.6929" y2="296.6929"/>
    <line x1="249.9155" x2="233.3453" y1="296.6929" y2="296.6929"/>
    <line x1="163.5051" x2="146.9349" y1="300.4724" y2="300.4724"/>
    <line x1="249.9155" x2="233.3453" y1="300.4724" y2="300.4724"/>
    <line x1="163.509" x2="146.9472" y1="304.252" y2="304.252"/>
    <line x1="249.9155" x2="233.3414" y1="304.252" y2="304.252"/>
    <line x1="163.6001" x2="147.0524" y1="308.0315" y2="308.0315"/>
    <line x1="249.9155" x2="233.2503" y1="308.0315" y2="308.0315"/>
    <line x1="163.8248" x2="147.275" y1="311.811" y2="311.811"/>
    <line x1="249.9155" x2="233.0256" y1="311.811" y2="311.811"/>
    <line x1="164.2034" x2="147.6283" y1="315.5906" y2="315.5906"/>
    <line x1="249.9155" x2="232.647" y1="315.5906" y2="315.5906"/>
    <line x1="164.7619" x2="148.1283" y1="319.3701" y2="319.3701"/>
    <line x1="249.9155" x2="232.0885" y1="319.3701" y2="319.3701"/>
    <line x1="165.5347" x2="148.7947" y1="323.1496" y2="323.1496"/>
    <line x1="249.9155" x2="231.3157" y1="323.1496" y2="323.1496"/>
    <line x1="166.5686" x2="149.6521" y1="326.9291" y2="326.9291"/>
    <line x1="249.9155" x2="230.2818" y1="326.9291" y2="326.9291"/>
    <line x1="167.9307" x2="150.7317" y1="330.7087" y2="330.7087"/>
    <line x1="249.9155" x2="228.9197" y1="330.7087" y2="330.7087"/>
    <line x1="169.7226" x2="152.0743" y1="334.4882" y2="334.4882"/>
    <line x1="249.9155" x2="227.1278" y1="334.4882" y2="334.4882"/>
    <line x1="172.113" x2="153.7348" y1="338.2677" y2="338.2677"/>
    <line x1="249.9155" x2="224.7374" y1="338.2677" y2="338.2677"/>
    <line x1="175.4218" x2="155.7908" y1="342.0472" y2="342.0472"/>
    <line x1="249.9155" x2="221.4286" y1="342.0472" y2="342.0472"/>
    <line x1="180.4299" x2="158.3572" y1="345.8268" y2="345.8268"/>
    <line x1="249.9155" x2="216.4205" y1="345.8268" y2="345.8268"/>
    <line x1="191.2806" x2="161.6189" y1="349.6063" y2="349.6063"/>
    <line x1="249.9155" x2="205.5698" y1="349.6063" y2="349.6063"/>
    <line x1="233.367" x2="165.9096" y1="353.3858" y2="353.3858"/>
    <line x1="249.9155" x2="234.3272" y1="353.3858" y2="353.3858"/>
    <line x1="226.955" x2="171.9667" y1="357.1654" y2="357.1654"/>
    <line x1="249.9155" x2="234.3272" y1="357.1654" y2="357.1654"/>
    <line x1="215.7325" x2="182.4152" y1="360.9449" y2="360.9449"/>
    <line x1="249.9155" x2="234.3272" y1="360.9449" y2="360.9449"/>
    <line x1="249.9155" x2="234.3272" y1="364.7244" y2="364.7244"/>
    <line x1="249.9155" x2="234.3272" y1="368.5039" y2="368.5039"/>
    <line x1="249.9155" x2="234.3272" y1="372.2835" y2="372.2835"/>
    <line x1="249.9155" x2="234.3272" y1="376.063" y2="376.063"/>
    <line x1="249.9155" x2="234.3272" y1="379.8425" y2="379.8425"/>
    <line x1="163.5051" x2="146.9349" y1="383.622" y2="383.622"/>
    <line x1="249.9155" x2="234.3272" y1="383.622" y2="383.622"/>
    <line x1="163.5051" x2="146.9349" y1="387.4016" y2="387.4016"/>
    <line x1="249.9155" x2="234.3272" y1="387.4016" y2="387.4016"/>
    <line x1="163.5051" x2="146.9349" y1="391.1811" y2="391.1811"/>
    <line x1="249.9155" x2="234.3272" y1="391.1811" y2="391.1811"/>
    <line x1="163.5051" x2="146.9349" y1="394.9606" y2="394.9606"/>
    <line x1="249.9155" x2="234.3272" y1="394.9606" y2="394.9606"/>
    <line x1="163.5051" x2="146.9349" y1="398.7402" y2="398.7402"/>
    <line x1="249.9155" x2="234.3272" y1="398.7402" y2="398.7402"/>
    <line x1="163.5051" x2="146.9349" y1="402.5197" y2="402.5197"/>
    <line x1="249.9155" x2="234.3272" y1="402.5197" y2="402.5197"/>
    <line x1="163.5051" x2="146.9349" y1="406.2992" y2="406.2992"/>
    <line x1="249.9155" x2="234.3272" y1="406.2992" y2="406.2992"/>
    <line x1="163.5051" x2="146.9349" y1="410.0787" y2="410.0787"/>
    <line x1="249.9155" x2="234.3272" y1="410.0787" y2="410.0787"/>
    <line x1="163.5051" x2="146.9349" y1="413.8583" y2="413.8583"/>
    <line x1="249.9155" x2="234.3272" y1="413.8583" y2="413.8583"/>
    <line x1="163.5117" x2="146.9718" y1="417.6378" y2="417.6378"/>
    <line x1="249.9003" x2="234.318" y1="417.6378" y2="417.6378"/>
    <line x1="163.5817" x2="147.1146" y1="421.4173" y2="421.4173"/>
    <line x1="249.7897" x2="234.2096" y1="421.4173" y2="421.4173"/>
    <line x1="163.7386" x2="147.3757" y1="425.1969" y2="425.1969"/>
    <line x1="249.5621" x2="233.9652" y1="425.1969" y2="425.1969"/>
    <line x1="163.999" x2="147.7686" y1="428.9764" y2="428.9764"/>
    <line x1="249.2043" x2="233.5643" y1="428.9764" y2="428.9764"/>
    <line x1="164.3853" x2="148.3096" y1="432.7559" y2="432.7559"/>
    <line x1="248.7002" x2="232.9801" y1="432.7559" y2="432.7559"/>
    <line x1="164.9297" x2="149.0187" y1="436.5354" y2="436.5354"/>
    <line x1="248.0299" x2="232.1774" y1="436.5354" y2="436.5354"/>
    <line x1="165.6812" x2="149.9208" y1="440.315" y2="440.315"/>
    <line x1="247.1689" x2="231.1079" y1="440.315" y2="440.315"/>
    <line x1="166.7203" x2="151.0476" y1="444.0945" y2="444.0945"/>
    <line x1="246.0859" x2="229.7026" y1="444.0945" y2="444.0945"/>
    <line x1="168.1995" x2="152.4408" y1="447.874" y2="447.874"/>
    <line x1="244.7396" x2="227.856" y1="447.874" y2="447.874"/>
    <line x1="170.4402" x2="154.1564" y1="451.6535" y2="451.6535"/>
    <line x1="243.0747" x2="225.3924" y1="451.6535" y2="451.6535"/>
    <line x1="173.7994" x2="156.2737" y1="455.4331" y2="455.4331"/>
    <line x1="241.0128" x2="221.9749" y1="455.4331" y2="455.4331"/>
    <line x1="179.2131" x2="158.911" y1="459.2126" y2="459.2126"/>
    <line x1="238.4371" x2="216.7632" y1="459.2126" y2="459.2126"/>
    <line x1="192.5324" x2="162.2592" y1="462.9921" y2="462.9921"/>
    <line x1="235.1589" x2="204.648" y1="462.9921" y2="462.9921"/>
    <line x1="230.8345" x2="166.6661" y1="466.7717" y2="466.7717"/>
    <line x1="224.692" x2="172.9128" y1="470.5512" y2="470.5512"/>
    <line x1="213.8352" x2="183.9301" y1="474.3307" y2="474.3307"/>
  </g>
  <g fill="none" id="layer3" inkscape:groupmode="layer" inkscape:label="3" stroke="#ff00ff" style="display:inline">
    <polygon points="175.9539,472.3998 173.792,470.9701 176.5477,472.1348 179.4925,473.1577 182.5196,474.0017 185.7409,474.6982 189.0396,475.2216 192.5376,475.5916 196.1751,475.7967 199.9419,475.8371 203.5751,475.7139 207.0077,475.4353 210.3082,475.0004 213.5352,474.3967 216.625,473.6307 219.5244,472.7211 222.2916,471.6553 224.9753,470.4087 227.3379,469.1098 229.5829,467.6718 231.7105,466.0948 233.6814,464.4144 235.5762,462.562 237.3534,460.5705 239.0131,458.44 240.5553,456.1704 241.9799,453.7617 243.287,451.214 244.4765,448.5272 245.5485,445.7013 246.5029,442.7364 247.3399,439.6324 248.0592,436.3893 248.661,433.0071 249.2037,428.9819 249.5881,424.8512 249.8251,420.5461 249.9146,416.0665 249.9155,78.9921 255.9708,78.9921 255.9708,81.447 256.4618,81.447 256.461,419.846 256.3714,424.3256 256.1345,428.6307 255.7501,432.7614 255.2074,436.7867 254.684,439.7703 254.0696,442.6462 253.3812,445.3528 252.5867,448.0158 251.7013,450.5711 250.7249,453.0187 249.6574,455.3586 248.5262,457.5413 247.3081,459.6211 245.9717,461.6428 244.5443,463.5568 243.0258,465.3632 241.4539,467.0244 239.7555,468.6178 237.966,470.1035 236.0855,471.4815 234.114,472.7518 232.0514,473.9144 229.8979,474.9693 227.6533,475.9166 225.3177,476.7561 222.8348,477.5033 220.3151,478.125 217.7043,478.639 214.9401,479.0533 212.0806,479.3549 209.1259,479.5439 206.0072,479.6207 202.8563,479.5806 199.8002,479.4253 196.8417,479.1547 194.042,478.7786 191.1587,478.2557 188.3249,477.5926 185.6018,476.7987 183.0418,475.8942 180.538,474.8414 178.1928,473.6833"/>
    <polyline points="255.4039,79.748 250.4824,79.748 250.4824,80.315 255.4039,80.315 255.4039,80.8819 250.4824,80.8819 250.4824,81.4488 255.4039,81.4488 255.8949,82.0157 250.4824,82.0157 250.4824,82.5827 255.8949,82.5827 255.8949,83.1496 250.4824,83.1496 250.4824,83.7165 255.8949,83.7165 255.8949,84.2835 250.4824,84.2835 250.4824,84.8504 255.8949,84.8504 255.8949,85.4173 250.4824,85.4173 250.4824,85.9843 255.8949,85.9843 255.8949,86.5512 250.4824,86.5512 250.4824,87.1181 255.8949,87.1181 255.8949,87.685 250.4824,87.685 250.4824,88.252 255.8949,88.252 255.8949,88.8189 250.4824,88.8189 250.4824,89.3858 255.8949,89.3858 255.8949,89.9528 250.4824,89.9528 250.4824,90.5197 255.8949,90.5197 255.8949,91.0866 250.4824,91.0866 250.4824,91.6535 255.8949,91.6535 255.8949,92.2205 250.4824,92.2205 250.4824,92.7874 255.8949,92.7874 255.8949,93.3543 250.4824,93.3543 250.4824,93.9213 255.8949,93.9213 255.8949,94.4882 250.4824,94.4882 250.4824,95.0551 255.8949,95.0551 255.8949,95.622 250.4824,95.622 250.4824,96.189 255.8949,96.189 255.8949,96.7559 250.4824,96.7559 250.4824,97.3228 255.8949,97.3228 255.8949,97.8898 250.4824,97.8898 250.4824,98.4567 255.8949,98.4567 255.8949,99.0236 250.4824,99.0236 250.4824,99.5906 255.8949,99.5906 255.8949,100.1575 250.4824,100.1575 250.4824,100.7244 255.8949,100.7244 255.8949,101.2913 250.4824,101.2913 250.4824,101.8583 255.8949,101.8583 255.8949,102.4252 250.4824,102.4252 250.4824,102.9921 255.8949,102.9921 255.8949,103.5591 250.4824,103.5591 250.4824,104.126 255.8949,104.126 255.8949,104.6929 250.4824,104.6929 250.4824,105.2598 255.8949,105.2598 255.8949,105.8268 250.4824,105.8268 250.4824,106.3937 255.8949,106.3937 255.8949,106.9606 250.4824,106.9606 250.4824,107.5276 255.8949,107.5276 255.8949,108.0945 250.4824,108.0945 250.4824,108.6614 255.8949,108.6614 255.8949,109.2283 250.4824,109.2283 250.4824,109.7953 255.8949,109.7953 255.8949,110.3622 250.4824,110.3622 250.4824,110.9291 255.8949,110.9291 255.8949,111.4961 250.4824,111.4961 250.4824,112.063 255.8949,112.063 255.8949,112.6299 250.4824,112.6299 250.4824,113.1969 255.8949,113.1969 255.8949,113.7638 250.4824,113.7638 250.4824,114.3307 255.8949,114.3307 255.8949,114.8976 250.4824,114.8976 250.4824,115.4646 255.8949,115.4646 255.8949,116.0315 250.4824,116.0315 250.4824,116.5984 255.8949,116.5984 255.8949,117.1654 250.4824,117.1654 250.4824,117.7323 255.8949,117.7323 255.8949,118.2992 250.4824,118.2992 250.4824,118.8661 255.8949,118.8661 255.8949,119.4331 250.4824,119.4331 250.4824,120.0 255.8949,120.0 255.8949,120.5669 250.4824,120.5669 250.4824,121.1339 255.8949,121.1339 255.8949,121.7008 250.4824,121.7008 250.4824,122.2677 255.8949,122.2677 255.8949,122.8346 250.4824,122.8346 250.4824,123.4016 255.8949,123.4016 255.8949,123.9685 250.4824,123.9685 250.4824,124.5354 255.8949,124.5354 255.8949,125.1024 250.4824,125.1024 250.4824,125.6693 255.8949,125.6693 255.8949,126.2362 250.4824,126.2362 250.4824,126.8031 255.8949,126.8031 255.8949,127.3701 250.4824,127.3701 250.4824,127.937 255.8949,127.937 255.8949,128.5039 250.4824,128.5039 250.4824,129.0709 255.8949,129.0709 255.8949,129.6378 250.4824,129.6378 250.4824,130.2047 255.8949,130.2047 255.8949,130.7717 250.4824,130.7717 250.4824,131.3386 255.8949,131.3386 255.8949,131.9055 250.4824,131.9055 250.4824,132.4724 255.8949,132.4724 255.8949,133.0394 250.4824,133.0394 250.4824,133.6063 255.8949,133.6063 255.8949,134.1732 250.4824,134.1732 250.4824,134.7402 255.8949,134.7402 255.8949,135.3071 250.4824,135.3071 250.4824,135.874 255.8949,135.874 255.8949,136.4409 250.4824,136.4409 250.4824,137.0079 255.8949,137.0079 255.8949,137.5748 250.4824,137.5748 250.4824,138.1417 255.8949,138.1417 255.8949,138.7087 250.4824,138.7087 250.4824,139.2756 255.8949,139.2756 255.8949,139.8425 250.4824,139.8425 250.4824,140.4094 255.8949,140.4094 255.8949,140.9764 250.4824,140.9764 250.4824,141.5433 255.8949,141.5433 255.8949,142.1102 250.4824,142.1102 250.4824,142.6772 255.8949,142.6772 255.8949,143.2441 250.4824,143.2441 250.4824,143.811 255.8949,143.811 255.8949,144.378 250.4824,144.378 250.4824,144.9449 255.8949,144.9449 255.8949,145.5118 250.4824,145.5118 250.4824,146.0787 255.8949,146.0787 255.8949,146.6457 250.4824,146.6457 250.4824,147.2126 255.8949,147.2126 255.8949,147.7795 250.4824,147.7795 250.4824,148.3465 255.8949,148.3465 255.8949,148.9134 250.4824,148.9134 250.4824,149.4803 255.8949,149.4803 255.8949,150.0472 250.4824,150.0472 250.4824,150.6142 255.8949,150.6142 255.8949,151.1811 250.4824,151.1811 250.4824,151.748 255.8949,151.748 255.8949,152.315 250.4824,152.315 250.4824,152.8819 255.8949,152.8819 255.8949,153.4488 250.4824,153.4488 250.4824,154.0157 255.8949,154.0157 255.8949,154.5827 250.4824,154.5827 250.4824,155.1496 255.8949,155.1496 255.8949,155.7165 250.4824,155.7165 250.4824,156.2835 255.8949,156.2835 255.8949,156.8504 250.4824,156.8504 250.4824,157.4173 255.8949,157.4173 255.8949,157.9843 250.4824,157.9843 250.4824,158.5512 255.8949,158.5512 255.8949,159.1181 250.4824,159.1181 250.4824,159.685 255.8949,159.685 255.8949,160.252 250.4824,160.252 250.4824,160.8189 255.8949,160.8189 255.8949,161.3858 250.4824,161.3858 250.4824,161.9528 255.8949,161.9528 255.8949,162.5197 250.4824,162.5197 250.4824,163.0866 255.8949,163.0866 255.8949,163.6535 250.4824,163.6535 250.4824,164.2205 255.8949,164.2205 255.8949,164.7874 250.4824,164.7874 250.4824,165.3543 255.8949,165.3543 255.8949,165.9213 250.4824,165.9213 250.4824,166.4882 255.8949,166.4882 255.8949,167.0551 250.4824,167.0551 250.4824,167.622 255.8949,167.622 255.8949,168.189 250.4824,168.189 250.4824,168.7559 255.8949,168.7559 255.8949,169.3228 250.4824,169.3228 250.4824,169.8898 255.8949,169.8898 255.8949,170.4567 250.4824,170.4567 250.4824,171.0236 255.8949,171.0236 255.8949,171.5906 250.4824,171.5906 250.4824,172.1575 255.8949,172.1575 255.8949,172.7244 250.4824,172.7244 250.4824,173.2913 255.8949,173.2913 255.8949,173.8583 250.4824,173.8583 250.4824,174.4252 255.8949,174.4252 255.8949,174.9921 250.4824,174.9921 250.4824,175.5591 255.8949,175.5591 255.8949,176.126 250.4824,176.126 250.4824,176.6929 255.8949,176.6929 255.8949,177.2598 250.4824,177.2598 250.4824,177.8268 255.8949,177.8268 255.8949,178.3937 250.4824,178.3937 250.4824,178.9606 255.8949,178.9606 255.8949,179.5276 250.4824,179.5276 250.4824,180.0945 255.8949,180.0945 255.8949,180.6614 250.4824,180.6614 250.4824,181.2283 255.8949,181.2283 255.8949,181.7953 250.4824,181.7953 250.4824,182.3622 255.8949,182.3622 255.8949,182.9291 250.4824,182.9291 250.4824,183.4961 255.8949,183.4961 255.8949,184.063 250.4824,184.063 250.4824,184.6299 255.8949,184.6299 255.8949,185.1969 250.4824,185.1969 250.4824,185.7638 255.8949,185.7638 255.8949,186.3307 250.4824,186.3307 250.4824,186.8976 255.8949,186.8976 255.8949,187.4646 250.4824,187.4646 250.4824,188.0315 255.8949,188.0315 255.8949,188.5984 250.4824,188.5984 250.4824,189.1654 255.8949,189.1654 255.8949,189.7323 250.4824,189.7323 250.4824,190.2992 255.8949,190.2992 255.8949,190.8661 250.4824,190.8661 250.4824,191.4331 255.8949,191.4331 255.8949,192.0 250.4824,192.0 250.4824,192.5669 255.8949,192.5669 255.8949,193.1339 250.4824,193.1339 250.4824,193.7008 255.8949,193.7008 255.8949,194.2677 250.4824,194.2677 250.4824,194.8346 255.8949,194.8346 255.8949,195.4016 250.4824,195.4016 250.4824,195.9685 255.8949,195.9685 255.8949,196.5354 250.4824,196.5354 250.4824,197.1024 255.8949,197.1024 255.8949,197.6693 250.4824,197.6693 250.4824,198.2362 255.8949,198.2362 255.8949,198.8031 250.4824,198.8031 250.4824,199.3701 255.8949,199.3701 255.8949,199.937 250.4824,199.937 250.4824,200.5039 255.8949,200.5039 255.8949,201.0709 250.4824,201.0709 250.4824,201.6378 255.8949,201.6378 255.8949,202.2047 250.4824,202.2047 250.4824,202.7717 255.8949,202.7717 255.8949,203.3386 250.4824,203.3386 250.4824,203.9055 255.8949,203.9055 255.8949,204.4724 250.4824,204.4724 250.4824,205.0394 255.8949,205.0394 255.8949,205.6063 250.4824,205.6063 250.4824,206.1732 255.8949,206.1732 255.8949,206.7402 250.4824,206.7402 250.4824,207.3071 255.8949,207.3071 255.8949,207.874 250.4824,207.874 250.4824,208.4409 255.8949,208.4409 255.8949,209.0079 250.4824,209.0079 250.4824,209.5748 255.8949,209.5748 255.8949,210.1417 250.4824,210.1417 250.4824,210.7087 255.8949,210.7087 255.8949,211.2756 250.4824,211.2756 250.4824,211.8425 255.8949,211.8425 255.8949,212.4094 250.4824,212.4094 250.4824,212.9764 255.8949,212.9764 255.8949,213.5433 250.4824,213.5433 250.4824,214.1102 255.8949,214.1102 255.8949,214.6772 250.4824,214.6772 250.4824,215.2441 255.8949,215.2441 255.8949,215.811 250.4824,215.811 250.4824,216.378 255.8949,216.378 255.8949,216.9449 250.4824,216.9449 250.4824,217.5118 255.8949,217.5118 255.8949,218.0787 250.4824,218.0787 250.4824,218.6457 255.8949,218.6457 255.8949,219.2126 250.4824,219.2126 250.4824,219.7795 255.8949,219.7795 255.8949,220.3465 250.4824,220.3465 250.4824,220.9134 255.8949,220.9134 255.8949,221.4803 250.4824,221.4803 250.4824,222.0472 255.8949,222.0472 255.8949,222.6142 250.4824,222.6142 250.4824,223.1811 255.8949,223.1811 255.8949,223.748 250.4824,223.748 250.4824,224.315 255.8949,224.315 255.8949,224.8819 250.4824,224.8819 250.4824,225.4488 255.8949,225.4488 255.8949,226.0157 250.4824,226.0157 250.4824,226.5827 255.8949,226.5827 255.8949,227.1496 250.4824,227.1496 250.4824,227.7165 255.8949,227.7165 255.8949,228.2835 250.4824,228.2835 250.4824,228.8504 255.8949,228.8504 255.8949,229.4173 250.4824,229.4173 250.4824,229.9843 255.8949,229.9843 255.8949,230.5512 250.4824,230.5512 250.4824,231.1181 255.8949,231.1181 255.8949,231.685 250.4824,231.685 250.4824,232.252 255.8949,232.252 255.8949,232.8189 250.4824,232.8189 250.4824,233.3858 255.8949,233.3858 255.8949,233.9528 250.4824,233.9528 250.4824,234.5197 255.8949,234.5197 255.8949,235.0866 250.4824,235.0866 250.4824,235.6535 255.8949,235.6535 255.8949,236.2205 250.4824,236.2205 250.4824,236.7874 255.8949,236.7874 255.8949,237.3543 250.4824,237.3543 250.4824,237.9213 255.8949,237.9213 255.8949,238.4882 250.4824,238.4882 250.4824,239.0551 255.8949,239.0551 255.8949,239.622 250.4824,239.622 250.4824,240.189 255.8949,240.189 255.8949,240.7559 250.4824,240.7559 250.4824,241.3228 255.8949,241.3228 255.8949,241.8898 250.4824,241.8898 250.4824,242.4567 255.8949,242.4567 255.8949,243.0236 250.4824,243.0236 250.4824,243.5906 255.8949,243.5906 255.8949,244.1575 250.4824,244.1575 250.4824,244.7244 255.8949,244.7244 255.8949,245.2913 250.4824,245.2913 250.4824,245.8583 255.8949,245.8583 255.8949,246.4252 250.4824,246.4252 250.4824,246.9921 255.8949,246.9921 255.8949,247.5591 250.4824,247.5591 250.4824,248.126 255.8949,248.126 255.8949,248.6929 250.4824,248.6929 250.4824,249.2598 255.8949,249.2598 255.8949,249.8268 250.4824,249.8268 250.4824,250.3937 255.8949,250.3937 255.8949,250.9606 250.4824,250.9606 250.4824,251.5276 255.8949,251.5276 255.8949,252.0945 250.4824,252.0945 250.4824,252.6614 255.8949,252.6614 255.8949,253.2283 250.4824,253.2283 250.4824,253.7953 255.8949,253.7953 255.8949,254.3622 250.4824,254.3622 250.4824,254.9291 255.8949,254.9291 255.8949,255.4961 250.4824,255.4961 250.4824,256.063 255.8949,256.063 255.8949,256.6299 250.4824,256.6299 250.4824,257.1969 255.8949,257.1969 255.8949,257.7638 250.4824,257.7638 250.4824,258.3307 255.8949,258.3307 255.8949,258.8976 250.4824,258.8976 250.4824,259.4646 255.8949,259.4646 255.8949,260.0315 250.4824,260.0315 250.4824,260.5984 255.8949,260.5984 255.8949,261.1654 250.4824,261.1654 250.4824,261.7323 255.8949,261.7323 255.8949,262.2992 250.4824,262.2992 250.4824,262.8661 255.8949,262.8661 255.8949,263.4331 250.4824,263.4331 250.4824,264.0 255.8949,264.0 255.8949,264.5669 250.4824,264.5669 250.4824,265.1339 255.8949,265.1339 255.8949,265.7008 250.4824,265.7008 250.4824,266.2677 255.8949,266.2677 255.8949,266.8346 250.4824,266.8346 250.4824,267.4016 255.8949,267.4016 255.8949,267.9685 250.4824,267.9685 250.4824,268.5354 255.8949,268.5354 255.8949,269.1024 250.4824,269.1024 250.4824,269.6693 255.8949,269.6693 255.8949,270.2362 250.4824,270.2362 250.4824,270.8031 255.8949,270.8031 255.8949,271.3701 250.4824,271.3701 250.4824,271.937 255.8949,271.937 255.8949,272.5039 250.4824,272.5039 250.4824,273.0709 255.8949,273.0709 255.8949,273.6378 250.4824,273.6378 250.4824,274.2047 255.8949,274.2047 255.8949,274.7717 250.4824,274.7717 250.4824,275.3386 255.8949,275.3386 255.8949,275.9055 250.4824,275.9055 250.4824,276.4724 255.8949,276.4724 255.8949,277.0394 250.4824,277.0394 250.4824,277.6063 255.8949,277.6063 255.8949,278.1732 250.4824,278.1732 250.4824,278.7402 255.8949,278.7402 255.8949,279.3071 250.4824,279.3071 250.4824,279.874 255.8949,279.874 255.8949,280.4409 250.4824,280.4409 250.4824,281.0079 255.8949,281.0079 255.8949,281.5748 250.4824,281.5748 250.4824,282.1417 255.8949,282.1417 255.8949,282.7087 250.4824,282.7087 250.4824,283.2756 255.8949,283.2756 255.8949,283.8425 250.4824,283.8425 250.4824,284.4094 255.8949,284.4094 255.8949,284.9764 250.4824,284.9764 250.4824,285.5433 255.8949,285.5433 255.8949,286.1102 250.4824,286.1102 250.4824,286.6772 255.8949,286.6772 255.8949,287.2441 250.4824,287.2441 250.4824,287.811 255.8949,287.811 255.8949,288.378 250.4824,288.378 250.4824,288.9449 255.8949,288.9449 255.8949,289.5118 250.4824,289.5118 250.4824,290.0787 255.8949,290.0787 255.8949,290.6457 250.4824,290.6457 250.4824,291.2126 255.8949,291.2126 255.8949,291.7795 250.4824,291.7795 250.4824,292.3465 255.8949,292.3465 255.8949,292.9134 250.4824,292.9134 250.4824,293.4803 255.8949,293.4803 255.8949,294.0472 250.4824,294.0472 250.4824,294.6142 255.8949,294.6142 255.8949,295.1811 250.4824,295.1811 250.4824,295.748 255.8949,295.748 255.8949,296.315 250.4824,296.315 250.4824,296.8819 255.8949,296.8819 255.8949,297.4488 250.4824,297.4488 250.4824,298.0157 255.8949,298.0157 255.8949,298.5827 250.4824,298.5827 250.4824,299.1496 255.8949,299.1496 255.8949,299.7165 250.4824,299.7165 250.4824,300.2835 255.8949,300.2835 255.8949,300.8504 250.4824,300.8504 250.4824,301.4173 255.8949,301.4173 255.8949,301.9843 250.4824,301.9843 250.4824,302.5512 255.8949,302.5512 255.8949,303.1181 250.4824,303.1181 250.4824,303.685 255.8949,303.685 255.8949,304.252 250.4824,304.252 250.4824,304.8189 255.8949,304.8189 255.8949,305.3858 250.4824,305.3858 250.4824,305.9528 255.8949,305.9528 255.8949,306.5197 250.4824,306.5197 250.4824,307.0866 255.8949,307.0866 255.8949,307.6535 250.4824,307.6535 250.4824,308.2205 255.8949,308.2205 255.8949,308.7874 250.4824,308.7874 250.4824,309.3543 255.8949,309.3543 255.8949,309.9213 250.4824,309.9213 250.4824,310.4882 255.8949,310.4882 255.8949,311.0551 250.4824,311.0551 250.4824,311.622 255.8949,311.622 255.8949,312.189 250.4824,312.189 250.4824,312.7559 255.8949,312.7559 255.8949,313.3228 250.4824,313.3228 250.4824,313.8898 255.8949,313.8898 255.8949,314.4567 250.4824,314.4567 250.4824,315.0236 255.8949,315.0236 255.8949,315.5906 250.4824,315.5906 250.4824,316.1575 255.8949,316.1575 255.8949,316.7244 250.4824,316.7244 250.4824,317.2913 255.8949,317.2913 255.8949,317.8583 250.4824,317.8583 250.4824,318.4252 255.8949,318.4252 255.8949,318.9921 250.4824,318.9921 250.4824,319.5591 255.8949,319.5591 255.8949,320.126 250.4824,320.126 250.4824,320.6929 255.8949,320.6929 255.8949,321.2598 250.4824,321.2598 250.4824,321.8268 255.8949,321.8268 255.8949,322.3937 250.4824,322.3937 250.4824,322.9606 255.8949,322.9606 255.8949,323.5276 250.4824,323.5276 250.4824,324.0945 255.8949,324.0945 255.8949,324.6614 250.4824,324.6614 250.4824,325.2283 255.8949,325.2283 255.8949,325.7953 250.4824,325.7953 250.4824,326.3622 255.8949,326.3622 255.8949,326.9291 250.4824,326.9291 250.4824,327.4961 255.8949,327.4961 255.8949,328.063 250.4824,328.063 250.4824,328.6299 255.8949,328.6299 255.8949,329.1969 250.4824,329.1969 250.4824,329.7638 255.8949,329.7638 255.8949,330.3307 250.4824,330.3307 250.4824,330.8976 255.8949,330.8976 255.8949,331.4646 250.4824,331.4646 250.4824,332.0315 255.8949,332.0315 255.8949,332.5984 250.4824,332.5984 250.4824,333.1654 255.8949,333.1654 255.8949,333.7323 250.4824,333.7323 250.4824,334.2992 255.8949,334.2992 255.8949,334.8661 250.4824,334.8661 250.4824,335.4331 255.8949,335.4331 255.8949,336.0 250.4824,336.0 250.4824,336.5669 255.8949,336.5669 255.8949,337.1339 250.4824,337.1339 250.4824,337.7008 255.8949,337.7008 255.8949,338.2677 250.4824,338.2677 250.4824,338.8346 255.8949,338.8346 255.8949,339.4016 250.4824,339.4016 250.4824,339.9685 255.8949,339.9685 255.8949,340.5354 250.4824,340.5354 250.4824,341.1024 255.8949,341.1024 255.8949,341.6693 250.4824,341.6693 250.4824,342.2362 255.8949,342.2362 255.8949,342.8031 250.4824,342.8031 250.4824,343.3701 255.8949,343.3701 255.8949,343.937 250.4824,343.937 250.4824,344.5039 255.8949,344.5039 255.8949,345.0709 250.4824,345.0709 250.4824,345.6378 255.8949,345.6378 255.8949,346.2047 250.4824,346.2047 250.4824,346.7717 255.8949,346.7717 255.8949,347.3386 250.4824,347.3386 250.4824,347.9055 255.8949,347.9055 255.8949,348.4724 250.4824,348.4724 250.4824,349.0394 255.8949,349.0394 255.8949,349.6063 250.4824,349.6063 250.4824,350.1732 255.8949,350.1732 255.8949,350.7402 250.4824,350.7402 250.4824,351.3071 255.8949,351.3071 255.8949,351.874 250.4824,351.874 250.4824,352.4409 255.8949,352.4409 255.8949,353.0079 250.4824,353.0079 250.4824,353.5748 255.8949,353.5748 255.8949,354.1417 250.4824,354.1417 250.4824,354.7087 255.8949,354.7087 255.8949,355.2756 250.4824,355.2756 250.4824,355.8425 255.8949,355.8425 255.8949,356.4094 250.4824,356.4094 250.4824,356.9764 255.8949,356.9764 255.8949,357.5433 250.4824,357.5433 250.4824,358.1102 255.8949,358.1102 255.8949,358.6772 250.4824,358.6772 250.4824,359.2441 255.8949,359.2441 255.8949,359.811 250.4824,359.811 250.4824,360.378 255.8949,360.378 255.8949,360.9449 250.4824,360.9449 250.4824,361.5118 255.8949,361.5118 255.8949,362.0787 250.4824,362.0787 250.4824,362.6457 255.8949,362.6457 255.8949,363.2126 250.4824,363.2126 250.4824,363.7795 255.8949,363.7795 255.8949,364.3465 250.4824,364.3465 250.4824,364.9134 255.8949,364.9134 255.8949,365.4803 250.4824,365.4803 250.4824,366.0472 255.8949,366.0472 255.8949,366.6142 250.4824,366.6142 250.4824,367.1811 255.8949,367.1811 255.8949,367.748 250.4824,367.748 250.4824,368.315 255.8949,368.315 255.8949,368.8819 250.4824,368.8819 250.4824,369.4488 255.8949,369.4488 255.8949,370.0157 250.4824,370.0157 250.4824,370.5827 255.8949,370.5827 255.8949,371.1496 250.4824,371.1496 250.4824,371.7165 255.8949,371.7165 255.8949,372.2835 250.4824,372.2835 250.4824,372.8504 255.8949,372.8504 255.8949,373.4173 250.4824,373.4173 250.4824,373.9843 255.8949,373.9843 255.8949,374.5512 250.4824,374.5512 250.4824,375.1181 255.8949,375.1181 255.8949,375.685 250.4824,375.685 250.4824,376.252 255.8949,376.252 255.8949,376.8189 250.4824,376.8189 250.4824,377.3858 255.8949,377.3858 255.8949,377.9528 250.4824,377.9528 250.4824,378.5197 255.8949,378.5197 255.8949,379.0866 250.4824,379.0866 250.4824,379.6535 255.8949,379.6535 255.8949,380.2205 250.4824,380.2205 250.4824,380.7874 255.8949,380.7874 255.8949,381.3543 250.4824,381.3543 250.4824,381.9213 255.8949,381.9213 255.8949,382.4882 250.4824,382.4882 250.4824,383.0551 255.8949,383.0551 255.8949,383.622 250.4824,383.622 250.4824,384.189 255.8949,384.189 255.8949,384.7559 250.4824,384.7559 250.4824,385.3228 255.8949,385.3228 255.8949,385.8898 250.4824,385.8898 250.4824,386.4567 255.8949,386.4567 255.8949,387.0236 250.4824,387.0236 250.4824,387.5906 255.8949,387.5906 255.8949,388.1575 250.4824,388.1575 250.4824,388.7244 255.8949,388.7244 255.8949,389.2913 250.4824,389.2913 250.4824,389.8583 255.8949,389.8583 255.8949,390.4252 250.4824,390.4252 250.4824,390.9921 255.8949,390.9921 255.8949,391.5591 250.4824,391.5591 250.4824,392.126 255.8949,392.126 255.8949,392.6929 250.4824,392.6929 250.4824,393.2598 255.8949,393.2598 255.8949,393.8268 250.4824,393.8268 250.4824,394.3937 255.8949,394.3937 255.8949,394.9606 250.4824,394.9606 250.4824,395.5276 255.8949,395.5276 255.8949,396.0945 250.4824,396.0945 250.4824,396.6614 255.8949,396.6614 255.8949,397.2283 250.4824,397.2283 250.4824,397.7953 255.8949,397.7953 255.8949,398.3622 250.4824,398.3622 250.4824,398.9291 255.8949,398.9291 255.8949,399.4961 250.4824,399.4961 250.4824,400.063 255.8949,400.063 255.8949,400.6299 250.4824,400.6299 250.4824,401.1969 255.8949,401.1969 255.8949,401.7638 250.4824,401.7638 250.4824,402.3307 255.8949,402.3307 255.8949,402.8976 250.4824,402.8976 250.4824,403.4646 255.8949,403.4646 255.8949,404.0315 250.4824,404.0315 250.4824,404.5984 255.8949,404.5984 255.8949,405.1654 250.4824,405.1654 250.4824,405.7323 255.8949,405.7323 255.8949,406.2992 250.4824,406.2992 250.4824,406.8661 255.8949,406.8661 255.8949,407.4331 250.4824,407.4331 250.4824,408.0 255.8949,408.0 255.8949,408.5669 250.4824,408.5669 250.4824,409.1339 255.8949,409.1339 255.8949,409.7008 250.4824,409.7008 250.4824,410.2677 255.8949,410.2677 255.8949,410.8346 250.4824,410.8346 250.4824,411.4016 255.8949,411.4016 255.8949,411.9685 250.4824,411.9685 250.4824,412.5354 255.8949,412.5354 255.8949,413.1024 250.4824,413.1024 250.4824,413.6693 255.8949,413.6693 255.8949,414.2362 250.4824,414.2362 250.4824,414.8031 255.8949,414.8031 255.8949,415.3701 250.4824,415.3701 250.4819,415.937 255.8949,415.937 255.8949,416.5039 250.4794,416.5039 250.4745,417.0709 255.8949,417.0709 255.8949,417.6378 250.4673,417.6378 250.4577,418.2047 255.8949,418.2047 255.8949,418.7717 250.4458,418.7717 250.4314,419.3386 255.8949,419.3386 255.8938,419.9055 250.4145,419.9055 250.3951,420.4724 255.8904,420.4724 255.8847,421.0394 250.3732,421.0394 250.3487,421.6063 255.8767,421.6063 255.8663,422.1732 250.3215,422.1732 250.2917,422.7402 255.8534,422.7402 255.838,423.3071 250.2592,423.3071 250.224,423.874 255.8202,423.874 255.7997,424.4409 250.1859,424.4409 250.145,425.0079 255.7768,425.0079 255.7511,425.5748 250.1012,425.5748 250.0545,426.1417 255.7229,426.1417 255.6919,426.7087 250.0047,426.7087 249.952,427.2756 255.6581,427.2756 255.6216,427.8425 249.8961,427.8425 249.8371,428.4094 255.5822,428.4094 255.5399,428.9764 249.7749,428.9764 249.7094,429.5433 255.4946,429.5433 255.4464,430.1102 249.6406,430.1102 249.5684,430.6772 255.3951,430.6772 255.3407,431.2441 249.4928,431.2441 249.4137,431.811 255.2832,431.811 255.2224,432.378 249.3309,432.378 249.2446,432.9449 255.1584,432.9449 255.091,433.5118 249.1545,433.5118 249.0606,434.0787 255.0203,434.0787 254.9461,434.6457 248.9629,434.6457 248.8612,435.2126 254.8683,435.2126 254.787,435.7795 248.7555,435.7795 248.6457,436.3465 254.702,436.3465 254.6132,436.9134 248.5317,436.9134 248.4133,437.4803 254.5207,437.4803 254.4242,438.0472 248.2906,438.0472 248.1634,438.6142 254.3238,438.6142 254.2193,439.1811 248.0317,439.1811 247.8952,439.748 254.1107,439.748 253.9979,440.315 247.7539,440.315 247.6078,440.8819 253.8807,440.8819 253.7591,441.4488 247.4566,441.4488 247.3002,442.0157 253.6329,442.0157 253.5022,442.5827 247.1386,442.5827 246.9715,443.1496 253.3666,443.1496 253.2263,443.7165 246.7989,443.7165 246.6206,444.2835 253.081,444.2835 252.9305,444.8504 246.4365,444.8504 246.2464,445.4173 252.7749,445.4173 252.6139,445.9843 246.05,445.9843 245.8474,446.5512 252.4474,446.5512 252.2753,447.1181 245.6382,447.1181 245.4223,447.685 252.0974,447.685 251.9136,448.252 245.1995,448.252 244.9695,448.8189 251.7236,448.8189 251.5274,449.3858 244.7323,449.3858 244.4874,449.9528 251.3246,449.9528 251.1153,450.5197 244.2348,450.5197 243.974,451.0866 250.8991,451.0866 250.6758,451.6535 243.7049,451.6535 243.4272,452.2205 250.4452,452.2205 250.2072,452.7874 243.1405,452.7874 242.8446,453.3543 249.9613,453.3543 249.7075,453.9213 242.5391,453.9213 242.2236,454.4882 249.4453,454.4882 249.1745,455.0551 241.8978,455.0551 241.5611,455.622 248.8949,455.622 248.606,456.189 241.2133,456.189 240.8538,456.7559 248.3076,456.7559 247.9992,457.3228 240.4821,457.3228 240.0977,457.8898 247.6805,457.8898 247.3511,458.4567 239.6999,458.4567 239.2882,459.0236 247.0105,459.0236 246.6581,459.5906 238.8618,459.5906 238.42,460.1575 246.2936,460.1575 245.9164,460.7244 237.9621,460.7244 237.487,461.2913 245.5258,461.2913 245.1212,461.8583 236.9939,461.8583 236.4817,462.4252 244.7019,462.4252 244.2671,462.9921 235.9493,462.9921 235.3952,463.5591 243.8161,463.5591 243.3479,464.126 234.8181,464.126 234.2164,464.6929 242.8615,464.6929 242.3558,465.2598 233.5882,465.2598 232.9316,465.8268 241.8297,465.8268 241.2817,466.3937 232.2442,466.3937 231.5233,466.9606 240.7105,466.9606 240.1142,467.5276 230.766,467.5276 229.9686,468.0945 239.4912,468.0945 238.8392,468.6614 229.1269,468.6614 228.2362,469.2283 238.1558,469.2283 237.4383,469.7953 227.2903,469.7953 226.2821,470.3622 236.6835,470.3622 235.8877,470.9291 225.2025,470.9291 224.0402,471.4961 235.0465,471.4961 234.1546,472.063 222.7803,472.063 221.4031,472.6299 233.2058,472.6299 232.1923,473.1969 219.8809,473.1969 218.1732,473.7638 231.1044,473.7638 229.9299,474.3307 216.216,474.3307 213.8974,474.8976 228.6526,474.8976 227.2506,475.4646 210.9827,475.4646"/>
    <polyline points="181.5181,474.3307 180.7845,474.3307 182.0819,474.8976 183.8687,474.8976 183.5056,475.4646 186.8225,475.4646 186.8727,476.5984 223.933,476.5984 225.6929,476.0315 206.7545,476.0315"/>
    <polyline points="185.0869,476.0315 191.1053,476.0315 191.428,477.7323 219.4413,477.7323 221.8954,477.1654 188.9396,477.1654"/>
    <line x1="194.6601" x2="216.2523" y1="478.2992" y2="478.2992"/>
    <line x1="211.0489" x2="199.9308" y1="478.8661" y2="478.8661"/>
    <polygon points="219.8324,472.9134 222.4022,471.9164 224.8592,470.7845 227.1099,469.5722 229.2565,468.2359 231.2988,466.7755 233.2367,465.1913 235.0698,463.4833 236.7982,461.6518 238.4216,459.6969 239.94,457.6187 241.3534,455.4176 242.6618,453.0937 243.8652,450.647 244.9637,448.0779 245.9574,445.3863 246.8464,442.5722 247.6308,439.636 248.3106,436.5775 249.1094,431.9359 249.6966,426.9645 250.0556,421.8072 250.197,416.3123 250.1989,79.2756 255.6874,79.2756 255.6874,81.7304 256.1783,81.7304 256.1772,419.9264 256.0429,425.4052 255.6853,430.618 255.1046,435.5647 254.3011,440.2453 253.5798,443.4707 252.7416,446.5564 251.7868,449.5024 250.6929,452.3634 249.5028,455.0274 248.169,457.6011 246.744,459.9836 245.1707,462.2706 243.5108,464.3725 241.698,466.3737 239.8031,468.1959 237.7502,469.9123 235.5758,471.4852 233.3258,472.888 230.9099,474.1769 228.4227,475.3015 225.4972,476.3975 222.4238,477.3205 219.2021,478.0704 215.8936,478.6383 212.3779,479.0446 208.7137,479.2774 204.8354,479.3359 201.0001,479.2168 197.5057,478.9414 194.0859,478.4985 190.8649,477.9043 187.7233,477.137 184.7219,476.2063 181.8606,475.1122 179.139,473.8548 176.5923,472.4553 179.2979,473.3938 182.1641,474.2051 185.1497,474.8736 188.2547,475.3996 191.4788,475.7831 194.8222,476.0243 198.3538,476.1238 201.8528,476.0767 205.1682,475.8897 208.304,475.5708 211.3881,475.107 214.2973,474.5167 217.1501,473.7756"/>
    <polygon points="169.9348,334.8727 168.728,332.5209 167.6466,330.0009 166.7099,327.3729 165.8764,324.52 165.1682,321.4989 164.5966,318.3807 164.1362,315.0268 163.8071,311.5829 163.5821,307.5676 163.5052,303.4398 163.5051,78.9921 170.0514,78.9921 170.0515,307.2193 170.1284,311.3472 170.3535,315.3625 170.6153,318.2058 170.9479,320.8679 171.3572,323.4268 171.8578,325.9495 172.4227,328.2995 173.0833,330.6075 173.825,332.8065 174.6244,334.8417 175.526,336.826 176.4811,338.6522 177.5426,340.4218 178.6853,342.0825 179.9089,343.6343 181.1774,345.0398 182.5225,346.3422 183.9851,347.5734 181.8437,346.6005 179.7625,345.4228 177.8067,344.0768 175.9762,342.5626 174.271,340.8802 172.7241,339.0715 171.2668,337.0562"/>
    <polyline points="169.4845,79.6593 164.072,79.6593 164.072,80.2262 169.4845,80.2262 169.4845,80.7931 164.072,80.7931 164.072,81.36 169.4845,81.36 169.4845,81.927 164.072,81.927 164.072,82.4939 169.4845,82.4939 169.4845,83.0608 164.072,83.0608 164.072,83.6278 169.4845,83.6278 169.4845,84.1947 164.072,84.1947 164.072,84.7616 169.4845,84.7616 169.4845,85.3286 164.072,85.3286 164.072,85.8955 169.4845,85.8955 169.4845,86.4624 164.072,86.4624 164.072,87.0293 169.4845,87.0293 169.4845,87.5963 164.072,87.5963 164.072,88.1632 169.4845,88.1632 169.4845,88.7301 164.072,88.7301 164.072,89.2971 169.4845,89.2971 169.4845,89.864 164.072,89.864 164.072,90.4309 169.4845,90.4309 169.4845,90.9978 164.072,90.9978 164.072,91.5648 169.4845,91.5648 169.4845,92.1317 164.072,92.1317 164.072,92.6986 169.4845,92.6986 169.4845,93.2656 164.072,93.2656 164.072,93.8325 169.4845,93.8325 169.4845,94.3994 164.072,94.3994 164.072,94.9663 169.4845,94.9663 169.4845,95.5333 164.072,95.5333 164.072,96.1002 169.4845,96.1002 169.4845,96.6671 164.072,96.6671 164.072,97.2341 169.4845,97.2341 169.4845,97.801 164.072,97.801 164.072,98.3679 169.4845,98.3679 169.4845,98.9349 164.072,98.9349 164.072,99.5018 169.4845,99.5018 169.4845,100.0687 164.072,100.0687 164.072,100.6356 169.4845,100.6356 169.4845,101.2026 164.072,101.2026 164.072,101.7695 169.4845,101.7695 169.4845,102.3364 164.072,102.3364 164.072,102.9034 169.4845,102.9034 169.4845,103.4703 164.072,103.4703 164.072,104.0372 169.4845,104.0372 169.4845,104.6041 164.072,104.6041 164.072,105.1711 169.4845,105.1711 169.4845,105.738 164.072,105.738 164.072,106.3049 169.4845,106.3049 169.4845,106.8719 164.072,106.8719 164.072,107.4388 169.4845,107.4388 169.4845,108.0057 164.072,108.0057 164.072,108.5726 169.4845,108.5726 169.4845,109.1396 164.072,109.1396 164.072,109.7065 169.4845,109.7065 169.4845,110.2734 164.072,110.2734 164.072,110.8404 169.4845,110.8404 169.4845,111.4073 164.072,111.4073 164.072,111.9742 169.4845,111.9742 169.4845,112.5412 164.072,112.5412 164.072,113.1081 169.4845,113.1081 169.4845,113.675 164.072,113.675 164.072,114.2419 169.4845,114.2419 169.4845,114.8089 164.072,114.8089 164.072,115.3758 169.4845,115.3758 169.4845,115.9427 164.072,115.9427 164.072,116.5097 169.4845,116.5097 169.4845,117.0766 164.072,117.0766 164.072,117.6435 169.4845,117.6435 169.4845,118.2104 164.072,118.2104 164.072,118.7774 169.4845,118.7774 169.4845,119.3443 164.072,119.3443 164.072,119.9112 169.4845,119.9112 169.4845,120.4782 164.072,120.4782 164.072,121.0451 169.4845,121.0451 169.4845,121.612 164.072,121.612 164.072,122.1789 169.4845,122.1789 169.4845,122.7459 164.072,122.7459 164.072,123.3128 169.4845,123.3128 169.4845,123.8797 164.072,123.8797 164.072,124.4467 169.4845,124.4467 169.4845,125.0136 164.072,125.0136 164.072,125.5805 169.4845,125.5805 169.4845,126.1475 164.072,126.1475 164.072,126.7144 169.4845,126.7144 169.4845,127.2813 164.072,127.2813 164.072,127.8482 169.4845,127.8482 169.4845,128.4152 164.072,128.4152 164.072,128.9821 169.4845,128.9821 169.4845,129.549 164.072,129.549 164.072,130.116 169.4845,130.116 169.4845,130.6829 164.072,130.6829 164.072,131.2498 169.4845,131.2498 169.4845,131.8167 164.072,131.8167 164.072,132.3837 169.4845,132.3837 169.4845,132.9506 164.072,132.9506 164.072,133.5175 169.4845,133.5175 169.4845,134.0845 164.072,134.0845 164.072,134.6514 169.4845,134.6514 169.4845,135.2183 164.072,135.2183 164.072,135.7852 169.4845,135.7852 169.4845,136.3522 164.072,136.3522 164.072,136.9191 169.4845,136.9191 169.4845,137.486 164.072,137.486 164.072,138.053 169.4845,138.053 169.4845,138.6199 164.072,138.6199 164.072,139.1868 169.4845,139.1868 169.4845,139.7537 164.072,139.7537 164.072,140.3207 169.4845,140.3207 169.4845,140.8876 164.072,140.8876 164.072,141.4545 169.4845,141.4545 169.4845,142.0215 164.072,142.0215 164.072,142.5884 169.4845,142.5884 169.4845,143.1553 164.072,143.1553 164.072,143.7223 169.4845,143.7223 169.4845,144.2892 164.072,144.2892 164.072,144.8561 169.4845,144.8561 169.4845,145.423 164.072,145.423 164.072,145.99 169.4845,145.99 169.4845,146.5569 164.072,146.5569 164.072,147.1238 169.4845,147.1238 169.4845,147.6908 164.072,147.6908 164.072,148.2577 169.4845,148.2577 169.4845,148.8246 164.072,148.8246 164.072,149.3915 169.4845,149.3915 169.4845,149.9585 164.072,149.9585 164.072,150.5254 169.4845,150.5254 169.4845,151.0923 164.072,151.0923 164.072,151.6593 169.4845,151.6593 169.4845,152.2262 164.072,152.2262 164.072,152.7931 169.4845,152.7931 169.4845,153.36 164.072,153.36 164.072,153.927 169.4845,153.927 169.4845,154.4939 164.072,154.4939 164.072,155.0608 169.4845,155.0608 169.4845,155.6278 164.072,155.6278 164.072,156.1947 169.4845,156.1947 169.4845,156.7616 164.072,156.7616 164.072,157.3286 169.4845,157.3286 169.4845,157.8955 164.072,157.8955 164.072,158.4624 169.4845,158.4624 169.4845,159.0293 164.072,159.0293 164.072,159.5963 169.4845,159.5963 169.4845,160.1632 164.072,160.1632 164.072,160.7301 169.4845,160.7301 169.4845,161.2971 164.072,161.2971 164.072,161.864 169.4845,161.864 169.4845,162.4309 164.072,162.4309 164.072,162.9978 169.4845,162.9978 169.4845,163.5648 164.072,163.5648 164.072,164.1317 169.4845,164.1317 169.4845,164.6986 164.072,164.6986 164.072,165.2656 169.4845,165.2656 169.4845,165.8325 164.072,165.8325 164.072,166.3994 169.4845,166.3994 169.4845,166.9663 164.072,166.9663 164.072,167.5333 169.4845,167.5333 169.4845,168.1002 164.072,168.1002 164.072,168.6671 169.4845,168.6671 169.4845,169.2341 164.072,169.2341 164.072,169.801 169.4845,169.801 169.4845,170.3679 164.072,170.3679 164.072,170.9349 169.4845,170.9349 169.4845,171.5018 164.072,171.5018 164.072,172.0687 169.4845,172.0687 169.4845,172.6356 164.072,172.6356 164.072,173.2026 169.4845,173.2026 169.4845,173.7695 164.072,173.7695 164.072,174.3364 169.4845,174.3364 169.4845,174.9034 164.072,174.9034 164.072,175.4703 169.4845,175.4703 169.4845,176.0372 164.072,176.0372 164.072,176.6041 169.4845,176.6041 169.4845,177.1711 164.072,177.1711 164.072,177.738 169.4845,177.738 169.4845,178.3049 164.072,178.3049 164.072,178.8719 169.4845,178.8719 169.4845,179.4388 164.072,179.4388 164.072,180.0057 169.4845,180.0057 169.4845,180.5726 164.072,180.5726 164.072,181.1396 169.4845,181.1396 169.4845,181.7065 164.072,181.7065 164.072,182.2734 169.4845,182.2734 169.4845,182.8404 164.072,182.8404 164.072,183.4073 169.4845,183.4073 169.4845,183.9742 164.072,183.9742 164.072,184.5412 169.4845,184.5412 169.4845,185.1081 164.072,185.1081 164.072,185.675 169.4845,185.675 169.4845,186.2419 164.072,186.2419 164.072,186.8089 169.4845,186.8089 169.4845,187.3758 164.072,187.3758 164.072,187.9427 169.4845,187.9427 169.4845,188.5097 164.072,188.5097 164.072,189.0766 169.4845,189.0766 169.4845,189.6435 164.072,189.6435 164.072,190.2104 169.4845,190.2104 169.4845,190.7774 164.072,190.7774 164.072,191.3443 169.4845,191.3443 169.4845,191.9112 164.072,191.9112 164.072,192.4782 169.4845,192.4782 169.4845,193.0451 164.072,193.0451 164.072,193.612 169.4845,193.612 169.4845,194.1789 164.072,194.1789 164.072,194.7459 169.4845,194.7459 169.4845,195.3128 164.072,195.3128 164.072,195.8797 169.4845,195.8797 169.4845,196.4467 164.072,196.4467 164.072,197.0136 169.4845,197.0136 169.4845,197.5805 164.072,197.5805 164.072,198.1475 169.4845,198.1475 169.4845,198.7144 164.072,198.7144 164.072,199.2813 169.4845,199.2813 169.4845,199.8482 164.072,199.8482 164.072,200.4152 169.4845,200.4152 169.4845,200.9821 164.072,200.9821 164.072,201.549 169.4845,201.549 169.4845,202.116 164.072,202.116 164.072,202.6829 169.4845,202.6829 169.4845,203.2498 164.072,203.2498 164.072,203.8167 169.4845,203.8167 169.4845,204.3837 164.072,204.3837 164.072,204.9506 169.4845,204.9506 169.4845,205.5175 164.072,205.5175 164.072,206.0845 169.4845,206.0845 169.4845,206.6514 164.072,206.6514 164.072,207.2183 169.4845,207.2183 169.4845,207.7852 164.072,207.7852 164.072,208.3522 169.4845,208.3522 169.4845,208.9191 164.072,208.9191 164.072,209.486 169.4845,209.486 169.4845,210.053 164.072,210.053 164.072,210.6199 169.4845,210.6199 169.4845,211.1868 164.072,211.1868 164.072,211.7537 169.4845,211.7537 169.4845,212.3207 164.072,212.3207 164.072,212.8876 169.4845,212.8876 169.4845,213.4545 164.072,213.4545 164.072,214.0215 169.4845,214.0215 169.4845,214.5884 164.072,214.5884 164.072,215.1553 169.4845,215.1553 169.4845,215.7223 164.072,215.7223 164.072,216.2892 169.4845,216.2892 169.4845,216.8561 164.072,216.8561 164.072,217.423 169.4845,217.423 169.4845,217.99 164.072,217.99 164.072,218.5569 169.4845,218.5569 169.4845,219.1238 164.072,219.1238 164.072,219.6908 169.4845,219.6908 169.4845,220.2577 164.072,220.2577 164.072,220.8246 169.4845,220.8246 169.4845,221.3915 164.072,221.3915 164.072,221.9585 169.4845,221.9585 169.4845,222.5254 164.072,222.5254 164.072,223.0923 169.4845,223.0923 169.4845,223.6593 164.072,223.6593 164.072,224.2262 169.4845,224.2262 169.4845,224.7931 164.072,224.7931 164.072,225.36 169.4845,225.36 169.4845,225.927 164.072,225.927 164.072,226.4939 169.4845,226.4939 169.4845,227.0608 164.072,227.0608 164.072,227.6278 169.4845,227.6278 169.4845,228.1947 164.072,228.1947 164.072,228.7616 169.4845,228.7616 169.4845,229.3286 164.072,229.3286 164.072,229.8955 169.4845,229.8955 169.4845,230.4624 164.072,230.4624 164.072,231.0293 169.4845,231.0293 169.4845,231.5963 164.072,231.5963 164.072,232.1632 169.4845,232.1632 169.4845,232.7301 164.072,232.7301 164.072,233.2971 169.4845,233.2971 169.4845,233.864 164.072,233.864 164.072,234.4309 169.4845,234.4309 169.4845,234.9978 164.072,234.9978 164.072,235.5648 169.4845,235.5648 169.4845,236.1317 164.072,236.1317 164.072,236.6986 169.4845,236.6986 169.4845,237.2656 164.072,237.2656 164.072,237.8325 169.4845,237.8325 169.4845,238.3994 164.072,238.3994 164.072,238.9663 169.4845,238.9663 169.4845,239.5333 164.072,239.5333 164.072,240.1002 169.4845,240.1002 169.4845,240.6671 164.072,240.6671 164.072,241.2341 169.4845,241.2341 169.4845,241.801 164.072,241.801 164.072,242.3679 169.4845,242.3679 169.4845,242.9349 164.072,242.9349 164.072,243.5018 169.4845,243.5018 169.4845,244.0687 164.072,244.0687 164.072,244.6356 169.4845,244.6356 169.4845,245.2026 164.072,245.2026 164.072,245.7695 169.4845,245.7695 169.4845,246.3364 164.072,246.3364 164.072,246.9034 169.4845,246.9034 169.4845,247.4703 164.072,247.4703 164.072,248.0372 169.4845,248.0372 169.4845,248.6041 164.072,248.6041 164.072,249.1711 169.4845,249.1711 169.4845,249.738 164.072,249.738 164.072,250.3049 169.4845,250.3049 169.4845,250.8719 164.072,250.8719 164.072,251.4388 169.4845,251.4388 169.4845,252.0057 164.072,252.0057 164.072,252.5726 169.4845,252.5726 169.4845,253.1396 164.072,253.1396 164.072,253.7065 169.4845,253.7065 169.4845,254.2734 164.072,254.2734 164.072,254.8404 169.4845,254.8404 169.4845,255.4073 164.072,255.4073 164.072,255.9742 169.4845,255.9742 169.4845,256.5412 164.072,256.5412 164.072,257.1081 169.4845,257.1081 169.4845,257.675 164.072,257.675 164.072,258.2419 169.4845,258.2419 169.4845,258.8089 164.072,258.8089 164.072,259.3758 169.4845,259.3758 169.4845,259.9427 164.072,259.9427 164.072,260.5097 169.4845,260.5097 169.4845,261.0766 164.072,261.0766 164.072,261.6435 169.4845,261.6435 169.4845,262.2104 164.072,262.2104 164.072,262.7774 169.4845,262.7774 169.4845,263.3443 164.072,263.3443 164.072,263.9112 169.4845,263.9112 169.4845,264.4782 164.072,264.4782 164.072,265.0451 169.4845,265.0451 169.4845,265.612 164.072,265.612 164.072,266.1789 169.4845,266.1789 169.4845,266.7459 164.072,266.7459 164.072,267.3128 169.4845,267.3128 169.4845,267.8797 164.072,267.8797 164.072,268.4467 169.4845,268.4467 169.4845,269.0136 164.072,269.0136 164.072,269.5805 169.4845,269.5805 169.4845,270.1475 164.072,270.1475 164.072,270.7144 169.4845,270.7144 169.4845,271.2813 164.072,271.2813 164.072,271.8482 169.4845,271.8482 169.4845,272.4152 164.072,272.4152 164.072,272.9821 169.4845,272.9821 169.4845,273.549 164.072,273.549 164.072,274.116 169.4845,274.116 169.4845,274.6829 164.072,274.6829 164.072,275.2498 169.4845,275.2498 169.4845,275.8167 164.072,275.8167 164.072,276.3837 169.4845,276.3837 169.4845,276.9506 164.072,276.9506 164.072,277.5175 169.4845,277.5175 169.4845,278.0845 164.072,278.0845 164.072,278.6514 169.4845,278.6514 169.4845,279.2183 164.072,279.2183 164.072,279.7852 169.4845,279.7852 169.4845,280.3522 164.072,280.3522 164.072,280.9191 169.4845,280.9191 169.4845,281.486 164.072,281.486 164.072,282.053 169.4845,282.053 169.4845,282.6199 164.072,282.6199 164.072,283.1868 169.4845,283.1868 169.4845,283.7537 164.072,283.7537 164.072,284.3207 169.4845,284.3207 169.4845,284.8876 164.072,284.8876 164.072,285.4545 169.4845,285.4545 169.4845,286.0215 164.072,286.0215 164.072,286.5884 169.4845,286.5884 169.4845,287.1553 164.072,287.1553 164.072,287.7223 169.4845,287.7223 169.4845,288.2892 164.072,288.2892 164.072,288.8561 169.4845,288.8561 169.4845,289.423 164.072,289.423 164.072,289.99 169.4845,289.99 169.4845,290.5569 164.072,290.5569 164.072,291.1238 169.4845,291.1238 169.4845,291.6908 164.072,291.6908 164.072,292.2577 169.4845,292.2577 169.4845,292.8246 164.072,292.8246 164.072,293.3915 169.4845,293.3915 169.4845,293.9585 164.072,293.9585 164.072,294.5254 169.4845,294.5254 169.4845,295.0923 164.072,295.0923 164.072,295.6593 169.4845,295.6593 169.4845,296.2262 164.072,296.2262 164.072,296.7931 169.4845,296.7931 169.4845,297.36 164.072,297.36 164.072,297.927 169.4845,297.927 169.4845,298.4939 164.072,298.4939 164.072,299.0608 169.4845,299.0608 169.4845,299.6278 164.072,299.6278 164.072,300.1947 169.4845,300.1947 169.4845,300.7616 164.072,300.7616 164.072,301.3286 169.4845,301.3286 169.4845,301.8955 164.072,301.8955 164.072,302.4624 169.4845,302.4624 169.4845,303.0293 164.072,303.0293 164.0725,303.5963 169.4845,303.5963 169.4845,304.1632 164.0753,304.1632 164.0807,304.7301 169.4845,304.7301 169.4845,305.2971 164.0888,305.2971 164.0997,305.864 169.4845,305.864 169.4845,306.4309 164.1134,306.4309 164.1299,306.9978 169.4845,306.9978 169.4856,307.5648 164.1493,307.5648 164.1717,308.1317 169.4892,308.1317 169.4955,308.6986 164.1971,308.6986 164.2256,309.2656 169.5044,309.2656 169.5161,309.8325 164.2573,309.8325 164.2922,310.3994 169.5306,310.3994 169.5479,310.9663 164.3304,310.9663 164.3719,311.5333 169.5681,311.5333 169.5912,312.1002 164.4169,312.1002 164.4654,312.6671 169.6174,312.6671 169.6466,313.2341 164.5175,313.2341 164.5733,313.801 169.679,313.801 169.7146,314.3679 164.6329,314.3679 164.6963,314.9349 169.7534,314.9349 169.7956,315.5018 164.7637,315.5018 164.8351,316.0687 169.8412,316.0687 169.8903,316.6356 164.9108,316.6356 164.9906,317.2026 169.9429,317.2026 169.9992,317.7695 165.0749,317.7695 165.1637,318.3364 170.0592,318.3364 170.1231,318.9034 165.257,318.9034 165.3552,319.4703 170.1909,319.4703 170.2627,320.0372 165.4582,320.0372 165.5662,320.6041 170.3385,320.6041 170.4187,321.1711 165.6794,321.1711 165.798,321.738 170.5031,321.738 170.592,322.3049 165.922,322.3049 166.0518,322.8719 170.6854,322.8719 170.7835,323.4388 166.1873,323.4388 166.3289,324.0057 170.8864,324.0057 170.9942,324.5726 166.4767,324.5726 166.631,325.1396 171.1071,325.1396 171.2253,325.7065 166.792,325.7065 166.9599,326.2734 171.3488,326.2734 171.4779,326.8404 167.135,326.8404 167.3175,327.4073 171.6127,327.4073 171.7533,327.9742 167.5078,327.9742 167.706,328.5412 171.9001,328.5412 172.0532,329.1081 167.9127,329.1081 168.1281,329.675 172.2128,329.675 172.379,330.2419 168.3526,330.2419 168.5866,330.8089 172.5523,330.8089 172.7327,331.3758 168.8305,331.3758 169.0848,331.9427 172.9207,331.9427 173.1164,332.5097 169.35,332.5097 169.6267,333.0766 173.3201,333.0766 173.5322,333.6435 169.9155,333.6435 170.2169,334.2104 173.7531,334.2104 173.9831,334.7774 170.5318,334.7774 170.8609,335.3443 174.2225,335.3443 174.4718,335.9112 171.2051,335.9112 171.5653,336.4782 174.7316,336.4782 175.0021,337.0451 171.9425,337.0451 172.3381,337.612 175.2841,337.612 175.578,338.1789 172.7531,338.1789 173.1893,338.7459 175.8845,338.7459 176.2043,339.3128 173.6482,339.3128 174.1317,339.8797 176.5381,339.8797 176.8867,340.4467 174.6422,340.4467 175.182,341.0136 177.2511,341.0136 177.6323,341.5805 175.7542,341.5805 176.3623,342.1475 178.0312,342.1475 178.4493,342.7144 177.0106,342.7144 177.7041,343.2813 178.8878,343.2813 178.4491,343.8482 179.3485,343.8482 179.2535,344.4152 179.8329,344.4152 180.1273,344.9821 180.3431,344.9821"/>
    <polygon points="163.7886,79.2756 169.768,79.2756 169.7681,307.2198 169.8335,311.027 170.0192,314.674 170.2469,317.3998 170.5474,320.0288 170.9208,322.5609 171.3535,324.9279 171.8709,327.2692 172.4614,329.5137 173.1252,331.6615 173.8403,333.6552 174.6488,335.612 175.5308,337.4719 176.4865,339.2347 177.4855,340.8541 178.5866,342.4252 179.7269,343.858 180.9734,345.2366 182.2742,346.4996 180.306,345.4236 178.4291,344.1843 176.6657,342.7927 175.0154,341.2485 173.478,339.5514 172.0533,337.7008 170.7412,335.6963 169.5419,333.5377 168.4555,331.2245 167.4822,328.7567 166.6222,326.1341 165.8913,323.4214 165.2559,320.4925 164.7342,317.4087 164.3266,314.17 164.0385,310.8554 163.8538,307.2283 163.7887,303.4394"/>
    <polygon points="184.1929,361.3391 188.2049,362.0201 192.422,362.4607 196.8442,362.661 201.6485,362.6215 206.3443,362.3469 210.6124,361.8657 214.6061,361.1831 218.3939,360.2933 221.9756,359.1962 225.4034,357.8695 228.5699,356.3546 231.5305,354.6325 234.3272,352.6709 234.3272,360.5407 232.0016,361.6266 229.616,362.5841 227.0687,363.4536 224.4706,364.1973 221.7674,364.8352 218.8955,365.378 215.9138,365.8104 212.8907,366.1264 209.9743,366.326 206.9663,366.4334 203.8716,366.4477 201.0199,366.3643 198.2512,366.1835 195.5657,365.9054 192.9631,365.53 190.5027,365.0696 188.0643,364.5019 185.709,363.8368 183.4899,363.0936 181.2987,362.2362 179.1906,361.2814 177.1655,360.2293 175.2235,359.0798 173.4079,357.8639 176.7843,359.2561 180.3861,360.4178"/>
    <polyline points="233.0261,354.3199 233.7603,354.3199 233.7603,354.8869 232.1816,354.8869 231.2886,355.4538 233.7603,355.4538 233.7603,356.0207 230.3418,356.0207 229.3346,356.5877 233.7603,356.5877 233.7603,357.1546 228.2591,357.1546 227.1055,357.7215 233.7603,357.7215 233.7603,358.2885 225.8616,358.2885 224.5111,358.8554 233.7603,358.8554 233.7603,359.4223 223.0327,359.4223 221.3965,359.9892 233.7603,359.9892 232.9971,360.5562 219.5591,360.5562 217.4523,361.1231 231.7375,361.1231 230.3656,361.69 214.9573,361.69"/>
    <polyline points="180.1808,361.1231 180.8129,361.1231 181.4627,361.69 183.1227,361.69 182.8688,362.257 186.0102,362.257 186.1903,363.3908 225.283,363.3908 227.18,362.8239 207.3539,362.8239"/>
    <line x1="211.8301" x2="228.8575" y1="362.257" y2="362.257"/>
    <polyline points="184.4295,362.8239 190.1297,362.8239 190.6664,364.5247 220.4428,364.5247 223.0861,363.9577 188.2248,363.9577"/>
    <line x1="217.0243" x2="193.8154" y1="365.0916" y2="365.0916"/>
    <line x1="198.7941" x2="211.6003" y1="365.6585" y2="365.6585"/>
    <polygon points="214.4194,365.6962 211.701,365.9356 208.8991,366.0917 206.0137,366.1646 203.1226,366.1519 200.5014,366.0543 197.8878,365.8674 195.4126,365.6006 192.9488,365.2403 190.6196,364.8045 188.3054,364.2709 186.1221,363.6663 183.9575,362.9598 181.9197,362.1866 179.9043,361.3073 178.0119,360.3657 176.1747,359.3312 179.5238,360.4631 183.0722,361.3882 186.739,362.09 190.6443,362.5916 194.7293,362.8801 199.0311,362.9557 203.5841,362.8221 207.9323,362.4805 211.8832,361.9616 215.587,361.267 219.1111,360.3894 222.4555,359.3287 225.62,358.0846 228.6044,356.6569 231.4082,355.0456 234.0438,353.2411 234.0438,360.3655 231.8889,361.3665 229.6788,362.2581 227.3767,363.0585 224.9827,363.7676 222.4364,364.3989 219.8561,364.9229 217.1838,365.3553"/>
    <polygon points="175.5764,453.2514 176.2868,454.4105 177.8879,456.6093 179.699,458.5991 181.7201,460.38 180.2115,459.7127 178.7237,458.9491 177.3095,458.1122 176.0139,457.2347 174.7442,456.254 173.5481,455.2 172.4255,454.0729 171.4114,452.9151 170.4659,451.6891 169.5889,450.3948 168.8331,449.1198 168.1537,447.7767 167.5037,446.2726 166.9182,444.6889 166.3647,442.9376 165.8601,441.061 165.0604,437.2855 164.4342,433.1515 163.9684,428.6067 163.663,423.651 163.5069,416.8576 163.5051,386.7677 170.0514,386.7677 170.0517,420.1271 170.1075,424.4373 170.2638,428.5757 170.5263,432.5278 170.8853,436.1472 171.3543,439.5705 172.0452,443.2821 172.8683,446.5697 173.8332,449.4939 174.9587,452.0926"/>
    <polyline points="169.4845,387.4655 164.072,387.4655 164.072,388.0325 169.4845,388.0325 169.4845,388.5994 164.072,388.5994 164.072,389.1663 169.4845,389.1663 169.4845,389.7332 164.072,389.7332 164.072,390.3002 169.4845,390.3002 169.4845,390.8671 164.072,390.8671 164.072,391.434 169.4845,391.434 169.4845,392.001 164.072,392.001 164.072,392.5679 169.4845,392.5679 169.4845,393.1348 164.072,393.1348 164.072,393.7018 169.4845,393.7018 169.4845,394.2687 164.072,394.2687 164.072,394.8356 169.4845,394.8356 169.4845,395.4025 164.072,395.4025 164.072,395.9695 169.4845,395.9695 169.4845,396.5364 164.072,396.5364 164.072,397.1033 169.4845,397.1033 169.4845,397.6703 164.072,397.6703 164.072,398.2372 169.4845,398.2372 169.4845,398.8041 164.072,398.8041 164.072,399.371 169.4845,399.371 169.4845,399.938 164.072,399.938 164.072,400.5049 169.4845,400.5049 169.4845,401.0718 164.072,401.0718 164.072,401.6388 169.4845,401.6388 169.4845,402.2057 164.072,402.2057 164.072,402.7726 169.4845,402.7726 169.4845,403.3395 164.072,403.3395 164.072,403.9065 169.4845,403.9065 169.4845,404.4734 164.072,404.4734 164.072,405.0403 169.4845,405.0403 169.4845,405.6073 164.072,405.6073 164.072,406.1742 169.4845,406.1742 169.4845,406.7411 164.072,406.7411 164.072,407.3081 169.4845,407.3081 169.4845,407.875 164.072,407.875 164.072,408.4419 169.4845,408.4419 169.4845,409.0088 164.072,409.0088 164.072,409.5758 169.4845,409.5758 169.4845,410.1427 164.072,410.1427 164.072,410.7096 169.4845,410.7096 169.4845,411.2766 164.072,411.2766 164.072,411.8435 169.4845,411.8435 169.4845,412.4104 164.072,412.4104 164.072,412.9773 169.4845,412.9773 169.4845,413.5443 164.072,413.5443 164.072,414.1112 169.4845,414.1112 169.4845,414.6781 164.072,414.6781 164.072,415.2451 169.4845,415.2451 169.4845,415.812 164.072,415.812 164.0724,416.3789 169.4845,416.3789 169.4845,416.9458 164.0742,416.9458 164.0777,417.5128 169.4845,417.5128 169.4845,418.0797 164.0828,418.0797 164.0897,418.6466 169.4845,418.6466 169.4845,419.2136 164.0982,419.2136 164.1086,419.7805 169.4845,419.7805 169.4853,420.3474 164.1208,420.3474 164.1348,420.9143 169.4876,420.9143 169.4916,421.4813 164.1508,421.4813 164.1687,422.0482 169.4973,422.0482 169.5047,422.6151 164.1887,422.6151 164.2107,423.1821 169.5138,423.1821 169.5247,423.749 164.2348,423.749 164.2611,424.3159 169.5374,424.3159 169.552,424.8829 164.2896,424.8829 164.3204,425.4498 169.5685,425.4498 169.587,426.0167 164.3536,426.0167 164.3892,426.5836 169.6074,426.5836 169.63,427.1506 164.4273,427.1506 164.468,427.7175 169.6546,427.7175 169.6815,428.2844 164.5113,428.2844 164.5574,428.8514 169.7105,428.8514 169.7418,429.4183 164.6063,429.4183 164.6581,429.9852 169.7755,429.9852 169.8116,430.5521 164.7128,430.5521 164.7707,431.1191 169.8503,431.1191 169.8914,431.686 164.8319,431.686 164.8963,432.2529 169.9352,432.2529 169.9818,432.8199 164.9642,432.8199 165.0357,433.3868 170.0311,433.3868 170.0833,433.9537 165.1109,433.9537 165.19,434.5206 170.1385,434.5206 170.1969,435.0876 165.2731,435.0876 165.3604,435.6545 170.2584,435.6545 170.3232,436.2214 165.452,436.2214 165.5483,436.7884 170.3914,436.7884 170.4632,437.3553 165.6492,437.3553 165.7552,437.9222 170.5387,437.9222 170.618,438.4892 165.8664,438.4892 165.9831,439.0561 170.7012,439.0561 170.7887,439.623 166.1056,439.623 166.2342,440.1899 170.8804,440.1899 170.9766,440.7569 166.3692,440.7569 166.5109,441.3238 171.0775,441.3238 171.1833,441.8907 166.6599,441.8907 166.8166,442.4577 171.2942,442.4577 171.4105,443.0246 166.9814,443.0246 167.1549,443.5915 171.5325,443.5915 171.6604,444.1584 167.3378,444.1584 167.5307,444.7254 171.7946,444.7254 171.9353,445.2923 167.7344,445.2923 167.9499,445.8592 172.083,445.8592 172.2381,446.4262 168.1782,446.4262 168.4205,446.9931 172.4011,446.9931 172.5724,447.56 168.6783,447.56 168.9531,448.1269 172.7527,448.1269 172.9425,448.6939 169.2471,448.6939 169.5626,449.2608 173.1425,449.2608 173.3536,449.8277 169.9027,449.8277 170.2632,450.3947 173.5767,450.3947 173.8127,450.9616 170.6453,450.9616 171.0505,451.5285 174.0629,451.5285 174.3287,452.0955 171.4808,452.0955 171.9381,452.6624 174.6117,452.6624 174.9139,453.2293 172.4248,453.2293 172.9435,453.7962 175.238,453.7962 175.584,454.3632 173.4973,454.3632 174.0899,454.9301 175.9497,454.9301 176.3364,455.497 174.7257,455.497 175.4097,456.064 176.7456,456.064 177.179,456.6309 176.1483,456.6309 176.9493,457.1978 177.6384,457.1978 177.8225,457.7647 178.126,457.7647"/>
    <polygon points="163.9205,423.0207 163.79,416.7717 163.7886,387.0512 169.768,387.0512 169.7681,420.0422 169.8127,423.9589 169.947,427.9044 170.1709,431.622 170.4845,435.1117 170.8878,438.3738 171.5018,442.0457 172.2502,445.3793 173.1336,448.3755 174.1532,451.0346 175.2701,453.2861 176.6516,455.452 178.243,457.4688 180.0362,459.313 178.6632,458.5909 177.3208,457.783 176.091,456.9404 174.8827,456.0006 173.7423,454.9936 172.6698,453.9191 171.665,452.7771 170.7601,451.6118 169.948,450.43 169.198,449.1933 168.5375,447.924 167.9362,446.5824 167.3431,445.0453 166.8098,443.4361 165.8721,439.878 165.166,436.2293 164.6052,432.2032 164.1899,427.8002"/>
  </g>
</svg>
